<svg width="356" height="356" viewBox="0 0 356 356" fill="none" xmlns="http://www.w3.org/2000/svg">
<path d="M178 353C274.65 353 353 274.65 353 178C353 81.3502 274.65 3 178 3C81.3502 3 3 81.3502 3 178C3 274.65 81.3502 353 178 353Z" fill="#061635" stroke="#EED605" stroke-width="6" stroke-miterlimit="10"/>
<g filter="url(#filter0_i_1_3)">
<path d="M262.993 314.137L264.686 316.732L273.045 312.078L275.11 315.244L262.699 322.153L253.409 307.909L265.597 301.124L267.62 304.226L259.483 308.756L261.031 311.13L268.175 307.153L270.157 310.192L262.993 314.137Z" fill="#BEC1C6"/>
</g>
<path d="M262.722 313.717L262.281 313.959L262.556 314.38L264.249 316.975L264.522 317.394L264.959 317.151L272.881 312.74L274.4 315.068L262.862 321.491L254.119 308.085L265.433 301.786L266.91 304.05L259.21 308.337L258.773 308.58L259.046 308.999L260.595 311.373L260.868 311.792L261.305 311.549L268.011 307.815L269.445 310.014L262.722 313.717Z" stroke="#EED605"/>
<g filter="url(#filter1_i_1_3)">
<path d="M255.399 326.195C253.809 327.197 251.897 327.669 249.977 327.53C249.133 327.413 248.328 327.125 247.618 326.686C246.908 326.248 246.312 325.67 245.872 324.994L249.666 322.882C250.602 324.119 251.919 324.26 253.632 323.306C255.114 322.481 255.578 321.618 254.99 320.716C254.893 320.564 254.76 320.434 254.601 320.336C254.442 320.237 254.261 320.174 254.071 320.149C253.5 320.129 252.93 320.209 252.391 320.383L249.109 321.348C246.24 322.212 244.153 321.626 242.837 319.608C242.443 319.042 242.19 318.402 242.096 317.734C242.002 317.067 242.069 316.388 242.292 315.748C242.967 314.18 244.237 312.894 245.864 312.13C247.349 311.191 249.132 310.741 250.928 310.854C251.696 310.94 252.433 311.183 253.087 311.565C253.74 311.948 254.293 312.461 254.705 313.066L250.996 315.13C250.142 314.16 249.031 314.067 247.643 314.84C247.128 315.093 246.708 315.485 246.438 315.964C246.336 316.146 246.287 316.35 246.296 316.554C246.304 316.759 246.371 316.959 246.488 317.133C246.86 317.703 247.581 317.841 248.653 317.535L252.061 316.512C255.156 315.601 257.39 316.198 258.763 318.303C259.203 318.913 259.475 319.613 259.556 320.342C259.637 321.072 259.525 321.808 259.228 322.488C258.435 324.084 257.087 325.388 255.399 326.195Z" fill="#BEC1C6"/>
</g>
<path d="M255.154 325.761L255.127 325.774L255.103 325.79C253.61 326.731 251.816 327.174 250.018 327.049C249.256 326.94 248.53 326.679 247.891 326.284C247.394 325.978 246.96 325.596 246.604 325.157L249.557 323.514C250.041 324.013 250.628 324.323 251.316 324.397C252.131 324.484 253.001 324.228 253.905 323.725C254.677 323.295 255.26 322.817 255.55 322.267C255.861 321.678 255.809 321.06 255.428 320.475C255.289 320.258 255.1 320.073 254.874 319.933C254.647 319.794 254.391 319.704 254.125 319.669L254.099 319.666L254.073 319.665C253.441 319.643 252.812 319.731 252.216 319.923L248.941 320.885L248.941 320.885L248.937 320.886C247.562 321.3 246.434 321.348 245.522 321.094C244.623 320.844 243.874 320.285 243.274 319.365L243.27 319.358L243.266 319.352C242.916 318.849 242.69 318.28 242.607 317.686C242.523 317.097 242.581 316.496 242.777 315.927C243.408 314.473 244.59 313.277 246.106 312.565L246.135 312.552L246.161 312.535C247.551 311.655 249.22 311.234 250.897 311.336C251.584 311.415 252.243 311.633 252.825 311.974C253.257 312.227 253.64 312.544 253.959 312.91L251.076 314.515C250.639 314.133 250.129 313.899 249.55 313.849C248.849 313.789 248.121 314.005 247.381 314.415C246.784 314.712 246.295 315.168 245.981 315.726L245.98 315.727C245.838 315.981 245.768 316.268 245.781 316.558C245.793 316.848 245.887 317.131 246.054 317.379C246.321 317.787 246.724 318.044 247.223 318.137C247.7 318.226 248.24 318.163 248.818 317.999L248.818 317.999L248.825 317.997L252.229 316.974C252.23 316.974 252.23 316.974 252.231 316.974C253.721 316.535 254.946 316.478 255.932 316.742C256.904 317.002 257.701 317.587 258.326 318.546L258.333 318.556L258.34 318.566C258.73 319.107 258.972 319.728 259.044 320.377C259.116 321.022 259.017 321.676 258.755 322.282C258.008 323.778 256.741 325.003 255.154 325.761Z" stroke="#EED605"/>
<g filter="url(#filter2_i_1_3)">
<path d="M298.358 79.1393L306.75 72.878L309.53 76.6049L295.104 87.3693L292.281 83.5863L296.887 72.3517L288.544 78.5771L285.751 74.8341L300.177 64.0697L302.97 67.8126L298.358 79.1393Z" fill="#BEC1C6"/>
</g>
<path d="M297.895 78.9507L297.218 80.614L298.657 79.54L306.648 73.5778L308.831 76.5031L295.206 86.6695L292.851 83.5141L297.35 72.5413L298.034 70.872L296.588 71.9509L288.645 77.8773L286.45 74.9359L300.076 64.7695L302.401 67.8855L297.895 78.9507Z" stroke="#EED605"/>
<g filter="url(#filter3_i_1_3)">
<path d="M180.99 23.47V13H185.64V31H180.92L174.67 20.59V31H170V13H174.67L180.99 23.47Z" fill="#BEC1C6"/>
</g>
<path d="M180.562 23.7284L181.49 25.2659V23.47V13.5H185.14V30.5H181.203L175.099 20.3326L174.17 18.7858V20.59V30.5H170.5V13.5H174.388L180.562 23.7284Z" stroke="#EED605"/>
<g filter="url(#filter4_i_1_3)">
<path d="M237.336 29.8012L241.479 21.4827L245.015 23.4053L237.892 37.7065L234.303 35.7549L233.67 24.8999L229.551 33.1707L226 31.2398L233.123 16.9387L236.674 18.8696L237.336 29.8012Z" fill="#BEC1C6"/>
</g>
<path d="M236.845 29.8224L236.957 31.6827L237.776 30.0401L241.696 22.1691L244.353 23.614L237.676 37.0201L234.778 35.4443L234.162 24.8799L234.053 23.0107L233.231 24.661L229.335 32.4843L226.662 31.0311L233.339 17.6251L236.2 19.1806L236.845 29.8224Z" stroke="#EED605"/>
<g filter="url(#filter5_i_1_3)">
<path d="M92.6684 44.9354L88.338 36.1361L92.0887 34.1322L99.5336 49.26L95.7264 51.294L86.3795 45.2386L90.6851 53.9875L86.9182 56L79.4734 40.8723L83.2402 38.8597L92.6684 44.9354Z" fill="#BEC1C6"/>
</g>
<path d="M92.4006 45.3662L93.9189 46.3446L93.1094 44.6998L88.9998 36.3491L91.8685 34.8165L98.8718 49.047L95.7583 50.7104L86.6483 44.8085L85.1253 43.8218L85.9385 45.4742L90.0233 53.7745L87.1385 55.3158L80.1351 41.0853L83.209 39.443L92.4006 45.3662Z" stroke="#EED605"/>
<g filter="url(#filter6_i_1_3)">
<path d="M107.187 37.1784L102.857 28.3791L106.608 26.3752L114.053 41.5029L110.245 43.537L100.898 37.4816L105.204 46.2304L101.437 48.243L93.9923 33.1152L97.7592 31.1027L107.187 37.1784Z" fill="#BEC1C6"/>
</g>
<path d="M106.92 37.6092L108.438 38.5876L107.628 36.9428L103.519 28.5921L106.387 27.0594L113.391 41.2899L110.277 42.9534L101.167 37.0514L99.6442 36.0647L100.457 37.7172L104.542 46.0174L101.657 47.5587L94.6541 33.3282L97.728 31.6859L106.92 37.6092Z" stroke="#EED605"/>
<g filter="url(#filter7_i_1_3)">
<path d="M52.4692 85.4581L44.5324 78.6295L47.5652 75.1046L61.21 86.8442L58.1316 90.4222L46.1641 88.3706L54.0553 95.16L51.0095 98.7001L37.3647 86.9604L40.4105 83.4204L52.4692 85.4581Z" fill="#BEC1C6"/>
</g>
<path d="M52.3859 85.9511L54.1566 86.2503L52.7953 85.079L45.2376 78.5766L47.6181 75.8097L60.5049 86.8972L57.9371 89.8816L46.2486 87.8778L44.4703 87.5729L45.838 88.7496L53.3502 95.2129L50.9566 97.995L38.0698 86.9075L40.6055 83.9604L52.3859 85.9511Z" stroke="#EED605"/>
<g filter="url(#filter8_i_1_3)">
<path d="M28.7538 125.048L19.6531 122.298L20.8863 118.296L36.5323 123.023L35.2805 127.085L24.5743 129.731L33.6228 132.464L32.3842 136.484L16.7383 131.757L17.9769 127.737L28.7538 125.048Z" fill="#BEC1C6"/>
</g>
<path d="M28.8733 125.532L30.6323 125.093L28.9011 124.57L20.279 121.965L21.2177 118.918L35.9064 123.356L34.8855 126.669L24.4559 129.246L22.6877 129.683L24.427 130.208L32.9969 132.798L32.0529 135.861L17.3642 131.423L18.372 128.153L28.8733 125.532Z" stroke="#EED605"/>
<g filter="url(#filter9_i_1_3)">
<path d="M333.73 179.72V183H343.49V187H329V169H343.23V172.92H333.73V175.92H342.07V179.76L333.73 179.72Z" fill="#BEC1C6"/>
</g>
<path d="M333.732 179.22L333.23 179.218V179.72V183V183.5H333.73H342.99V186.5H329.5V169.5H342.73V172.42H333.73H333.23V172.92V175.92V176.42H333.73H341.57V179.258L333.732 179.22Z" stroke="#EED605"/>
<g filter="url(#filter10_i_1_3)">
<path d="M320.655 111.943L317.834 112.871L320.708 120.938L317.267 122.07L313 110.093L328.484 105L332.675 116.762L329.303 117.871L326.505 110.019L323.924 110.868L326.38 117.761L323.077 118.848L320.655 111.943Z" fill="#BEC1C6"/>
</g>
<path d="M321.131 111.789L320.965 111.315L320.488 111.472L317.666 112.4L317.191 112.556L317.359 113.027L320.065 120.623L317.574 121.443L313.643 110.408L328.177 105.627L332.032 116.447L329.61 117.244L326.98 109.863L326.812 109.392L326.337 109.548L323.757 110.397L323.282 110.553L323.449 111.024L325.738 117.446L323.386 118.22L321.131 111.789Z" stroke="#EED605"/>
<g filter="url(#filter11_i_1_3)">
<path d="M305.179 88.6982L302.55 90.6597L308.386 98.4821L305.181 100.874L296.515 89.2608L310.942 78.4964L319.452 89.9014L316.31 92.2457L310.629 84.6316L308.224 86.4257L313.212 93.11L310.134 95.4064L305.179 88.6982Z" fill="#BEC1C6"/>
</g>
<path d="M305.581 88.4011L305.282 87.997L304.88 88.2974L302.251 90.2589L301.85 90.558L302.149 90.9587L307.687 98.3804L305.282 100.174L297.215 89.3625L310.84 79.1961L318.752 89.7997L316.412 91.5459L311.029 84.3326L310.73 83.9319L310.33 84.2309L307.925 86.0249L307.524 86.3239L307.823 86.7247L312.512 93.0083L310.238 94.7052L305.581 88.4011Z" stroke="#EED605"/>
<g filter="url(#filter12_i_1_3)">
<path d="M327.72 131.098L336.727 128.136L338.096 131.979L322.612 137.072L321.222 133.171L328.336 125.059L319.381 128.005L318.006 124.145L333.491 119.052L334.866 122.912L327.72 131.098Z" fill="#BEC1C6"/>
</g>
<path d="M327.335 130.77L326.135 132.146L327.888 131.569L336.42 128.763L337.453 131.664L322.919 136.445L321.793 133.286L328.72 125.388L329.93 124.009L328.169 124.588L319.688 127.378L318.649 124.46L333.183 119.679L334.294 122.798L327.335 130.77Z" stroke="#EED605"/>
<g filter="url(#filter13_i_1_3)">
<path d="M330.962 140.873L328.141 141.801L331.015 149.868L327.574 151L323.307 139.023L338.791 133.93L342.981 145.692L339.609 146.801L336.812 138.949L334.231 139.798L336.687 146.691L333.384 147.778L330.962 140.873Z" fill="#BEC1C6"/>
</g>
<path d="M331.438 140.719L331.272 140.245L330.794 140.402L327.973 141.33L327.498 141.486L327.666 141.957L330.372 149.553L327.881 150.373L323.949 139.338L338.484 134.557L342.339 145.377L339.916 146.174L337.287 138.793L337.119 138.322L336.644 138.478L334.063 139.327L333.588 139.483L333.756 139.954L336.044 146.376L333.693 147.15L331.438 140.719Z" stroke="#EED605"/>
<g filter="url(#filter14_i_1_3)">
<path d="M320.905 248.732L323.734 249.94L327.16 241.109L330.61 242.582L325.523 255.693L310 249.063L314.996 236.188L318.376 237.632L315.041 246.227L317.628 247.332L320.556 239.786L323.868 241.201L320.905 248.732Z" fill="#BEC1C6"/>
</g>
<path d="M320.446 248.533L320.262 249L320.724 249.198L323.553 250.406L324.013 250.602L324.194 250.136L327.439 241.772L329.969 242.852L325.244 255.03L310.641 248.793L315.275 236.85L317.735 237.902L314.581 246.031L314.4 246.497L314.86 246.693L317.447 247.798L317.907 247.995L318.088 247.528L320.835 240.449L323.225 241.469L320.446 248.533Z" stroke="#EED605"/>
<g filter="url(#filter15_i_1_3)">
<path d="M332.139 219.779L334.968 220.987L338.394 212.156L341.844 213.63L336.757 226.74L321.234 220.11L326.23 207.235L329.61 208.679L326.275 217.274L328.862 218.379L331.79 210.834L335.102 212.248L332.139 219.779Z" fill="#BEC1C6"/>
</g>
<path d="M331.68 219.58L331.496 220.048L331.958 220.245L334.787 221.453L335.247 221.65L335.428 221.183L338.673 212.819L341.203 213.899L336.478 226.077L321.875 219.84L326.509 207.898L328.969 208.949L325.815 217.078L325.634 217.544L326.094 217.741L328.681 218.845L329.141 219.042L329.322 218.576L332.069 211.496L334.459 212.517L331.68 219.58Z" stroke="#EED605"/>
<g filter="url(#filter16_i_1_3)">
<path d="M251.052 37.1848L255.195 28.8663L258.731 30.7889L251.608 45.0901L248.019 43.1385L247.386 32.2835L243.267 40.5543L239.716 38.6234L246.839 24.3223L250.39 26.2532L251.052 37.1848Z" fill="#BEC1C6"/>
</g>
<path d="M250.561 37.206L250.673 39.0663L251.492 37.4236L255.412 29.5527L258.069 30.9976L251.392 44.4037L248.494 42.8279L247.878 32.2635L247.769 30.3943L246.947 32.0446L243.051 39.8679L240.378 38.4147L247.055 25.0087L249.916 26.5642L250.561 37.206Z" stroke="#EED605"/>
<g filter="url(#filter17_i_1_3)">
<path d="M259.909 42.1805L258.611 44.7865L266.032 48.822L264.449 52L253.431 46.0088L260.554 31.7077L271.374 37.5913L269.823 40.7058L262.599 36.7778L261.412 39.1614L267.754 42.6097L266.234 45.6606L259.909 42.1805Z" fill="#BEC1C6"/>
</g>
<path d="M260.134 41.7341L259.693 41.4919L259.469 41.9417L258.171 44.5476L257.948 44.9952L258.388 45.2341L265.37 49.0307L264.233 51.3136L254.093 45.8001L260.77 32.3941L270.712 37.8L269.607 40.0194L262.822 36.3303L262.383 36.0914L262.16 36.539L260.973 38.9225L260.75 39.3701L261.189 39.6089L267.092 42.8184L266.019 44.972L260.134 41.7341Z" stroke="#EED605"/>
<g filter="url(#filter18_i_1_3)">
<path d="M177.49 342.98C175.568 343.089 173.667 342.538 172.1 341.42C171.443 340.875 170.913 340.192 170.55 339.419C170.187 338.647 169.999 337.803 170 336.95H174.43C174.54 338.58 175.59 339.39 177.59 339.39C179.32 339.39 180.2 338.83 180.2 337.69C180.202 337.498 180.161 337.309 180.079 337.136C179.998 336.963 179.879 336.81 179.73 336.69C179.252 336.377 178.719 336.156 178.16 336.04L174.81 335.24C171.87 334.56 170.41 332.94 170.41 330.39C170.389 329.661 170.53 328.937 170.822 328.27C171.114 327.602 171.551 327.008 172.1 326.53C173.553 325.425 175.359 324.888 177.18 325.02C178.976 324.915 180.755 325.419 182.23 326.45C182.84 326.925 183.336 327.532 183.682 328.224C184.028 328.916 184.215 329.676 184.23 330.45H179.9C179.71 329.11 178.81 328.45 177.19 328.45C176.607 328.419 176.028 328.565 175.53 328.87C175.341 328.986 175.185 329.149 175.078 329.344C174.971 329.538 174.917 329.757 174.92 329.98C174.92 330.7 175.46 331.2 176.55 331.47L180.04 332.28C183.2 333.033 184.78 334.74 184.78 337.4C184.816 338.192 184.658 338.982 184.32 339.7C183.982 340.418 183.474 341.042 182.84 341.52C181.269 342.589 179.386 343.103 177.49 342.98Z" fill="#BEC1C6"/>
</g>
<path d="M177.492 342.479L177.523 342.481C179.303 342.597 181.072 342.115 182.549 341.113C183.113 340.686 183.566 340.128 183.868 339.487C184.171 338.842 184.313 338.134 184.281 337.422L184.28 337.411V337.4C184.28 336.176 183.92 335.212 183.228 334.464C182.527 333.707 181.445 333.129 179.926 332.766C179.925 332.766 179.925 332.766 179.924 332.766L176.437 331.957L176.43 331.955L176.43 331.955C175.842 331.809 175.345 331.589 174.988 331.262C174.617 330.921 174.421 330.484 174.42 329.983C174.42 329.982 174.42 329.981 174.42 329.98H174.92C174.917 329.757 174.971 329.538 175.078 329.344C175.185 329.149 175.341 328.986 175.53 328.87L177.492 342.479ZM177.492 342.479L177.462 342.48C175.659 342.583 173.876 342.069 172.405 341.023M177.492 342.479L172.405 341.023M172.405 341.023C171.811 340.527 171.332 339.907 171.003 339.207C170.742 338.652 170.58 338.057 170.523 337.45H173.989C174.121 338.162 174.446 338.753 174.996 339.177C175.644 339.677 176.533 339.89 177.59 339.89C178.493 339.89 179.26 339.746 179.816 339.387C180.408 339.003 180.699 338.413 180.7 337.692M172.405 341.023L177.203 327.95C178.068 327.951 178.812 328.128 179.378 328.545C179.847 328.89 180.151 329.37 180.308 329.95H183.693C183.625 329.428 183.471 328.92 183.235 328.447C182.924 327.826 182.479 327.281 181.933 326.852C180.552 325.89 178.889 325.421 177.209 325.519L177.177 325.521L177.144 325.518C175.45 325.396 173.77 325.893 172.416 326.917C171.928 327.346 171.54 327.876 171.28 328.47C171.017 329.07 170.891 329.721 170.91 330.375L170.91 330.382V330.39C170.91 331.563 171.243 332.479 171.878 333.18C172.521 333.89 173.515 334.427 174.923 334.752L174.926 334.753L174.926 334.753L178.269 335.552C178.887 335.681 179.475 335.925 180.004 336.271L180.025 336.285L180.045 336.301C180.252 336.469 180.419 336.682 180.532 336.923C180.645 337.164 180.702 337.426 180.7 337.692M180.7 337.692C180.7 337.693 180.7 337.694 180.7 337.695L180.2 337.69H180.7C180.7 337.69 180.7 337.691 180.7 337.692Z" stroke="#EED605"/>
<g filter="url(#filter19_i_1_3)">
<path d="M84.6271 318.045C82.8777 317.339 81.455 316.129 80.5944 314.616C80.2684 313.923 80.1206 313.174 80.1615 312.425C80.2024 311.676 80.4311 310.943 80.8312 310.28L84.7458 312.103C84.08 313.414 84.6287 314.475 86.396 315.298C87.9248 316.01 88.9645 315.937 89.4982 315.052C89.5895 314.904 89.6417 314.74 89.6509 314.572C89.66 314.404 89.6259 314.236 89.551 314.082C89.275 313.642 88.9076 313.252 88.4679 312.931L85.8821 310.931C83.6025 309.194 83.0707 307.335 84.2644 305.354C84.5867 304.78 85.0499 304.276 85.6205 303.878C86.1912 303.48 86.8552 303.197 87.5647 303.052C89.366 302.792 91.2134 303.118 92.7606 303.969C94.3969 304.627 95.7332 305.75 96.5537 307.157C96.8698 307.778 97.0245 308.453 97.0063 309.133C96.9881 309.812 96.7975 310.48 96.4485 311.087L92.6223 309.305C93.0817 308.187 92.5953 307.304 91.1638 306.637C90.663 306.373 90.0831 306.249 89.5003 306.28C89.2787 306.293 89.0645 306.356 88.8789 306.463C88.6933 306.57 88.5426 306.718 88.4416 306.892C88.1046 307.451 88.3477 308.061 89.1845 308.719L91.8893 310.784C94.3291 312.669 94.9263 314.645 93.6811 316.711C93.3418 317.341 92.8327 317.889 92.1979 318.308C91.5631 318.726 90.8218 319.003 90.0382 319.112C88.1495 319.297 86.2449 318.921 84.6271 318.045Z" fill="#BEC1C6"/>
</g>
<path d="M84.9122 317.631L84.8874 317.617L84.8609 317.606C83.2149 316.942 81.8783 315.806 81.0686 314.391C80.7766 313.764 80.6458 313.091 80.6825 312.42C80.7105 311.907 80.836 311.404 81.0519 310.932L84.0937 312.348C83.8821 312.961 83.899 313.556 84.1844 314.108C84.5236 314.765 85.2078 315.293 86.1379 315.726C86.933 316.097 87.6748 316.3 88.3331 316.25C89.0398 316.195 89.5961 315.851 89.95 315.265C90.0833 315.049 90.1586 314.81 90.1719 314.567C90.1851 314.324 90.1355 314.085 90.03 313.867L90.0197 313.846L90.0072 313.826C89.7017 313.339 89.2965 312.908 88.8131 312.555L86.2324 310.559L86.2324 310.559L86.2298 310.557C85.1353 309.723 84.5095 308.896 84.2756 308.086C84.0457 307.291 84.1783 306.46 84.7176 305.565L84.7217 305.559L84.7254 305.552C85.0088 305.047 85.4165 304.603 85.9208 304.251C86.4208 303.902 87.0048 303.652 87.6329 303.521C89.3062 303.283 91.0276 303.587 92.4726 304.382L92.4991 304.397L92.5274 304.408C94.0631 305.025 95.3149 306.077 96.084 307.391C96.3651 307.947 96.5009 308.548 96.4848 309.149C96.4731 309.588 96.3808 310.02 96.2134 310.429L93.2425 309.046C93.3708 308.526 93.3227 308.027 93.0713 307.568C92.7662 307.011 92.1925 306.569 91.4328 306.214C90.8526 305.911 90.1802 305.767 89.5006 305.804L89.4995 305.804C89.1908 305.821 88.8871 305.909 88.6199 306.063C88.3536 306.217 88.1344 306.431 87.9863 306.684C87.7392 307.096 87.7111 307.534 87.8823 307.957C88.0456 308.361 88.3822 308.736 88.8312 309.089L88.8312 309.089L88.8365 309.093L91.5392 311.157C91.5396 311.157 91.54 311.157 91.5403 311.158C92.7168 312.067 93.4005 312.962 93.6637 313.832C93.9222 314.687 93.7901 315.567 93.2279 316.5L93.2216 316.51L93.2158 316.521C92.918 317.074 92.4705 317.557 91.9101 317.926C91.3525 318.294 90.6981 318.54 90.0014 318.639C88.2288 318.81 86.4368 318.456 84.9122 317.631Z" stroke="#EED605"/>
<g filter="url(#filter20_i_1_3)">
<path d="M43.4068 276.953C42.0769 275.561 41.2621 273.757 41.0971 271.839C41.0851 270.985 41.2616 270.139 41.6141 269.362C41.9666 268.584 42.4864 267.894 43.1364 267.341L46.0104 270.712C44.8413 271.853 44.9061 273.178 46.2036 274.7C47.326 276.016 48.3231 276.323 49.1906 275.583C49.3375 275.46 49.4548 275.306 49.5338 275.132C49.6128 274.958 49.6514 274.768 49.6467 274.577C49.5746 274.01 49.3969 273.461 49.1228 272.96L47.5582 269.892C46.1683 267.213 46.454 265.051 48.3945 263.397C48.9351 262.908 49.5772 262.546 50.2747 262.335C50.9722 262.125 51.7078 262.071 52.4284 262.179C54.2118 262.568 55.7922 263.594 56.8731 265.065C58.1182 266.364 58.8891 268.045 59.0611 269.836C59.0946 270.609 58.9553 271.379 58.6531 272.092C58.351 272.804 57.8937 273.44 57.3147 273.953L54.5056 270.658C55.402 269.644 55.3204 268.531 54.2694 267.298C53.9147 266.834 53.4278 266.489 52.8729 266.307C52.6617 266.238 52.4363 266.226 52.2188 266.271C52.0013 266.316 51.7992 266.416 51.6324 266.563C51.0845 267.03 51.0543 267.765 51.556 268.77L53.2038 271.951C54.6806 274.845 54.4069 277.155 52.3826 278.88C51.8027 279.422 51.0994 279.814 50.3338 280.022C49.5681 280.231 48.7632 280.25 47.9887 280.077C46.1557 279.575 44.543 278.476 43.4068 276.953Z" fill="#BEC1C6"/>
</g>
<path d="M43.7893 276.629L43.8076 276.654C44.8747 278.084 46.3884 279.118 48.109 279.591C48.8006 279.744 49.519 279.726 50.2024 279.54C50.8896 279.353 51.5208 279.001 52.0413 278.515L52.0496 278.507L52.0582 278.5C52.9893 277.706 53.4897 276.807 53.6096 275.795C53.731 274.771 53.4692 273.572 52.7591 272.18C52.7589 272.18 52.7587 272.179 52.7584 272.179L51.112 269L51.1086 268.993L51.1087 268.993C50.8381 268.452 50.6834 267.93 50.7009 267.447C50.7192 266.943 50.9244 266.511 51.3052 266.185C51.3062 266.184 51.3071 266.183 51.308 266.183L51.6324 266.563C51.7992 266.416 52.0013 266.316 52.2188 266.271C52.4363 266.226 52.6617 266.238 52.8729 266.307L43.7893 276.629ZM43.7893 276.629L43.7683 276.607C42.5212 275.302 41.7555 273.612 41.5969 271.814M43.7893 276.629L41.5969 271.814M41.5969 271.814C41.5885 271.04 41.7498 270.273 42.0695 269.568C42.3225 269.01 42.67 268.501 43.0954 268.063L45.3438 270.701C44.8872 271.263 44.649 271.894 44.6826 272.587C44.7224 273.405 45.1373 274.22 45.8231 275.024C46.4089 275.711 47.0157 276.202 47.6496 276.391C48.3254 276.593 48.9641 276.432 49.513 275.965M41.5969 271.814L54.6583 266.983C55.2181 267.643 55.5668 268.324 55.6165 269.024C55.6579 269.606 55.4895 270.148 55.1505 270.643L57.3465 273.219C57.7 272.83 57.9865 272.383 58.1928 271.896C58.4642 271.257 58.5903 270.565 58.5622 269.87C58.3983 268.196 57.6764 266.626 56.5122 265.411L56.4896 265.387L56.4702 265.361C55.4646 263.993 53.996 263.037 52.3382 262.671C51.6959 262.577 51.0408 262.626 50.4193 262.814C49.7925 263.003 49.2155 263.329 48.7297 263.768L48.7244 263.773L48.7189 263.777C47.8258 264.539 47.3449 265.386 47.2233 266.325C47.1003 267.274 47.3368 268.379 48.002 269.661L48.0037 269.665L48.0037 269.665L49.565 272.727C49.8671 273.281 50.0631 273.887 50.1427 274.514L50.1459 274.539L50.1465 274.564C50.1531 274.831 50.0993 275.095 49.9892 275.338C49.8795 275.58 49.7168 275.795 49.513 275.965M49.513 275.965C49.5123 275.966 49.5116 275.966 49.5109 275.967L49.1906 275.583L49.515 275.963C49.5143 275.964 49.5137 275.965 49.513 275.965Z" stroke="#EED605"/>
<g filter="url(#filter21_i_1_3)">
<path d="M20.0467 231.886C19.3903 230.24 19.2938 228.411 19.7733 226.703C20.0376 225.962 20.4558 225.293 20.9982 224.74C21.5406 224.188 22.1938 223.768 22.911 223.508L24.2128 227.379C22.8759 227.971 22.504 229.134 23.0917 230.882C23.6001 232.393 24.3291 232.992 25.2867 232.645C25.448 232.589 25.5949 232.495 25.7164 232.372C25.838 232.248 25.931 232.097 25.9886 231.93C26.111 231.418 26.1397 230.885 26.0733 230.361L25.7609 227.191C25.4682 224.415 26.4 222.647 28.542 221.872C29.1476 221.632 29.797 221.535 30.4435 221.587C31.0901 221.639 31.7176 221.84 32.2811 222.175C33.6361 223.108 34.6178 224.523 35.0422 226.154C35.6581 227.691 35.7577 229.399 35.3249 231.001C35.1043 231.678 34.741 232.296 34.2614 232.809C33.7818 233.322 33.198 233.716 32.5526 233.965L31.2802 230.181C32.35 229.608 32.64 228.621 32.1639 227.206C32.0185 226.687 31.7255 226.226 31.3233 225.883C31.1701 225.753 30.987 225.667 30.7921 225.632C30.5972 225.598 30.3972 225.617 30.2117 225.688C29.6069 225.906 29.3455 226.53 29.439 227.565L29.7842 230.86C30.0799 233.85 29.1106 235.75 26.8761 236.559C26.2208 236.831 25.5112 236.933 24.8088 236.856C24.1064 236.779 23.4324 236.525 22.8452 236.117C21.4851 235.07 20.5001 233.58 20.0467 231.886Z" fill="#BEC1C6"/>
</g>
<path d="M20.5259 231.746L20.5183 231.718L20.5074 231.69C19.8938 230.152 19.8024 228.444 20.2457 226.85C20.4854 226.186 20.8615 225.587 21.3467 225.093C21.7168 224.716 22.1436 224.407 22.609 224.179L23.6035 227.135C23.0505 227.473 22.6532 227.941 22.4586 228.549C22.2254 229.278 22.3103 230.127 22.6216 231.052C22.8873 231.842 23.2349 232.475 23.7073 232.856C24.2143 233.266 24.8162 233.346 25.4435 233.12C25.6773 233.038 25.8897 232.902 26.065 232.724C26.2409 232.545 26.3744 232.327 26.4567 232.09L26.4651 232.065L26.471 232.041C26.6072 231.47 26.6395 230.878 26.5666 230.295L26.2548 227.132L26.2548 227.132L26.2545 227.129C26.1146 225.802 26.2744 224.778 26.6759 224.011C27.0713 223.257 27.7297 222.697 28.7014 222.346L28.7084 222.343L28.7153 222.34C29.2498 222.129 29.8234 222.043 30.3952 222.089C30.9618 222.135 31.5134 222.31 32.0107 222.602C33.2608 223.468 34.1687 224.779 34.5621 226.29L34.5701 226.321L34.5818 226.35C35.1558 227.783 35.2493 229.373 34.8498 230.863C34.6519 231.465 34.3286 232.012 33.9042 232.466C33.5959 232.795 33.2397 233.07 32.8497 233.28L31.8786 230.393C32.3137 230.075 32.6246 229.661 32.777 229.146C32.9636 228.516 32.8912 227.805 32.6381 227.047C32.4651 226.44 32.1203 225.899 31.6466 225.495L31.6458 225.494C31.4281 225.31 31.1663 225.186 30.8854 225.136C30.6056 225.087 30.3171 225.114 30.0486 225.215C29.6086 225.375 29.288 225.693 29.1062 226.133C28.9327 226.552 28.8941 227.06 28.9447 227.62L28.9446 227.62L28.9454 227.627L29.2902 230.919C29.2902 230.92 29.2903 230.92 29.2903 230.921C29.4322 232.357 29.2636 233.47 28.839 234.302C28.4211 235.121 27.7296 235.718 26.7167 236.085L26.7057 236.089L26.6949 236.093C26.1174 236.333 25.4914 236.424 24.8709 236.356C24.254 236.288 23.66 236.066 23.1405 235.706C21.8713 234.726 20.9505 233.333 20.5259 231.746Z" stroke="#EED605"/>
<g filter="url(#filter22_i_1_3)">
<path d="M241.695 333.824C240.105 334.827 238.192 335.298 236.273 335.16C235.429 335.042 234.623 334.754 233.914 334.316C233.204 333.877 232.608 333.299 232.167 332.624L235.962 330.511C236.897 331.749 238.215 331.889 239.928 330.935C241.409 330.11 241.874 329.248 241.286 328.346C241.189 328.193 241.056 328.063 240.897 327.965C240.738 327.867 240.557 327.803 240.367 327.778C239.796 327.759 239.226 327.838 238.687 328.013L235.405 328.977C232.536 329.841 230.449 329.255 229.133 327.237C228.739 326.671 228.486 326.031 228.392 325.363C228.297 324.696 228.364 324.017 228.588 323.377C229.263 321.81 230.532 320.524 232.16 319.76C233.644 318.82 235.428 318.371 237.223 318.483C237.991 318.569 238.729 318.812 239.383 319.195C240.036 319.577 240.589 320.09 241.001 320.695L237.292 322.76C236.438 321.79 235.326 321.697 233.939 322.469C233.423 322.723 233.003 323.114 232.734 323.593C232.632 323.775 232.583 323.979 232.591 324.184C232.6 324.389 232.667 324.588 232.784 324.762C233.156 325.332 233.876 325.47 234.949 325.164L238.357 324.141C241.452 323.23 243.686 323.827 245.059 325.932C245.499 326.542 245.771 327.242 245.852 327.972C245.933 328.701 245.82 329.438 245.524 330.118C244.731 331.713 243.383 333.017 241.695 333.824Z" fill="#BEC1C6"/>
</g>
<path d="M241.45 333.391L241.423 333.403L241.398 333.419C239.905 334.361 238.112 334.804 236.314 334.678C235.551 334.569 234.825 334.308 234.187 333.913C233.69 333.607 233.256 333.226 232.9 332.787L235.852 331.143C236.337 331.642 236.924 331.953 237.612 332.026C238.427 332.113 239.297 331.857 240.201 331.354C240.973 330.924 241.556 330.446 241.846 329.896C242.157 329.307 242.104 328.689 241.724 328.105C241.585 327.887 241.395 327.702 241.17 327.563C240.943 327.423 240.687 327.333 240.421 327.299L240.395 327.295L240.369 327.294C239.737 327.273 239.108 327.36 238.512 327.552L235.236 328.514L235.236 328.514L235.233 328.515C233.858 328.929 232.73 328.977 231.818 328.724C230.919 328.474 230.17 327.914 229.57 326.994L229.566 326.988L229.561 326.982C229.211 326.478 228.986 325.91 228.902 325.315C228.819 324.726 228.877 324.125 229.073 323.556C229.703 322.102 230.886 320.906 232.402 320.194L232.431 320.181L232.457 320.164C233.847 319.284 235.515 318.863 237.192 318.966C237.88 319.044 238.538 319.263 239.121 319.603C239.553 319.857 239.936 320.173 240.255 320.539L237.371 322.145C236.934 321.762 236.425 321.528 235.846 321.479C235.145 321.418 234.417 321.634 233.677 322.044C233.079 322.341 232.591 322.797 232.277 323.356L232.276 323.356C232.134 323.611 232.064 323.897 232.077 324.188C232.089 324.477 232.183 324.76 232.349 325.009C232.617 325.417 233.02 325.673 233.519 325.766C233.996 325.856 234.536 325.793 235.113 325.628L235.113 325.628L235.12 325.626L238.525 324.603C238.525 324.603 238.526 324.603 238.526 324.603C240.017 324.165 241.241 324.108 242.228 324.371C243.2 324.631 243.997 325.217 244.622 326.175L244.629 326.185L244.635 326.195C245.026 326.736 245.268 327.358 245.34 328.006C245.411 328.652 245.313 329.305 245.051 329.911C244.304 331.407 243.037 332.632 241.45 333.391Z" stroke="#EED605"/>
<g filter="url(#filter23_i_1_3)">
<path d="M333.4 235.337C332.82 237.116 331.678 238.634 330.163 239.639C329.463 240.033 328.688 240.26 327.894 240.304C327.1 240.348 326.307 240.207 325.571 239.893L327.126 235.884C328.57 236.385 329.638 235.734 330.34 233.924C330.947 232.359 330.773 231.356 329.79 230.936C329.626 230.864 329.448 230.832 329.27 230.842C329.092 230.851 328.919 230.903 328.763 230.993C328.325 231.311 327.948 231.711 327.651 232.174L325.785 234.911C324.166 237.32 322.257 238.045 320.058 237.105C319.422 236.856 318.847 236.462 318.374 235.952C317.901 235.442 317.542 234.828 317.322 234.155C316.88 232.433 317.051 230.601 317.803 229.002C318.344 227.338 319.403 225.914 320.809 224.96C321.434 224.583 322.131 224.358 322.849 224.3C323.567 224.241 324.289 224.352 324.961 224.624L323.441 228.541C322.219 228.22 321.334 228.791 320.765 230.256C320.534 230.773 320.457 231.35 320.544 231.913C320.578 232.127 320.664 232.328 320.795 232.497C320.925 232.665 321.095 232.795 321.287 232.874C321.908 233.139 322.529 232.835 323.145 231.948L325.068 229.089C326.827 226.507 328.854 225.706 331.148 226.686C331.844 226.945 332.469 227.379 332.97 227.949C333.47 228.519 333.831 229.209 334.02 229.958C334.391 231.774 334.173 233.667 333.4 235.337Z" fill="#BEC1C6"/>
</g>
<path d="M332.953 235.111L332.941 235.138L332.931 235.166C332.387 236.835 331.317 238.258 329.902 239.203C329.268 239.557 328.57 239.76 327.856 239.799C327.302 239.83 326.75 239.761 326.221 239.599L327.428 236.489C328.09 236.627 328.714 236.547 329.272 236.207C329.934 235.803 330.429 235.076 330.799 234.12C331.116 233.304 331.262 232.557 331.147 231.92C331.023 231.238 330.61 230.744 329.973 230.471C329.738 230.368 329.484 230.322 329.232 230.336C328.978 230.35 328.732 230.424 328.512 230.551L328.491 230.564L328.471 230.578C327.986 230.93 327.568 231.373 327.24 231.884L325.377 234.615L325.377 234.615L325.376 234.617C324.6 235.772 323.789 236.471 322.956 236.789C322.136 237.103 321.241 237.067 320.239 236.639L320.232 236.636L320.225 236.634C319.661 236.412 319.15 236.062 318.729 235.609C318.312 235.158 317.993 234.617 317.796 234.021C317.389 232.422 317.549 230.719 318.249 229.231L318.263 229.202L318.273 229.172C318.778 227.615 319.767 226.284 321.079 225.391C321.638 225.056 322.26 224.856 322.9 224.804C323.373 224.765 323.848 224.809 324.306 224.932L323.127 227.969C322.571 227.901 322.05 228.002 321.588 228.298C321.028 228.658 320.614 229.268 320.31 230.048C320.043 230.65 319.954 231.323 320.056 231.981L320.057 231.982C320.104 232.282 320.225 232.565 320.41 232.805C320.595 233.043 320.836 233.229 321.11 233.342C321.556 233.531 322.013 233.512 322.442 233.299C322.853 233.095 323.218 232.725 323.55 232.247L323.55 232.247L323.554 232.242L325.476 229.385C325.476 229.384 325.476 229.384 325.477 229.383C326.323 228.141 327.201 227.377 328.095 227.024C328.975 226.676 329.922 226.706 330.967 227.152L330.978 227.156L330.989 227.161C331.606 227.391 332.161 227.775 332.606 228.282C333.048 228.786 333.369 229.397 333.538 230.062C333.884 231.765 333.679 233.542 332.953 235.111Z" stroke="#EED605"/>
<g filter="url(#filter24_i_1_3)">
<path d="M304.134 275.358L306.656 277.455L312.895 269.949L315.971 272.506L306.709 283.649L292.866 272.143L301.962 261.2L304.977 263.706L298.904 271.011L301.212 272.929L306.543 266.515L309.496 268.97L304.134 275.358Z" fill="#BEC1C6"/>
</g>
<path d="M303.751 275.037L303.428 275.421L303.814 275.743L306.337 277.839L306.721 278.159L307.041 277.774L312.96 270.653L315.267 272.571L306.644 282.945L293.571 272.078L302.027 261.904L304.273 263.771L298.52 270.692L298.2 271.076L298.585 271.396L300.892 273.314L301.276 273.633L301.596 273.249L306.607 267.219L308.79 269.033L303.751 275.037Z" stroke="#EED605"/>
<g filter="url(#filter25_i_1_3)">
<path d="M300.615 290.949C299.47 292.497 297.831 293.608 295.97 294.097C295.131 294.255 294.267 294.225 293.441 294.011C292.615 293.796 291.846 293.401 291.19 292.855L294.021 289.448C295.345 290.406 296.639 290.116 297.918 288.578C299.023 287.247 299.155 286.213 298.279 285.484C298.133 285.36 297.961 285.271 297.776 285.223C297.59 285.175 297.397 285.169 297.209 285.206C296.663 285.374 296.153 285.643 295.706 285.998L292.949 288.063C290.547 289.889 288.368 289.977 286.407 288.347C285.833 287.897 285.366 287.327 285.04 286.675C284.713 286.024 284.535 285.308 284.519 284.58C284.598 282.756 285.339 281.024 286.604 279.708C287.672 278.259 289.197 277.213 290.932 276.738C291.688 276.573 292.471 276.579 293.225 276.756C293.978 276.932 294.682 277.274 295.287 277.757L292.519 281.087C291.367 280.377 290.284 280.647 289.249 281.893C288.852 282.321 288.595 282.86 288.511 283.438C288.479 283.657 288.505 283.882 288.586 284.088C288.668 284.295 288.801 284.477 288.974 284.616C289.528 285.077 290.258 284.981 291.162 284.315L294.016 282.149C296.615 280.2 298.937 280.076 300.983 281.776C301.616 282.255 302.122 282.882 302.458 283.6C302.794 284.319 302.95 285.109 302.912 285.902C302.73 287.793 301.922 289.57 300.615 290.949Z" fill="#BEC1C6"/>
</g>
<path d="M300.231 290.628L300.252 290.606C301.479 289.31 302.24 287.642 302.413 285.866C302.445 285.159 302.305 284.454 302.005 283.812C301.703 283.167 301.249 282.605 300.681 282.175L300.672 282.168L300.664 282.161C299.723 281.379 298.751 281.039 297.734 281.094C296.704 281.149 295.567 281.611 294.317 282.548C294.317 282.548 294.316 282.549 294.316 282.549L291.464 284.713L291.459 284.718L291.458 284.718C290.971 285.077 290.484 285.318 290.004 285.383C289.504 285.451 289.044 285.323 288.658 285.003C288.657 285.002 288.656 285.002 288.655 285.001L288.974 284.616C288.801 284.477 288.668 284.295 288.586 284.088C288.505 283.882 288.479 283.657 288.511 283.438L300.231 290.628ZM300.231 290.628L300.213 290.652C299.139 292.104 297.604 293.146 295.86 293.609M300.231 290.628L295.86 293.609M295.86 293.609C295.099 293.75 294.316 293.721 293.567 293.527C292.973 293.372 292.413 293.117 291.909 292.772L294.124 290.107C294.756 290.461 295.418 290.588 296.096 290.437C296.895 290.258 297.626 289.71 298.302 288.897C298.879 288.203 299.26 287.521 299.338 286.865C299.422 286.164 299.154 285.562 298.6 285.101M295.86 293.609L288.872 281.563C289.427 280.899 290.038 280.439 290.72 280.271C291.286 280.131 291.849 280.204 292.395 280.454L294.559 277.851C294.115 277.569 293.625 277.363 293.111 277.242C292.434 277.084 291.731 277.078 291.051 277.224C289.43 277.671 288.005 278.65 287.007 280.005L286.988 280.031L286.965 280.054C285.788 281.279 285.097 282.889 285.019 284.585C285.036 285.234 285.196 285.871 285.487 286.451C285.78 287.036 286.2 287.549 286.715 287.953L286.721 287.958L286.726 287.962C287.629 288.712 288.546 289.042 289.491 289.001C290.448 288.961 291.497 288.539 292.647 287.665L292.649 287.663L292.649 287.663L295.4 285.602C295.895 285.21 296.459 284.914 297.062 284.728L297.087 284.721L297.112 284.716C297.373 284.664 297.643 284.672 297.901 284.739C298.159 284.806 298.397 284.929 298.6 285.101M298.6 285.101C298.601 285.102 298.602 285.102 298.602 285.103L298.279 285.484L298.598 285.099C298.599 285.1 298.6 285.101 298.6 285.101Z" stroke="#EED605"/>
<g filter="url(#filter26_i_1_3)">
<path d="M28.64 176.91L30.64 169H35.37L30.13 187H25.58L23.18 175.5L20.88 187H16.23L11 169H15.77L17.77 176.91L18.6 181.19L19.34 176.91L21.03 169H25.43L27.18 176.91L27.88 181.11L28.64 176.91Z" fill="#BEC1C6"/>
</g>
<path d="M19.831 177.005L21.4345 169.5H25.0285L26.689 177.005L27.3868 181.192L28.372 181.199L29.129 177.016L31.0293 169.5H34.7037L29.7548 186.5H25.9864L23.6694 175.398L22.6897 175.402L20.4701 186.5H16.6054L11.666 169.5H15.3807L17.2818 177.019L18.1091 181.285L19.0927 181.275L19.831 177.005Z" stroke="#EED605"/>
<g filter="url(#filter27_i_1_3)">
<path d="M22.5705 140.168L16.2254 136.37L17.4799 132.299L31.7361 141.536L30.5294 145.452L19.8968 144.497L29.2828 149.497L28.0496 153.499L11.0165 153.273L12.2816 149.168L19.6876 149.524L23.628 149.933L20.104 148.172L13.6767 144.641L14.8436 140.854L22.1833 141.425L26.0197 141.925L22.5705 140.168Z" fill="#BEC1C6"/>
</g>
<path d="M20.3387 147.73L14.2746 144.398L15.2038 141.383L22.129 141.922L25.9525 142.42L26.2492 141.481L22.8152 139.731L16.819 136.142L17.7628 133.079L31.1468 141.75L30.1706 144.918L19.944 144L19.6593 144.938L28.6833 149.744L27.6817 152.995L11.6908 152.783L12.6453 149.685L19.6472 150.022L23.5738 150.43L23.854 149.487L20.3387 147.73Z" stroke="#EED605"/>
<g filter="url(#filter28_i_1_3)">
<path d="M124.398 25.266L122.74 17.7563L126.555 15.7179L129.773 33.1038L126.103 35.0646L119.411 26.4339L122.312 37.0901L118.562 39.094L106.898 26.2201L110.746 24.1645L115.63 29.9504L118.07 33.1897L116.897 29.2738L114.988 21.8977L118.537 20.0015L123.221 25.8952L125.522 29.1233L124.398 25.266Z" fill="#BEC1C6"/>
</g>
<path d="M117.371 29.1254L115.568 22.1548L118.402 20.6403L122.828 26.2102L125.123 29.4279L125.995 28.9693L124.876 25.1282L123.306 18.0204L126.192 16.4784L129.219 32.8332L126.243 34.4236L119.799 26.1135L118.936 26.5792L121.728 36.8355L118.674 38.4673L107.702 26.3569L110.621 24.7976L115.246 30.2762L117.678 33.5047L118.542 33.0321L117.371 29.1254Z" stroke="#EED605"/>
<g filter="url(#filter29_i_1_3)">
<path d="M65.3009 66.6187L60.6092 59.9437L63.6941 56.3582L73.9214 72.07L70.9538 75.5191L60.671 69.8381L67.8885 79.0819L64.8558 82.6068L47.7999 74.8317L50.9109 71.2159L58.2115 74.8587L61.9972 77.0209L59.2354 73.6686L54.3415 67.2285L57.2112 63.8931L64.3487 67.7255L67.989 69.9341L65.3009 66.6187Z" fill="#BEC1C6"/>
</g>
<path d="M59.6276 73.3582L54.9843 67.248L57.3284 64.5236L64.1006 68.1598L67.7297 70.3616L68.3774 69.6192L65.7001 66.3172L61.2421 59.9747L63.6385 57.1894L73.2976 72.0283L70.8399 74.8849L60.9128 69.4004L60.2769 70.1458L67.2421 79.0665L64.7216 81.9961L48.6133 74.653L51.036 71.8371L57.9757 75.2998L61.7493 77.4551L62.3831 76.703L59.6276 73.3582Z" stroke="#EED605"/>
<g filter="url(#filter30_i_1_3)">
<path d="M33.4446 104.881L27.0995 101.083L28.354 97.0121L42.6102 106.249L41.4035 110.165L30.7709 109.21L40.1569 114.21L38.9237 118.212L21.8906 117.986L23.1557 113.881L30.5617 114.237L34.5021 114.646L30.9781 112.886L24.5508 109.354L25.7177 105.567L33.0574 106.138L36.8938 106.639L33.4446 104.881Z" fill="#BEC1C6"/>
</g>
<path d="M31.2128 112.443L25.1487 109.111L26.0779 106.096L33.0031 106.635L36.8266 107.134L37.1233 106.194L33.6893 104.444L27.6931 100.855L28.6369 97.792L42.0209 106.464L41.0447 109.631L30.8181 108.713L30.5334 109.651L39.5574 114.458L38.5558 117.708L22.5649 117.496L23.5194 114.398L30.5213 114.735L34.4479 115.143L34.7281 114.2L31.2128 112.443Z" stroke="#EED605"/>
<g filter="url(#filter31_i_1_3)">
<path d="M24.1416 215.85L31.3738 215.192L32.7637 219.324L16.1037 220.22L14.7667 216.244L23.7216 210.65L13.3856 212.138L12.0192 208.075L25.6026 198.032L27.0042 202.2L20.9474 206.352L17.5961 208.379L21.4088 207.724L28.5499 206.795L29.8428 210.64L23.7125 214.574L20.3902 216.463L24.1416 215.85Z" fill="#BEC1C6"/>
</g>
<path d="M21.4732 208.222L28.2078 207.346L29.2456 210.432L23.464 214.142L20.1534 216.025L20.4606 216.96L24.1946 216.35L31.0268 215.728L32.0792 218.857L16.4553 219.697L15.3655 216.457L23.9764 211.078L23.6605 210.152L13.7259 211.582L12.6079 208.258L25.3466 198.839L26.4109 202.004L20.6865 205.929L17.3475 207.948L17.6704 208.876L21.4732 208.222Z" stroke="#EED605"/>
<g filter="url(#filter32_i_1_3)">
<path d="M35.8955 250.798L43.1277 250.14L44.5176 254.272L27.8576 255.168L26.5206 251.193L35.4755 245.599L25.1395 247.086L23.7731 243.023L37.3565 232.98L38.7582 237.148L32.7014 241.301L29.35 243.327L33.1627 242.672L40.3038 241.743L41.5968 245.588L35.4665 249.522L32.1442 251.411L35.8955 250.798Z" fill="#BEC1C6"/>
</g>
<path d="M33.2271 243.17L39.9618 242.294L40.9995 245.38L35.2179 249.091L31.9074 250.973L32.2145 251.908L35.9486 251.298L42.7807 250.676L43.8332 253.805L28.2092 254.645L27.1195 251.405L35.7303 246.026L35.4144 245.1L25.4798 246.53L24.3619 243.206L37.1006 233.787L38.1649 236.952L32.4404 240.877L29.1015 242.896L29.4244 243.824L33.2271 243.17Z" stroke="#EED605"/>
<g filter="url(#filter33_i_1_3)">
<path d="M67.3859 289.559L74.7029 285.949L77.7715 289.549L60.6741 297.239L57.7223 293.776L64.9167 284.489L54.6731 290.2L51.6564 286.661L61.9613 271.003L65.0559 274.633L60.3339 281.287L57.6153 284.695L61.3525 282.482L68.4683 278.636L71.3229 281.984L66.4387 288.448L63.6967 291.705L67.3859 289.559Z" fill="#BEC1C6"/>
</g>
<path d="M61.5988 282.917L68.3502 279.268L70.6819 282.003L66.0477 288.136L63.3142 291.383L63.9481 292.138L67.6225 290L74.575 286.57L76.9587 289.366L60.8112 296.629L58.3664 293.761L65.312 284.795L64.6732 284.052L54.7877 289.563L52.2804 286.622L62.0128 271.834L64.4228 274.661L59.9343 280.986L57.2244 284.383L57.8701 285.125L61.5988 282.917Z" stroke="#EED605"/>
<g filter="url(#filter34_i_1_3)">
<path d="M98.7657 324.628C97.0163 323.922 95.5936 322.712 94.733 321.199C94.407 320.505 94.2592 319.757 94.3001 319.008C94.3411 318.258 94.5698 317.526 94.9699 316.863L98.8845 318.686C98.2186 319.997 98.7673 321.058 100.535 321.881C102.063 322.593 103.103 322.52 103.637 321.635C103.728 321.487 103.78 321.323 103.79 321.155C103.799 320.987 103.765 320.819 103.69 320.665C103.414 320.225 103.046 319.834 102.607 319.514L100.021 317.514C97.7411 315.776 97.2093 313.918 98.403 311.937C98.7253 311.363 99.1885 310.859 99.7592 310.46C100.33 310.062 100.994 309.78 101.703 309.635C103.505 309.375 105.352 309.701 106.899 310.552C108.536 311.21 109.872 312.333 110.692 313.74C111.008 314.361 111.163 315.036 111.145 315.715C111.127 316.395 110.936 317.063 110.587 317.67L106.761 315.888C107.22 314.769 106.734 313.886 105.302 313.22C104.802 312.956 104.222 312.832 103.639 312.863C103.417 312.876 103.203 312.938 103.018 313.046C102.832 313.153 102.681 313.3 102.58 313.474C102.243 314.033 102.486 314.644 103.323 315.302L106.028 317.367C108.468 319.252 109.065 321.228 107.82 323.294C107.48 323.924 106.971 324.472 106.337 324.891C105.702 325.309 104.96 325.585 104.177 325.695C102.288 325.88 100.384 325.504 98.7657 324.628Z" fill="#BEC1C6"/>
</g>
<path d="M99.0508 324.213L99.026 324.2L98.9996 324.189C97.3535 323.525 96.0169 322.389 95.2072 320.974C94.9152 320.346 94.7845 319.674 94.8211 319.003C94.8491 318.49 94.9746 317.987 95.1906 317.514L98.2324 318.931C98.0207 319.543 98.0376 320.139 98.3231 320.691C98.6622 321.348 99.3464 321.876 100.277 322.309C101.072 322.679 101.813 322.883 102.472 322.832C103.178 322.778 103.735 322.433 104.089 321.848C104.222 321.632 104.297 321.393 104.31 321.15C104.324 320.907 104.274 320.668 104.169 320.45L104.158 320.429L104.146 320.408C103.84 319.922 103.435 319.491 102.952 319.138L100.371 317.142L100.371 317.142L100.368 317.14C99.2739 316.306 98.6482 315.479 98.4142 314.669C98.1844 313.874 98.317 313.043 98.8563 312.148L98.8603 312.142L98.8641 312.135C99.1475 311.63 99.5551 311.186 100.059 310.834C100.559 310.485 101.143 310.235 101.772 310.104C103.445 309.866 105.166 310.17 106.611 310.965L106.638 310.98L106.666 310.991C108.202 311.608 109.454 312.66 110.223 313.974C110.504 314.53 110.64 315.13 110.623 315.732C110.612 316.171 110.519 316.603 110.352 317.012L107.381 315.629C107.509 315.109 107.461 314.61 107.21 314.151C106.905 313.594 106.331 313.152 105.571 312.797C104.991 312.494 104.319 312.35 103.639 312.387L103.638 312.387C103.329 312.404 103.026 312.492 102.759 312.646C102.492 312.8 102.273 313.013 102.125 313.267C101.878 313.679 101.85 314.117 102.021 314.54C102.184 314.944 102.521 315.319 102.97 315.672L102.97 315.672L102.975 315.676L105.678 317.739C105.678 317.74 105.679 317.74 105.679 317.74C106.855 318.65 107.539 319.544 107.802 320.415C108.061 321.27 107.929 322.15 107.366 323.083L107.36 323.093L107.354 323.104C107.057 323.657 106.609 324.14 106.049 324.509C105.491 324.877 104.837 325.122 104.14 325.222C102.367 325.393 100.575 325.039 99.0508 324.213Z" stroke="#EED605"/>
<g filter="url(#filter35_i_1_3)">
<path d="M124.534 327.003L129.847 321.918L134 323.851L121.303 335.142L117.309 333.282L120.375 323.719L113.183 331.361L109.1 329.46L112.605 313.89L116.793 315.84L114.991 322.56L113.794 326.093L116.369 323.202L121.411 317.99L125.274 319.788L123.252 326.406L121.977 329.827L124.534 327.003Z" fill="#BEC1C6"/>
</g>
<path d="M116.758 323.498L121.511 318.585L124.66 320.051L122.754 326.29L121.485 329.697L122.371 330.118L124.914 327.309L129.933 322.506L133.119 323.989L121.232 334.56L117.927 333.021L120.874 323.828L119.988 323.42L113.077 330.763L109.688 329.185L112.97 314.608L116.191 316.108L114.488 322.458L113.297 325.977L114.191 326.381L116.758 323.498Z" stroke="#EED605"/>
<defs>
<filter id="filter0_i_1_3" x="253.409" y="301.124" width="21.7011" height="25.029" filterUnits="userSpaceOnUse" color-interpolation-filters="sRGB">
<feFlood flood-opacity="0" result="BackgroundImageFix"/>
<feBlend mode="normal" in="SourceGraphic" in2="BackgroundImageFix" result="shape"/>
<feColorMatrix in="SourceAlpha" type="matrix" values="0 0 0 0 0 0 0 0 0 0 0 0 0 0 0 0 0 0 127 0" result="hardAlpha"/>
<feOffset dy="4"/>
<feGaussianBlur stdDeviation="2"/>
<feComposite in2="hardAlpha" operator="arithmetic" k2="-1" k3="1"/>
<feColorMatrix type="matrix" values="0 0 0 0 0 0 0 0 0 0 0 0 0 0 0 0 0 0 0.25 0"/>
<feBlend mode="normal" in2="shape" result="effect1_innerShadow_1_3"/>
</filter>
<filter id="filter1_i_1_3" x="242.054" y="310.837" width="17.5274" height="20.7169" filterUnits="userSpaceOnUse" color-interpolation-filters="sRGB">
<feFlood flood-opacity="0" result="BackgroundImageFix"/>
<feBlend mode="normal" in="SourceGraphic" in2="BackgroundImageFix" result="shape"/>
<feColorMatrix in="SourceAlpha" type="matrix" values="0 0 0 0 0 0 0 0 0 0 0 0 0 0 0 0 0 0 127 0" result="hardAlpha"/>
<feOffset dy="4"/>
<feGaussianBlur stdDeviation="2"/>
<feComposite in2="hardAlpha" operator="arithmetic" k2="-1" k3="1"/>
<feColorMatrix type="matrix" values="0 0 0 0 0 0 0 0 0 0 0 0 0 0 0 0 0 0 0.25 0"/>
<feBlend mode="normal" in2="shape" result="effect1_innerShadow_1_3"/>
</filter>
<filter id="filter2_i_1_3" x="285.751" y="64.0697" width="23.7797" height="27.2996" filterUnits="userSpaceOnUse" color-interpolation-filters="sRGB">
<feFlood flood-opacity="0" result="BackgroundImageFix"/>
<feBlend mode="normal" in="SourceGraphic" in2="BackgroundImageFix" result="shape"/>
<feColorMatrix in="SourceAlpha" type="matrix" values="0 0 0 0 0 0 0 0 0 0 0 0 0 0 0 0 0 0 127 0" result="hardAlpha"/>
<feOffset dy="4"/>
<feGaussianBlur stdDeviation="2"/>
<feComposite in2="hardAlpha" operator="arithmetic" k2="-1" k3="1"/>
<feColorMatrix type="matrix" values="0 0 0 0 0 0 0 0 0 0 0 0 0 0 0 0 0 0 0.25 0"/>
<feBlend mode="normal" in2="shape" result="effect1_innerShadow_1_3"/>
</filter>
<filter id="filter3_i_1_3" x="170" y="13" width="15.64" height="22" filterUnits="userSpaceOnUse" color-interpolation-filters="sRGB">
<feFlood flood-opacity="0" result="BackgroundImageFix"/>
<feBlend mode="normal" in="SourceGraphic" in2="BackgroundImageFix" result="shape"/>
<feColorMatrix in="SourceAlpha" type="matrix" values="0 0 0 0 0 0 0 0 0 0 0 0 0 0 0 0 0 0 127 0" result="hardAlpha"/>
<feOffset dy="4"/>
<feGaussianBlur stdDeviation="2"/>
<feComposite in2="hardAlpha" operator="arithmetic" k2="-1" k3="1"/>
<feColorMatrix type="matrix" values="0 0 0 0 0 0 0 0 0 0 0 0 0 0 0 0 0 0 0.25 0"/>
<feBlend mode="normal" in2="shape" result="effect1_innerShadow_1_3"/>
</filter>
<filter id="filter4_i_1_3" x="226" y="16.9387" width="19.0152" height="24.7678" filterUnits="userSpaceOnUse" color-interpolation-filters="sRGB">
<feFlood flood-opacity="0" result="BackgroundImageFix"/>
<feBlend mode="normal" in="SourceGraphic" in2="BackgroundImageFix" result="shape"/>
<feColorMatrix in="SourceAlpha" type="matrix" values="0 0 0 0 0 0 0 0 0 0 0 0 0 0 0 0 0 0 127 0" result="hardAlpha"/>
<feOffset dy="4"/>
<feGaussianBlur stdDeviation="2"/>
<feComposite in2="hardAlpha" operator="arithmetic" k2="-1" k3="1"/>
<feColorMatrix type="matrix" values="0 0 0 0 0 0 0 0 0 0 0 0 0 0 0 0 0 0 0.25 0"/>
<feBlend mode="normal" in2="shape" result="effect1_innerShadow_1_3"/>
</filter>
<filter id="filter5_i_1_3" x="79.4734" y="34.1322" width="20.0603" height="25.8678" filterUnits="userSpaceOnUse" color-interpolation-filters="sRGB">
<feFlood flood-opacity="0" result="BackgroundImageFix"/>
<feBlend mode="normal" in="SourceGraphic" in2="BackgroundImageFix" result="shape"/>
<feColorMatrix in="SourceAlpha" type="matrix" values="0 0 0 0 0 0 0 0 0 0 0 0 0 0 0 0 0 0 127 0" result="hardAlpha"/>
<feOffset dy="4"/>
<feGaussianBlur stdDeviation="2"/>
<feComposite in2="hardAlpha" operator="arithmetic" k2="-1" k3="1"/>
<feColorMatrix type="matrix" values="0 0 0 0 0 0 0 0 0 0 0 0 0 0 0 0 0 0 0.25 0"/>
<feBlend mode="normal" in2="shape" result="effect1_innerShadow_1_3"/>
</filter>
<filter id="filter6_i_1_3" x="93.9923" y="26.3752" width="20.0603" height="25.8678" filterUnits="userSpaceOnUse" color-interpolation-filters="sRGB">
<feFlood flood-opacity="0" result="BackgroundImageFix"/>
<feBlend mode="normal" in="SourceGraphic" in2="BackgroundImageFix" result="shape"/>
<feColorMatrix in="SourceAlpha" type="matrix" values="0 0 0 0 0 0 0 0 0 0 0 0 0 0 0 0 0 0 127 0" result="hardAlpha"/>
<feOffset dy="4"/>
<feGaussianBlur stdDeviation="2"/>
<feComposite in2="hardAlpha" operator="arithmetic" k2="-1" k3="1"/>
<feColorMatrix type="matrix" values="0 0 0 0 0 0 0 0 0 0 0 0 0 0 0 0 0 0 0.25 0"/>
<feBlend mode="normal" in2="shape" result="effect1_innerShadow_1_3"/>
</filter>
<filter id="filter7_i_1_3" x="37.3647" y="75.1046" width="23.8453" height="27.5955" filterUnits="userSpaceOnUse" color-interpolation-filters="sRGB">
<feFlood flood-opacity="0" result="BackgroundImageFix"/>
<feBlend mode="normal" in="SourceGraphic" in2="BackgroundImageFix" result="shape"/>
<feColorMatrix in="SourceAlpha" type="matrix" values="0 0 0 0 0 0 0 0 0 0 0 0 0 0 0 0 0 0 127 0" result="hardAlpha"/>
<feOffset dy="4"/>
<feGaussianBlur stdDeviation="2"/>
<feComposite in2="hardAlpha" operator="arithmetic" k2="-1" k3="1"/>
<feColorMatrix type="matrix" values="0 0 0 0 0 0 0 0 0 0 0 0 0 0 0 0 0 0 0.25 0"/>
<feBlend mode="normal" in2="shape" result="effect1_innerShadow_1_3"/>
</filter>
<filter id="filter8_i_1_3" x="16.7383" y="118.296" width="19.794" height="22.1876" filterUnits="userSpaceOnUse" color-interpolation-filters="sRGB">
<feFlood flood-opacity="0" result="BackgroundImageFix"/>
<feBlend mode="normal" in="SourceGraphic" in2="BackgroundImageFix" result="shape"/>
<feColorMatrix in="SourceAlpha" type="matrix" values="0 0 0 0 0 0 0 0 0 0 0 0 0 0 0 0 0 0 127 0" result="hardAlpha"/>
<feOffset dy="4"/>
<feGaussianBlur stdDeviation="2"/>
<feComposite in2="hardAlpha" operator="arithmetic" k2="-1" k3="1"/>
<feColorMatrix type="matrix" values="0 0 0 0 0 0 0 0 0 0 0 0 0 0 0 0 0 0 0.25 0"/>
<feBlend mode="normal" in2="shape" result="effect1_innerShadow_1_3"/>
</filter>
<filter id="filter9_i_1_3" x="329" y="169" width="14.49" height="22" filterUnits="userSpaceOnUse" color-interpolation-filters="sRGB">
<feFlood flood-opacity="0" result="BackgroundImageFix"/>
<feBlend mode="normal" in="SourceGraphic" in2="BackgroundImageFix" result="shape"/>
<feColorMatrix in="SourceAlpha" type="matrix" values="0 0 0 0 0 0 0 0 0 0 0 0 0 0 0 0 0 0 127 0" result="hardAlpha"/>
<feOffset dy="4"/>
<feGaussianBlur stdDeviation="2"/>
<feComposite in2="hardAlpha" operator="arithmetic" k2="-1" k3="1"/>
<feColorMatrix type="matrix" values="0 0 0 0 0 0 0 0 0 0 0 0 0 0 0 0 0 0 0.25 0"/>
<feBlend mode="normal" in2="shape" result="effect1_innerShadow_1_3"/>
</filter>
<filter id="filter10_i_1_3" x="313" y="105" width="19.6748" height="21.0701" filterUnits="userSpaceOnUse" color-interpolation-filters="sRGB">
<feFlood flood-opacity="0" result="BackgroundImageFix"/>
<feBlend mode="normal" in="SourceGraphic" in2="BackgroundImageFix" result="shape"/>
<feColorMatrix in="SourceAlpha" type="matrix" values="0 0 0 0 0 0 0 0 0 0 0 0 0 0 0 0 0 0 127 0" result="hardAlpha"/>
<feOffset dy="4"/>
<feGaussianBlur stdDeviation="2"/>
<feComposite in2="hardAlpha" operator="arithmetic" k2="-1" k3="1"/>
<feColorMatrix type="matrix" values="0 0 0 0 0 0 0 0 0 0 0 0 0 0 0 0 0 0 0.25 0"/>
<feBlend mode="normal" in2="shape" result="effect1_innerShadow_1_3"/>
</filter>
<filter id="filter11_i_1_3" x="296.515" y="78.4964" width="22.9365" height="26.3779" filterUnits="userSpaceOnUse" color-interpolation-filters="sRGB">
<feFlood flood-opacity="0" result="BackgroundImageFix"/>
<feBlend mode="normal" in="SourceGraphic" in2="BackgroundImageFix" result="shape"/>
<feColorMatrix in="SourceAlpha" type="matrix" values="0 0 0 0 0 0 0 0 0 0 0 0 0 0 0 0 0 0 127 0" result="hardAlpha"/>
<feOffset dy="4"/>
<feGaussianBlur stdDeviation="2"/>
<feComposite in2="hardAlpha" operator="arithmetic" k2="-1" k3="1"/>
<feColorMatrix type="matrix" values="0 0 0 0 0 0 0 0 0 0 0 0 0 0 0 0 0 0 0.25 0"/>
<feBlend mode="normal" in2="shape" result="effect1_innerShadow_1_3"/>
</filter>
<filter id="filter12_i_1_3" x="318.006" y="119.052" width="20.09" height="22.0206" filterUnits="userSpaceOnUse" color-interpolation-filters="sRGB">
<feFlood flood-opacity="0" result="BackgroundImageFix"/>
<feBlend mode="normal" in="SourceGraphic" in2="BackgroundImageFix" result="shape"/>
<feColorMatrix in="SourceAlpha" type="matrix" values="0 0 0 0 0 0 0 0 0 0 0 0 0 0 0 0 0 0 127 0" result="hardAlpha"/>
<feOffset dy="4"/>
<feGaussianBlur stdDeviation="2"/>
<feComposite in2="hardAlpha" operator="arithmetic" k2="-1" k3="1"/>
<feColorMatrix type="matrix" values="0 0 0 0 0 0 0 0 0 0 0 0 0 0 0 0 0 0 0.25 0"/>
<feBlend mode="normal" in2="shape" result="effect1_innerShadow_1_3"/>
</filter>
<filter id="filter13_i_1_3" x="323.307" y="133.93" width="19.6748" height="21.0701" filterUnits="userSpaceOnUse" color-interpolation-filters="sRGB">
<feFlood flood-opacity="0" result="BackgroundImageFix"/>
<feBlend mode="normal" in="SourceGraphic" in2="BackgroundImageFix" result="shape"/>
<feColorMatrix in="SourceAlpha" type="matrix" values="0 0 0 0 0 0 0 0 0 0 0 0 0 0 0 0 0 0 127 0" result="hardAlpha"/>
<feOffset dy="4"/>
<feGaussianBlur stdDeviation="2"/>
<feComposite in2="hardAlpha" operator="arithmetic" k2="-1" k3="1"/>
<feColorMatrix type="matrix" values="0 0 0 0 0 0 0 0 0 0 0 0 0 0 0 0 0 0 0.25 0"/>
<feBlend mode="normal" in2="shape" result="effect1_innerShadow_1_3"/>
</filter>
<filter id="filter14_i_1_3" x="310" y="236.188" width="20.6096" height="23.5047" filterUnits="userSpaceOnUse" color-interpolation-filters="sRGB">
<feFlood flood-opacity="0" result="BackgroundImageFix"/>
<feBlend mode="normal" in="SourceGraphic" in2="BackgroundImageFix" result="shape"/>
<feColorMatrix in="SourceAlpha" type="matrix" values="0 0 0 0 0 0 0 0 0 0 0 0 0 0 0 0 0 0 127 0" result="hardAlpha"/>
<feOffset dy="4"/>
<feGaussianBlur stdDeviation="2"/>
<feComposite in2="hardAlpha" operator="arithmetic" k2="-1" k3="1"/>
<feColorMatrix type="matrix" values="0 0 0 0 0 0 0 0 0 0 0 0 0 0 0 0 0 0 0.25 0"/>
<feBlend mode="normal" in2="shape" result="effect1_innerShadow_1_3"/>
</filter>
<filter id="filter15_i_1_3" x="321.234" y="207.235" width="20.6096" height="23.5046" filterUnits="userSpaceOnUse" color-interpolation-filters="sRGB">
<feFlood flood-opacity="0" result="BackgroundImageFix"/>
<feBlend mode="normal" in="SourceGraphic" in2="BackgroundImageFix" result="shape"/>
<feColorMatrix in="SourceAlpha" type="matrix" values="0 0 0 0 0 0 0 0 0 0 0 0 0 0 0 0 0 0 127 0" result="hardAlpha"/>
<feOffset dy="4"/>
<feGaussianBlur stdDeviation="2"/>
<feComposite in2="hardAlpha" operator="arithmetic" k2="-1" k3="1"/>
<feColorMatrix type="matrix" values="0 0 0 0 0 0 0 0 0 0 0 0 0 0 0 0 0 0 0.25 0"/>
<feBlend mode="normal" in2="shape" result="effect1_innerShadow_1_3"/>
</filter>
<filter id="filter16_i_1_3" x="239.716" y="24.3223" width="19.0152" height="24.7678" filterUnits="userSpaceOnUse" color-interpolation-filters="sRGB">
<feFlood flood-opacity="0" result="BackgroundImageFix"/>
<feBlend mode="normal" in="SourceGraphic" in2="BackgroundImageFix" result="shape"/>
<feColorMatrix in="SourceAlpha" type="matrix" values="0 0 0 0 0 0 0 0 0 0 0 0 0 0 0 0 0 0 127 0" result="hardAlpha"/>
<feOffset dy="4"/>
<feGaussianBlur stdDeviation="2"/>
<feComposite in2="hardAlpha" operator="arithmetic" k2="-1" k3="1"/>
<feColorMatrix type="matrix" values="0 0 0 0 0 0 0 0 0 0 0 0 0 0 0 0 0 0 0.25 0"/>
<feBlend mode="normal" in2="shape" result="effect1_innerShadow_1_3"/>
</filter>
<filter id="filter17_i_1_3" x="253.431" y="31.7077" width="17.943" height="24.2923" filterUnits="userSpaceOnUse" color-interpolation-filters="sRGB">
<feFlood flood-opacity="0" result="BackgroundImageFix"/>
<feBlend mode="normal" in="SourceGraphic" in2="BackgroundImageFix" result="shape"/>
<feColorMatrix in="SourceAlpha" type="matrix" values="0 0 0 0 0 0 0 0 0 0 0 0 0 0 0 0 0 0 127 0" result="hardAlpha"/>
<feOffset dy="4"/>
<feGaussianBlur stdDeviation="2"/>
<feComposite in2="hardAlpha" operator="arithmetic" k2="-1" k3="1"/>
<feColorMatrix type="matrix" values="0 0 0 0 0 0 0 0 0 0 0 0 0 0 0 0 0 0 0.25 0"/>
<feBlend mode="normal" in2="shape" result="effect1_innerShadow_1_3"/>
</filter>
<filter id="filter18_i_1_3" x="170" y="325" width="14.785" height="21.9976" filterUnits="userSpaceOnUse" color-interpolation-filters="sRGB">
<feFlood flood-opacity="0" result="BackgroundImageFix"/>
<feBlend mode="normal" in="SourceGraphic" in2="BackgroundImageFix" result="shape"/>
<feColorMatrix in="SourceAlpha" type="matrix" values="0 0 0 0 0 0 0 0 0 0 0 0 0 0 0 0 0 0 127 0" result="hardAlpha"/>
<feOffset dy="4"/>
<feGaussianBlur stdDeviation="2"/>
<feComposite in2="hardAlpha" operator="arithmetic" k2="-1" k3="1"/>
<feColorMatrix type="matrix" values="0 0 0 0 0 0 0 0 0 0 0 0 0 0 0 0 0 0 0.25 0"/>
<feBlend mode="normal" in2="shape" result="effect1_innerShadow_1_3"/>
</filter>
<filter id="filter19_i_1_3" x="80.1548" y="302.965" width="16.8529" height="20.1937" filterUnits="userSpaceOnUse" color-interpolation-filters="sRGB">
<feFlood flood-opacity="0" result="BackgroundImageFix"/>
<feBlend mode="normal" in="SourceGraphic" in2="BackgroundImageFix" result="shape"/>
<feColorMatrix in="SourceAlpha" type="matrix" values="0 0 0 0 0 0 0 0 0 0 0 0 0 0 0 0 0 0 127 0" result="hardAlpha"/>
<feOffset dy="4"/>
<feGaussianBlur stdDeviation="2"/>
<feComposite in2="hardAlpha" operator="arithmetic" k2="-1" k3="1"/>
<feColorMatrix type="matrix" values="0 0 0 0 0 0 0 0 0 0 0 0 0 0 0 0 0 0 0.25 0"/>
<feBlend mode="normal" in2="shape" result="effect1_innerShadow_1_3"/>
</filter>
<filter id="filter20_i_1_3" x="41.0966" y="262.125" width="17.9695" height="22.0692" filterUnits="userSpaceOnUse" color-interpolation-filters="sRGB">
<feFlood flood-opacity="0" result="BackgroundImageFix"/>
<feBlend mode="normal" in="SourceGraphic" in2="BackgroundImageFix" result="shape"/>
<feColorMatrix in="SourceAlpha" type="matrix" values="0 0 0 0 0 0 0 0 0 0 0 0 0 0 0 0 0 0 127 0" result="hardAlpha"/>
<feOffset dy="4"/>
<feGaussianBlur stdDeviation="2"/>
<feComposite in2="hardAlpha" operator="arithmetic" k2="-1" k3="1"/>
<feColorMatrix type="matrix" values="0 0 0 0 0 0 0 0 0 0 0 0 0 0 0 0 0 0 0.25 0"/>
<feBlend mode="normal" in2="shape" result="effect1_innerShadow_1_3"/>
</filter>
<filter id="filter21_i_1_3" x="19.4727" y="221.573" width="16.1171" height="19.3079" filterUnits="userSpaceOnUse" color-interpolation-filters="sRGB">
<feFlood flood-opacity="0" result="BackgroundImageFix"/>
<feBlend mode="normal" in="SourceGraphic" in2="BackgroundImageFix" result="shape"/>
<feColorMatrix in="SourceAlpha" type="matrix" values="0 0 0 0 0 0 0 0 0 0 0 0 0 0 0 0 0 0 127 0" result="hardAlpha"/>
<feOffset dy="4"/>
<feGaussianBlur stdDeviation="2"/>
<feComposite in2="hardAlpha" operator="arithmetic" k2="-1" k3="1"/>
<feColorMatrix type="matrix" values="0 0 0 0 0 0 0 0 0 0 0 0 0 0 0 0 0 0 0.25 0"/>
<feBlend mode="normal" in2="shape" result="effect1_innerShadow_1_3"/>
</filter>
<filter id="filter22_i_1_3" x="228.35" y="318.466" width="17.5274" height="20.7169" filterUnits="userSpaceOnUse" color-interpolation-filters="sRGB">
<feFlood flood-opacity="0" result="BackgroundImageFix"/>
<feBlend mode="normal" in="SourceGraphic" in2="BackgroundImageFix" result="shape"/>
<feColorMatrix in="SourceAlpha" type="matrix" values="0 0 0 0 0 0 0 0 0 0 0 0 0 0 0 0 0 0 127 0" result="hardAlpha"/>
<feOffset dy="4"/>
<feGaussianBlur stdDeviation="2"/>
<feComposite in2="hardAlpha" operator="arithmetic" k2="-1" k3="1"/>
<feColorMatrix type="matrix" values="0 0 0 0 0 0 0 0 0 0 0 0 0 0 0 0 0 0 0.25 0"/>
<feBlend mode="normal" in2="shape" result="effect1_innerShadow_1_3"/>
</filter>
<filter id="filter23_i_1_3" x="317.081" y="224.284" width="17.1148" height="20.0275" filterUnits="userSpaceOnUse" color-interpolation-filters="sRGB">
<feFlood flood-opacity="0" result="BackgroundImageFix"/>
<feBlend mode="normal" in="SourceGraphic" in2="BackgroundImageFix" result="shape"/>
<feColorMatrix in="SourceAlpha" type="matrix" values="0 0 0 0 0 0 0 0 0 0 0 0 0 0 0 0 0 0 127 0" result="hardAlpha"/>
<feOffset dy="4"/>
<feGaussianBlur stdDeviation="2"/>
<feComposite in2="hardAlpha" operator="arithmetic" k2="-1" k3="1"/>
<feColorMatrix type="matrix" values="0 0 0 0 0 0 0 0 0 0 0 0 0 0 0 0 0 0 0.25 0"/>
<feBlend mode="normal" in2="shape" result="effect1_innerShadow_1_3"/>
</filter>
<filter id="filter24_i_1_3" x="292.866" y="261.2" width="23.1048" height="26.4491" filterUnits="userSpaceOnUse" color-interpolation-filters="sRGB">
<feFlood flood-opacity="0" result="BackgroundImageFix"/>
<feBlend mode="normal" in="SourceGraphic" in2="BackgroundImageFix" result="shape"/>
<feColorMatrix in="SourceAlpha" type="matrix" values="0 0 0 0 0 0 0 0 0 0 0 0 0 0 0 0 0 0 127 0" result="hardAlpha"/>
<feOffset dy="4"/>
<feGaussianBlur stdDeviation="2"/>
<feComposite in2="hardAlpha" operator="arithmetic" k2="-1" k3="1"/>
<feColorMatrix type="matrix" values="0 0 0 0 0 0 0 0 0 0 0 0 0 0 0 0 0 0 0.25 0"/>
<feBlend mode="normal" in2="shape" result="effect1_innerShadow_1_3"/>
</filter>
<filter id="filter25_i_1_3" x="284.519" y="276.619" width="18.3986" height="21.5781" filterUnits="userSpaceOnUse" color-interpolation-filters="sRGB">
<feFlood flood-opacity="0" result="BackgroundImageFix"/>
<feBlend mode="normal" in="SourceGraphic" in2="BackgroundImageFix" result="shape"/>
<feColorMatrix in="SourceAlpha" type="matrix" values="0 0 0 0 0 0 0 0 0 0 0 0 0 0 0 0 0 0 127 0" result="hardAlpha"/>
<feOffset dy="4"/>
<feGaussianBlur stdDeviation="2"/>
<feComposite in2="hardAlpha" operator="arithmetic" k2="-1" k3="1"/>
<feColorMatrix type="matrix" values="0 0 0 0 0 0 0 0 0 0 0 0 0 0 0 0 0 0 0.25 0"/>
<feBlend mode="normal" in2="shape" result="effect1_innerShadow_1_3"/>
</filter>
<filter id="filter26_i_1_3" x="11" y="169" width="24.37" height="22" filterUnits="userSpaceOnUse" color-interpolation-filters="sRGB">
<feFlood flood-opacity="0" result="BackgroundImageFix"/>
<feBlend mode="normal" in="SourceGraphic" in2="BackgroundImageFix" result="shape"/>
<feColorMatrix in="SourceAlpha" type="matrix" values="0 0 0 0 0 0 0 0 0 0 0 0 0 0 0 0 0 0 127 0" result="hardAlpha"/>
<feOffset dy="4"/>
<feGaussianBlur stdDeviation="2"/>
<feComposite in2="hardAlpha" operator="arithmetic" k2="-1" k3="1"/>
<feColorMatrix type="matrix" values="0 0 0 0 0 0 0 0 0 0 0 0 0 0 0 0 0 0 0.25 0"/>
<feBlend mode="normal" in2="shape" result="effect1_innerShadow_1_3"/>
</filter>
<filter id="filter27_i_1_3" x="11.0165" y="132.299" width="20.7197" height="25.1999" filterUnits="userSpaceOnUse" color-interpolation-filters="sRGB">
<feFlood flood-opacity="0" result="BackgroundImageFix"/>
<feBlend mode="normal" in="SourceGraphic" in2="BackgroundImageFix" result="shape"/>
<feColorMatrix in="SourceAlpha" type="matrix" values="0 0 0 0 0 0 0 0 0 0 0 0 0 0 0 0 0 0 127 0" result="hardAlpha"/>
<feOffset dy="4"/>
<feGaussianBlur stdDeviation="2"/>
<feComposite in2="hardAlpha" operator="arithmetic" k2="-1" k3="1"/>
<feColorMatrix type="matrix" values="0 0 0 0 0 0 0 0 0 0 0 0 0 0 0 0 0 0 0.25 0"/>
<feBlend mode="normal" in2="shape" result="effect1_innerShadow_1_3"/>
</filter>
<filter id="filter28_i_1_3" x="106.898" y="15.7179" width="22.8753" height="27.3761" filterUnits="userSpaceOnUse" color-interpolation-filters="sRGB">
<feFlood flood-opacity="0" result="BackgroundImageFix"/>
<feBlend mode="normal" in="SourceGraphic" in2="BackgroundImageFix" result="shape"/>
<feColorMatrix in="SourceAlpha" type="matrix" values="0 0 0 0 0 0 0 0 0 0 0 0 0 0 0 0 0 0 127 0" result="hardAlpha"/>
<feOffset dy="4"/>
<feGaussianBlur stdDeviation="2"/>
<feComposite in2="hardAlpha" operator="arithmetic" k2="-1" k3="1"/>
<feColorMatrix type="matrix" values="0 0 0 0 0 0 0 0 0 0 0 0 0 0 0 0 0 0 0.25 0"/>
<feBlend mode="normal" in2="shape" result="effect1_innerShadow_1_3"/>
</filter>
<filter id="filter29_i_1_3" x="47.7999" y="56.3582" width="26.1214" height="30.2486" filterUnits="userSpaceOnUse" color-interpolation-filters="sRGB">
<feFlood flood-opacity="0" result="BackgroundImageFix"/>
<feBlend mode="normal" in="SourceGraphic" in2="BackgroundImageFix" result="shape"/>
<feColorMatrix in="SourceAlpha" type="matrix" values="0 0 0 0 0 0 0 0 0 0 0 0 0 0 0 0 0 0 127 0" result="hardAlpha"/>
<feOffset dy="4"/>
<feGaussianBlur stdDeviation="2"/>
<feComposite in2="hardAlpha" operator="arithmetic" k2="-1" k3="1"/>
<feColorMatrix type="matrix" values="0 0 0 0 0 0 0 0 0 0 0 0 0 0 0 0 0 0 0.25 0"/>
<feBlend mode="normal" in2="shape" result="effect1_innerShadow_1_3"/>
</filter>
<filter id="filter30_i_1_3" x="21.8906" y="97.0121" width="20.7197" height="25.1999" filterUnits="userSpaceOnUse" color-interpolation-filters="sRGB">
<feFlood flood-opacity="0" result="BackgroundImageFix"/>
<feBlend mode="normal" in="SourceGraphic" in2="BackgroundImageFix" result="shape"/>
<feColorMatrix in="SourceAlpha" type="matrix" values="0 0 0 0 0 0 0 0 0 0 0 0 0 0 0 0 0 0 127 0" result="hardAlpha"/>
<feOffset dy="4"/>
<feGaussianBlur stdDeviation="2"/>
<feComposite in2="hardAlpha" operator="arithmetic" k2="-1" k3="1"/>
<feColorMatrix type="matrix" values="0 0 0 0 0 0 0 0 0 0 0 0 0 0 0 0 0 0 0.25 0"/>
<feBlend mode="normal" in2="shape" result="effect1_innerShadow_1_3"/>
</filter>
<filter id="filter31_i_1_3" x="12.0192" y="198.032" width="20.7445" height="26.1876" filterUnits="userSpaceOnUse" color-interpolation-filters="sRGB">
<feFlood flood-opacity="0" result="BackgroundImageFix"/>
<feBlend mode="normal" in="SourceGraphic" in2="BackgroundImageFix" result="shape"/>
<feColorMatrix in="SourceAlpha" type="matrix" values="0 0 0 0 0 0 0 0 0 0 0 0 0 0 0 0 0 0 127 0" result="hardAlpha"/>
<feOffset dy="4"/>
<feGaussianBlur stdDeviation="2"/>
<feComposite in2="hardAlpha" operator="arithmetic" k2="-1" k3="1"/>
<feColorMatrix type="matrix" values="0 0 0 0 0 0 0 0 0 0 0 0 0 0 0 0 0 0 0.25 0"/>
<feBlend mode="normal" in2="shape" result="effect1_innerShadow_1_3"/>
</filter>
<filter id="filter32_i_1_3" x="23.7731" y="232.98" width="20.7445" height="26.1876" filterUnits="userSpaceOnUse" color-interpolation-filters="sRGB">
<feFlood flood-opacity="0" result="BackgroundImageFix"/>
<feBlend mode="normal" in="SourceGraphic" in2="BackgroundImageFix" result="shape"/>
<feColorMatrix in="SourceAlpha" type="matrix" values="0 0 0 0 0 0 0 0 0 0 0 0 0 0 0 0 0 0 127 0" result="hardAlpha"/>
<feOffset dy="4"/>
<feGaussianBlur stdDeviation="2"/>
<feComposite in2="hardAlpha" operator="arithmetic" k2="-1" k3="1"/>
<feColorMatrix type="matrix" values="0 0 0 0 0 0 0 0 0 0 0 0 0 0 0 0 0 0 0.25 0"/>
<feBlend mode="normal" in2="shape" result="effect1_innerShadow_1_3"/>
</filter>
<filter id="filter33_i_1_3" x="51.6564" y="271.003" width="26.1151" height="30.2355" filterUnits="userSpaceOnUse" color-interpolation-filters="sRGB">
<feFlood flood-opacity="0" result="BackgroundImageFix"/>
<feBlend mode="normal" in="SourceGraphic" in2="BackgroundImageFix" result="shape"/>
<feColorMatrix in="SourceAlpha" type="matrix" values="0 0 0 0 0 0 0 0 0 0 0 0 0 0 0 0 0 0 127 0" result="hardAlpha"/>
<feOffset dy="4"/>
<feGaussianBlur stdDeviation="2"/>
<feComposite in2="hardAlpha" operator="arithmetic" k2="-1" k3="1"/>
<feColorMatrix type="matrix" values="0 0 0 0 0 0 0 0 0 0 0 0 0 0 0 0 0 0 0.25 0"/>
<feBlend mode="normal" in2="shape" result="effect1_innerShadow_1_3"/>
</filter>
<filter id="filter34_i_1_3" x="94.2935" y="309.547" width="16.8529" height="20.1937" filterUnits="userSpaceOnUse" color-interpolation-filters="sRGB">
<feFlood flood-opacity="0" result="BackgroundImageFix"/>
<feBlend mode="normal" in="SourceGraphic" in2="BackgroundImageFix" result="shape"/>
<feColorMatrix in="SourceAlpha" type="matrix" values="0 0 0 0 0 0 0 0 0 0 0 0 0 0 0 0 0 0 127 0" result="hardAlpha"/>
<feOffset dy="4"/>
<feGaussianBlur stdDeviation="2"/>
<feComposite in2="hardAlpha" operator="arithmetic" k2="-1" k3="1"/>
<feColorMatrix type="matrix" values="0 0 0 0 0 0 0 0 0 0 0 0 0 0 0 0 0 0 0.25 0"/>
<feBlend mode="normal" in2="shape" result="effect1_innerShadow_1_3"/>
</filter>
<filter id="filter35_i_1_3" x="109.1" y="313.89" width="24.8997" height="25.2517" filterUnits="userSpaceOnUse" color-interpolation-filters="sRGB">
<feFlood flood-opacity="0" result="BackgroundImageFix"/>
<feBlend mode="normal" in="SourceGraphic" in2="BackgroundImageFix" result="shape"/>
<feColorMatrix in="SourceAlpha" type="matrix" values="0 0 0 0 0 0 0 0 0 0 0 0 0 0 0 0 0 0 127 0" result="hardAlpha"/>
<feOffset dy="4"/>
<feGaussianBlur stdDeviation="2"/>
<feComposite in2="hardAlpha" operator="arithmetic" k2="-1" k3="1"/>
<feColorMatrix type="matrix" values="0 0 0 0 0 0 0 0 0 0 0 0 0 0 0 0 0 0 0.25 0"/>
<feBlend mode="normal" in2="shape" result="effect1_innerShadow_1_3"/>
</filter>
</defs>
</svg>
