<svg width="356" height="356" viewBox="0 0 356 356" fill="none" xmlns="http://www.w3.org/2000/svg">
<path d="M178 353C274.65 353 353 274.65 353 178C353 81.3502 274.65 3 178 3C81.3502 3 3 81.3502 3 178C3 274.65 81.3502 353 178 353Z" fill="#061635" stroke="#EED605" stroke-width="6" stroke-miterlimit="10"/>
<path d="M262.993 314.137L264.686 316.732L273.045 312.078L275.11 315.244L262.699 322.153L253.409 307.909L265.597 301.124L267.62 304.226L259.483 308.756L261.031 311.13L268.175 307.153L270.157 310.192L262.993 314.137Z" fill="#BEC1C6"/>
<path d="M255.399 326.195C253.809 327.197 251.897 327.669 249.977 327.53C249.133 327.413 248.328 327.125 247.618 326.686C246.908 326.248 246.312 325.67 245.872 324.994L249.666 322.882C250.602 324.119 251.919 324.26 253.632 323.306C255.114 322.481 255.578 321.618 254.99 320.716C254.893 320.564 254.76 320.434 254.601 320.336C254.442 320.237 254.261 320.174 254.071 320.149C253.5 320.129 252.93 320.209 252.391 320.383L249.109 321.348C246.24 322.212 244.153 321.626 242.837 319.608C242.443 319.042 242.19 318.402 242.096 317.734C242.002 317.067 242.069 316.388 242.292 315.748C242.967 314.18 244.237 312.894 245.864 312.13C247.349 311.191 249.132 310.741 250.928 310.854C251.696 310.94 252.433 311.183 253.087 311.565C253.74 311.948 254.293 312.461 254.705 313.066L250.996 315.13C250.142 314.16 249.031 314.067 247.643 314.84C247.128 315.093 246.708 315.485 246.438 315.964C246.336 316.146 246.287 316.35 246.296 316.554C246.304 316.759 246.371 316.959 246.488 317.133C246.86 317.703 247.581 317.841 248.653 317.535L252.061 316.512C255.156 315.601 257.39 316.198 258.763 318.303C259.203 318.913 259.475 319.613 259.556 320.342C259.637 321.072 259.525 321.808 259.228 322.488C258.435 324.084 257.087 325.388 255.399 326.195Z" fill="#BEC1C6"/>
<path d="M298.358 79.1393L306.75 72.878L309.53 76.6049L295.104 87.3693L292.281 83.5863L296.887 72.3517L288.544 78.5771L285.751 74.8341L300.177 64.0697L302.97 67.8126L298.358 79.1393Z" fill="#BEC1C6"/>
<path d="M180.99 23.47V13H185.64V31H180.92L174.67 20.59V31H170V13H174.67L180.99 23.47Z" fill="#BEC1C6"/>
<path d="M237.336 29.8012L241.479 21.4827L245.015 23.4053L237.892 37.7065L234.303 35.7549L233.67 24.8999L229.551 33.1707L226 31.2398L233.123 16.9387L236.674 18.8696L237.336 29.8012Z" fill="#BEC1C6"/>
<path d="M92.6684 44.9354L88.338 36.1361L92.0887 34.1322L99.5336 49.26L95.7264 51.294L86.3795 45.2386L90.6851 53.9875L86.9182 56L79.4734 40.8723L83.2402 38.8597L92.6684 44.9354Z" fill="#BEC1C6"/>
<path d="M107.187 37.1784L102.857 28.3791L106.608 26.3752L114.053 41.5029L110.245 43.537L100.898 37.4816L105.204 46.2304L101.437 48.243L93.9923 33.1152L97.7592 31.1027L107.187 37.1784Z" fill="#BEC1C6"/>
<path d="M52.4692 85.4581L44.5324 78.6295L47.5652 75.1046L61.21 86.8442L58.1316 90.4222L46.1641 88.3706L54.0553 95.16L51.0095 98.7001L37.3647 86.9604L40.4105 83.4204L52.4692 85.4581Z" fill="#BEC1C6"/>
<path d="M28.7538 125.048L19.6531 122.298L20.8863 118.296L36.5323 123.023L35.2805 127.085L24.5743 129.731L33.6228 132.464L32.3842 136.484L16.7383 131.757L17.9769 127.737L28.7538 125.048Z" fill="#BEC1C6"/>
<path d="M333.73 179.72V183H343.49V187H329V169H343.23V172.92H333.73V175.92H342.07V179.76L333.73 179.72Z" fill="#BEC1C6"/>
<path d="M320.655 111.943L317.834 112.871L320.708 120.938L317.267 122.07L313 110.093L328.484 105L332.675 116.762L329.303 117.871L326.505 110.019L323.924 110.868L326.38 117.761L323.077 118.848L320.655 111.943Z" fill="#BEC1C6"/>
<path d="M305.179 88.6982L302.55 90.6597L308.386 98.4821L305.181 100.874L296.515 89.2608L310.942 78.4964L319.452 89.9014L316.31 92.2457L310.629 84.6316L308.224 86.4257L313.212 93.11L310.134 95.4064L305.179 88.6982Z" fill="#BEC1C6"/>
<path d="M327.72 131.098L336.727 128.136L338.096 131.979L322.612 137.072L321.222 133.171L328.336 125.059L319.381 128.005L318.006 124.145L333.491 119.052L334.866 122.912L327.72 131.098Z" fill="#BEC1C6"/>
<path d="M330.962 140.873L328.141 141.801L331.015 149.868L327.574 151L323.307 139.023L338.791 133.93L342.981 145.692L339.609 146.801L336.812 138.949L334.231 139.798L336.687 146.691L333.384 147.778L330.962 140.873Z" fill="#BEC1C6"/>
<path d="M320.905 248.732L323.734 249.94L327.16 241.109L330.61 242.582L325.523 255.693L310 249.063L314.996 236.188L318.376 237.632L315.041 246.227L317.628 247.332L320.556 239.786L323.868 241.201L320.905 248.732Z" fill="#BEC1C6"/>
<path d="M332.139 219.779L334.968 220.987L338.394 212.156L341.844 213.63L336.757 226.74L321.234 220.11L326.23 207.235L329.61 208.679L326.275 217.274L328.862 218.379L331.79 210.834L335.102 212.248L332.139 219.779Z" fill="#BEC1C6"/>
<path d="M251.052 37.1848L255.195 28.8663L258.731 30.7889L251.608 45.0901L248.019 43.1385L247.386 32.2835L243.267 40.5543L239.716 38.6234L246.839 24.3223L250.39 26.2532L251.052 37.1848Z" fill="#BEC1C6"/>
<path d="M259.909 42.1805L258.611 44.7865L266.032 48.822L264.449 52L253.431 46.0088L260.554 31.7077L271.374 37.5913L269.823 40.7058L262.599 36.7778L261.412 39.1614L267.754 42.6097L266.234 45.6606L259.909 42.1805Z" fill="#BEC1C6"/>
<path d="M177.49 342.98C175.568 343.089 173.667 342.538 172.1 341.42C171.443 340.875 170.913 340.192 170.55 339.419C170.187 338.647 169.999 337.803 170 336.95H174.43C174.54 338.58 175.59 339.39 177.59 339.39C179.32 339.39 180.2 338.83 180.2 337.69C180.202 337.498 180.161 337.309 180.079 337.136C179.998 336.963 179.879 336.81 179.73 336.69C179.252 336.377 178.719 336.156 178.16 336.04L174.81 335.24C171.87 334.56 170.41 332.94 170.41 330.39C170.389 329.661 170.53 328.937 170.822 328.27C171.114 327.602 171.551 327.008 172.1 326.53C173.553 325.425 175.359 324.888 177.18 325.02C178.976 324.915 180.755 325.419 182.23 326.45C182.84 326.925 183.336 327.532 183.682 328.224C184.028 328.916 184.215 329.676 184.23 330.45H179.9C179.71 329.11 178.81 328.45 177.19 328.45C176.607 328.419 176.028 328.565 175.53 328.87C175.341 328.986 175.185 329.149 175.078 329.344C174.971 329.538 174.917 329.757 174.92 329.98C174.92 330.7 175.46 331.2 176.55 331.47L180.04 332.28C183.2 333.033 184.78 334.74 184.78 337.4C184.816 338.192 184.658 338.982 184.32 339.7C183.982 340.418 183.474 341.042 182.84 341.52C181.269 342.589 179.386 343.103 177.49 342.98Z" fill="#BEC1C6"/>
<path d="M84.6271 318.045C82.8777 317.339 81.455 316.129 80.5944 314.616C80.2684 313.923 80.1206 313.174 80.1615 312.425C80.2024 311.676 80.4311 310.943 80.8312 310.28L84.7458 312.103C84.08 313.414 84.6287 314.475 86.396 315.298C87.9248 316.01 88.9645 315.937 89.4982 315.052C89.5895 314.904 89.6417 314.74 89.6509 314.572C89.66 314.404 89.6259 314.236 89.551 314.082C89.275 313.642 88.9076 313.252 88.4679 312.931L85.8821 310.931C83.6025 309.194 83.0707 307.335 84.2644 305.354C84.5867 304.78 85.0499 304.276 85.6205 303.878C86.1912 303.48 86.8552 303.197 87.5647 303.052C89.366 302.792 91.2134 303.118 92.7606 303.969C94.3969 304.627 95.7332 305.75 96.5537 307.157C96.8698 307.778 97.0245 308.453 97.0063 309.133C96.9881 309.812 96.7975 310.48 96.4485 311.087L92.6223 309.305C93.0817 308.187 92.5953 307.304 91.1638 306.637C90.663 306.373 90.0831 306.249 89.5003 306.28C89.2787 306.293 89.0645 306.356 88.8789 306.463C88.6933 306.57 88.5426 306.718 88.4416 306.892C88.1046 307.451 88.3477 308.061 89.1845 308.719L91.8893 310.784C94.3291 312.669 94.9263 314.645 93.6811 316.711C93.3418 317.341 92.8327 317.889 92.1979 318.308C91.5631 318.726 90.8218 319.003 90.0382 319.112C88.1495 319.297 86.2449 318.921 84.6271 318.045Z" fill="#BEC1C6"/>
<path d="M43.4068 276.953C42.0769 275.561 41.2621 273.757 41.0971 271.839C41.0851 270.985 41.2616 270.139 41.6141 269.362C41.9666 268.584 42.4864 267.894 43.1364 267.341L46.0104 270.712C44.8413 271.853 44.9061 273.178 46.2036 274.7C47.326 276.016 48.3231 276.323 49.1906 275.583C49.3375 275.46 49.4548 275.306 49.5338 275.132C49.6128 274.958 49.6514 274.768 49.6467 274.577C49.5746 274.01 49.3969 273.461 49.1228 272.96L47.5582 269.892C46.1683 267.213 46.454 265.051 48.3945 263.397C48.9351 262.908 49.5772 262.546 50.2747 262.335C50.9722 262.125 51.7078 262.071 52.4284 262.179C54.2118 262.568 55.7922 263.594 56.8731 265.065C58.1182 266.364 58.8891 268.045 59.0611 269.836C59.0946 270.609 58.9553 271.379 58.6531 272.092C58.351 272.804 57.8937 273.44 57.3147 273.953L54.5056 270.658C55.402 269.644 55.3204 268.531 54.2694 267.298C53.9147 266.834 53.4278 266.489 52.8729 266.307C52.6617 266.238 52.4363 266.226 52.2188 266.271C52.0013 266.316 51.7992 266.416 51.6324 266.563C51.0845 267.03 51.0543 267.765 51.556 268.77L53.2038 271.951C54.6806 274.845 54.4069 277.155 52.3826 278.88C51.8027 279.422 51.0994 279.814 50.3338 280.022C49.5681 280.231 48.7632 280.25 47.9887 280.077C46.1557 279.575 44.543 278.476 43.4068 276.953Z" fill="#BEC1C6"/>
<path d="M20.0467 231.886C19.3903 230.24 19.2938 228.411 19.7733 226.703C20.0376 225.962 20.4558 225.293 20.9982 224.74C21.5406 224.188 22.1938 223.768 22.911 223.508L24.2128 227.379C22.8759 227.971 22.504 229.134 23.0917 230.882C23.6001 232.393 24.3291 232.992 25.2867 232.645C25.448 232.589 25.5949 232.495 25.7164 232.372C25.838 232.248 25.931 232.097 25.9886 231.93C26.111 231.418 26.1397 230.885 26.0733 230.361L25.7609 227.191C25.4682 224.415 26.4 222.647 28.542 221.872C29.1476 221.632 29.797 221.535 30.4435 221.587C31.0901 221.639 31.7176 221.84 32.2811 222.175C33.6361 223.108 34.6178 224.523 35.0422 226.154C35.6581 227.691 35.7577 229.399 35.3249 231.001C35.1043 231.678 34.741 232.296 34.2614 232.809C33.7818 233.322 33.198 233.716 32.5526 233.965L31.2802 230.181C32.35 229.608 32.64 228.621 32.1639 227.206C32.0185 226.687 31.7255 226.226 31.3233 225.883C31.1701 225.753 30.987 225.667 30.7921 225.632C30.5972 225.598 30.3972 225.617 30.2117 225.688C29.6069 225.906 29.3455 226.53 29.439 227.565L29.7842 230.86C30.0799 233.85 29.1106 235.75 26.8761 236.559C26.2208 236.831 25.5112 236.933 24.8088 236.856C24.1064 236.779 23.4324 236.525 22.8452 236.117C21.4851 235.07 20.5001 233.58 20.0467 231.886Z" fill="#BEC1C6"/>
<path d="M241.695 333.824C240.105 334.827 238.192 335.298 236.273 335.16C235.429 335.042 234.623 334.754 233.914 334.316C233.204 333.877 232.608 333.299 232.167 332.624L235.962 330.511C236.897 331.749 238.215 331.889 239.928 330.935C241.409 330.11 241.874 329.248 241.286 328.346C241.189 328.193 241.056 328.063 240.897 327.965C240.738 327.867 240.557 327.803 240.367 327.778C239.796 327.759 239.226 327.838 238.687 328.013L235.405 328.977C232.536 329.841 230.449 329.255 229.133 327.237C228.739 326.671 228.486 326.031 228.392 325.363C228.297 324.696 228.364 324.017 228.588 323.377C229.263 321.81 230.532 320.524 232.16 319.76C233.644 318.82 235.428 318.371 237.223 318.483C237.991 318.569 238.729 318.812 239.383 319.195C240.036 319.577 240.589 320.09 241.001 320.695L237.292 322.76C236.438 321.79 235.326 321.697 233.939 322.469C233.423 322.723 233.003 323.114 232.734 323.593C232.632 323.775 232.583 323.979 232.591 324.184C232.6 324.389 232.667 324.588 232.784 324.762C233.156 325.332 233.876 325.47 234.949 325.164L238.357 324.141C241.452 323.23 243.686 323.827 245.059 325.932C245.499 326.542 245.771 327.242 245.852 327.972C245.933 328.701 245.82 329.438 245.524 330.118C244.731 331.713 243.383 333.017 241.695 333.824Z" fill="#BEC1C6"/>
<path d="M333.4 235.337C332.82 237.116 331.678 238.634 330.163 239.639C329.463 240.033 328.688 240.26 327.894 240.304C327.1 240.348 326.307 240.207 325.571 239.893L327.126 235.884C328.57 236.385 329.638 235.734 330.34 233.924C330.947 232.359 330.773 231.356 329.79 230.936C329.626 230.864 329.448 230.832 329.27 230.842C329.092 230.851 328.919 230.903 328.763 230.993C328.325 231.311 327.948 231.711 327.651 232.174L325.785 234.911C324.166 237.32 322.257 238.045 320.058 237.105C319.422 236.856 318.847 236.462 318.374 235.952C317.901 235.442 317.542 234.828 317.322 234.155C316.88 232.433 317.051 230.601 317.803 229.002C318.344 227.338 319.403 225.914 320.809 224.96C321.434 224.583 322.131 224.358 322.849 224.3C323.567 224.241 324.289 224.352 324.961 224.624L323.441 228.541C322.219 228.22 321.334 228.791 320.765 230.256C320.534 230.773 320.457 231.35 320.544 231.913C320.578 232.127 320.664 232.328 320.795 232.497C320.925 232.665 321.095 232.795 321.287 232.874C321.908 233.139 322.529 232.835 323.145 231.948L325.068 229.089C326.827 226.507 328.854 225.706 331.148 226.686C331.844 226.945 332.469 227.379 332.97 227.949C333.47 228.519 333.831 229.209 334.02 229.958C334.391 231.774 334.173 233.667 333.4 235.337Z" fill="#BEC1C6"/>
<path d="M304.134 275.358L306.656 277.455L312.895 269.949L315.971 272.506L306.709 283.649L292.866 272.143L301.962 261.2L304.977 263.706L298.904 271.011L301.212 272.929L306.543 266.515L309.496 268.97L304.134 275.358Z" fill="#BEC1C6"/>
<path d="M300.615 290.949C299.47 292.497 297.831 293.608 295.97 294.097C295.131 294.255 294.267 294.225 293.441 294.011C292.615 293.796 291.846 293.401 291.19 292.855L294.021 289.448C295.345 290.406 296.639 290.116 297.918 288.578C299.023 287.247 299.155 286.213 298.279 285.484C298.133 285.36 297.961 285.271 297.776 285.223C297.59 285.175 297.397 285.169 297.209 285.206C296.663 285.374 296.153 285.643 295.706 285.998L292.949 288.063C290.547 289.889 288.368 289.977 286.407 288.347C285.833 287.897 285.366 287.327 285.04 286.675C284.713 286.024 284.535 285.308 284.519 284.58C284.598 282.756 285.339 281.024 286.604 279.708C287.672 278.259 289.197 277.213 290.932 276.738C291.688 276.573 292.471 276.579 293.225 276.756C293.978 276.932 294.682 277.274 295.287 277.757L292.519 281.087C291.367 280.377 290.284 280.647 289.249 281.893C288.852 282.321 288.595 282.86 288.511 283.438C288.479 283.657 288.505 283.882 288.586 284.088C288.668 284.295 288.801 284.477 288.974 284.616C289.528 285.077 290.258 284.981 291.162 284.315L294.016 282.149C296.615 280.2 298.937 280.076 300.983 281.776C301.616 282.255 302.122 282.882 302.458 283.6C302.794 284.319 302.95 285.109 302.912 285.902C302.73 287.793 301.922 289.57 300.615 290.949Z" fill="#BEC1C6"/>
<path d="M28.64 176.91L30.64 169H35.37L30.13 187H25.58L23.18 175.5L20.88 187H16.23L11 169H15.77L17.77 176.91L18.6 181.19L19.34 176.91L21.03 169H25.43L27.18 176.91L27.88 181.11L28.64 176.91Z" fill="#BEC1C6"/>
<path d="M22.5705 140.168L16.2254 136.37L17.4799 132.299L31.7361 141.536L30.5294 145.452L19.8968 144.497L29.2828 149.497L28.0496 153.499L11.0165 153.273L12.2816 149.168L19.6876 149.524L23.628 149.933L20.104 148.172L13.6767 144.641L14.8436 140.854L22.1833 141.425L26.0197 141.925L22.5705 140.168Z" fill="#BEC1C6"/>
<path d="M124.398 25.266L122.74 17.7563L126.555 15.7179L129.773 33.1038L126.103 35.0646L119.411 26.4339L122.312 37.0901L118.562 39.094L106.898 26.2201L110.746 24.1645L115.63 29.9504L118.07 33.1897L116.897 29.2738L114.988 21.8977L118.537 20.0015L123.221 25.8952L125.522 29.1233L124.398 25.266Z" fill="#BEC1C6"/>
<path d="M65.3009 66.6187L60.6092 59.9437L63.6941 56.3582L73.9214 72.07L70.9538 75.5191L60.671 69.8381L67.8885 79.0819L64.8558 82.6068L47.7999 74.8317L50.9109 71.2159L58.2115 74.8587L61.9972 77.0209L59.2354 73.6686L54.3415 67.2285L57.2112 63.8931L64.3487 67.7255L67.989 69.9341L65.3009 66.6187Z" fill="#BEC1C6"/>
<path d="M33.4446 104.881L27.0995 101.083L28.354 97.0121L42.6102 106.249L41.4035 110.165L30.7709 109.21L40.1569 114.21L38.9237 118.212L21.8906 117.986L23.1557 113.881L30.5617 114.237L34.5021 114.646L30.9781 112.886L24.5508 109.354L25.7177 105.567L33.0574 106.138L36.8938 106.639L33.4446 104.881Z" fill="#BEC1C6"/>
<path d="M24.1416 215.85L31.3738 215.192L32.7637 219.324L16.1037 220.22L14.7667 216.244L23.7216 210.65L13.3856 212.138L12.0192 208.075L25.6026 198.032L27.0042 202.2L20.9474 206.352L17.5961 208.379L21.4088 207.724L28.5499 206.795L29.8428 210.64L23.7125 214.574L20.3902 216.463L24.1416 215.85Z" fill="#BEC1C6"/>
<path d="M35.8955 250.798L43.1277 250.14L44.5176 254.272L27.8576 255.168L26.5206 251.193L35.4755 245.599L25.1395 247.086L23.7731 243.023L37.3565 232.98L38.7582 237.148L32.7014 241.301L29.35 243.327L33.1627 242.672L40.3038 241.743L41.5968 245.588L35.4665 249.522L32.1442 251.411L35.8955 250.798Z" fill="#BEC1C6"/>
<path d="M67.3859 289.559L74.7029 285.949L77.7715 289.549L60.6741 297.239L57.7223 293.776L64.9167 284.489L54.6731 290.2L51.6564 286.661L61.9613 271.003L65.0559 274.633L60.3339 281.287L57.6153 284.695L61.3525 282.482L68.4683 278.636L71.3229 281.984L66.4387 288.448L63.6967 291.705L67.3859 289.559Z" fill="#BEC1C6"/>
<path d="M98.7657 324.628C97.0163 323.922 95.5936 322.712 94.733 321.199C94.407 320.505 94.2592 319.757 94.3001 319.008C94.3411 318.258 94.5698 317.526 94.9699 316.863L98.8845 318.686C98.2186 319.997 98.7673 321.058 100.535 321.881C102.063 322.593 103.103 322.52 103.637 321.635C103.728 321.487 103.78 321.323 103.79 321.155C103.799 320.987 103.765 320.819 103.69 320.665C103.414 320.225 103.046 319.834 102.607 319.514L100.021 317.514C97.7411 315.776 97.2093 313.918 98.403 311.937C98.7253 311.363 99.1885 310.859 99.7592 310.46C100.33 310.062 100.994 309.78 101.703 309.635C103.505 309.375 105.352 309.701 106.899 310.552C108.536 311.21 109.872 312.333 110.692 313.74C111.008 314.361 111.163 315.036 111.145 315.715C111.127 316.395 110.936 317.063 110.587 317.67L106.761 315.888C107.22 314.769 106.734 313.886 105.302 313.22C104.802 312.956 104.222 312.832 103.639 312.863C103.417 312.876 103.203 312.938 103.018 313.046C102.832 313.153 102.681 313.3 102.58 313.474C102.243 314.033 102.486 314.644 103.323 315.302L106.028 317.367C108.468 319.252 109.065 321.228 107.82 323.294C107.48 323.924 106.971 324.472 106.337 324.891C105.702 325.309 104.96 325.585 104.177 325.695C102.288 325.88 100.384 325.504 98.7657 324.628Z" fill="#BEC1C6"/>
<path d="M124.534 327.003L129.847 321.918L134 323.851L121.303 335.142L117.309 333.282L120.375 323.719L113.183 331.361L109.1 329.46L112.605 313.89L116.793 315.84L114.991 322.56L113.794 326.093L116.369 323.202L121.411 317.99L125.274 319.788L123.252 326.406L121.977 329.827L124.534 327.003Z" fill="#BEC1C6"/>
</svg>
