<svg width="23" height="23" viewBox="0 0 23 23" fill="none" xmlns="http://www.w3.org/2000/svg">
<mask id="path-1-outside-1_4_59" maskUnits="userSpaceOnUse" x="0" y="0" width="23" height="23" fill="black">
<rect fill="white" width="23" height="23"/>
<path d="M1 10.53C1 9.37 1.36 8.35 2.09 7.45C2.81 6.55 3.74 5.97 4.87 5.72C5.16 4.34 5.85 3.22 6.94 2.33C8.03 1.44 9.28 1 10.7 1C12.09 1 13.33 1.43 14.42 2.28C15.5 3.13 16.21 4.23 16.54 5.58H16.88C17.78 5.58 18.61 5.8 19.36 6.24C20.12 6.68 20.71 7.28 21.15 8.04C21.58 8.8 21.8 9.63 21.8 10.53C21.8 11.87 21.34 13.01 20.43 13.97C19.51 14.93 18.39 15.43 17.06 15.47C16.94 15.47 16.88 15.41 16.88 15.3V13.96C16.88 13.85 16.94 13.79 17.06 13.79C17.9 13.72 18.63 13.37 19.23 12.74C19.83 12.11 20.13 11.37 20.13 10.52C20.13 9.63 19.81 8.86 19.17 8.21C18.53 7.57 17.77 7.24 16.88 7.24H15.25C15.13 7.24 15.06 7.18 15.03 7.06L14.96 6.49C14.89 5.78 14.66 5.13 14.26 4.55C13.86 3.97 13.35 3.52 12.73 3.19C12.11 2.86 11.43 2.7 10.71 2.7C9.61 2.7 8.66 3.06 7.85 3.79C7.04 4.52 6.58 5.43 6.48 6.51L6.41 7.05C6.41 7.14 6.36 7.19 6.25 7.19L5.71 7.3C4.87 7.37 4.16 7.71 3.6 8.33C3.03 8.95 2.75 9.68 2.75 10.53C2.75 11.4 3.05 12.15 3.64 12.78C4.23 13.41 4.95 13.75 5.81 13.8C5.93 13.8 5.99 13.86 5.99 13.97V15.31C5.99 15.42 5.93 15.48 5.81 15.48C5.15 15.45 4.53 15.3 3.93 15.03C3.33 14.76 2.82 14.4 2.4 13.96C1.97 13.52 1.63 13.01 1.38 12.41C1.13 11.81 1 11.19 1 10.53ZM6.42 17.3C6.42 17.27 6.43 17.22 6.44 17.17C6.45 17.12 6.46 17.08 6.46 17.06L6.73 16.03C6.8 15.81 6.93 15.63 7.13 15.52C7.33 15.4 7.54 15.38 7.77 15.45C8 15.52 8.17 15.65 8.29 15.85C8.41 16.05 8.43 16.26 8.36 16.49L8.12 17.5C7.99 17.94 7.74 18.16 7.36 18.16C7.33 18.16 7.31 18.16 7.27 18.16C7.24 18.16 7.2 18.15 7.16 18.15C7.12 18.14 7.09 18.14 7.06 18.14C6.85 18.08 6.69 17.96 6.58 17.8C6.47 17.64 6.42 17.46 6.42 17.3ZM7.74 12.48C7.74 12.46 7.74 12.42 7.75 12.37C7.76 12.32 7.76 12.29 7.76 12.28L8.06 11.23C8.12 11.04 8.23 10.89 8.38 10.78C8.53 10.68 8.69 10.63 8.85 10.63C8.87 10.63 8.9 10.63 8.93 10.63C8.96 10.63 8.99 10.64 9.02 10.64C9.05 10.65 9.08 10.65 9.1 10.65C9.33 10.72 9.5 10.85 9.61 11.05C9.73 11.25 9.75 11.46 9.68 11.69L9.44 12.69C9.37 12.97 9.24 13.16 9.04 13.28C8.84 13.4 8.62 13.4 8.39 13.3C8.17 13.24 8.01 13.13 7.9 12.96C7.79 12.79 7.74 12.64 7.74 12.48ZM8.97 20.43C8.97 20.4 8.98 20.36 8.99 20.3C9 20.24 9.01 20.21 9.01 20.18L9.3 19.19C9.36 18.95 9.5 18.77 9.7 18.65C9.9 18.53 10.12 18.5 10.35 18.57C10.58 18.64 10.74 18.77 10.86 18.98C10.98 19.19 10.99 19.4 10.93 19.63L10.68 20.67C10.57 21.08 10.31 21.28 9.88 21.28C9.83 21.28 9.75 21.27 9.64 21.24C9.42 21.2 9.26 21.1 9.15 20.94C9.03 20.78 8.97 20.61 8.97 20.43ZM10.31 15.66C10.31 15.6 10.32 15.52 10.35 15.41L10.62 14.38C10.69 14.15 10.82 13.98 11.03 13.87C11.23 13.75 11.45 13.73 11.68 13.8C11.91 13.86 12.07 13.99 12.19 14.19C12.3 14.39 12.32 14.6 12.25 14.84L12.01 15.83C11.88 16.28 11.64 16.51 11.29 16.51C11.25 16.51 11.14 16.49 10.98 16.45C10.76 16.41 10.6 16.31 10.49 16.15C10.37 16 10.31 15.83 10.31 15.66ZM13.13 17.34C13.13 17.27 13.14 17.19 13.16 17.1L13.44 16.11C13.51 15.87 13.64 15.69 13.85 15.57C14.06 15.45 14.26 15.42 14.48 15.48C14.71 15.55 14.89 15.68 15.01 15.89C15.13 16.09 15.16 16.3 15.1 16.52L14.81 17.58C14.71 17.99 14.45 18.19 14.02 18.19C13.93 18.19 13.84 18.18 13.76 18.16C13.56 18.12 13.41 18.02 13.3 17.86C13.2 17.68 13.14 17.51 13.13 17.34ZM14.51 12.58C14.51 12.55 14.53 12.46 14.56 12.32L14.86 11.29C14.9 11.08 14.99 10.92 15.15 10.82C15.31 10.72 15.47 10.67 15.64 10.68C15.68 10.67 15.77 10.68 15.88 10.71C16.1 10.76 16.27 10.89 16.4 11.09C16.52 11.26 16.54 11.47 16.47 11.74L16.23 12.77C16.1 13.2 15.85 13.42 15.47 13.42C15.41 13.42 15.3 13.4 15.13 13.36C14.92 13.3 14.77 13.19 14.67 13.05C14.56 12.89 14.51 12.74 14.51 12.58Z"/>
</mask>
<path d="M1 10.53C1 9.37 1.36 8.35 2.09 7.45C2.81 6.55 3.74 5.97 4.87 5.72C5.16 4.34 5.85 3.22 6.94 2.33C8.03 1.44 9.28 1 10.7 1C12.09 1 13.33 1.43 14.42 2.28C15.5 3.13 16.21 4.23 16.54 5.58H16.88C17.78 5.58 18.61 5.8 19.36 6.24C20.12 6.68 20.71 7.28 21.15 8.04C21.58 8.8 21.8 9.63 21.8 10.53C21.8 11.87 21.34 13.01 20.43 13.97C19.51 14.93 18.39 15.43 17.06 15.47C16.94 15.47 16.88 15.41 16.88 15.3V13.96C16.88 13.85 16.94 13.79 17.06 13.79C17.9 13.72 18.63 13.37 19.23 12.74C19.83 12.11 20.13 11.37 20.13 10.52C20.13 9.63 19.81 8.86 19.17 8.21C18.53 7.57 17.77 7.24 16.88 7.24H15.25C15.13 7.24 15.06 7.18 15.03 7.06L14.96 6.49C14.89 5.78 14.66 5.13 14.26 4.55C13.86 3.97 13.35 3.52 12.73 3.19C12.11 2.86 11.43 2.7 10.71 2.7C9.61 2.7 8.66 3.06 7.85 3.79C7.04 4.52 6.58 5.43 6.48 6.51L6.41 7.05C6.41 7.14 6.36 7.19 6.25 7.19L5.71 7.3C4.87 7.37 4.16 7.71 3.6 8.33C3.03 8.95 2.75 9.68 2.75 10.53C2.75 11.4 3.05 12.15 3.64 12.78C4.23 13.41 4.95 13.75 5.81 13.8C5.93 13.8 5.99 13.86 5.99 13.97V15.31C5.99 15.42 5.93 15.48 5.81 15.48C5.15 15.45 4.53 15.3 3.93 15.03C3.33 14.76 2.82 14.4 2.4 13.96C1.97 13.52 1.63 13.01 1.38 12.41C1.13 11.81 1 11.19 1 10.53ZM6.42 17.3C6.42 17.27 6.43 17.22 6.44 17.17C6.45 17.12 6.46 17.08 6.46 17.06L6.73 16.03C6.8 15.81 6.93 15.63 7.13 15.52C7.33 15.4 7.54 15.38 7.77 15.45C8 15.52 8.17 15.65 8.29 15.85C8.41 16.05 8.43 16.26 8.36 16.49L8.12 17.5C7.99 17.94 7.74 18.16 7.36 18.16C7.33 18.16 7.31 18.16 7.27 18.16C7.24 18.16 7.2 18.15 7.16 18.15C7.12 18.14 7.09 18.14 7.06 18.14C6.85 18.08 6.69 17.96 6.58 17.8C6.47 17.64 6.42 17.46 6.42 17.3ZM7.74 12.48C7.74 12.46 7.74 12.42 7.75 12.37C7.76 12.32 7.76 12.29 7.76 12.28L8.06 11.23C8.12 11.04 8.23 10.89 8.38 10.78C8.53 10.68 8.69 10.63 8.85 10.63C8.87 10.63 8.9 10.63 8.93 10.63C8.96 10.63 8.99 10.64 9.02 10.64C9.05 10.65 9.08 10.65 9.1 10.65C9.33 10.72 9.5 10.85 9.61 11.05C9.73 11.25 9.75 11.46 9.68 11.69L9.44 12.69C9.37 12.97 9.24 13.16 9.04 13.28C8.84 13.4 8.62 13.4 8.39 13.3C8.17 13.24 8.01 13.13 7.9 12.96C7.79 12.79 7.74 12.64 7.74 12.48ZM8.97 20.43C8.97 20.4 8.98 20.36 8.99 20.3C9 20.24 9.01 20.21 9.01 20.18L9.3 19.19C9.36 18.95 9.5 18.77 9.7 18.65C9.9 18.53 10.12 18.5 10.35 18.57C10.58 18.64 10.74 18.77 10.86 18.98C10.98 19.19 10.99 19.4 10.93 19.63L10.68 20.67C10.57 21.08 10.31 21.28 9.88 21.28C9.83 21.28 9.75 21.27 9.64 21.24C9.42 21.2 9.26 21.1 9.15 20.94C9.03 20.78 8.97 20.61 8.97 20.43ZM10.31 15.66C10.31 15.6 10.32 15.52 10.35 15.41L10.62 14.38C10.69 14.15 10.82 13.98 11.03 13.87C11.23 13.75 11.45 13.73 11.68 13.8C11.91 13.86 12.07 13.99 12.19 14.19C12.3 14.39 12.32 14.6 12.25 14.84L12.01 15.83C11.88 16.28 11.64 16.51 11.29 16.51C11.25 16.51 11.14 16.49 10.98 16.45C10.76 16.41 10.6 16.31 10.49 16.15C10.37 16 10.31 15.83 10.31 15.66ZM13.13 17.34C13.13 17.27 13.14 17.19 13.16 17.1L13.44 16.11C13.51 15.87 13.64 15.69 13.85 15.57C14.06 15.45 14.26 15.42 14.48 15.48C14.71 15.55 14.89 15.68 15.01 15.89C15.13 16.09 15.16 16.3 15.1 16.52L14.81 17.58C14.71 17.99 14.45 18.19 14.02 18.19C13.93 18.19 13.84 18.18 13.76 18.16C13.56 18.12 13.41 18.02 13.3 17.86C13.2 17.68 13.14 17.51 13.13 17.34ZM14.51 12.58C14.51 12.55 14.53 12.46 14.56 12.32L14.86 11.29C14.9 11.08 14.99 10.92 15.15 10.82C15.31 10.72 15.47 10.67 15.64 10.68C15.68 10.67 15.77 10.68 15.88 10.71C16.1 10.76 16.27 10.89 16.4 11.09C16.52 11.26 16.54 11.47 16.47 11.74L16.23 12.77C16.1 13.2 15.85 13.42 15.47 13.42C15.41 13.42 15.3 13.4 15.13 13.36C14.92 13.3 14.77 13.19 14.67 13.05C14.56 12.89 14.51 12.74 14.51 12.58Z" fill="#05439F"/>
<path d="M1 10.53C1 9.37 1.36 8.35 2.09 7.45C2.81 6.55 3.74 5.97 4.87 5.72C5.16 4.34 5.85 3.22 6.94 2.33C8.03 1.44 9.28 1 10.7 1C12.09 1 13.33 1.43 14.42 2.28C15.5 3.13 16.21 4.23 16.54 5.58H16.88C17.78 5.58 18.61 5.8 19.36 6.24C20.12 6.68 20.71 7.28 21.15 8.04C21.58 8.8 21.8 9.63 21.8 10.53C21.8 11.87 21.34 13.01 20.43 13.97C19.51 14.93 18.39 15.43 17.06 15.47C16.94 15.47 16.88 15.41 16.88 15.3V13.96C16.88 13.85 16.94 13.79 17.06 13.79C17.9 13.72 18.63 13.37 19.23 12.74C19.83 12.11 20.13 11.37 20.13 10.52C20.13 9.63 19.81 8.86 19.17 8.21C18.53 7.57 17.77 7.24 16.88 7.24H15.25C15.13 7.24 15.06 7.18 15.03 7.06L14.96 6.49C14.89 5.78 14.66 5.13 14.26 4.55C13.86 3.97 13.35 3.52 12.73 3.19C12.11 2.86 11.43 2.7 10.71 2.7C9.61 2.7 8.66 3.06 7.85 3.79C7.04 4.52 6.58 5.43 6.48 6.51L6.41 7.05C6.41 7.14 6.36 7.19 6.25 7.19L5.71 7.3C4.87 7.37 4.16 7.71 3.6 8.33C3.03 8.95 2.75 9.68 2.75 10.53C2.75 11.4 3.05 12.15 3.64 12.78C4.23 13.41 4.95 13.75 5.81 13.8C5.93 13.8 5.99 13.86 5.99 13.97V15.31C5.99 15.42 5.93 15.48 5.81 15.48C5.15 15.45 4.53 15.3 3.93 15.03C3.33 14.76 2.82 14.4 2.4 13.96C1.97 13.52 1.63 13.01 1.38 12.41C1.13 11.81 1 11.19 1 10.53ZM6.42 17.3C6.42 17.27 6.43 17.22 6.44 17.17C6.45 17.12 6.46 17.08 6.46 17.06L6.73 16.03C6.8 15.81 6.93 15.63 7.13 15.52C7.33 15.4 7.54 15.38 7.77 15.45C8 15.52 8.17 15.65 8.29 15.85C8.41 16.05 8.43 16.26 8.36 16.49L8.12 17.5C7.99 17.94 7.74 18.16 7.36 18.16C7.33 18.16 7.31 18.16 7.27 18.16C7.24 18.16 7.2 18.15 7.16 18.15C7.12 18.14 7.09 18.14 7.06 18.14C6.85 18.08 6.69 17.96 6.58 17.8C6.47 17.64 6.42 17.46 6.42 17.3ZM7.74 12.48C7.74 12.46 7.74 12.42 7.75 12.37C7.76 12.32 7.76 12.29 7.76 12.28L8.06 11.23C8.12 11.04 8.23 10.89 8.38 10.78C8.53 10.68 8.69 10.63 8.85 10.63C8.87 10.63 8.9 10.63 8.93 10.63C8.96 10.63 8.99 10.64 9.02 10.64C9.05 10.65 9.08 10.65 9.1 10.65C9.33 10.72 9.5 10.85 9.61 11.05C9.73 11.25 9.75 11.46 9.68 11.69L9.44 12.69C9.37 12.97 9.24 13.16 9.04 13.28C8.84 13.4 8.62 13.4 8.39 13.3C8.17 13.24 8.01 13.13 7.9 12.96C7.79 12.79 7.74 12.64 7.74 12.48ZM8.97 20.43C8.97 20.4 8.98 20.36 8.99 20.3C9 20.24 9.01 20.21 9.01 20.18L9.3 19.19C9.36 18.95 9.5 18.77 9.7 18.65C9.9 18.53 10.12 18.5 10.35 18.57C10.58 18.64 10.74 18.77 10.86 18.98C10.98 19.19 10.99 19.4 10.93 19.63L10.68 20.67C10.57 21.08 10.31 21.28 9.88 21.28C9.83 21.28 9.75 21.27 9.64 21.24C9.42 21.2 9.26 21.1 9.15 20.94C9.03 20.78 8.97 20.61 8.97 20.43ZM10.31 15.66C10.31 15.6 10.32 15.52 10.35 15.41L10.62 14.38C10.69 14.15 10.82 13.98 11.03 13.87C11.23 13.75 11.45 13.73 11.68 13.8C11.91 13.86 12.07 13.99 12.19 14.19C12.3 14.39 12.32 14.6 12.25 14.84L12.01 15.83C11.88 16.28 11.64 16.51 11.29 16.51C11.25 16.51 11.14 16.49 10.98 16.45C10.76 16.41 10.6 16.31 10.49 16.15C10.37 16 10.31 15.83 10.31 15.66ZM13.13 17.34C13.13 17.27 13.14 17.19 13.16 17.1L13.44 16.11C13.51 15.87 13.64 15.69 13.85 15.57C14.06 15.45 14.26 15.42 14.48 15.48C14.71 15.55 14.89 15.68 15.01 15.89C15.13 16.09 15.16 16.3 15.1 16.52L14.81 17.58C14.71 17.99 14.45 18.19 14.02 18.19C13.93 18.19 13.84 18.18 13.76 18.16C13.56 18.12 13.41 18.02 13.3 17.86C13.2 17.68 13.14 17.51 13.13 17.34ZM14.51 12.58C14.51 12.55 14.53 12.46 14.56 12.32L14.86 11.29C14.9 11.08 14.99 10.92 15.15 10.82C15.31 10.72 15.47 10.67 15.64 10.68C15.68 10.67 15.77 10.68 15.88 10.71C16.1 10.76 16.27 10.89 16.4 11.09C16.52 11.26 16.54 11.47 16.47 11.74L16.23 12.77C16.1 13.2 15.85 13.42 15.47 13.42C15.41 13.42 15.3 13.4 15.13 13.36C14.92 13.3 14.77 13.19 14.67 13.05C14.56 12.89 14.51 12.74 14.51 12.58Z" stroke="white" stroke-width="2" mask="url(#path-1-outside-1_4_59)"/>
</svg>
