<svg width="20" height="19" viewBox="0 0 20 19" fill="none" xmlns="http://www.w3.org/2000/svg">
<g filter="url(#filter0_d_5_74)">
<path d="M4.75 2.98C4.75 2.48 4.93 2.05 5.28 1.7C5.64 1.34 6.06 1.17 6.56 1.17C7.05 1.17 7.48 1.35 7.83 1.7C8.18 2.06 8.36 2.48 8.36 2.98C8.36 3.48 8.18 3.91 7.83 4.26C7.48 4.62 7.05 4.79 6.56 4.79C6.06 4.79 5.63 4.61 5.28 4.26C4.93 3.91 4.75 3.48 4.75 2.98ZM5.63 2.98C5.63 3.24 5.72 3.46 5.9 3.65C6.09 3.84 6.31 3.93 6.57 3.93C6.83 3.93 7.05 3.84 7.24 3.65C7.43 3.46 7.52 3.24 7.52 2.98C7.52 2.72 7.43 2.5 7.24 2.31C7.05 2.12 6.83 2.03 6.57 2.03C6.31 2.03 6.09 2.12 5.9 2.31C5.72 2.49 5.63 2.72 5.63 2.98ZM9.52 7.4C9.52 8.17 9.73 8.85 10.16 9.45C10.38 9.76 10.69 10.01 11.09 10.2C11.48 10.38 11.93 10.48 12.43 10.48C13.89 10.48 14.81 9.92 15.18 8.81C15.22 8.67 15.2 8.53 15.12 8.4C15.04 8.27 14.93 8.2 14.79 8.17C14.65 8.13 14.51 8.15 14.39 8.24C14.27 8.32 14.19 8.43 14.16 8.58C14.16 8.59 14.16 8.6 14.15 8.63L14.13 8.7C14.02 8.89 13.87 9.04 13.68 9.15C13.37 9.34 12.96 9.43 12.45 9.43C12.14 9.43 11.86 9.38 11.62 9.27C11.22 9.1 10.94 8.8 10.77 8.38C10.66 8.11 10.6 7.78 10.6 7.41V4.19C10.6 4.04 10.61 3.89 10.63 3.74C10.67 3.36 10.82 3.01 11.08 2.7C11.37 2.35 11.83 2.18 12.46 2.18C12.98 2.18 13.39 2.27 13.69 2.45C13.89 2.57 14.04 2.72 14.14 2.9C14.15 2.92 14.15 2.95 14.16 2.98C14.17 3.01 14.17 3.03 14.17 3.04C14.21 3.18 14.29 3.28 14.4 3.34C14.52 3.41 14.65 3.42 14.8 3.39C14.94 3.36 15.05 3.28 15.13 3.16C15.21 3.04 15.23 2.91 15.19 2.76V2.75L15.11 2.52C15.06 2.41 14.97 2.26 14.83 2.09C14.7 1.91 14.54 1.77 14.38 1.65C14.17 1.5 13.9 1.38 13.56 1.27C13.22 1.17 12.85 1.12 12.45 1.12C11.94 1.12 11.5 1.21 11.1 1.39C10.71 1.57 10.4 1.81 10.19 2.12C9.76 2.71 9.54 3.4 9.54 4.19V7.4H9.52Z" fill="#05439F"/>
<path d="M8.00925 1.52573L8.00927 1.52572L8.00678 1.52323C7.61064 1.12709 7.11736 0.920003 6.56 0.920003C5.99445 0.920003 5.51064 1.11581 5.10322 1.52323C4.70655 1.91989 4.5 2.41339 4.5 2.98C4.5 3.54661 4.70655 4.04011 5.10322 4.43678C5.49989 4.83345 5.99339 5.04 6.56 5.04C7.11362 5.04 7.60889 4.84543 8.00803 4.43553C8.40388 4.03907 8.61 3.54601 8.61 2.98C8.61 2.41138 8.40209 1.9298 8.00925 1.52573ZM9.29 7.15H9.27V7.4C9.27 8.21881 9.49443 8.95025 9.95644 9.59514C10.205 9.94515 10.5507 10.2206 10.9827 10.4258L10.9852 10.427C11.4102 10.6231 11.8963 10.73 12.43 10.73C13.19 10.73 13.8341 10.5845 14.3436 10.2749C14.8576 9.96259 15.2152 9.49483 15.4172 8.88906L15.4174 8.88913L15.4204 8.87868C15.4804 8.66852 15.4482 8.45631 15.3329 8.26898C15.2156 8.07838 15.0477 7.97146 14.8505 7.92732C14.6461 7.87132 14.4297 7.90048 14.2457 8.03578C14.0775 8.14975 13.9583 8.3138 13.9149 8.53097L13.91 8.55525V8.55999L13.9096 8.56132L13.8986 8.59995C13.8122 8.7401 13.6984 8.85046 13.5547 8.93365L13.5547 8.93358L13.5494 8.93685C13.2929 9.09406 12.934 9.18 12.45 9.18C12.1658 9.18 11.9234 9.13405 11.7242 9.04274L11.7242 9.04265L11.7178 9.03992C11.3843 8.8982 11.1493 8.65071 11.0017 8.2862L11.0015 8.28568C10.906 8.05112 10.85 7.75418 10.85 7.41V4.19C10.85 4.05115 10.8593 3.91219 10.8778 3.77304L10.8779 3.77306L10.8786 3.76617C10.9132 3.43778 11.0422 3.13416 11.2715 2.86066L11.2725 2.85951C11.4977 2.58772 11.8722 2.43 12.46 2.43C12.9552 2.43 13.3147 2.51637 13.5614 2.66438C13.7184 2.75861 13.8308 2.8698 13.9068 2.99609C13.9076 3.00035 13.9085 3.00504 13.9095 3.00969C13.9119 3.02071 13.9152 3.03464 13.92 3.05024V3.07502L13.9296 3.10868C13.9861 3.30636 14.1052 3.46284 14.2771 3.55773C14.4641 3.66562 14.6598 3.673 14.849 3.63515L14.849 3.63517L14.8524 3.63445C15.0619 3.58957 15.2253 3.46772 15.338 3.29868C15.4541 3.12462 15.4855 2.93183 15.44 2.72991V2.70777L15.4261 2.66787L15.3461 2.43787L15.3423 2.42702L15.3376 2.41655C15.2778 2.28511 15.1769 2.11894 15.0279 1.93711C14.8781 1.73162 14.6981 1.57609 14.53 1.45L14.53 1.44995L14.5253 1.44657C14.2856 1.27534 13.9883 1.14581 13.637 1.03214L13.637 1.03206L13.6305 1.03016C13.2649 0.922622 12.8709 0.870003 12.45 0.870003C11.9092 0.870003 11.4336 0.96575 10.9974 1.16202L10.9974 1.16201L10.9952 1.16301C10.576 1.3565 10.2268 1.62162 9.98548 1.97618C9.52401 2.61085 9.29 3.35198 9.29 4.19V7.15ZM13.91 8.58H13.9106C13.9104 8.58033 13.9102 8.57967 13.91 8.58ZM6.07917 3.47561C5.94347 3.33135 5.88 3.17309 5.88 2.98C5.88 2.78184 5.94673 2.61683 6.07678 2.48678C6.22022 2.34333 6.37677 2.28 6.57 2.28C6.76323 2.28 6.91978 2.34333 7.06322 2.48678C7.20667 2.63023 7.27 2.78677 7.27 2.98C7.27 3.17323 7.20667 3.32978 7.06322 3.47323C6.91978 3.61667 6.76323 3.68 6.57 3.68C6.37784 3.68 6.22196 3.61737 6.07917 3.47561Z" stroke="#BEC1C6" stroke-width="0.5"/>
</g>
<defs>
<filter id="filter0_d_5_74" x="0.25" y="0.620003" width="19.4599" height="18.36" filterUnits="userSpaceOnUse" color-interpolation-filters="sRGB">
<feFlood flood-opacity="0" result="BackgroundImageFix"/>
<feColorMatrix in="SourceAlpha" type="matrix" values="0 0 0 0 0 0 0 0 0 0 0 0 0 0 0 0 0 0 127 0" result="hardAlpha"/>
<feOffset dy="4"/>
<feGaussianBlur stdDeviation="2"/>
<feComposite in2="hardAlpha" operator="out"/>
<feColorMatrix type="matrix" values="0 0 0 0 0 0 0 0 0 0 0 0 0 0 0 0 0 0 0.25 0"/>
<feBlend mode="normal" in2="BackgroundImageFix" result="effect1_dropShadow_5_74"/>
<feBlend mode="normal" in="SourceGraphic" in2="effect1_dropShadow_5_74" result="shape"/>
</filter>
</defs>
</svg>
