<svg width="12" height="11" viewBox="0 0 12 11" fill="none" xmlns="http://www.w3.org/2000/svg">
<path d="M4.25925 1.40573L4.25927 1.40571L4.25678 1.40322C3.86064 1.00709 3.36736 0.8 2.81 0.8C2.24445 0.8 1.76064 0.995807 1.35322 1.40322C0.956555 1.79989 0.75 2.29339 0.75 2.86C0.75 3.42661 0.956555 3.92011 1.35322 4.31678C1.74989 4.71345 2.24339 4.92 2.81 4.92C3.36362 4.92 3.85888 4.72543 4.25802 4.31553C4.65388 3.91908 4.86 3.42602 4.86 2.86C4.86 2.29137 4.65209 1.80979 4.25925 1.40573ZM5.54 7.03H5.52V7.28C5.52 8.09881 5.74443 8.83025 6.20644 9.47514C6.45497 9.82515 6.80073 10.1006 7.23274 10.3058L7.23524 10.307C7.66022 10.5031 8.14626 10.61 8.68 10.61C9.44004 10.61 10.0841 10.4645 10.5936 10.1549C11.1076 9.84259 11.4652 9.37483 11.6672 8.76906L11.6674 8.76913L11.6704 8.75868C11.7304 8.54851 11.6982 8.33631 11.5829 8.14898C11.4656 7.95838 11.2977 7.85146 11.1005 7.80732C10.8961 7.75131 10.6797 7.78048 10.4957 7.91578C10.3275 8.02975 10.2083 8.19381 10.1649 8.41097L10.16 8.43525V8.43998L10.1596 8.44132L10.1486 8.47995C10.0622 8.6201 9.94843 8.73045 9.80474 8.81364L9.8047 8.81358L9.79936 8.81685C9.54286 8.97406 9.18397 9.06 8.7 9.06C8.41583 9.06 8.17338 9.01404 7.97416 8.92273L7.97421 8.92265L7.96779 8.91992C7.63432 8.77819 7.39927 8.53071 7.25174 8.1662L7.25152 8.16568C7.15596 7.93112 7.1 7.63418 7.1 7.29V4.07C7.1 3.93115 7.10925 3.79218 7.12781 3.65304L7.1279 3.65305L7.12863 3.64617C7.16319 3.31778 7.29216 3.01415 7.52155 2.74065L7.52251 2.7395C7.7477 2.46772 8.12221 2.31 8.71 2.31C9.20523 2.31 9.56471 2.39637 9.81138 2.54437C9.96844 2.63861 10.0808 2.7498 10.1568 2.87609C10.1576 2.88035 10.1585 2.88504 10.1595 2.88968C10.1619 2.9007 10.1652 2.91464 10.17 2.93024V2.95501L10.1796 2.98868C10.2361 3.18635 10.3552 3.34283 10.5271 3.43773C10.7141 3.54562 10.9098 3.55299 11.099 3.51515L11.099 3.51517L11.1024 3.51445C11.3119 3.46956 11.4753 3.34771 11.588 3.17867C11.7041 3.00461 11.7355 2.81183 11.69 2.60991V2.58776L11.6761 2.54787L11.5961 2.31787L11.5923 2.30701L11.5876 2.29655C11.5278 2.16511 11.4269 1.99893 11.2779 1.8171C11.1281 1.61162 10.9481 1.45609 10.78 1.33L10.78 1.32995L10.7753 1.32657C10.5356 1.15534 10.2383 1.0258 9.88695 0.912139L9.88698 0.912054L9.88054 0.910159C9.51491 0.80262 9.12086 0.75 8.7 0.75C8.15918 0.75 7.68357 0.845748 7.24741 1.04202L7.2474 1.04201L7.24524 1.04301C6.82601 1.2365 6.4768 1.50161 6.23547 1.85617C5.77401 2.49085 5.54 3.23198 5.54 4.07V7.03ZM10.16 8.46H10.1606C10.1604 8.46033 10.1602 8.45967 10.16 8.46ZM2.32917 3.3556C2.19347 3.21134 2.13 3.05309 2.13 2.86C2.13 2.66184 2.19673 2.49683 2.32678 2.36678C2.47022 2.22333 2.62677 2.16 2.82 2.16C3.01323 2.16 3.16978 2.22333 3.31322 2.36678C3.45667 2.51022 3.52 2.66677 3.52 2.86C3.52 3.05323 3.45667 3.20978 3.31322 3.35322C3.16978 3.49667 3.01323 3.56 2.82 3.56C2.62784 3.56 2.47196 3.49737 2.32917 3.3556Z" fill="#05439F" stroke="white" stroke-width="0.5"/>
</svg>
