<svg width="12" height="11" viewBox="0 0 12 11" fill="none" xmlns="http://www.w3.org/2000/svg">
<path d="M4.00925 1.52573L4.00927 1.52572L4.00678 1.52323C3.61064 1.12709 3.11736 0.920003 2.56 0.920003C1.99445 0.920003 1.51064 1.11581 1.10322 1.52323C0.706555 1.91989 0.5 2.41339 0.5 2.98C0.5 3.54661 0.706555 4.04011 1.10322 4.43678C1.49989 4.83345 1.99339 5.04 2.56 5.04C3.11362 5.04 3.60889 4.84543 4.00803 4.43553C4.40388 4.03907 4.61 3.54601 4.61 2.98C4.61 2.41138 4.40209 1.9298 4.00925 1.52573ZM5.29 7.15H5.27V7.4C5.27 8.21881 5.49443 8.95025 5.95644 9.59514C6.20497 9.94515 6.55073 10.2206 6.98274 10.4258L6.98524 10.427C7.41022 10.6231 7.89626 10.73 8.43 10.73C9.19004 10.73 9.83413 10.5845 10.3436 10.2749C10.8576 9.96259 11.2152 9.49483 11.4172 8.88906L11.4174 8.88913L11.4204 8.87868C11.4804 8.66852 11.4482 8.45631 11.3329 8.26898C11.2156 8.07838 11.0477 7.97146 10.8505 7.92732C10.6461 7.87132 10.4297 7.90048 10.2457 8.03578C10.0775 8.14975 9.95829 8.3138 9.91486 8.53097L9.91 8.55525V8.55999L9.90962 8.56132L9.89858 8.59995C9.81217 8.7401 9.69843 8.85046 9.55474 8.93365L9.5547 8.93358L9.54936 8.93685C9.29286 9.09406 8.93397 9.18 8.45 9.18C8.16583 9.18 7.92338 9.13405 7.72416 9.04274L7.72421 9.04265L7.71779 9.03992C7.38432 8.8982 7.14927 8.65071 7.00174 8.2862L7.00152 8.28568C6.90596 8.05112 6.85 7.75418 6.85 7.41V4.19C6.85 4.05115 6.85925 3.91219 6.87781 3.77304L6.8779 3.77306L6.87863 3.76617C6.91319 3.43778 7.04216 3.13416 7.27155 2.86066L7.27251 2.85951C7.4977 2.58772 7.87221 2.43 8.46 2.43C8.95523 2.43 9.31471 2.51637 9.56138 2.66438C9.71844 2.75861 9.83076 2.8698 9.90681 2.99609C9.90762 3.00035 9.90855 3.00504 9.90954 3.00969C9.91188 3.02071 9.91519 3.03464 9.92 3.05024V3.07502L9.92962 3.10868C9.9861 3.30636 10.1052 3.46284 10.2771 3.55773C10.4641 3.66562 10.6598 3.673 10.849 3.63515L10.849 3.63517L10.8524 3.63445C11.0619 3.58957 11.2253 3.46772 11.338 3.29868C11.4541 3.12462 11.4855 2.93183 11.44 2.72991V2.70777L11.4261 2.66787L11.3461 2.43787L11.3423 2.42702L11.3376 2.41655C11.2778 2.28511 11.1769 2.11894 11.0279 1.93711C10.8781 1.73162 10.6981 1.57609 10.53 1.45L10.53 1.44995L10.5253 1.44657C10.2856 1.27534 9.98828 1.14581 9.63695 1.03214L9.63698 1.03206L9.63054 1.03016C9.26491 0.922622 8.87086 0.870003 8.45 0.870003C7.90918 0.870003 7.43357 0.96575 6.99741 1.16202L6.9974 1.16201L6.99524 1.16301C6.57601 1.3565 6.22681 1.62162 5.98548 1.97618C5.52401 2.61085 5.29 3.35198 5.29 4.19V7.15ZM9.91001 8.58H9.91058C9.91039 8.58033 9.9102 8.57967 9.91001 8.58ZM2.07917 3.47561C1.94347 3.33135 1.88 3.17309 1.88 2.98C1.88 2.78184 1.94673 2.61683 2.07678 2.48678C2.22022 2.34333 2.37677 2.28 2.57 2.28C2.76323 2.28 2.91978 2.34333 3.06322 2.48678C3.20667 2.63023 3.27 2.78677 3.27 2.98C3.27 3.17323 3.20667 3.32978 3.06322 3.47323C2.91978 3.61667 2.76323 3.68 2.57 3.68C2.37784 3.68 2.22196 3.61737 2.07917 3.47561Z" fill="#9CA3AF" stroke="#05439F" stroke-width="0.5"/>
</svg>
