<svg width="13" height="12" viewBox="0 0 13 12" fill="none" xmlns="http://www.w3.org/2000/svg">
<path d="M4.4385 1.23146L4.43853 1.23143L4.43355 1.22645C3.99128 0.784177 3.43471 0.55 2.81 0.55C2.17891 0.55 1.63128 0.771613 1.17645 1.22645C0.73311 1.66978 0.5 2.22678 0.5 2.86C0.5 3.49322 0.73311 4.05022 1.17645 4.49355C1.61978 4.93689 2.17678 5.17 2.81 5.17C3.42724 5.17 3.98775 4.95086 4.43604 4.49107C4.87776 4.04813 5.11 3.49203 5.11 2.86C5.11 2.22275 4.87417 1.67959 4.4385 1.23146ZM5.29 6.78H5.27V7.28C5.27 8.1477 5.50889 8.93063 6.00301 9.62045C6.28004 10.0104 6.66151 10.3113 7.12547 10.5316L7.12546 10.5317L7.13047 10.534C7.59044 10.7463 8.11252 10.86 8.68 10.86C9.47009 10.86 10.1633 10.7089 10.7234 10.3686C11.2926 10.0227 11.6855 9.50466 11.9043 8.84811L11.9078 8.83781L11.9108 8.82736C11.9909 8.54703 11.9464 8.26262 11.7958 8.01795C11.6413 7.76681 11.4157 7.62309 11.1608 7.56465C10.8918 7.49261 10.5993 7.53108 10.3515 7.71152C10.1349 7.85963 9.97657 8.07763 9.91971 8.36194L9.91636 8.37869C9.85455 8.46932 9.77688 8.5409 9.67948 8.59729L9.6794 8.59715L9.66872 8.6037C9.46571 8.72812 9.15795 8.81 8.7 8.81C8.44165 8.81 8.23676 8.76808 8.07833 8.69547L8.07841 8.69529L8.06557 8.68984C7.79864 8.57639 7.60855 8.38141 7.48348 8.0724L7.48305 8.07135C7.40193 7.87224 7.35 7.60835 7.35 7.29V4.07C7.35 3.94229 7.35851 3.81437 7.37561 3.68608L7.3758 3.68611L7.37725 3.67234C7.40639 3.39555 7.51432 3.13831 7.7131 2.90131L7.71501 2.89901C7.8754 2.70544 8.16443 2.56 8.71 2.56C9.18046 2.56 9.48942 2.64274 9.68275 2.75875C9.79223 2.82443 9.86766 2.89574 9.92 2.97029V2.99003L9.93924 3.05736C10.0123 3.31295 10.1706 3.52587 10.4045 3.65563C10.6583 3.80116 10.9194 3.80601 11.1481 3.76029L11.1481 3.76034L11.1548 3.7589C11.4337 3.69913 11.6506 3.53543 11.796 3.31735C11.9468 3.09111 11.9902 2.83837 11.94 2.58394V2.54553L11.9122 2.46574L11.8322 2.23574L11.8247 2.21403L11.8152 2.1931C11.7458 2.04044 11.6339 1.85799 11.4757 1.66405C11.3063 1.4333 11.1064 1.26233 10.93 1.13L10.9301 1.12989L10.9206 1.12313C10.6512 0.930678 10.3266 0.791607 9.96391 0.674278L9.96397 0.674107L9.95108 0.670318C9.55981 0.555238 9.14172 0.5 8.7 0.5C8.12836 0.5 7.61714 0.601495 7.14482 0.81404L7.14481 0.814019L7.14047 0.816021C6.69191 1.02305 6.30361 1.31328 6.03102 1.71225C5.53806 2.39162 5.29 3.18388 5.29 4.07V6.78ZM9.91 8.46C9.91 8.4612 9.90999 8.46079 9.91 8.45924V8.46ZM2.82 3.31C2.69563 3.31 2.60353 3.27454 2.50834 3.18119C2.41713 3.08305 2.38 2.98625 2.38 2.86C2.38 2.72368 2.42345 2.62366 2.50355 2.54355C2.60045 2.44666 2.69354 2.41 2.82 2.41C2.94646 2.41 3.03955 2.44666 3.13645 2.54355C3.23334 2.64045 3.27 2.73354 3.27 2.86C3.27 2.98646 3.23334 3.07955 3.13645 3.17645C3.03955 3.27334 2.94646 3.31 2.82 3.31Z" fill="#05439F" stroke="white"/>
</svg>
