<svg width="28" height="27" viewBox="0 0 28 27" fill="none" xmlns="http://www.w3.org/2000/svg">
<g filter="url(#filter0_d_4_59)">
<mask id="path-1-inside-1_4_59" fill="white">
<path d="M3 9.53C3 8.37 3.36 7.35 4.09 6.45C4.81 5.55 5.74 4.97 6.87 4.72C7.16 3.34 7.85 2.22 8.94 1.33C10.03 0.439999 11.28 0 12.7 0C14.09 0 15.33 0.43 16.42 1.28C17.5 2.13 18.21 3.23 18.54 4.58H18.88C19.78 4.58 20.61 4.8 21.36 5.24C22.12 5.68 22.71 6.28 23.15 7.04C23.58 7.8 23.8 8.63 23.8 9.53C23.8 10.87 23.34 12.01 22.43 12.97C21.51 13.93 20.39 14.43 19.06 14.47C18.94 14.47 18.88 14.41 18.88 14.3V12.96C18.88 12.85 18.94 12.79 19.06 12.79C19.9 12.72 20.63 12.37 21.23 11.74C21.83 11.11 22.13 10.37 22.13 9.52C22.13 8.63 21.81 7.86 21.17 7.21C20.53 6.57 19.77 6.24 18.88 6.24H17.25C17.13 6.24 17.06 6.18 17.03 6.06L16.96 5.49C16.89 4.78 16.66 4.13 16.26 3.55C15.86 2.97 15.35 2.52 14.73 2.19C14.11 1.86 13.43 1.7 12.71 1.7C11.61 1.7 10.66 2.06 9.85 2.79C9.04 3.52 8.58 4.43 8.48 5.51L8.41 6.05C8.41 6.14 8.36 6.19 8.25 6.19L7.71 6.3C6.87 6.37 6.16 6.71 5.6 7.33C5.03 7.95 4.75 8.68 4.75 9.53C4.75 10.4 5.05 11.15 5.64 11.78C6.23 12.41 6.95 12.75 7.81 12.8C7.93 12.8 7.99 12.86 7.99 12.97V14.31C7.99 14.42 7.93 14.48 7.81 14.48C7.15 14.45 6.53 14.3 5.93 14.03C5.33 13.76 4.82 13.4 4.4 12.96C3.97 12.52 3.63 12.01 3.38 11.41C3.13 10.81 3 10.19 3 9.53ZM8.42 16.3C8.42 16.27 8.43 16.22 8.44 16.17C8.45 16.12 8.46 16.08 8.46 16.06L8.73 15.03C8.8 14.81 8.93 14.63 9.13 14.52C9.33 14.4 9.54 14.38 9.77 14.45C10 14.52 10.17 14.65 10.29 14.85C10.41 15.05 10.43 15.26 10.36 15.49L10.12 16.5C9.99 16.94 9.74 17.16 9.36 17.16C9.33 17.16 9.31 17.16 9.27 17.16C9.24 17.16 9.2 17.15 9.16 17.15C9.12 17.14 9.09 17.14 9.06 17.14C8.85 17.08 8.69 16.96 8.58 16.8C8.47 16.64 8.42 16.46 8.42 16.3ZM9.74 11.48C9.74 11.46 9.74 11.42 9.75 11.37C9.76 11.32 9.76 11.29 9.76 11.28L10.06 10.23C10.12 10.04 10.23 9.89 10.38 9.78C10.53 9.68 10.69 9.63 10.85 9.63C10.87 9.63 10.9 9.63 10.93 9.63C10.96 9.63 10.99 9.64 11.02 9.64C11.05 9.65 11.08 9.65 11.1 9.65C11.33 9.72 11.5 9.85 11.61 10.05C11.73 10.25 11.75 10.46 11.68 10.69L11.44 11.69C11.37 11.97 11.24 12.16 11.04 12.28C10.84 12.4 10.62 12.4 10.39 12.3C10.17 12.24 10.01 12.13 9.9 11.96C9.79 11.79 9.74 11.64 9.74 11.48ZM10.97 19.43C10.97 19.4 10.98 19.36 10.99 19.3C11 19.24 11.01 19.21 11.01 19.18L11.3 18.19C11.36 17.95 11.5 17.77 11.7 17.65C11.9 17.53 12.12 17.5 12.35 17.57C12.58 17.64 12.74 17.77 12.86 17.98C12.98 18.19 12.99 18.4 12.93 18.63L12.68 19.67C12.57 20.08 12.31 20.28 11.88 20.28C11.83 20.28 11.75 20.27 11.64 20.24C11.42 20.2 11.26 20.1 11.15 19.94C11.03 19.78 10.97 19.61 10.97 19.43ZM12.31 14.66C12.31 14.6 12.32 14.52 12.35 14.41L12.62 13.38C12.69 13.15 12.82 12.98 13.03 12.87C13.23 12.75 13.45 12.73 13.68 12.8C13.91 12.86 14.07 12.99 14.19 13.19C14.3 13.39 14.32 13.6 14.25 13.84L14.01 14.83C13.88 15.28 13.64 15.51 13.29 15.51C13.25 15.51 13.14 15.49 12.98 15.45C12.76 15.41 12.6 15.31 12.49 15.15C12.37 15 12.31 14.83 12.31 14.66ZM15.13 16.34C15.13 16.27 15.14 16.19 15.16 16.1L15.44 15.11C15.51 14.87 15.64 14.69 15.85 14.57C16.06 14.45 16.26 14.42 16.48 14.48C16.71 14.55 16.89 14.68 17.01 14.89C17.13 15.09 17.16 15.3 17.1 15.52L16.81 16.58C16.71 16.99 16.45 17.19 16.02 17.19C15.93 17.19 15.84 17.18 15.76 17.16C15.56 17.12 15.41 17.02 15.3 16.86C15.2 16.68 15.14 16.51 15.13 16.34ZM16.51 11.58C16.51 11.55 16.53 11.46 16.56 11.32L16.86 10.29C16.9 10.08 16.99 9.92 17.15 9.82C17.31 9.72 17.47 9.67 17.64 9.68C17.68 9.67 17.77 9.68 17.88 9.71C18.1 9.76 18.27 9.89 18.4 10.09C18.52 10.26 18.54 10.47 18.47 10.74L18.23 11.77C18.1 12.2 17.85 12.42 17.47 12.42C17.41 12.42 17.3 12.4 17.13 12.36C16.92 12.3 16.77 12.19 16.67 12.05C16.56 11.89 16.51 11.74 16.51 11.58Z"/>
</mask>
<path d="M3 9.53C3 8.37 3.36 7.35 4.09 6.45C4.81 5.55 5.74 4.97 6.87 4.72C7.16 3.34 7.85 2.22 8.94 1.33C10.03 0.439999 11.28 0 12.7 0C14.09 0 15.33 0.43 16.42 1.28C17.5 2.13 18.21 3.23 18.54 4.58H18.88C19.78 4.58 20.61 4.8 21.36 5.24C22.12 5.68 22.71 6.28 23.15 7.04C23.58 7.8 23.8 8.63 23.8 9.53C23.8 10.87 23.34 12.01 22.43 12.97C21.51 13.93 20.39 14.43 19.06 14.47C18.94 14.47 18.88 14.41 18.88 14.3V12.96C18.88 12.85 18.94 12.79 19.06 12.79C19.9 12.72 20.63 12.37 21.23 11.74C21.83 11.11 22.13 10.37 22.13 9.52C22.13 8.63 21.81 7.86 21.17 7.21C20.53 6.57 19.77 6.24 18.88 6.24H17.25C17.13 6.24 17.06 6.18 17.03 6.06L16.96 5.49C16.89 4.78 16.66 4.13 16.26 3.55C15.86 2.97 15.35 2.52 14.73 2.19C14.11 1.86 13.43 1.7 12.71 1.7C11.61 1.7 10.66 2.06 9.85 2.79C9.04 3.52 8.58 4.43 8.48 5.51L8.41 6.05C8.41 6.14 8.36 6.19 8.25 6.19L7.71 6.3C6.87 6.37 6.16 6.71 5.6 7.33C5.03 7.95 4.75 8.68 4.75 9.53C4.75 10.4 5.05 11.15 5.64 11.78C6.23 12.41 6.95 12.75 7.81 12.8C7.93 12.8 7.99 12.86 7.99 12.97V14.31C7.99 14.42 7.93 14.48 7.81 14.48C7.15 14.45 6.53 14.3 5.93 14.03C5.33 13.76 4.82 13.4 4.4 12.96C3.97 12.52 3.63 12.01 3.38 11.41C3.13 10.81 3 10.19 3 9.53ZM8.42 16.3C8.42 16.27 8.43 16.22 8.44 16.17C8.45 16.12 8.46 16.08 8.46 16.06L8.73 15.03C8.8 14.81 8.93 14.63 9.13 14.52C9.33 14.4 9.54 14.38 9.77 14.45C10 14.52 10.17 14.65 10.29 14.85C10.41 15.05 10.43 15.26 10.36 15.49L10.12 16.5C9.99 16.94 9.74 17.16 9.36 17.16C9.33 17.16 9.31 17.16 9.27 17.16C9.24 17.16 9.2 17.15 9.16 17.15C9.12 17.14 9.09 17.14 9.06 17.14C8.85 17.08 8.69 16.96 8.58 16.8C8.47 16.64 8.42 16.46 8.42 16.3ZM9.74 11.48C9.74 11.46 9.74 11.42 9.75 11.37C9.76 11.32 9.76 11.29 9.76 11.28L10.06 10.23C10.12 10.04 10.23 9.89 10.38 9.78C10.53 9.68 10.69 9.63 10.85 9.63C10.87 9.63 10.9 9.63 10.93 9.63C10.96 9.63 10.99 9.64 11.02 9.64C11.05 9.65 11.08 9.65 11.1 9.65C11.33 9.72 11.5 9.85 11.61 10.05C11.73 10.25 11.75 10.46 11.68 10.69L11.44 11.69C11.37 11.97 11.24 12.16 11.04 12.28C10.84 12.4 10.62 12.4 10.39 12.3C10.17 12.24 10.01 12.13 9.9 11.96C9.79 11.79 9.74 11.64 9.74 11.48ZM10.97 19.43C10.97 19.4 10.98 19.36 10.99 19.3C11 19.24 11.01 19.21 11.01 19.18L11.3 18.19C11.36 17.95 11.5 17.77 11.7 17.65C11.9 17.53 12.12 17.5 12.35 17.57C12.58 17.64 12.74 17.77 12.86 17.98C12.98 18.19 12.99 18.4 12.93 18.63L12.68 19.67C12.57 20.08 12.31 20.28 11.88 20.28C11.83 20.28 11.75 20.27 11.64 20.24C11.42 20.2 11.26 20.1 11.15 19.94C11.03 19.78 10.97 19.61 10.97 19.43ZM12.31 14.66C12.31 14.6 12.32 14.52 12.35 14.41L12.62 13.38C12.69 13.15 12.82 12.98 13.03 12.87C13.23 12.75 13.45 12.73 13.68 12.8C13.91 12.86 14.07 12.99 14.19 13.19C14.3 13.39 14.32 13.6 14.25 13.84L14.01 14.83C13.88 15.28 13.64 15.51 13.29 15.51C13.25 15.51 13.14 15.49 12.98 15.45C12.76 15.41 12.6 15.31 12.49 15.15C12.37 15 12.31 14.83 12.31 14.66ZM15.13 16.34C15.13 16.27 15.14 16.19 15.16 16.1L15.44 15.11C15.51 14.87 15.64 14.69 15.85 14.57C16.06 14.45 16.26 14.42 16.48 14.48C16.71 14.55 16.89 14.68 17.01 14.89C17.13 15.09 17.16 15.3 17.1 15.52L16.81 16.58C16.71 16.99 16.45 17.19 16.02 17.19C15.93 17.19 15.84 17.18 15.76 17.16C15.56 17.12 15.41 17.02 15.3 16.86C15.2 16.68 15.14 16.51 15.13 16.34ZM16.51 11.58C16.51 11.55 16.53 11.46 16.56 11.32L16.86 10.29C16.9 10.08 16.99 9.92 17.15 9.82C17.31 9.72 17.47 9.67 17.64 9.68C17.68 9.67 17.77 9.68 17.88 9.71C18.1 9.76 18.27 9.89 18.4 10.09C18.52 10.26 18.54 10.47 18.47 10.74L18.23 11.77C18.1 12.2 17.85 12.42 17.47 12.42C17.41 12.42 17.3 12.4 17.13 12.36C16.92 12.3 16.77 12.19 16.67 12.05C16.56 11.89 16.51 11.74 16.51 11.58Z" fill="#05439F"/>
<path d="M3 9.53C3 8.37 3.36 7.35 4.09 6.45C4.81 5.55 5.74 4.97 6.87 4.72C7.16 3.34 7.85 2.22 8.94 1.33C10.03 0.439999 11.28 0 12.7 0C14.09 0 15.33 0.43 16.42 1.28C17.5 2.13 18.21 3.23 18.54 4.58H18.88C19.78 4.58 20.61 4.8 21.36 5.24C22.12 5.68 22.71 6.28 23.15 7.04C23.58 7.8 23.8 8.63 23.8 9.53C23.8 10.87 23.34 12.01 22.43 12.97C21.51 13.93 20.39 14.43 19.06 14.47C18.94 14.47 18.88 14.41 18.88 14.3V12.96C18.88 12.85 18.94 12.79 19.06 12.79C19.9 12.72 20.63 12.37 21.23 11.74C21.83 11.11 22.13 10.37 22.13 9.52C22.13 8.63 21.81 7.86 21.17 7.21C20.53 6.57 19.77 6.24 18.88 6.24H17.25C17.13 6.24 17.06 6.18 17.03 6.06L16.96 5.49C16.89 4.78 16.66 4.13 16.26 3.55C15.86 2.97 15.35 2.52 14.73 2.19C14.11 1.86 13.43 1.7 12.71 1.7C11.61 1.7 10.66 2.06 9.85 2.79C9.04 3.52 8.58 4.43 8.48 5.51L8.41 6.05C8.41 6.14 8.36 6.19 8.25 6.19L7.71 6.3C6.87 6.37 6.16 6.71 5.6 7.33C5.03 7.95 4.75 8.68 4.75 9.53C4.75 10.4 5.05 11.15 5.64 11.78C6.23 12.41 6.95 12.75 7.81 12.8C7.93 12.8 7.99 12.86 7.99 12.97V14.31C7.99 14.42 7.93 14.48 7.81 14.48C7.15 14.45 6.53 14.3 5.93 14.03C5.33 13.76 4.82 13.4 4.4 12.96C3.97 12.52 3.63 12.01 3.38 11.41C3.13 10.81 3 10.19 3 9.53ZM8.42 16.3C8.42 16.27 8.43 16.22 8.44 16.17C8.45 16.12 8.46 16.08 8.46 16.06L8.73 15.03C8.8 14.81 8.93 14.63 9.13 14.52C9.33 14.4 9.54 14.38 9.77 14.45C10 14.52 10.17 14.65 10.29 14.85C10.41 15.05 10.43 15.26 10.36 15.49L10.12 16.5C9.99 16.94 9.74 17.16 9.36 17.16C9.33 17.16 9.31 17.16 9.27 17.16C9.24 17.16 9.2 17.15 9.16 17.15C9.12 17.14 9.09 17.14 9.06 17.14C8.85 17.08 8.69 16.96 8.58 16.8C8.47 16.64 8.42 16.46 8.42 16.3ZM9.74 11.48C9.74 11.46 9.74 11.42 9.75 11.37C9.76 11.32 9.76 11.29 9.76 11.28L10.06 10.23C10.12 10.04 10.23 9.89 10.38 9.78C10.53 9.68 10.69 9.63 10.85 9.63C10.87 9.63 10.9 9.63 10.93 9.63C10.96 9.63 10.99 9.64 11.02 9.64C11.05 9.65 11.08 9.65 11.1 9.65C11.33 9.72 11.5 9.85 11.61 10.05C11.73 10.25 11.75 10.46 11.68 10.69L11.44 11.69C11.37 11.97 11.24 12.16 11.04 12.28C10.84 12.4 10.62 12.4 10.39 12.3C10.17 12.24 10.01 12.13 9.9 11.96C9.79 11.79 9.74 11.64 9.74 11.48ZM10.97 19.43C10.97 19.4 10.98 19.36 10.99 19.3C11 19.24 11.01 19.21 11.01 19.18L11.3 18.19C11.36 17.95 11.5 17.77 11.7 17.65C11.9 17.53 12.12 17.5 12.35 17.57C12.58 17.64 12.74 17.77 12.86 17.98C12.98 18.19 12.99 18.4 12.93 18.63L12.68 19.67C12.57 20.08 12.31 20.28 11.88 20.28C11.83 20.28 11.75 20.27 11.64 20.24C11.42 20.2 11.26 20.1 11.15 19.94C11.03 19.78 10.97 19.61 10.97 19.43ZM12.31 14.66C12.31 14.6 12.32 14.52 12.35 14.41L12.62 13.38C12.69 13.15 12.82 12.98 13.03 12.87C13.23 12.75 13.45 12.73 13.68 12.8C13.91 12.86 14.07 12.99 14.19 13.19C14.3 13.39 14.32 13.6 14.25 13.84L14.01 14.83C13.88 15.28 13.64 15.51 13.29 15.51C13.25 15.51 13.14 15.49 12.98 15.45C12.76 15.41 12.6 15.31 12.49 15.15C12.37 15 12.31 14.83 12.31 14.66ZM15.13 16.34C15.13 16.27 15.14 16.19 15.16 16.1L15.44 15.11C15.51 14.87 15.64 14.69 15.85 14.57C16.06 14.45 16.26 14.42 16.48 14.48C16.71 14.55 16.89 14.68 17.01 14.89C17.13 15.09 17.16 15.3 17.1 15.52L16.81 16.58C16.71 16.99 16.45 17.19 16.02 17.19C15.93 17.19 15.84 17.18 15.76 17.16C15.56 17.12 15.41 17.02 15.3 16.86C15.2 16.68 15.14 16.51 15.13 16.34ZM16.51 11.58C16.51 11.55 16.53 11.46 16.56 11.32L16.86 10.29C16.9 10.08 16.99 9.92 17.15 9.82C17.31 9.72 17.47 9.67 17.64 9.68C17.68 9.67 17.77 9.68 17.88 9.71C18.1 9.76 18.27 9.89 18.4 10.09C18.52 10.26 18.54 10.47 18.47 10.74L18.23 11.77C18.1 12.2 17.85 12.42 17.47 12.42C17.41 12.42 17.3 12.4 17.13 12.36C16.92 12.3 16.77 12.19 16.67 12.05C16.56 11.89 16.51 11.74 16.51 11.58Z" stroke="#BEC1C6" mask="url(#path-1-inside-1_4_59)"/>
</g>
<defs>
<filter id="filter0_d_4_59" x="-1" y="0" width="28.8" height="28.28" filterUnits="userSpaceOnUse" color-interpolation-filters="sRGB">
<feFlood flood-opacity="0" result="BackgroundImageFix"/>
<feColorMatrix in="SourceAlpha" type="matrix" values="0 0 0 0 0 0 0 0 0 0 0 0 0 0 0 0 0 0 127 0" result="hardAlpha"/>
<feOffset dy="4"/>
<feGaussianBlur stdDeviation="2"/>
<feComposite in2="hardAlpha" operator="out"/>
<feColorMatrix type="matrix" values="0 0 0 0 0 0 0 0 0 0 0 0 0 0 0 0 0 0 0.25 0"/>
<feBlend mode="normal" in2="BackgroundImageFix" result="effect1_dropShadow_4_59"/>
<feBlend mode="normal" in="SourceGraphic" in2="effect1_dropShadow_4_59" result="shape"/>
</filter>
</defs>
</svg>
