<svg width="21" height="21" viewBox="0 0 21 21" fill="none" xmlns="http://www.w3.org/2000/svg">
<mask id="path-1-inside-1_4_59" fill="white">
<path d="M0 9.53C0 8.37 0.36 7.35 1.09 6.45C1.81 5.55 2.74 4.97 3.87 4.72C4.16 3.34 4.85 2.22 5.94 1.33C7.03 0.439999 8.28 0 9.7 0C11.09 0 12.33 0.43 13.42 1.28C14.5 2.13 15.21 3.23 15.54 4.58H15.88C16.78 4.58 17.61 4.8 18.36 5.24C19.12 5.68 19.71 6.28 20.15 7.04C20.58 7.8 20.8 8.63 20.8 9.53C20.8 10.87 20.34 12.01 19.43 12.97C18.51 13.93 17.39 14.43 16.06 14.47C15.94 14.47 15.88 14.41 15.88 14.3V12.96C15.88 12.85 15.94 12.79 16.06 12.79C16.9 12.72 17.63 12.37 18.23 11.74C18.83 11.11 19.13 10.37 19.13 9.52C19.13 8.63 18.81 7.86 18.17 7.21C17.53 6.57 16.77 6.24 15.88 6.24H14.25C14.13 6.24 14.06 6.18 14.03 6.06L13.96 5.49C13.89 4.78 13.66 4.13 13.26 3.55C12.86 2.97 12.35 2.52 11.73 2.19C11.11 1.86 10.43 1.7 9.71 1.7C8.61 1.7 7.66 2.06 6.85 2.79C6.04 3.52 5.58 4.43 5.48 5.51L5.41 6.05C5.41 6.14 5.36 6.19 5.25 6.19L4.71 6.3C3.87 6.37 3.16 6.71 2.6 7.33C2.03 7.95 1.75 8.68 1.75 9.53C1.75 10.4 2.05 11.15 2.64 11.78C3.23 12.41 3.95 12.75 4.81 12.8C4.93 12.8 4.99 12.86 4.99 12.97V14.31C4.99 14.42 4.93 14.48 4.81 14.48C4.15 14.45 3.53 14.3 2.93 14.03C2.33 13.76 1.82 13.4 1.4 12.96C0.97 12.52 0.63 12.01 0.38 11.41C0.13 10.81 0 10.19 0 9.53ZM5.42 16.3C5.42 16.27 5.43 16.22 5.44 16.17C5.45 16.12 5.46 16.08 5.46 16.06L5.73 15.03C5.8 14.81 5.93 14.63 6.13 14.52C6.33 14.4 6.54 14.38 6.77 14.45C7 14.52 7.17 14.65 7.29 14.85C7.41 15.05 7.43 15.26 7.36 15.49L7.12 16.5C6.99 16.94 6.74 17.16 6.36 17.16C6.33 17.16 6.31 17.16 6.27 17.16C6.24 17.16 6.2 17.15 6.16 17.15C6.12 17.14 6.09 17.14 6.06 17.14C5.85 17.08 5.69 16.96 5.58 16.8C5.47 16.64 5.42 16.46 5.42 16.3ZM6.74 11.48C6.74 11.46 6.74 11.42 6.75 11.37C6.76 11.32 6.76 11.29 6.76 11.28L7.06 10.23C7.12 10.04 7.23 9.89 7.38 9.78C7.53 9.68 7.69 9.63 7.85 9.63C7.87 9.63 7.9 9.63 7.93 9.63C7.96 9.63 7.99 9.64 8.02 9.64C8.05 9.65 8.08 9.65 8.1 9.65C8.33 9.72 8.5 9.85 8.61 10.05C8.73 10.25 8.75 10.46 8.68 10.69L8.44 11.69C8.37 11.97 8.24 12.16 8.04 12.28C7.84 12.4 7.62 12.4 7.39 12.3C7.17 12.24 7.01 12.13 6.9 11.96C6.79 11.79 6.74 11.64 6.74 11.48ZM7.97 19.43C7.97 19.4 7.98 19.36 7.99 19.3C8 19.24 8.01 19.21 8.01 19.18L8.3 18.19C8.36 17.95 8.5 17.77 8.7 17.65C8.9 17.53 9.12 17.5 9.35 17.57C9.58 17.64 9.74 17.77 9.86 17.98C9.98 18.19 9.99 18.4 9.93 18.63L9.68 19.67C9.57 20.08 9.31 20.28 8.88 20.28C8.83 20.28 8.75 20.27 8.64 20.24C8.42 20.2 8.26 20.1 8.15 19.94C8.03 19.78 7.97 19.61 7.97 19.43ZM9.31 14.66C9.31 14.6 9.32 14.52 9.35 14.41L9.62 13.38C9.69 13.15 9.82 12.98 10.03 12.87C10.23 12.75 10.45 12.73 10.68 12.8C10.91 12.86 11.07 12.99 11.19 13.19C11.3 13.39 11.32 13.6 11.25 13.84L11.01 14.83C10.88 15.28 10.64 15.51 10.29 15.51C10.25 15.51 10.14 15.49 9.98 15.45C9.76 15.41 9.6 15.31 9.49 15.15C9.37 15 9.31 14.83 9.31 14.66ZM12.13 16.34C12.13 16.27 12.14 16.19 12.16 16.1L12.44 15.11C12.51 14.87 12.64 14.69 12.85 14.57C13.06 14.45 13.26 14.42 13.48 14.48C13.71 14.55 13.89 14.68 14.01 14.89C14.13 15.09 14.16 15.3 14.1 15.52L13.81 16.58C13.71 16.99 13.45 17.19 13.02 17.19C12.93 17.19 12.84 17.18 12.76 17.16C12.56 17.12 12.41 17.02 12.3 16.86C12.2 16.68 12.14 16.51 12.13 16.34ZM13.51 11.58C13.51 11.55 13.53 11.46 13.56 11.32L13.86 10.29C13.9 10.08 13.99 9.92 14.15 9.82C14.31 9.72 14.47 9.67 14.64 9.68C14.68 9.67 14.77 9.68 14.88 9.71C15.1 9.76 15.27 9.89 15.4 10.09C15.52 10.26 15.54 10.47 15.47 10.74L15.23 11.77C15.1 12.2 14.85 12.42 14.47 12.42C14.41 12.42 14.3 12.4 14.13 12.36C13.92 12.3 13.77 12.19 13.67 12.05C13.56 11.89 13.51 11.74 13.51 11.58Z"/>
</mask>
<path d="M0 9.53C0 8.37 0.36 7.35 1.09 6.45C1.81 5.55 2.74 4.97 3.87 4.72C4.16 3.34 4.85 2.22 5.94 1.33C7.03 0.439999 8.28 0 9.7 0C11.09 0 12.33 0.43 13.42 1.28C14.5 2.13 15.21 3.23 15.54 4.58H15.88C16.78 4.58 17.61 4.8 18.36 5.24C19.12 5.68 19.71 6.28 20.15 7.04C20.58 7.8 20.8 8.63 20.8 9.53C20.8 10.87 20.34 12.01 19.43 12.97C18.51 13.93 17.39 14.43 16.06 14.47C15.94 14.47 15.88 14.41 15.88 14.3V12.96C15.88 12.85 15.94 12.79 16.06 12.79C16.9 12.72 17.63 12.37 18.23 11.74C18.83 11.11 19.13 10.37 19.13 9.52C19.13 8.63 18.81 7.86 18.17 7.21C17.53 6.57 16.77 6.24 15.88 6.24H14.25C14.13 6.24 14.06 6.18 14.03 6.06L13.96 5.49C13.89 4.78 13.66 4.13 13.26 3.55C12.86 2.97 12.35 2.52 11.73 2.19C11.11 1.86 10.43 1.7 9.71 1.7C8.61 1.7 7.66 2.06 6.85 2.79C6.04 3.52 5.58 4.43 5.48 5.51L5.41 6.05C5.41 6.14 5.36 6.19 5.25 6.19L4.71 6.3C3.87 6.37 3.16 6.71 2.6 7.33C2.03 7.95 1.75 8.68 1.75 9.53C1.75 10.4 2.05 11.15 2.64 11.78C3.23 12.41 3.95 12.75 4.81 12.8C4.93 12.8 4.99 12.86 4.99 12.97V14.31C4.99 14.42 4.93 14.48 4.81 14.48C4.15 14.45 3.53 14.3 2.93 14.03C2.33 13.76 1.82 13.4 1.4 12.96C0.97 12.52 0.63 12.01 0.38 11.41C0.13 10.81 0 10.19 0 9.53ZM5.42 16.3C5.42 16.27 5.43 16.22 5.44 16.17C5.45 16.12 5.46 16.08 5.46 16.06L5.73 15.03C5.8 14.81 5.93 14.63 6.13 14.52C6.33 14.4 6.54 14.38 6.77 14.45C7 14.52 7.17 14.65 7.29 14.85C7.41 15.05 7.43 15.26 7.36 15.49L7.12 16.5C6.99 16.94 6.74 17.16 6.36 17.16C6.33 17.16 6.31 17.16 6.27 17.16C6.24 17.16 6.2 17.15 6.16 17.15C6.12 17.14 6.09 17.14 6.06 17.14C5.85 17.08 5.69 16.96 5.58 16.8C5.47 16.64 5.42 16.46 5.42 16.3ZM6.74 11.48C6.74 11.46 6.74 11.42 6.75 11.37C6.76 11.32 6.76 11.29 6.76 11.28L7.06 10.23C7.12 10.04 7.23 9.89 7.38 9.78C7.53 9.68 7.69 9.63 7.85 9.63C7.87 9.63 7.9 9.63 7.93 9.63C7.96 9.63 7.99 9.64 8.02 9.64C8.05 9.65 8.08 9.65 8.1 9.65C8.33 9.72 8.5 9.85 8.61 10.05C8.73 10.25 8.75 10.46 8.68 10.69L8.44 11.69C8.37 11.97 8.24 12.16 8.04 12.28C7.84 12.4 7.62 12.4 7.39 12.3C7.17 12.24 7.01 12.13 6.9 11.96C6.79 11.79 6.74 11.64 6.74 11.48ZM7.97 19.43C7.97 19.4 7.98 19.36 7.99 19.3C8 19.24 8.01 19.21 8.01 19.18L8.3 18.19C8.36 17.95 8.5 17.77 8.7 17.65C8.9 17.53 9.12 17.5 9.35 17.57C9.58 17.64 9.74 17.77 9.86 17.98C9.98 18.19 9.99 18.4 9.93 18.63L9.68 19.67C9.57 20.08 9.31 20.28 8.88 20.28C8.83 20.28 8.75 20.27 8.64 20.24C8.42 20.2 8.26 20.1 8.15 19.94C8.03 19.78 7.97 19.61 7.97 19.43ZM9.31 14.66C9.31 14.6 9.32 14.52 9.35 14.41L9.62 13.38C9.69 13.15 9.82 12.98 10.03 12.87C10.23 12.75 10.45 12.73 10.68 12.8C10.91 12.86 11.07 12.99 11.19 13.19C11.3 13.39 11.32 13.6 11.25 13.84L11.01 14.83C10.88 15.28 10.64 15.51 10.29 15.51C10.25 15.51 10.14 15.49 9.98 15.45C9.76 15.41 9.6 15.31 9.49 15.15C9.37 15 9.31 14.83 9.31 14.66ZM12.13 16.34C12.13 16.27 12.14 16.19 12.16 16.1L12.44 15.11C12.51 14.87 12.64 14.69 12.85 14.57C13.06 14.45 13.26 14.42 13.48 14.48C13.71 14.55 13.89 14.68 14.01 14.89C14.13 15.09 14.16 15.3 14.1 15.52L13.81 16.58C13.71 16.99 13.45 17.19 13.02 17.19C12.93 17.19 12.84 17.18 12.76 17.16C12.56 17.12 12.41 17.02 12.3 16.86C12.2 16.68 12.14 16.51 12.13 16.34ZM13.51 11.58C13.51 11.55 13.53 11.46 13.56 11.32L13.86 10.29C13.9 10.08 13.99 9.92 14.15 9.82C14.31 9.72 14.47 9.67 14.64 9.68C14.68 9.67 14.77 9.68 14.88 9.71C15.1 9.76 15.27 9.89 15.4 10.09C15.52 10.26 15.54 10.47 15.47 10.74L15.23 11.77C15.1 12.2 14.85 12.42 14.47 12.42C14.41 12.42 14.3 12.4 14.13 12.36C13.92 12.3 13.77 12.19 13.67 12.05C13.56 11.89 13.51 11.74 13.51 11.58Z" fill="#05439F" stroke="white" mask="url(#path-1-inside-1_4_59)"/>
</svg>
