<svg width="22" height="21" viewBox="0 0 22 21" fill="none" xmlns="http://www.w3.org/2000/svg">
<mask id="path-1-inside-1_4_59" fill="white">
<path d="M0.600006 9.93C0.600006 8.77 0.960006 7.75 1.69001 6.85C2.41001 5.95 3.34001 5.37 4.47001 5.12C4.76001 3.74 5.45001 2.62 6.54001 1.73C7.63001 0.840001 8.88001 0.400002 10.3 0.400002C11.69 0.400002 12.93 0.830002 14.02 1.68C15.1 2.53 15.81 3.63 16.14 4.98H16.48C17.38 4.98 18.21 5.2 18.96 5.64C19.72 6.08 20.31 6.68 20.75 7.44C21.18 8.2 21.4 9.03 21.4 9.93C21.4 11.27 20.94 12.41 20.03 13.37C19.11 14.33 17.99 14.83 16.66 14.87C16.54 14.87 16.48 14.81 16.48 14.7V13.36C16.48 13.25 16.54 13.19 16.66 13.19C17.5 13.12 18.23 12.77 18.83 12.14C19.43 11.51 19.73 10.77 19.73 9.92C19.73 9.03 19.41 8.26 18.77 7.61C18.13 6.97 17.37 6.64 16.48 6.64H14.85C14.73 6.64 14.66 6.58 14.63 6.46L14.56 5.89C14.49 5.18 14.26 4.53 13.86 3.95C13.46 3.37 12.95 2.92 12.33 2.59C11.71 2.26 11.03 2.1 10.31 2.1C9.21001 2.1 8.26001 2.46 7.45001 3.19C6.64001 3.92 6.18001 4.83 6.08001 5.91L6.01001 6.45C6.01001 6.54 5.96001 6.59 5.85001 6.59L5.31001 6.7C4.47001 6.77 3.76001 7.11 3.20001 7.73C2.63001 8.35 2.35001 9.08 2.35001 9.93C2.35001 10.8 2.65001 11.55 3.24001 12.18C3.83001 12.81 4.55001 13.15 5.41001 13.2C5.53001 13.2 5.59001 13.26 5.59001 13.37V14.71C5.59001 14.82 5.53001 14.88 5.41001 14.88C4.75001 14.85 4.13001 14.7 3.53001 14.43C2.93001 14.16 2.42001 13.8 2.00001 13.36C1.57001 12.92 1.23001 12.41 0.980006 11.81C0.730006 11.21 0.600006 10.59 0.600006 9.93ZM6.02001 16.7C6.02001 16.67 6.03001 16.62 6.04001 16.57C6.05001 16.52 6.06001 16.48 6.06001 16.46L6.33001 15.43C6.40001 15.21 6.53001 15.03 6.73001 14.92C6.93001 14.8 7.14001 14.78 7.37001 14.85C7.60001 14.92 7.77001 15.05 7.89001 15.25C8.01001 15.45 8.03001 15.66 7.96001 15.89L7.72001 16.9C7.59001 17.34 7.34001 17.56 6.96001 17.56C6.93001 17.56 6.91001 17.56 6.87001 17.56C6.84001 17.56 6.80001 17.55 6.76001 17.55C6.72001 17.54 6.69001 17.54 6.66001 17.54C6.45001 17.48 6.29001 17.36 6.18001 17.2C6.07001 17.04 6.02001 16.86 6.02001 16.7ZM7.34001 11.88C7.34001 11.86 7.34001 11.82 7.35001 11.77C7.36001 11.72 7.36001 11.69 7.36001 11.68L7.66001 10.63C7.72001 10.44 7.83001 10.29 7.98001 10.18C8.13001 10.08 8.29001 10.03 8.45001 10.03C8.47001 10.03 8.50001 10.03 8.53001 10.03C8.56001 10.03 8.59001 10.04 8.62001 10.04C8.65001 10.05 8.68001 10.05 8.70001 10.05C8.93001 10.12 9.10001 10.25 9.21001 10.45C9.33001 10.65 9.35001 10.86 9.28001 11.09L9.04001 12.09C8.97001 12.37 8.84001 12.56 8.64001 12.68C8.44001 12.8 8.22001 12.8 7.99001 12.7C7.77001 12.64 7.61001 12.53 7.50001 12.36C7.39001 12.19 7.34001 12.04 7.34001 11.88ZM8.57001 19.83C8.57001 19.8 8.58001 19.76 8.59001 19.7C8.60001 19.64 8.61001 19.61 8.61001 19.58L8.90001 18.59C8.96001 18.35 9.10001 18.17 9.30001 18.05C9.50001 17.93 9.72001 17.9 9.95001 17.97C10.18 18.04 10.34 18.17 10.46 18.38C10.58 18.59 10.59 18.8 10.53 19.03L10.28 20.07C10.17 20.48 9.91001 20.68 9.48001 20.68C9.43001 20.68 9.35001 20.67 9.24001 20.64C9.02001 20.6 8.86001 20.5 8.75001 20.34C8.63001 20.18 8.57001 20.01 8.57001 19.83ZM9.91001 15.06C9.91001 15 9.92001 14.92 9.95001 14.81L10.22 13.78C10.29 13.55 10.42 13.38 10.63 13.27C10.83 13.15 11.05 13.13 11.28 13.2C11.51 13.26 11.67 13.39 11.79 13.59C11.9 13.79 11.92 14 11.85 14.24L11.61 15.23C11.48 15.68 11.24 15.91 10.89 15.91C10.85 15.91 10.74 15.89 10.58 15.85C10.36 15.81 10.2 15.71 10.09 15.55C9.97001 15.4 9.91001 15.23 9.91001 15.06ZM12.73 16.74C12.73 16.67 12.74 16.59 12.76 16.5L13.04 15.51C13.11 15.27 13.24 15.09 13.45 14.97C13.66 14.85 13.86 14.82 14.08 14.88C14.31 14.95 14.49 15.08 14.61 15.29C14.73 15.49 14.76 15.7 14.7 15.92L14.41 16.98C14.31 17.39 14.05 17.59 13.62 17.59C13.53 17.59 13.44 17.58 13.36 17.56C13.16 17.52 13.01 17.42 12.9 17.26C12.8 17.08 12.74 16.91 12.73 16.74ZM14.11 11.98C14.11 11.95 14.13 11.86 14.16 11.72L14.46 10.69C14.5 10.48 14.59 10.32 14.75 10.22C14.91 10.12 15.07 10.07 15.24 10.08C15.28 10.07 15.37 10.08 15.48 10.11C15.7 10.16 15.87 10.29 16 10.49C16.12 10.66 16.14 10.87 16.07 11.14L15.83 12.17C15.7 12.6 15.45 12.82 15.07 12.82C15.01 12.82 14.9 12.8 14.73 12.76C14.52 12.7 14.37 12.59 14.27 12.45C14.16 12.29 14.11 12.14 14.11 11.98Z"/>
</mask>
<path d="M0.600006 9.93C0.600006 8.77 0.960006 7.75 1.69001 6.85C2.41001 5.95 3.34001 5.37 4.47001 5.12C4.76001 3.74 5.45001 2.62 6.54001 1.73C7.63001 0.840001 8.88001 0.400002 10.3 0.400002C11.69 0.400002 12.93 0.830002 14.02 1.68C15.1 2.53 15.81 3.63 16.14 4.98H16.48C17.38 4.98 18.21 5.2 18.96 5.64C19.72 6.08 20.31 6.68 20.75 7.44C21.18 8.2 21.4 9.03 21.4 9.93C21.4 11.27 20.94 12.41 20.03 13.37C19.11 14.33 17.99 14.83 16.66 14.87C16.54 14.87 16.48 14.81 16.48 14.7V13.36C16.48 13.25 16.54 13.19 16.66 13.19C17.5 13.12 18.23 12.77 18.83 12.14C19.43 11.51 19.73 10.77 19.73 9.92C19.73 9.03 19.41 8.26 18.77 7.61C18.13 6.97 17.37 6.64 16.48 6.64H14.85C14.73 6.64 14.66 6.58 14.63 6.46L14.56 5.89C14.49 5.18 14.26 4.53 13.86 3.95C13.46 3.37 12.95 2.92 12.33 2.59C11.71 2.26 11.03 2.1 10.31 2.1C9.21001 2.1 8.26001 2.46 7.45001 3.19C6.64001 3.92 6.18001 4.83 6.08001 5.91L6.01001 6.45C6.01001 6.54 5.96001 6.59 5.85001 6.59L5.31001 6.7C4.47001 6.77 3.76001 7.11 3.20001 7.73C2.63001 8.35 2.35001 9.08 2.35001 9.93C2.35001 10.8 2.65001 11.55 3.24001 12.18C3.83001 12.81 4.55001 13.15 5.41001 13.2C5.53001 13.2 5.59001 13.26 5.59001 13.37V14.71C5.59001 14.82 5.53001 14.88 5.41001 14.88C4.75001 14.85 4.13001 14.7 3.53001 14.43C2.93001 14.16 2.42001 13.8 2.00001 13.36C1.57001 12.92 1.23001 12.41 0.980006 11.81C0.730006 11.21 0.600006 10.59 0.600006 9.93ZM6.02001 16.7C6.02001 16.67 6.03001 16.62 6.04001 16.57C6.05001 16.52 6.06001 16.48 6.06001 16.46L6.33001 15.43C6.40001 15.21 6.53001 15.03 6.73001 14.92C6.93001 14.8 7.14001 14.78 7.37001 14.85C7.60001 14.92 7.77001 15.05 7.89001 15.25C8.01001 15.45 8.03001 15.66 7.96001 15.89L7.72001 16.9C7.59001 17.34 7.34001 17.56 6.96001 17.56C6.93001 17.56 6.91001 17.56 6.87001 17.56C6.84001 17.56 6.80001 17.55 6.76001 17.55C6.72001 17.54 6.69001 17.54 6.66001 17.54C6.45001 17.48 6.29001 17.36 6.18001 17.2C6.07001 17.04 6.02001 16.86 6.02001 16.7ZM7.34001 11.88C7.34001 11.86 7.34001 11.82 7.35001 11.77C7.36001 11.72 7.36001 11.69 7.36001 11.68L7.66001 10.63C7.72001 10.44 7.83001 10.29 7.98001 10.18C8.13001 10.08 8.29001 10.03 8.45001 10.03C8.47001 10.03 8.50001 10.03 8.53001 10.03C8.56001 10.03 8.59001 10.04 8.62001 10.04C8.65001 10.05 8.68001 10.05 8.70001 10.05C8.93001 10.12 9.10001 10.25 9.21001 10.45C9.33001 10.65 9.35001 10.86 9.28001 11.09L9.04001 12.09C8.97001 12.37 8.84001 12.56 8.64001 12.68C8.44001 12.8 8.22001 12.8 7.99001 12.7C7.77001 12.64 7.61001 12.53 7.50001 12.36C7.39001 12.19 7.34001 12.04 7.34001 11.88ZM8.57001 19.83C8.57001 19.8 8.58001 19.76 8.59001 19.7C8.60001 19.64 8.61001 19.61 8.61001 19.58L8.90001 18.59C8.96001 18.35 9.10001 18.17 9.30001 18.05C9.50001 17.93 9.72001 17.9 9.95001 17.97C10.18 18.04 10.34 18.17 10.46 18.38C10.58 18.59 10.59 18.8 10.53 19.03L10.28 20.07C10.17 20.48 9.91001 20.68 9.48001 20.68C9.43001 20.68 9.35001 20.67 9.24001 20.64C9.02001 20.6 8.86001 20.5 8.75001 20.34C8.63001 20.18 8.57001 20.01 8.57001 19.83ZM9.91001 15.06C9.91001 15 9.92001 14.92 9.95001 14.81L10.22 13.78C10.29 13.55 10.42 13.38 10.63 13.27C10.83 13.15 11.05 13.13 11.28 13.2C11.51 13.26 11.67 13.39 11.79 13.59C11.9 13.79 11.92 14 11.85 14.24L11.61 15.23C11.48 15.68 11.24 15.91 10.89 15.91C10.85 15.91 10.74 15.89 10.58 15.85C10.36 15.81 10.2 15.71 10.09 15.55C9.97001 15.4 9.91001 15.23 9.91001 15.06ZM12.73 16.74C12.73 16.67 12.74 16.59 12.76 16.5L13.04 15.51C13.11 15.27 13.24 15.09 13.45 14.97C13.66 14.85 13.86 14.82 14.08 14.88C14.31 14.95 14.49 15.08 14.61 15.29C14.73 15.49 14.76 15.7 14.7 15.92L14.41 16.98C14.31 17.39 14.05 17.59 13.62 17.59C13.53 17.59 13.44 17.58 13.36 17.56C13.16 17.52 13.01 17.42 12.9 17.26C12.8 17.08 12.74 16.91 12.73 16.74ZM14.11 11.98C14.11 11.95 14.13 11.86 14.16 11.72L14.46 10.69C14.5 10.48 14.59 10.32 14.75 10.22C14.91 10.12 15.07 10.07 15.24 10.08C15.28 10.07 15.37 10.08 15.48 10.11C15.7 10.16 15.87 10.29 16 10.49C16.12 10.66 16.14 10.87 16.07 11.14L15.83 12.17C15.7 12.6 15.45 12.82 15.07 12.82C15.01 12.82 14.9 12.8 14.73 12.76C14.52 12.7 14.37 12.59 14.27 12.45C14.16 12.29 14.11 12.14 14.11 11.98Z" fill="#9CA3AF" stroke="#05439F" mask="url(#path-1-inside-1_4_59)"/>
</svg>
