<svg width="33" height="27" viewBox="0 0 33 27" fill="none" xmlns="http://www.w3.org/2000/svg">
<g filter="url(#filter0_d_4_71)">
<path d="M9 17.92C9 17.64 9.1 17.41 9.29 17.24C9.47 17.07 9.69 16.98 9.97 16.98H12.6L15.71 14.06C15.81 13.98 15.92 13.98 16.05 14.06L19.21 16.98H21.98C22.25 16.98 22.48 17.07 22.67 17.26C22.86 17.44 22.96 17.67 22.96 17.93C22.96 18.2 22.86 18.43 22.67 18.62C22.48 18.81 22.25 18.91 21.98 18.91H18.6C18.5 18.91 18.4 18.89 18.31 18.84L15.9 16.57L13.51 18.84C13.43 18.89 13.34 18.91 13.23 18.91H9.97C9.7 18.91 9.47 18.81 9.28 18.62C9.09 18.42 9 18.19 9 17.92Z" fill="#05439F"/>
<path d="M4 12.25C4 12 4.1 11.77 4.3 11.56C4.52 11.37 4.76 11.27 5 11.27H7.33C7.6 11.27 7.82 11.37 8 11.56C8.18 11.75 8.27 11.99 8.27 12.25C8.27 12.54 8.18 12.78 8 12.97C7.82 13.16 7.59 13.26 7.33 13.26H5C4.73 13.26 4.5 13.16 4.3 12.96C4.1 12.75 4 12.51 4 12.25ZM7.33 4.27C7.33 4 7.42 3.77 7.59 3.59C7.82 3.39 8.05 3.29 8.3 3.29C8.56 3.29 8.79 3.39 8.98 3.58L10.62 5.23C10.81 5.45 10.9 5.68 10.9 5.92C10.9 6.2 10.81 6.44 10.63 6.62C10.45 6.8 10.23 6.9 9.97 6.9C9.73 6.9 9.49 6.8 9.27 6.61L7.59 5C7.42 4.79 7.33 4.54 7.33 4.27ZM10.25 12.25C10.25 13.22 10.46 14.1 10.87 14.89C10.89 15.01 10.98 15.07 11.12 15.07H13C13.07 15.07 13.12 15.04 13.15 14.99C13.18 14.93 13.17 14.87 13.13 14.8C12.49 14.03 12.17 13.18 12.17 12.25C12.17 11.13 12.57 10.17 13.37 9.38C14.17 8.59 15.13 8.2 16.26 8.2C17.38 8.2 18.33 8.59 19.12 9.38C19.91 10.17 20.31 11.12 20.31 12.25C20.31 13.19 19.99 14.04 19.36 14.8C19.32 14.87 19.31 14.93 19.33 14.99C19.35 15.05 19.4 15.07 19.48 15.07H21.38C21.51 15.07 21.59 15.01 21.61 14.89C22.05 14.12 22.25 13.24 22.25 12.25C22.25 11.44 22.09 10.66 21.77 9.93C21.45 9.19 21.02 8.56 20.49 8.02C19.96 7.49 19.32 7.06 18.58 6.74C17.84 6.42 17.07 6.27 16.26 6.27C15.45 6.27 14.67 6.43 13.93 6.74C13.19 7.06 12.55 7.48 12.01 8.02C11.47 8.55 11.04 9.19 10.72 9.93C10.41 10.66 10.25 11.43 10.25 12.25ZM15.28 3.29V0.99C15.28 0.7 15.37 0.47 15.56 0.28C15.75 0.0900002 15.99 0 16.27 0C16.55 0 16.78 0.0900002 16.97 0.28C17.16 0.47 17.25 0.72 17.25 1V3.3C17.25 3.59 17.16 3.82 16.97 4.01C16.79 4.19 16.55 4.29 16.27 4.29C15.98 4.29 15.75 4.2 15.56 4.01C15.37 3.82 15.28 3.58 15.28 3.29ZM21.63 5.93C21.63 5.68 21.72 5.45 21.9 5.24L23.52 3.59C23.71 3.4 23.95 3.3 24.22 3.3C24.49 3.3 24.73 3.4 24.91 3.59C25.1 3.78 25.19 4.01 25.19 4.28C25.19 4.57 25.1 4.81 24.93 5.01L23.25 6.62C23.04 6.81 22.8 6.91 22.55 6.91C22.28 6.91 22.06 6.82 21.89 6.63C21.72 6.44 21.63 6.21 21.63 5.93ZM24.24 12.25C24.24 11.98 24.33 11.75 24.51 11.56C24.69 11.37 24.91 11.27 25.17 11.27H27.52C27.79 11.27 28.02 11.37 28.21 11.56C28.4 11.75 28.5 11.99 28.5 12.25C28.5 12.53 28.4 12.76 28.21 12.96C28.02 13.16 27.79 13.26 27.52 13.26H25.17C24.9 13.26 24.68 13.16 24.5 12.97C24.33 12.77 24.24 12.53 24.24 12.25Z" fill="#EED605"/>
</g>
<defs>
<filter id="filter0_d_4_71" x="0" y="0" width="32.5" height="26.91" filterUnits="userSpaceOnUse" color-interpolation-filters="sRGB">
<feFlood flood-opacity="0" result="BackgroundImageFix"/>
<feColorMatrix in="SourceAlpha" type="matrix" values="0 0 0 0 0 0 0 0 0 0 0 0 0 0 0 0 0 0 127 0" result="hardAlpha"/>
<feOffset dy="4"/>
<feGaussianBlur stdDeviation="2"/>
<feComposite in2="hardAlpha" operator="out"/>
<feColorMatrix type="matrix" values="0 0 0 0 0 0 0 0 0 0 0 0 0 0 0 0 0 0 0.25 0"/>
<feBlend mode="normal" in2="BackgroundImageFix" result="effect1_dropShadow_4_71"/>
<feBlend mode="normal" in="SourceGraphic" in2="effect1_dropShadow_4_71" result="shape"/>
</filter>
</defs>
</svg>
