<svg width="25" height="19" viewBox="0 0 25 19" fill="none" xmlns="http://www.w3.org/2000/svg">
<path d="M5 17.92C5 17.64 5.1 17.41 5.29 17.24C5.47 17.07 5.69 16.98 5.97 16.98H8.6L11.71 14.06C11.81 13.98 11.92 13.98 12.05 14.06L15.21 16.98H17.98C18.25 16.98 18.48 17.07 18.67 17.26C18.86 17.44 18.96 17.67 18.96 17.93C18.96 18.2 18.86 18.43 18.67 18.62C18.48 18.81 18.25 18.91 17.98 18.91H14.6C14.5 18.91 14.4 18.89 14.31 18.84L11.9 16.57L9.51 18.84C9.43 18.89 9.34 18.91 9.23 18.91H5.97C5.7 18.91 5.47 18.81 5.28 18.62C5.09 18.42 5 18.19 5 17.92Z" fill="#05439F"/>
<path d="M0 12.25C0 12 0.0999999 11.77 0.3 11.56C0.52 11.37 0.76 11.27 1 11.27H3.33C3.6 11.27 3.82 11.37 4 11.56C4.18 11.75 4.27 11.99 4.27 12.25C4.27 12.54 4.18 12.78 4 12.97C3.82 13.16 3.59 13.26 3.33 13.26H1C0.73 13.26 0.5 13.16 0.3 12.96C0.0999999 12.75 0 12.51 0 12.25ZM3.33 4.27C3.33 4 3.42 3.77 3.59 3.59C3.82 3.39 4.05 3.29 4.3 3.29C4.56 3.29 4.79 3.39 4.98 3.58L6.62 5.23C6.81 5.45 6.9 5.68 6.9 5.92C6.9 6.2 6.81 6.44 6.63 6.62C6.45 6.8 6.23 6.9 5.97 6.9C5.73 6.9 5.49 6.8 5.27 6.61L3.59 5C3.42 4.79 3.33 4.54 3.33 4.27ZM6.25 12.25C6.25 13.22 6.46 14.1 6.87 14.89C6.89 15.01 6.98 15.07 7.12 15.07H9C9.07 15.07 9.12 15.04 9.15 14.99C9.18 14.93 9.17 14.87 9.13 14.8C8.49 14.03 8.17 13.18 8.17 12.25C8.17 11.13 8.57 10.17 9.37 9.38C10.17 8.59 11.13 8.2 12.26 8.2C13.38 8.2 14.33 8.59 15.12 9.38C15.91 10.17 16.31 11.12 16.31 12.25C16.31 13.19 15.99 14.04 15.36 14.8C15.32 14.87 15.31 14.93 15.33 14.99C15.35 15.05 15.4 15.07 15.48 15.07H17.38C17.51 15.07 17.59 15.01 17.61 14.89C18.05 14.12 18.25 13.24 18.25 12.25C18.25 11.44 18.09 10.66 17.77 9.93C17.45 9.19 17.02 8.56 16.49 8.02C15.96 7.49 15.32 7.06 14.58 6.74C13.84 6.42 13.07 6.27 12.26 6.27C11.45 6.27 10.67 6.43 9.93 6.74C9.19 7.06 8.55 7.48 8.01 8.02C7.47 8.55 7.04 9.19 6.72 9.93C6.41 10.66 6.25 11.43 6.25 12.25ZM11.28 3.29V0.99C11.28 0.7 11.37 0.47 11.56 0.28C11.75 0.0900002 11.99 0 12.27 0C12.55 0 12.78 0.0900002 12.97 0.28C13.16 0.47 13.25 0.72 13.25 1V3.3C13.25 3.59 13.16 3.82 12.97 4.01C12.79 4.19 12.55 4.29 12.27 4.29C11.98 4.29 11.75 4.2 11.56 4.01C11.37 3.82 11.28 3.58 11.28 3.29ZM17.63 5.93C17.63 5.68 17.72 5.45 17.9 5.24L19.52 3.59C19.71 3.4 19.95 3.3 20.22 3.3C20.49 3.3 20.73 3.4 20.91 3.59C21.1 3.78 21.19 4.01 21.19 4.28C21.19 4.57 21.1 4.81 20.93 5.01L19.25 6.62C19.04 6.81 18.8 6.91 18.55 6.91C18.28 6.91 18.06 6.82 17.89 6.63C17.72 6.44 17.63 6.21 17.63 5.93ZM20.24 12.25C20.24 11.98 20.33 11.75 20.51 11.56C20.69 11.37 20.91 11.27 21.17 11.27H23.52C23.79 11.27 24.02 11.37 24.21 11.56C24.4 11.75 24.5 11.99 24.5 12.25C24.5 12.53 24.4 12.76 24.21 12.96C24.02 13.16 23.79 13.26 23.52 13.26H21.17C20.9 13.26 20.68 13.16 20.5 12.97C20.33 12.77 20.24 12.53 20.24 12.25Z" fill="#EED605"/>
</svg>
