<svg width="25" height="21" viewBox="0 0 25 21" fill="none" xmlns="http://www.w3.org/2000/svg">
<path d="M0 12.12C0 11.84 0.0999999 11.62 0.3 11.44C0.47 11.26 0.7 11.18 0.98 11.18H3.29C3.56 11.18 3.78 11.27 3.96 11.45C4.13 11.63 4.22 11.85 4.22 12.12C4.22 12.4 4.13 12.64 3.95 12.83C3.77 13.02 3.55 13.12 3.29 13.12H0.99C0.72 13.12 0.49 13.02 0.3 12.82C0.0999999 12.62 0 12.39 0 12.12ZM3.29 4.26C3.29 3.98 3.37 3.75 3.54 3.58C3.74 3.38 3.97 3.28 4.24 3.28C4.53 3.28 4.75 3.38 4.92 3.58L6.54 5.21C7 5.65 7 6.1 6.54 6.56C6.35 6.75 6.14 6.84 5.89 6.84C5.67 6.84 5.45 6.75 5.21 6.56L3.55 4.94C3.38 4.76 3.29 4.53 3.29 4.26ZM6.2 12.12C6.2 13.11 6.39 13.99 6.78 14.74C6.84 14.85 6.93 14.9 7.05 14.9H8.92C9 14.9 9.05 14.88 9.07 14.83C9.09 14.78 9.06 14.72 9 14.65C8.41 13.91 8.11 13.06 8.11 12.12C8.11 11.02 8.5 10.08 9.29 9.31C10.08 8.54 11.03 8.15 12.14 8.15C13.24 8.15 14.18 8.54 14.97 9.31C15.75 10.09 16.15 11.02 16.15 12.11C16.15 13.05 15.85 13.9 15.26 14.64C15.19 14.71 15.17 14.77 15.19 14.82C15.21 14.87 15.26 14.89 15.34 14.89H17.22C17.35 14.89 17.43 14.84 17.46 14.73C17.87 13.95 18.08 13.07 18.08 12.11C18.08 11.32 17.92 10.55 17.61 9.82C17.3 9.09 16.87 8.45 16.34 7.92C15.81 7.39 15.18 6.97 14.45 6.65C13.72 6.33 12.95 6.18 12.15 6.18C11.35 6.18 10.58 6.34 9.85 6.65C9.12 6.97 8.49 7.39 7.96 7.92C7.43 8.45 7.01 9.08 6.69 9.82C6.37 10.56 6.2 11.33 6.2 12.12ZM11.16 3.31V0.98C11.16 0.71 11.26 0.48 11.45 0.29C11.64 0.1 11.87 0 12.14 0C12.41 0 12.64 0.1 12.83 0.29C13.02 0.48 13.12 0.71 13.12 0.98V3.3C13.12 3.57 13.02 3.8 12.83 3.99C12.64 4.18 12.41 4.28 12.14 4.28C11.87 4.28 11.64 4.18 11.45 3.99C11.25 3.8 11.16 3.58 11.16 3.31ZM17.43 5.89C17.43 5.61 17.52 5.38 17.69 5.22L19.32 3.59C19.48 3.39 19.71 3.29 20 3.29C20.27 3.29 20.5 3.39 20.68 3.58C20.86 3.77 20.95 4 20.95 4.27C20.95 4.55 20.87 4.78 20.7 4.95L19.04 6.58C18.81 6.77 18.58 6.86 18.35 6.86C18.09 6.86 17.87 6.77 17.69 6.58C17.52 6.39 17.43 6.16 17.43 5.89ZM20.02 12.12C20.02 11.85 20.11 11.63 20.28 11.45C20.45 11.27 20.68 11.18 20.95 11.18H23.27C23.54 11.18 23.77 11.27 23.96 11.45C24.15 11.63 24.25 11.85 24.25 12.12C24.25 12.39 24.15 12.62 23.96 12.82C23.77 13.02 23.54 13.12 23.27 13.12H20.95C20.69 13.12 20.47 13.02 20.29 12.83C20.11 12.64 20.02 12.4 20.02 12.12Z" fill="#EED605"/>
<path d="M5 17.0005C5 16.7323 5.10152 16.4951 5.30457 16.2888C5.48731 16.1031 5.72081 16.0103 5.99492 16.0103H9.26396C9.37564 16.0103 9.46701 16.0309 9.54822 16.0928L11.934 18.3827L14.3604 16.0825C14.4315 16.0309 14.533 16 14.6548 16H18.0051C18.2792 16 18.5127 16.0928 18.7056 16.2888C18.8985 16.4848 19 16.722 19 16.9902C19 17.2687 18.8985 17.5059 18.7056 17.7019C18.5127 17.8979 18.2792 18.001 18.0051 18.001H15.2843L12.0964 20.9304C11.9746 21.0232 11.8629 21.0232 11.7614 20.9304L8.63452 18.001H5.99492C5.72081 18.001 5.48731 17.8979 5.29442 17.7019C5.10152 17.5162 5 17.279 5 17.0005Z" fill="#05439F"/>
</svg>
