<svg width="33" height="29" viewBox="0 0 33 29" fill="none" xmlns="http://www.w3.org/2000/svg">
<g filter="url(#filter0_d_4_72)">
<path d="M4 12.12C4 11.84 4.1 11.62 4.3 11.44C4.47 11.26 4.7 11.18 4.98 11.18H7.29C7.56 11.18 7.78 11.27 7.96 11.45C8.13 11.63 8.22 11.85 8.22 12.12C8.22 12.4 8.13 12.64 7.95 12.83C7.77 13.02 7.55 13.12 7.29 13.12H4.99C4.72 13.12 4.49 13.02 4.3 12.82C4.1 12.62 4 12.39 4 12.12ZM7.29 4.26C7.29 3.98 7.37 3.75 7.54 3.58C7.74 3.38 7.97 3.28 8.24 3.28C8.53 3.28 8.75 3.38 8.92 3.58L10.54 5.21C11 5.65 11 6.1 10.54 6.56C10.35 6.75 10.14 6.84 9.89 6.84C9.67 6.84 9.45 6.75 9.21 6.56L7.55 4.94C7.38 4.76 7.29 4.53 7.29 4.26ZM10.2 12.12C10.2 13.11 10.39 13.99 10.78 14.74C10.84 14.85 10.93 14.9 11.05 14.9H12.92C13 14.9 13.05 14.88 13.07 14.83C13.09 14.78 13.06 14.72 13 14.65C12.41 13.91 12.11 13.06 12.11 12.12C12.11 11.02 12.5 10.08 13.29 9.31C14.08 8.54 15.03 8.15 16.14 8.15C17.24 8.15 18.18 8.54 18.97 9.31C19.75 10.09 20.15 11.02 20.15 12.11C20.15 13.05 19.85 13.9 19.26 14.64C19.19 14.71 19.17 14.77 19.19 14.82C19.21 14.87 19.26 14.89 19.34 14.89H21.22C21.35 14.89 21.43 14.84 21.46 14.73C21.87 13.95 22.08 13.07 22.08 12.11C22.08 11.32 21.92 10.55 21.61 9.82C21.3 9.09 20.87 8.45 20.34 7.92C19.81 7.39 19.18 6.97 18.45 6.65C17.72 6.33 16.95 6.18 16.15 6.18C15.35 6.18 14.58 6.34 13.85 6.65C13.12 6.97 12.49 7.39 11.96 7.92C11.43 8.45 11.01 9.08 10.69 9.82C10.37 10.56 10.2 11.33 10.2 12.12ZM15.16 3.31V0.98C15.16 0.71 15.26 0.48 15.45 0.29C15.64 0.1 15.87 0 16.14 0C16.41 0 16.64 0.1 16.83 0.29C17.02 0.48 17.12 0.71 17.12 0.98V3.3C17.12 3.57 17.02 3.8 16.83 3.99C16.64 4.18 16.41 4.28 16.14 4.28C15.87 4.28 15.64 4.18 15.45 3.99C15.25 3.8 15.16 3.58 15.16 3.31ZM21.43 5.89C21.43 5.61 21.52 5.38 21.69 5.22L23.32 3.59C23.48 3.39 23.71 3.29 24 3.29C24.27 3.29 24.5 3.39 24.68 3.58C24.86 3.77 24.95 4 24.95 4.27C24.95 4.55 24.87 4.78 24.7 4.95L23.04 6.58C22.81 6.77 22.58 6.86 22.35 6.86C22.09 6.86 21.87 6.77 21.69 6.58C21.52 6.39 21.43 6.16 21.43 5.89ZM24.02 12.12C24.02 11.85 24.11 11.63 24.28 11.45C24.45 11.27 24.68 11.18 24.95 11.18H27.27C27.54 11.18 27.77 11.27 27.96 11.45C28.15 11.63 28.25 11.85 28.25 12.12C28.25 12.39 28.15 12.62 27.96 12.82C27.77 13.02 27.54 13.12 27.27 13.12H24.95C24.69 13.12 24.47 13.02 24.29 12.83C24.11 12.64 24.02 12.4 24.02 12.12Z" fill="#EED605"/>
<path d="M9 17.0005C9 16.7323 9.10152 16.4951 9.30457 16.2888C9.48731 16.1031 9.72081 16.0103 9.99492 16.0103H13.264C13.3756 16.0103 13.467 16.0309 13.5482 16.0928L15.934 18.3827L18.3604 16.0825C18.4315 16.0309 18.533 16 18.6548 16H22.0051C22.2792 16 22.5127 16.0928 22.7056 16.2888C22.8985 16.4848 23 16.722 23 16.9902C23 17.2687 22.8985 17.5059 22.7056 17.7019C22.5127 17.8979 22.2792 18.001 22.0051 18.001H19.2843L16.0964 20.9304C15.9746 21.0232 15.8629 21.0232 15.7614 20.9304L12.6345 18.001H9.99492C9.72081 18.001 9.48731 17.8979 9.29442 17.7019C9.10152 17.5162 9 17.279 9 17.0005Z" fill="#05439F"/>
</g>
<defs>
<filter id="filter0_d_4_72" x="0" y="0" width="32.25" height="29" filterUnits="userSpaceOnUse" color-interpolation-filters="sRGB">
<feFlood flood-opacity="0" result="BackgroundImageFix"/>
<feColorMatrix in="SourceAlpha" type="matrix" values="0 0 0 0 0 0 0 0 0 0 0 0 0 0 0 0 0 0 127 0" result="hardAlpha"/>
<feOffset dy="4"/>
<feGaussianBlur stdDeviation="2"/>
<feComposite in2="hardAlpha" operator="out"/>
<feColorMatrix type="matrix" values="0 0 0 0 0 0 0 0 0 0 0 0 0 0 0 0 0 0 0.25 0"/>
<feBlend mode="normal" in2="BackgroundImageFix" result="effect1_dropShadow_4_72"/>
<feBlend mode="normal" in="SourceGraphic" in2="effect1_dropShadow_4_72" result="shape"/>
</filter>
</defs>
</svg>
