<svg width="11" height="23" viewBox="0 0 11 23" fill="none" xmlns="http://www.w3.org/2000/svg">
<path d="M5.06 14.65V14.8698L5.27801 14.8979C5.8347 14.9698 6.31114 15.2285 6.70379 15.6668C7.09433 16.1028 7.29 16.6039 7.29 17.17C7.29 17.8037 7.06644 18.3491 6.60498 18.8015C6.13911 19.2582 5.61099 19.48 4.99 19.48C4.36937 19.48 3.85309 19.2586 3.40855 18.805C2.96631 18.3537 2.75 17.8074 2.75 17.16C2.75 16.5825 2.93672 16.0911 3.32709 15.6458C3.71896 15.2088 4.18617 14.9585 4.73649 14.8773L4.95 14.8458V14.63V7.29C4.95 7.2748 4.95217 7.26953 4.95273 7.26818L4.95277 7.26807C4.95347 7.26636 4.95539 7.26211 4.96115 7.25404C4.96123 7.25401 4.96132 7.25397 4.96141 7.25394C4.96441 7.25276 4.97303 7.25 4.99 7.25C4.99716 7.25 4.99953 7.251 5.00149 7.25188C5.00454 7.25325 5.01507 7.25862 5.03322 7.27678L5.04001 7.28357L5.0473 7.28981C5.05384 7.29542 5.05776 7.29981 5.06 7.30272V14.65ZM2.382 12.9958L2.49 12.9212V12.79V2.87C2.49 2.13255 2.73625 1.5173 3.23678 1.01678C3.7405 0.513059 4.35715 0.25 5.09 0.25C5.83521 0.25 6.4508 0.504726 6.95245 1.006C7.45646 1.51955 7.71 2.12658 7.71 2.86V12.78V12.9112L7.818 12.9858C8.49419 13.4524 9.0077 14.0419 9.3795 14.7378C9.74889 15.4292 9.93 16.1884 9.93 17C9.93 17.8767 9.71127 18.6935 9.28345 19.4351C8.85541 20.177 8.26701 20.7654 7.52507 21.1935C6.78331 21.6214 5.97644 21.84 5.09 21.84C4.21382 21.84 3.40691 21.6215 2.66493 21.1935C1.92311 20.7655 1.33392 20.1767 0.895342 19.433C0.459357 18.6937 0.25 17.888 0.25 17.01C0.25 16.2012 0.439827 15.4511 0.811165 14.7466C1.18144 14.044 1.70354 13.464 2.382 12.9958ZM6.82496 13.838L6.82498 13.838L6.82181 13.8364L6.5418 13.6964L6.53697 13.694C6.53399 13.6838 6.53 13.6638 6.53 13.63V2.87C6.53 2.48507 6.39445 2.14874 6.11281 1.87934L6.11285 1.87929L6.10857 1.87538C5.83083 1.62179 5.49008 1.49 5.09 1.49C4.70777 1.49 4.3676 1.62322 4.09143 1.87538C3.80414 2.13769 3.67 2.47744 3.67 2.87V13.61C3.67 13.6472 3.66517 13.669 3.66171 13.6797L3.39492 13.8181L3.3934 13.8189C2.80268 14.1303 2.33808 14.573 2.0042 15.1438C1.67069 15.714 1.51 16.3279 1.51 17.01C1.51 18.0059 1.86601 18.8689 2.56188 19.5754C3.25879 20.2831 4.11293 20.64 5.1 20.64C6.09674 20.64 6.9602 20.2834 7.67678 19.5668C8.39081 18.8527 8.76 18.0002 8.76 17.02C8.76 16.3549 8.58779 15.7302 8.24402 15.1608C7.89972 14.5905 7.4251 14.1488 6.82496 13.838Z" fill="#9CA3AF" stroke="#9F0505" stroke-width="0.5"/>
</svg>
