<svg width="13" height="25" viewBox="0 0 13 25" fill="none" xmlns="http://www.w3.org/2000/svg">
<path d="M3.5 18.16C3.5 18.87 3.74 19.48 4.23 19.98C4.72 20.48 5.3 20.73 5.99 20.73C6.68 20.73 7.27 20.48 7.78 19.98C8.29 19.48 8.54 18.87 8.54 18.17C8.54 17.54 8.32 16.98 7.89 16.5C7.46 16.02 6.93 15.73 6.31 15.65V8.29C6.31 8.23 6.28 8.16 6.21 8.1C6.14 8.03 6.07 8 5.99 8C5.9 8 5.83 8.03 5.78 8.08C5.73 8.14 5.7 8.2 5.7 8.29V15.63C5.09 15.72 4.57 16 4.14 16.48C3.71 16.97 3.5 17.52 3.5 18.16Z" fill="#D80A0A"/>
<path d="M1 18.01C1 17.16 1.2 16.37 1.59 15.63C1.98 14.89 2.53 14.28 3.24 13.79V3.87C3.24 3.07 3.51 2.39 4.06 1.84C4.61 1.29 5.29 1 6.09 1C6.9 1 7.58 1.28 8.13 1.83C8.68 2.39 8.96 3.06 8.96 3.86V13.78C9.67 14.27 10.21 14.89 10.6 15.62C10.99 16.35 11.18 17.15 11.18 18C11.18 18.92 10.95 19.78 10.5 20.56C10.05 21.34 9.43 21.96 8.65 22.41C7.87 22.86 7.02 23.09 6.09 23.09C5.17 23.09 4.32 22.86 3.54 22.41C2.76 21.96 2.14 21.34 1.68 20.56C1.22 19.78 1 18.93 1 18.01ZM2.76 18.01C2.76 18.94 3.09 19.74 3.74 20.4C4.39 21.06 5.18 21.39 6.1 21.39C7.03 21.39 7.83 21.06 8.5 20.39C9.17 19.72 9.51 18.93 9.51 18.02C9.51 17.4 9.35 16.82 9.03 16.29C8.71 15.76 8.27 15.35 7.71 15.06L7.43 14.92C7.33 14.88 7.28 14.78 7.28 14.63V3.87C7.28 3.55 7.17 3.28 6.94 3.06C6.71 2.85 6.43 2.74 6.09 2.74C5.77 2.74 5.49 2.85 5.26 3.06C5.03 3.27 4.92 3.54 4.92 3.87V14.61C4.92 14.76 4.87 14.86 4.78 14.9L4.51 15.04C3.96 15.33 3.53 15.74 3.22 16.27C2.91 16.8 2.76 17.37 2.76 18.01Z" fill="#05439F"/>
<path d="M5.42645 7.72645L5.42 7.73289V3.87C5.42 3.66512 5.48172 3.53462 5.59714 3.42924C5.73479 3.30356 5.89447 3.24 6.09 3.24C6.30749 3.24 6.46493 3.305 6.59853 3.42531C6.72239 3.54554 6.78 3.68194 6.78 3.87V8.08783C6.7382 7.9496 6.65561 7.8281 6.55048 7.73361C6.40373 7.59223 6.21585 7.5 5.99 7.5C5.78094 7.5 5.57938 7.57352 5.42645 7.72645ZM5.16885 15.2376C5.17966 15.2278 5.19004 15.2179 5.2 15.2077V15.2283C5.18959 15.2313 5.17921 15.2344 5.16885 15.2376ZM8.60197 16.5484C8.77643 16.8374 8.89477 17.1424 8.95733 17.4636C8.842 16.9869 8.60742 16.5515 8.26242 16.1664C7.85898 15.716 7.37095 15.4004 6.81 15.2427V14.8745C6.859 15.0678 6.97632 15.2673 7.22053 15.3743L7.48311 15.5056C7.96136 15.7539 8.33113 16.0999 8.60197 16.5484ZM8.48673 1.47965L8.48674 1.47963L8.48355 1.47645C7.83713 0.830022 7.0288 0.5 6.09 0.5C5.1557 0.5 4.34901 0.843883 3.70645 1.48645C3.0575 2.1354 2.74 2.94491 2.74 3.87V13.5344C2.0693 14.0408 1.53628 14.6595 1.14767 15.3969C0.720347 16.2077 0.5 17.0776 0.5 18.01C0.5 19.014 0.741288 19.9526 1.24932 20.814C1.75216 21.6666 2.43378 22.349 3.29014 22.8431C4.14619 23.337 5.08237 23.59 6.09 23.59C7.10712 23.59 8.04337 23.3372 8.89986 22.8431C9.75598 22.3492 10.4392 21.666 10.9331 20.8099C11.4275 19.9529 11.68 19.0066 11.68 18C11.68 17.0732 11.4722 16.1915 11.041 15.3844C10.655 14.6618 10.1324 14.0352 9.46 13.5248V3.86C9.46 2.92762 9.12761 2.13219 8.48673 1.47965Z" stroke="white"/>
</svg>
