<svg width="19" height="31" viewBox="0 0 19 31" fill="none" xmlns="http://www.w3.org/2000/svg">
<g filter="url(#filter0_d_5_84)">
<path d="M6.5 17.16C6.5 17.87 6.74 18.48 7.23 18.98C7.72 19.48 8.3 19.73 8.99 19.73C9.68 19.73 10.27 19.48 10.78 18.98C11.29 18.48 11.54 17.87 11.54 17.17C11.54 16.54 11.32 15.98 10.89 15.5C10.46 15.02 9.93 14.73 9.31 14.65V7.29C9.31 7.23 9.28 7.16 9.21 7.1C9.14 7.03 9.07 7 8.99 7C8.9 7 8.83 7.03 8.78 7.08C8.73 7.14 8.7 7.2 8.7 7.29V14.63C8.09 14.72 7.57 15 7.14 15.48C6.71 15.97 6.5 16.52 6.5 17.16Z" fill="#05439F"/>
<path d="M4 17.01C4 16.16 4.2 15.37 4.59 14.63C4.98 13.89 5.53 13.28 6.24 12.79V2.87C6.24 2.07 6.51 1.39 7.06 0.84C7.61 0.29 8.29 0 9.09 0C9.9 0 10.58 0.28 11.13 0.83C11.68 1.39 11.96 2.06 11.96 2.86V12.78C12.67 13.27 13.21 13.89 13.6 14.62C13.99 15.35 14.18 16.15 14.18 17C14.18 17.92 13.95 18.78 13.5 19.56C13.05 20.34 12.43 20.96 11.65 21.41C10.87 21.86 10.02 22.09 9.09 22.09C8.17 22.09 7.32 21.86 6.54 21.41C5.76 20.96 5.14 20.34 4.68 19.56C4.22 18.78 4 17.93 4 17.01ZM5.76 17.01C5.76 17.94 6.09 18.74 6.74 19.4C7.39 20.06 8.18 20.39 9.1 20.39C10.03 20.39 10.83 20.06 11.5 19.39C12.17 18.72 12.51 17.93 12.51 17.02C12.51 16.4 12.35 15.82 12.03 15.29C11.71 14.76 11.27 14.35 10.71 14.06L10.43 13.92C10.33 13.88 10.28 13.78 10.28 13.63V2.87C10.28 2.55 10.17 2.28 9.94 2.06C9.71 1.85 9.43 1.74 9.09 1.74C8.77 1.74 8.49 1.85 8.26 2.06C8.03 2.27 7.92 2.54 7.92 2.87V13.61C7.92 13.76 7.87 13.86 7.78 13.9L7.51 14.04C6.96 14.33 6.53 14.74 6.22 15.27C5.91 15.8 5.76 16.37 5.76 17.01Z" fill="#05439F"/>
<path d="M9.06 14.65V14.8698L9.27801 14.8979C9.8347 14.9698 10.3111 15.2285 10.7038 15.6668C11.0943 16.1028 11.29 16.6039 11.29 17.17C11.29 17.8037 11.0664 18.3491 10.605 18.8015C10.1391 19.2582 9.61099 19.48 8.99 19.48C8.36937 19.48 7.85309 19.2586 7.40855 18.805C6.96631 18.3537 6.75 17.8074 6.75 17.16C6.75 16.5825 6.93672 16.0911 7.32709 15.6458C7.71896 15.2088 8.18617 14.9585 8.73649 14.8773L8.95 14.8458V14.63V7.29C8.95 7.2748 8.95217 7.26953 8.95273 7.26818L8.95277 7.26807C8.95347 7.26636 8.95539 7.26211 8.96115 7.25404C8.96123 7.25401 8.96132 7.25397 8.96141 7.25394C8.96441 7.25276 8.97303 7.25 8.99 7.25C8.99716 7.25 8.99953 7.251 9.00149 7.25188C9.00454 7.25325 9.01507 7.25862 9.03322 7.27678L9.04001 7.28357L9.0473 7.28981C9.05384 7.29542 9.05776 7.29981 9.06 7.30272V14.65ZM6.382 12.9958L6.49 12.9212V12.79V2.87C6.49 2.13255 6.73625 1.5173 7.23678 1.01678C7.7405 0.513059 8.35715 0.25 9.09 0.25C9.83521 0.25 10.4508 0.504726 10.9524 1.006C11.4565 1.51955 11.71 2.12658 11.71 2.86V12.78V12.9112L11.818 12.9858C12.4942 13.4524 13.0077 14.0419 13.3795 14.7378C13.7489 15.4292 13.93 16.1884 13.93 17C13.93 17.8767 13.7113 18.6935 13.2835 19.4351C12.8554 20.177 12.267 20.7654 11.5251 21.1935C10.7833 21.6214 9.97644 21.84 9.09 21.84C8.21382 21.84 7.40691 21.6215 6.66493 21.1935C5.92311 20.7655 5.33392 20.1767 4.89534 19.433C4.45936 18.6937 4.25 17.888 4.25 17.01C4.25 16.2012 4.43983 15.4511 4.81116 14.7466C5.18144 14.044 5.70354 13.464 6.382 12.9958ZM10.825 13.838L10.825 13.838L10.8218 13.8364L10.5418 13.6964L10.537 13.694C10.534 13.6838 10.53 13.6638 10.53 13.63V2.87C10.53 2.48507 10.3944 2.14874 10.1128 1.87934L10.1129 1.87929L10.1086 1.87538C9.83083 1.62179 9.49008 1.49 9.09 1.49C8.70777 1.49 8.3676 1.62322 8.09143 1.87538C7.80414 2.13769 7.67 2.47744 7.67 2.87V13.61C7.67 13.6472 7.66517 13.669 7.66171 13.6797L7.39492 13.8181L7.3934 13.8189C6.80268 14.1303 6.33808 14.573 6.0042 15.1438C5.67069 15.714 5.51 16.3279 5.51 17.01C5.51 18.0059 5.86601 18.8689 6.56188 19.5754C7.25879 20.2831 8.11293 20.64 9.1 20.64C10.0967 20.64 10.9602 20.2834 11.6768 19.5668C12.3908 18.8527 12.76 18.0002 12.76 17.02C12.76 16.3549 12.5878 15.7302 12.244 15.1608C11.8997 14.5905 11.4251 14.1488 10.825 13.838Z" stroke="#BEC1C6" stroke-width="0.5"/>
</g>
<defs>
<filter id="filter0_d_5_84" x="0" y="0" width="18.18" height="30.09" filterUnits="userSpaceOnUse" color-interpolation-filters="sRGB">
<feFlood flood-opacity="0" result="BackgroundImageFix"/>
<feColorMatrix in="SourceAlpha" type="matrix" values="0 0 0 0 0 0 0 0 0 0 0 0 0 0 0 0 0 0 127 0" result="hardAlpha"/>
<feOffset dy="4"/>
<feGaussianBlur stdDeviation="2"/>
<feComposite in2="hardAlpha" operator="out"/>
<feColorMatrix type="matrix" values="0 0 0 0 0 0 0 0 0 0 0 0 0 0 0 0 0 0 0.25 0"/>
<feBlend mode="normal" in2="BackgroundImageFix" result="effect1_dropShadow_5_84"/>
<feBlend mode="normal" in="SourceGraphic" in2="effect1_dropShadow_5_84" result="shape"/>
</filter>
</defs>
</svg>
