<?xml version="1.0" encoding="UTF-8" standalone="no"?>
<svg
   width="13"
   height="25"
   viewBox="0 0 13 25"
   fill="none"
   version="1.1"
   id="svg3"
   sodipodi:docname="thermostatbwB.svg"
   inkscape:version="1.3.2 (091e20e, 2023-11-25, custom)"
   xmlns:inkscape="http://www.inkscape.org/namespaces/inkscape"
   xmlns:sodipodi="http://sodipodi.sourceforge.net/DTD/sodipodi-0.dtd"
   xmlns="http://www.w3.org/2000/svg"
   xmlns:svg="http://www.w3.org/2000/svg">
  <defs
     id="defs3" />
  <sodipodi:namedview
     id="namedview3"
     pagecolor="#ffffff"
     bordercolor="#000000"
     borderopacity="0.25"
     inkscape:showpageshadow="2"
     inkscape:pageopacity="0.0"
     inkscape:pagecheckerboard="0"
     inkscape:deskcolor="#d1d1d1"
     inkscape:zoom="33.76"
     inkscape:cx="6.4869668"
     inkscape:cy="12.51481"
     inkscape:window-width="1920"
     inkscape:window-height="1017"
     inkscape:window-x="1912"
     inkscape:window-y="-8"
     inkscape:window-maximized="1"
     inkscape:current-layer="svg3" />
  <path
     d="M3.5 18.16C3.5 18.87 3.74 19.48 4.23 19.98C4.72 20.48 5.3 20.73 5.99 20.73C6.68 20.73 7.27 20.48 7.78 19.98C8.29 19.48 8.54 18.87 8.54 18.17C8.54 17.54 8.32 16.98 7.89 16.5C7.46 16.02 6.93 15.73 6.31 15.65V8.29C6.31 8.23 6.28 8.16 6.21 8.1C6.14 8.03 6.07 8 5.99 8C5.9 8 5.83 8.03 5.78 8.08C5.73 8.14 5.7 8.2 5.7 8.29V15.63C5.09 15.72 4.57 16 4.14 16.48C3.71 16.97 3.5 17.52 3.5 18.16Z"
     fill="#D80A0A"
     id="path1" />
  <path
     d="M1 18.01C1 17.16 1.2 16.37 1.59 15.63C1.98 14.89 2.53 14.28 3.24 13.79V3.87C3.24 3.07 3.51 2.39 4.06 1.84C4.61 1.29 5.29 1 6.09 1C6.9 1 7.58 1.28 8.13 1.83C8.68 2.39 8.96 3.06 8.96 3.86V13.78C9.67 14.27 10.21 14.89 10.6 15.62C10.99 16.35 11.18 17.15 11.18 18C11.18 18.92 10.95 19.78 10.5 20.56C10.05 21.34 9.43 21.96 8.65 22.41C7.87 22.86 7.02 23.09 6.09 23.09C5.17 23.09 4.32 22.86 3.54 22.41C2.76 21.96 2.14 21.34 1.68 20.56C1.22 19.78 1 18.93 1 18.01ZM2.76 18.01C2.76 18.94 3.09 19.74 3.74 20.4C4.39 21.06 5.18 21.39 6.1 21.39C7.03 21.39 7.83 21.06 8.5 20.39C9.17 19.72 9.51 18.93 9.51 18.02C9.51 17.4 9.35 16.82 9.03 16.29C8.71 15.76 8.27 15.35 7.71 15.06L7.43 14.92C7.33 14.88 7.28 14.78 7.28 14.63V3.87C7.28 3.55 7.17 3.28 6.94 3.06C6.71 2.85 6.43 2.74 6.09 2.74C5.77 2.74 5.49 2.85 5.26 3.06C5.03 3.27 4.92 3.54 4.92 3.87V14.61C4.92 14.76 4.87 14.86 4.78 14.9L4.51 15.04C3.96 15.33 3.53 15.74 3.22 16.27C2.91 16.8 2.76 17.37 2.76 18.01Z"
     fill="#05439F"
     id="path2" />
  <path
     d="m 8.48673,1.47965 10e-6,-2e-5 L 8.48355,1.47645 C 7.83713,0.830022 7.0288,0.5 6.09,0.5 5.1557,0.5 4.34901,0.843883 3.70645,1.48645 3.0575,2.1354 2.74,2.94491 2.74,3.87 v 9.6644 C 2.0693,14.0408 1.53628,14.6595 1.14767,15.3969 0.720347,16.2077 0.5,17.0776 0.5,18.01 c 0,1.004 0.241288,1.9426 0.74932,2.804 0.50284,0.8526 1.18446,1.535 2.04082,2.0291 C 4.14619,23.337 5.08237,23.59 6.09,23.59 7.10712,23.59 8.04337,23.3372 8.89986,22.8431 9.75598,22.3492 10.4392,21.666 10.9331,20.8099 11.4275,19.9529 11.68,19.0066 11.68,18 11.68,17.0732 11.4722,16.1915 11.041,15.3844 10.655,14.6618 10.1324,14.0352 9.46,13.5248 V 3.86 C 9.46,2.92762 9.12761,2.13219 8.48673,1.47965 Z"
     stroke="#ffffff"
     id="path3"
     sodipodi:nodetypes="cccscsccsscsccsccsc" />
</svg>
