<?xml version="1.0" encoding="UTF-8" standalone="no"?>
<svg
   width="11"
   height="23"
   viewBox="0 0 11 23"
   fill="none"
   version="1.1"
   id="svg3"
   sodipodi:docname="thermostatb.svg"
   inkscape:version="1.3.1 (91b66b0783, 2023-11-16)"
   xmlns:inkscape="http://www.inkscape.org/namespaces/inkscape"
   xmlns:sodipodi="http://sodipodi.sourceforge.net/DTD/sodipodi-0.dtd"
   xmlns="http://www.w3.org/2000/svg"
   xmlns:svg="http://www.w3.org/2000/svg">
  <defs
     id="defs3" />
  <sodipodi:namedview
     id="namedview3"
     pagecolor="#ffffff"
     bordercolor="#000000"
     borderopacity="0.25"
     inkscape:showpageshadow="2"
     inkscape:pageopacity="0.0"
     inkscape:pagecheckerboard="0"
     inkscape:deskcolor="#d1d1d1"
     inkscape:zoom="33.782609"
     inkscape:cx="5.490991"
     inkscape:cy="11.144788"
     inkscape:window-width="1920"
     inkscape:window-height="991"
     inkscape:window-x="-9"
     inkscape:window-y="-9"
     inkscape:window-maximized="1"
     inkscape:current-layer="svg3" />
  <path
     d="M2.5 17.16C2.5 17.87 2.74 18.48 3.23 18.98C3.72 19.48 4.3 19.73 4.99 19.73C5.68 19.73 6.27 19.48 6.78 18.98C7.29 18.48 7.54 17.87 7.54 17.17C7.54 16.54 7.32 15.98 6.89 15.5C6.46 15.02 5.93 14.73 5.31 14.65V7.29C5.31 7.23 5.28 7.16 5.21 7.1C5.14 7.03 5.07 7 4.99 7C4.9 7 4.83 7.03 4.78 7.08C4.73 7.14 4.7 7.2 4.7 7.29V14.63C4.09 14.72 3.57 15 3.14 15.48C2.71 15.97 2.5 16.52 2.5 17.16Z"
     fill="#D80A0A"
     id="path1"
     style="fill:#d30b0b;fill-opacity:1;stroke:#d30b0b;stroke-opacity:1" />
  <path
     d="M0 17.01C0 16.16 0.2 15.37 0.59 14.63C0.98 13.89 1.53 13.28 2.24 12.79V2.87C2.24 2.07 2.51 1.39 3.06 0.84C3.61 0.29 4.29 0 5.09 0C5.9 0 6.58 0.28 7.13 0.83C7.68 1.39 7.96 2.06 7.96 2.86V12.78C8.67 13.27 9.21 13.89 9.6 14.62C9.99 15.35 10.18 16.15 10.18 17C10.18 17.92 9.95 18.78 9.5 19.56C9.05 20.34 8.43 20.96 7.65 21.41C6.87 21.86 6.02 22.09 5.09 22.09C4.17 22.09 3.32 21.86 2.54 21.41C1.76 20.96 1.14 20.34 0.68 19.56C0.22 18.78 0 17.93 0 17.01ZM1.76 17.01C1.76 17.94 2.09 18.74 2.74 19.4C3.39 20.06 4.18 20.39 5.1 20.39C6.03 20.39 6.83 20.06 7.5 19.39C8.17 18.72 8.51 17.93 8.51 17.02C8.51 16.4 8.35 15.82 8.03 15.29C7.71 14.76 7.27 14.35 6.71 14.06L6.43 13.92C6.33 13.88 6.28 13.78 6.28 13.63V2.87C6.28 2.55 6.17 2.28 5.94 2.06C5.71 1.85 5.43 1.74 5.09 1.74C4.77 1.74 4.49 1.85 4.26 2.06C4.03 2.27 3.92 2.54 3.92 2.87V13.61C3.92 13.76 3.87 13.86 3.78 13.9L3.51 14.04C2.96 14.33 2.53 14.74 2.22 15.27C1.91 15.8 1.76 16.37 1.76 17.01Z"
     fill="#05439F"
     id="path2" />
  <path
     d="M 2.382,12.9958 2.49,12.9212 V 12.79 2.87 C 2.49,2.13255 2.73625,1.5173 3.23678,1.01678 3.7405,0.513059 4.35715,0.25 5.09,0.25 5.83521,0.25 6.4508,0.504726 6.95245,1.006 7.45646,1.51955 7.71,2.12658 7.71,2.86 v 9.92 0.1312 l 0.108,0.0746 c 0.67619,0.4666 1.1897,1.0561 1.5615,1.752 C 9.74889,15.4292 9.93,16.1884 9.93,17 9.93,17.8767 9.71127,18.6935 9.28345,19.4351 8.85541,20.177 8.26701,20.7654 7.52507,21.1935 6.78331,21.6214 5.97644,21.84 5.09,21.84 4.21382,21.84 3.40691,21.6215 2.66493,21.1935 1.92311,20.7655 1.33392,20.1767 0.895342,19.433 0.459357,18.6937 0.25,17.888 0.25,17.01 0.25,16.2012 0.439827,15.4511 0.811165,14.7466 1.18144,14.044 1.70354,13.464 2.382,12.9958 Z m 4.44296,0.8422 h 2e-5 L 6.82181,13.8364 6.5418,13.6964 6.53697,13.694 C 6.53399,13.6838 6.53,13.6638 6.53,13.63 V 2.87 C 6.53,2.48507 6.39445,2.14874 6.11281,1.87934 l 4e-5,-5e-5 L 6.10857,1.87538 C 5.83083,1.62179 5.49008,1.49 5.09,1.49 4.70777,1.49 4.3676,1.62322 4.09143,1.87538 3.80414,2.13769 3.67,2.47744 3.67,2.87 v 10.74 c 0,0.0372 -0.00483,0.059 -0.00829,0.0697 l -0.26679,0.1384 -0.00152,8e-4 C 2.80268,14.1303 2.33808,14.573 2.0042,15.1438 1.67069,15.714 1.51,16.3279 1.51,17.01 c 0,0.9959 0.35601,1.8589 1.05188,2.5654 C 3.25879,20.2831 4.11293,20.64 5.1,20.64 6.09674,20.64 6.9602,20.2834 7.67678,19.5668 8.39081,18.8527 8.76,18.0002 8.76,17.02 8.76,16.3549 8.58779,15.7302 8.24402,15.1608 7.89972,14.5905 7.4251,14.1488 6.82496,13.838 Z"
     stroke="#ffffff"
     stroke-width="0.5"
     id="path3"
     sodipodi:nodetypes="cccscscsccccsccscsscccccccsscccscssccscscscscc" />
</svg>
