<?xml version="1.0" encoding="UTF-8" standalone="no"?>
<svg
   width="11"
   height="23"
   viewBox="0 0 11 23"
   fill="none"
   version="1.1"
   id="svg1"
   sodipodi:docname="thermometerred.svg"
   inkscape:version="1.3.1 (91b66b0783, 2023-11-16)"
   xmlns:inkscape="http://www.inkscape.org/namespaces/inkscape"
   xmlns:sodipodi="http://sodipodi.sourceforge.net/DTD/sodipodi-0.dtd"
   xmlns="http://www.w3.org/2000/svg"
   xmlns:svg="http://www.w3.org/2000/svg">
  <defs
     id="defs1" />
  <sodipodi:namedview
     id="namedview1"
     pagecolor="#ffffff"
     bordercolor="#000000"
     borderopacity="0.25"
     inkscape:showpageshadow="2"
     inkscape:pageopacity="0.0"
     inkscape:pagecheckerboard="0"
     inkscape:deskcolor="#d1d1d1"
     inkscape:zoom="33.782609"
     inkscape:cx="5.4909909"
     inkscape:cy="11.5"
     inkscape:window-width="1920"
     inkscape:window-height="991"
     inkscape:window-x="-9"
     inkscape:window-y="-9"
     inkscape:window-maximized="1"
     inkscape:current-layer="svg1" />
  <path
     d="M2.382 12.9958L2.49 12.9212V12.79V2.87C2.49 2.13255 2.73625 1.5173 3.23678 1.01678C3.7405 0.513059 4.35715 0.25 5.09 0.25C5.83521 0.25 6.4508 0.504726 6.95245 1.006C7.45646 1.51955 7.71 2.12658 7.71 2.86V12.78V12.9112L7.818 12.9858C8.49419 13.4524 9.0077 14.0419 9.3795 14.7378C9.74889 15.4292 9.93 16.1884 9.93 17C9.93 17.8767 9.71127 18.6935 9.28345 19.4351C8.85541 20.177 8.26701 20.7654 7.52507 21.1935C6.78331 21.6214 5.97644 21.84 5.09 21.84C4.21382 21.84 3.40691 21.6215 2.66493 21.1935C1.92311 20.7655 1.33392 20.1767 0.895342 19.433C0.459357 18.6937 0.25 17.888 0.25 17.01C0.25 16.2012 0.439827 15.4511 0.811165 14.7466C1.18144 14.044 1.70354 13.464 2.382 12.9958ZM6.82496 13.838L6.82498 13.838L6.82181 13.8364L6.5418 13.6964L6.53697 13.694C6.53399 13.6838 6.53 13.6638 6.53 13.63V2.87C6.53 2.48507 6.39445 2.14874 6.11281 1.87934L6.11285 1.87929L6.10857 1.87538C5.83083 1.62179 5.49008 1.49 5.09 1.49C4.70777 1.49 4.3676 1.62322 4.09143 1.87538C3.80414 2.13769 3.67 2.47744 3.67 2.87V13.61C3.67 13.6472 3.66517 13.669 3.66171 13.6797L3.39492 13.8181L3.3934 13.8189C2.80268 14.1303 2.33808 14.573 2.0042 15.1438C1.67069 15.714 1.51 16.3279 1.51 17.01C1.51 18.0059 1.86601 18.8689 2.56188 19.5754C3.25879 20.2831 4.11293 20.64 5.1 20.64C6.09674 20.64 6.9602 20.2834 7.67678 19.5668C8.39081 18.8527 8.76 18.0002 8.76 17.02C8.76 16.3549 8.58779 15.7302 8.24402 15.1608C7.89972 14.5905 7.4251 14.1488 6.82496 13.838Z"
     fill="#9CA3AF"
     stroke="#05439F"
     stroke-width="0.5"
     id="path1" />
  <path
     d="m 5.1623166,14.453089 v 0.21981 l 0.21801,0.02813 c 0.55669,0.07183 1.03313,0.33057 1.42578,0.76887 0.39054,0.43595 0.58621,0.93713 0.58621,1.50319 0,0.6337 -0.22356,1.1791 -0.68502,1.6315 -0.46587,0.4567 -0.99399,0.6785 -1.61498,0.6785 -0.62063,0 -1.13691,-0.2214 -1.58145,-0.675 -0.442241,-0.4513 -0.65855,-0.9976 -0.65855,-1.645 0,-0.57749 0.186718,-1.06894 0.57709,-1.51417 0.39186,-0.43703 0.85908,-0.68731 1.4094,-0.76851 l 0.21351,-0.0315 v -0.21582 -7.3400002 c 0,-0.01519 0.00217,-0.02047 0.00273,-0.02182 l 4e-5,-1.08e-4 c 7e-4,-0.0017 0.00262,-0.006 0.00838,-0.01403 8e-5,-3.5e-5 1.7e-4,-7.1e-5 2.6e-4,-1.06e-4 0.003,-0.0012 0.01162,-0.0039 0.02859,-0.0039 0.00716,0 0.00953,0.001 0.01149,0.0019 0.00305,0.0014 0.01358,0.0067 0.03173,0.0249 l 0.00679,0.0068 0.00729,0.0062 c 0.00654,0.0056 0.01046,0.01 0.0127,0.01291 z"
     fill="#9ca3af"
     stroke="#9f0505"
     stroke-width="0.5"
     id="path1-0"
     inkscape:highlight-color="#da1414"
     style="fill:#9d0c1b;fill-opacity:1" />
</svg>
