<svg width="31" height="23" viewBox="0 0 31 23" fill="none" xmlns="http://www.w3.org/2000/svg">
<g filter="url(#filter0_d_6_4)">
<mask id="path-1-outside-1_6_4" maskUnits="userSpaceOnUse" x="4" y="0" width="23" height="15" fill="black">
<rect fill="white" x="4" width="23" height="15"/>
<path d="M9.83397 9.59398C9.83397 9.83398 9.92397 10.034 10.104 10.194C10.274 10.364 10.474 10.444 10.714 10.444H16.594C16.854 10.444 17.074 10.534 17.274 10.724C17.474 10.914 17.574 11.144 17.574 11.404C17.574 11.664 17.474 11.904 17.274 12.094C17.074 12.284 16.854 12.384 16.594 12.384C16.334 12.384 16.114 12.284 15.914 12.084C15.734 11.924 15.534 11.844 15.304 11.844C15.064 11.844 14.864 11.924 14.704 12.084C14.544 12.244 14.464 12.444 14.464 12.684C14.464 12.924 14.544 13.124 14.704 13.284C15.234 13.814 15.864 14.084 16.594 14.084C17.334 14.084 17.964 13.824 18.474 13.304C18.984 12.784 19.254 12.154 19.254 11.414C19.254 10.674 18.994 10.044 18.474 9.52398C17.954 9.00398 17.324 8.74398 16.594 8.74398H10.714C10.474 8.74398 10.274 8.82398 10.094 8.99398C9.92397 9.16398 9.83397 9.36398 9.83397 9.59398ZM9.83397 5.58398C9.83397 5.81398 9.92397 6.00398 10.104 6.16398C10.264 6.32398 10.474 6.40398 10.714 6.40398H21.684C22.424 6.40398 23.054 6.14398 23.574 5.62398C24.094 5.10398 24.354 4.47398 24.354 3.73398C24.354 2.99398 24.094 2.37398 23.574 1.85398C23.054 1.34398 22.424 1.08398 21.684 1.08398C20.924 1.08398 20.304 1.33398 19.804 1.84398C19.644 2.00398 19.574 2.21398 19.574 2.45398C19.574 2.69398 19.654 2.89398 19.804 3.05398C19.954 3.20398 20.154 3.28398 20.404 3.28398C20.644 3.28398 20.844 3.20398 21.024 3.05398C21.214 2.86398 21.434 2.77398 21.704 2.77398C21.974 2.77398 22.194 2.86398 22.384 3.05398C22.574 3.24398 22.674 3.47398 22.674 3.73398C22.674 4.00398 22.574 4.23398 22.384 4.42398C22.194 4.61398 21.964 4.71398 21.704 4.71398H10.714C10.474 4.71398 10.274 4.80398 10.094 4.97398C9.92397 5.15398 9.83397 5.35398 9.83397 5.58398Z"/>
<path d="M7.70398 7.5808C7.70398 7.44067 7.7861 7.32602 7.94005 7.23048C8.09401 7.13494 8.28903 7.08398 8.51483 7.08398H20.9239C21.1395 7.08398 21.3242 7.13494 21.4782 7.23048C21.6321 7.32602 21.704 7.44067 21.704 7.5808C21.704 7.72093 21.6321 7.83558 21.4782 7.93749C21.3242 8.03303 21.1395 8.08398 20.9239 8.08398H8.5251C8.29929 8.08398 8.10428 8.03303 7.95032 7.93749C7.79636 7.84195 7.70398 7.72093 7.70398 7.5808Z"/>
<path d="M5 2.53711C5 2.30534 5.10807 2.13542 5.32422 2.02734C5.54167 1.91927 5.86589 1.85612 6.29688 1.83789V1.70508C6.29688 1.58268 6.26888 1.47721 6.21289 1.38867C6.1582 1.29883 6.04883 1.25391 5.88477 1.25391C5.7806 1.25391 5.69727 1.26432 5.63477 1.28516C5.57227 1.30469 5.51497 1.33138 5.46289 1.36523C5.41211 1.39779 5.36328 1.4401 5.31641 1.49219C5.28125 1.53125 5.24805 1.5332 5.2168 1.49805L5.11523 1.38086C5.08659 1.34831 5.09635 1.30924 5.14453 1.26367C5.21354 1.19857 5.2806 1.14974 5.3457 1.11719C5.41081 1.08464 5.49154 1.05729 5.58789 1.03516C5.68555 1.01172 5.78451 1 5.88477 1C6.1569 1 6.35091 1.07031 6.4668 1.21094C6.58268 1.35026 6.64062 1.54167 6.64062 1.78516V2.99609C6.64062 3.05469 6.61133 3.08398 6.55273 3.08398H6.37695C6.32617 3.08398 6.30078 3.05469 6.30078 2.99609V2.90039H6.29688C6.19401 2.98112 6.0931 3.03776 5.99414 3.07031C5.89648 3.10156 5.78711 3.11719 5.66602 3.11719C5.45247 3.11719 5.28776 3.06641 5.17188 2.96484C5.05729 2.86198 5 2.7194 5 2.53711ZM5.35547 2.54492C5.35547 2.62565 5.3724 2.69076 5.40625 2.74023C5.4401 2.78841 5.48698 2.81966 5.54688 2.83398C5.60677 2.84701 5.66927 2.85352 5.73438 2.85352C5.83464 2.85352 5.92969 2.84375 6.01953 2.82422C6.10938 2.80469 6.20182 2.75326 6.29688 2.66992V2.09375C6.03385 2.11328 5.84635 2.13737 5.73438 2.16602C5.6224 2.19336 5.53125 2.24154 5.46094 2.31055C5.39062 2.37826 5.35547 2.45638 5.35547 2.54492Z"/>
<path d="M7.04102 1.12891C7.01888 1.0651 7.03646 1.0332 7.09375 1.0332H7.30664C7.34831 1.0332 7.3776 1.05859 7.39453 1.10938L7.80859 2.39844C7.84245 2.50391 7.86523 2.57682 7.87695 2.61719C7.88997 2.65625 7.90169 2.70508 7.91211 2.76367H7.91992C7.93034 2.70508 7.94141 2.65625 7.95312 2.61719C7.96615 2.57682 7.98958 2.50391 8.02344 2.39844L8.4375 1.10938C8.45443 1.05859 8.48372 1.0332 8.52539 1.0332H8.73828C8.79557 1.0332 8.81315 1.0651 8.79102 1.12891L8.15039 2.96484C8.12305 3.04427 8.08789 3.08398 8.04492 3.08398H7.78711C7.74414 3.08398 7.70898 3.04427 7.68164 2.96484L7.04102 1.12891Z"/>
<path d="M9.01172 2.05859C9.01172 1.73568 9.09245 1.47852 9.25391 1.28711C9.41536 1.0957 9.64648 1 9.94727 1C10.1973 1 10.4043 1.08789 10.5684 1.26367C10.7337 1.43815 10.8164 1.71745 10.8164 2.10156C10.8164 2.16016 10.7897 2.18945 10.7363 2.18945H9.375C9.39714 2.44076 9.46484 2.61589 9.57812 2.71484C9.69141 2.8125 9.81966 2.86133 9.96289 2.86133C10.1139 2.86133 10.2298 2.83594 10.3105 2.78516C10.3913 2.73438 10.4505 2.68424 10.4883 2.63477C10.5299 2.58008 10.5703 2.56966 10.6094 2.60352L10.7246 2.70312C10.7546 2.72917 10.7546 2.76497 10.7246 2.81055C10.6999 2.84831 10.6289 2.90885 10.5117 2.99219C10.3958 3.07552 10.2129 3.11719 9.96289 3.11719C9.63737 3.11719 9.39714 3.02148 9.24219 2.83008C9.08854 2.63867 9.01172 2.38151 9.01172 2.05859ZM9.36719 1.93555H10.4707C10.4655 1.75326 10.4186 1.59375 10.3301 1.45703C10.2415 1.31901 10.1113 1.25 9.93945 1.25C9.78841 1.25 9.66016 1.30078 9.55469 1.40234C9.44922 1.5026 9.38672 1.68034 9.36719 1.93555Z"/>
<path d="M11.3555 3.08398C11.2969 3.08398 11.2676 3.05469 11.2676 2.99609V1.12109C11.2676 1.0625 11.2969 1.0332 11.3555 1.0332H11.5195C11.5781 1.0332 11.6074 1.0625 11.6074 1.12109V1.35547H11.6152C11.6777 1.23828 11.7513 1.14974 11.8359 1.08984C11.9206 1.02995 12.026 1 12.1523 1C12.2357 1 12.2943 1.00716 12.3281 1.02148C12.3581 1.0332 12.3691 1.05273 12.3613 1.08008L12.3164 1.24023C12.3099 1.26367 12.293 1.27279 12.2656 1.26758C12.2201 1.25846 12.1771 1.25391 12.1367 1.25391C11.9844 1.25391 11.8587 1.32292 11.7598 1.46094C11.6608 1.59766 11.6113 1.78451 11.6113 2.02148V2.99609C11.6113 3.05469 11.582 3.08398 11.5234 3.08398H11.3555Z"/>
<path d="M12.5664 2.53711C12.5664 2.30534 12.6745 2.13542 12.8906 2.02734C13.1081 1.91927 13.4323 1.85612 13.8633 1.83789V1.70508C13.8633 1.58268 13.8353 1.47721 13.7793 1.38867C13.7246 1.29883 13.6152 1.25391 13.4512 1.25391C13.347 1.25391 13.2637 1.26432 13.2012 1.28516C13.1387 1.30469 13.0814 1.33138 13.0293 1.36523C12.9785 1.39779 12.9297 1.4401 12.8828 1.49219C12.8477 1.53125 12.8145 1.5332 12.7832 1.49805L12.6816 1.38086C12.653 1.34831 12.6628 1.30924 12.7109 1.26367C12.7799 1.19857 12.847 1.14974 12.9121 1.11719C12.9772 1.08464 13.0579 1.05729 13.1543 1.03516C13.252 1.01172 13.3509 1 13.4512 1C13.7233 1 13.9173 1.07031 14.0332 1.21094C14.1491 1.35026 14.207 1.54167 14.207 1.78516V2.99609C14.207 3.05469 14.1777 3.08398 14.1191 3.08398H13.9434C13.8926 3.08398 13.8672 3.05469 13.8672 2.99609V2.90039H13.8633C13.7604 2.98112 13.6595 3.03776 13.5605 3.07031C13.4629 3.10156 13.3535 3.11719 13.2324 3.11719C13.0189 3.11719 12.8542 3.06641 12.7383 2.96484C12.6237 2.86198 12.5664 2.7194 12.5664 2.53711ZM12.9219 2.54492C12.9219 2.62565 12.9388 2.69076 12.9727 2.74023C13.0065 2.78841 13.0534 2.81966 13.1133 2.83398C13.1732 2.84701 13.2357 2.85352 13.3008 2.85352C13.401 2.85352 13.4961 2.84375 13.5859 2.82422C13.6758 2.80469 13.7682 2.75326 13.8633 2.66992V2.09375C13.6003 2.11328 13.4128 2.13737 13.3008 2.16602C13.1888 2.19336 13.0977 2.24154 13.0273 2.31055C12.957 2.37826 12.9219 2.45638 12.9219 2.54492Z"/>
<path d="M14.6523 2.05859C14.6523 1.77865 14.7201 1.53255 14.8555 1.32031C14.9909 1.10677 15.1888 1 15.4492 1C15.599 1 15.7188 1.02474 15.8086 1.07422C15.8984 1.1237 15.9792 1.19141 16.0508 1.27734H16.0547L16.0664 1.12109C16.0703 1.0625 16.0957 1.0332 16.1426 1.0332H16.3066C16.3652 1.0332 16.3945 1.0625 16.3945 1.12109V3.09961C16.3945 3.34961 16.3366 3.54492 16.2207 3.68555C16.1061 3.82747 15.8789 3.89844 15.5391 3.89844C15.3112 3.89844 15.1406 3.8724 15.0273 3.82031C14.9141 3.76953 14.8333 3.71549 14.7852 3.6582C14.75 3.61523 14.748 3.57878 14.7793 3.54883L14.8867 3.44336C14.9167 3.41471 14.9583 3.42383 15.0117 3.4707C15.0807 3.5332 15.1471 3.57747 15.2109 3.60352C15.2747 3.63086 15.3848 3.64453 15.541 3.64453C15.7181 3.64453 15.847 3.60677 15.9277 3.53125C16.0098 3.45573 16.0508 3.29948 16.0508 3.0625V2.94531C16.0508 2.90495 16.0521 2.86523 16.0547 2.82617H16.0508C15.9831 2.91602 15.903 2.98698 15.8105 3.03906C15.7194 3.09115 15.599 3.11719 15.4492 3.11719C15.1888 3.11719 14.9909 3.01107 14.8555 2.79883C14.7201 2.58529 14.6523 2.33854 14.6523 2.05859ZM15.0156 2.05859C15.0156 2.29818 15.0566 2.49219 15.1387 2.64062C15.222 2.78906 15.3626 2.86328 15.5605 2.86328C15.7012 2.86328 15.8177 2.81576 15.9102 2.7207C16.0039 2.62435 16.0508 2.47852 16.0508 2.2832V1.83398C16.0508 1.63867 16.0039 1.49349 15.9102 1.39844C15.8177 1.30208 15.7012 1.25391 15.5605 1.25391C15.3626 1.25391 15.222 1.32812 15.1387 1.47656C15.0566 1.625 15.0156 1.81901 15.0156 2.05859Z"/>
<path d="M16.8398 2.05859C16.8398 1.73568 16.9206 1.47852 17.082 1.28711C17.2435 1.0957 17.4746 1 17.7754 1C18.0254 1 18.2324 1.08789 18.3965 1.26367C18.5618 1.43815 18.6445 1.71745 18.6445 2.10156C18.6445 2.16016 18.6178 2.18945 18.5645 2.18945H17.2031C17.2253 2.44076 17.293 2.61589 17.4062 2.71484C17.5195 2.8125 17.6478 2.86133 17.791 2.86133C17.9421 2.86133 18.0579 2.83594 18.1387 2.78516C18.2194 2.73438 18.2786 2.68424 18.3164 2.63477C18.3581 2.58008 18.3984 2.56966 18.4375 2.60352L18.5527 2.70312C18.5827 2.72917 18.5827 2.76497 18.5527 2.81055C18.528 2.84831 18.457 2.90885 18.3398 2.99219C18.224 3.07552 18.041 3.11719 17.791 3.11719C17.4655 3.11719 17.2253 3.02148 17.0703 2.83008C16.9167 2.63867 16.8398 2.38151 16.8398 2.05859ZM17.1953 1.93555H18.2988C18.2936 1.75326 18.2467 1.59375 18.1582 1.45703C18.0697 1.31901 17.9395 1.25 17.7676 1.25C17.6165 1.25 17.4883 1.30078 17.3828 1.40234C17.2773 1.5026 17.2148 1.68034 17.1953 1.93555Z"/>
<path d="M19.3652 13C19.3066 13 19.2773 12.9707 19.2773 12.9121V10.2051C19.2773 10.1465 19.3066 10.1172 19.3652 10.1172H19.5332C19.5918 10.1172 19.6211 10.1465 19.6211 10.2051V11.8301C19.6211 11.8691 19.6198 11.9082 19.6172 11.9473H19.6211L20.4121 11C20.4408 10.9661 20.4753 10.9492 20.5156 10.9492H20.6934C20.7923 10.9492 20.8092 10.9876 20.7441 11.0645L20.1309 11.7949L20.832 12.8848C20.8815 12.9616 20.8646 13 20.7812 13H20.5898C20.5469 13 20.5098 12.9759 20.4785 12.9277L19.916 12.0508L19.6211 12.4023V12.9121C19.6211 12.9707 19.5918 13 19.5332 13H19.3652Z"/>
<path d="M21.3262 13C21.2676 13 21.2383 12.9707 21.2383 12.9121V11.0371C21.2383 10.9785 21.2676 10.9492 21.3262 10.9492H21.4902C21.5488 10.9492 21.5781 10.9785 21.5781 11.0371V11.1934H21.5859C21.6706 11.0996 21.7624 11.0299 21.8613 10.9844C21.9603 10.9388 22.0553 10.916 22.1465 10.916C22.3145 10.916 22.4434 10.9583 22.5332 11.043C22.6243 11.1263 22.6829 11.2103 22.709 11.2949H22.7168C22.7884 11.1882 22.8789 11.0983 22.9883 11.0254C23.0977 10.9525 23.2142 10.916 23.3379 10.916C23.5449 10.916 23.7012 10.9831 23.8066 11.1172C23.9121 11.25 23.9648 11.4323 23.9648 11.6641V12.9121C23.9648 12.9707 23.9355 13 23.877 13H23.709C23.6504 13 23.6211 12.9707 23.6211 12.9121V11.7773C23.6211 11.5221 23.5892 11.3574 23.5254 11.2832C23.4616 11.2077 23.3633 11.1699 23.2305 11.1699C23.1003 11.1699 22.9915 11.2259 22.9043 11.3379C22.8171 11.4486 22.7734 11.6159 22.7734 11.8398V12.9121C22.7734 12.9707 22.7441 13 22.6855 13H22.5176C22.459 13 22.4297 12.9707 22.4297 12.9121V11.7773C22.4297 11.5221 22.3978 11.3574 22.334 11.2832C22.2702 11.2077 22.1719 11.1699 22.0391 11.1699C21.9089 11.1699 21.8001 11.2207 21.7129 11.3223C21.6257 11.4225 21.582 11.5951 21.582 11.8398V12.9121C21.582 12.9707 21.5527 13 21.4941 13H21.3262Z"/>
<path d="M24.6035 13C24.5449 13 24.5156 12.9707 24.5156 12.9121V10.2051C24.5156 10.1465 24.5449 10.1172 24.6035 10.1172H24.7715C24.8301 10.1172 24.8594 10.1465 24.8594 10.2051V11.0762C24.8594 11.1152 24.8581 11.1543 24.8555 11.1934H24.8633C24.9479 11.0996 25.0391 11.0299 25.1367 10.9844C25.2344 10.9388 25.3561 10.916 25.502 10.916C25.7389 10.916 25.9089 10.9831 26.0117 11.1172C26.1159 11.25 26.168 11.4323 26.168 11.6641V12.9121C26.168 12.9707 26.1387 13 26.0801 13H25.9121C25.8535 13 25.8242 12.9707 25.8242 12.9121V11.7578C25.8242 11.5026 25.7819 11.3411 25.6973 11.2734C25.6126 11.2044 25.5052 11.1699 25.375 11.1699C25.2057 11.1699 25.0775 11.2207 24.9902 11.3223C24.903 11.4225 24.8594 11.5951 24.8594 11.8398V12.9121C24.8594 12.9707 24.8301 13 24.7715 13H24.6035Z"/>
</mask>
<path d="M9.83397 9.59398C9.83397 9.83398 9.92397 10.034 10.104 10.194C10.274 10.364 10.474 10.444 10.714 10.444H16.594C16.854 10.444 17.074 10.534 17.274 10.724C17.474 10.914 17.574 11.144 17.574 11.404C17.574 11.664 17.474 11.904 17.274 12.094C17.074 12.284 16.854 12.384 16.594 12.384C16.334 12.384 16.114 12.284 15.914 12.084C15.734 11.924 15.534 11.844 15.304 11.844C15.064 11.844 14.864 11.924 14.704 12.084C14.544 12.244 14.464 12.444 14.464 12.684C14.464 12.924 14.544 13.124 14.704 13.284C15.234 13.814 15.864 14.084 16.594 14.084C17.334 14.084 17.964 13.824 18.474 13.304C18.984 12.784 19.254 12.154 19.254 11.414C19.254 10.674 18.994 10.044 18.474 9.52398C17.954 9.00398 17.324 8.74398 16.594 8.74398H10.714C10.474 8.74398 10.274 8.82398 10.094 8.99398C9.92397 9.16398 9.83397 9.36398 9.83397 9.59398ZM9.83397 5.58398C9.83397 5.81398 9.92397 6.00398 10.104 6.16398C10.264 6.32398 10.474 6.40398 10.714 6.40398H21.684C22.424 6.40398 23.054 6.14398 23.574 5.62398C24.094 5.10398 24.354 4.47398 24.354 3.73398C24.354 2.99398 24.094 2.37398 23.574 1.85398C23.054 1.34398 22.424 1.08398 21.684 1.08398C20.924 1.08398 20.304 1.33398 19.804 1.84398C19.644 2.00398 19.574 2.21398 19.574 2.45398C19.574 2.69398 19.654 2.89398 19.804 3.05398C19.954 3.20398 20.154 3.28398 20.404 3.28398C20.644 3.28398 20.844 3.20398 21.024 3.05398C21.214 2.86398 21.434 2.77398 21.704 2.77398C21.974 2.77398 22.194 2.86398 22.384 3.05398C22.574 3.24398 22.674 3.47398 22.674 3.73398C22.674 4.00398 22.574 4.23398 22.384 4.42398C22.194 4.61398 21.964 4.71398 21.704 4.71398H10.714C10.474 4.71398 10.274 4.80398 10.094 4.97398C9.92397 5.15398 9.83397 5.35398 9.83397 5.58398Z" fill="#05439F"/>
<path d="M7.70398 7.5808C7.70398 7.44067 7.7861 7.32602 7.94005 7.23048C8.09401 7.13494 8.28903 7.08398 8.51483 7.08398H20.9239C21.1395 7.08398 21.3242 7.13494 21.4782 7.23048C21.6321 7.32602 21.704 7.44067 21.704 7.5808C21.704 7.72093 21.6321 7.83558 21.4782 7.93749C21.3242 8.03303 21.1395 8.08398 20.9239 8.08398H8.5251C8.29929 8.08398 8.10428 8.03303 7.95032 7.93749C7.79636 7.84195 7.70398 7.72093 7.70398 7.5808Z" fill="#05439F"/>
<path d="M5 2.53711C5 2.30534 5.10807 2.13542 5.32422 2.02734C5.54167 1.91927 5.86589 1.85612 6.29688 1.83789V1.70508C6.29688 1.58268 6.26888 1.47721 6.21289 1.38867C6.1582 1.29883 6.04883 1.25391 5.88477 1.25391C5.7806 1.25391 5.69727 1.26432 5.63477 1.28516C5.57227 1.30469 5.51497 1.33138 5.46289 1.36523C5.41211 1.39779 5.36328 1.4401 5.31641 1.49219C5.28125 1.53125 5.24805 1.5332 5.2168 1.49805L5.11523 1.38086C5.08659 1.34831 5.09635 1.30924 5.14453 1.26367C5.21354 1.19857 5.2806 1.14974 5.3457 1.11719C5.41081 1.08464 5.49154 1.05729 5.58789 1.03516C5.68555 1.01172 5.78451 1 5.88477 1C6.1569 1 6.35091 1.07031 6.4668 1.21094C6.58268 1.35026 6.64062 1.54167 6.64062 1.78516V2.99609C6.64062 3.05469 6.61133 3.08398 6.55273 3.08398H6.37695C6.32617 3.08398 6.30078 3.05469 6.30078 2.99609V2.90039H6.29688C6.19401 2.98112 6.0931 3.03776 5.99414 3.07031C5.89648 3.10156 5.78711 3.11719 5.66602 3.11719C5.45247 3.11719 5.28776 3.06641 5.17188 2.96484C5.05729 2.86198 5 2.7194 5 2.53711ZM5.35547 2.54492C5.35547 2.62565 5.3724 2.69076 5.40625 2.74023C5.4401 2.78841 5.48698 2.81966 5.54688 2.83398C5.60677 2.84701 5.66927 2.85352 5.73438 2.85352C5.83464 2.85352 5.92969 2.84375 6.01953 2.82422C6.10938 2.80469 6.20182 2.75326 6.29688 2.66992V2.09375C6.03385 2.11328 5.84635 2.13737 5.73438 2.16602C5.6224 2.19336 5.53125 2.24154 5.46094 2.31055C5.39062 2.37826 5.35547 2.45638 5.35547 2.54492Z" fill="#05439F"/>
<path d="M7.04102 1.12891C7.01888 1.0651 7.03646 1.0332 7.09375 1.0332H7.30664C7.34831 1.0332 7.3776 1.05859 7.39453 1.10938L7.80859 2.39844C7.84245 2.50391 7.86523 2.57682 7.87695 2.61719C7.88997 2.65625 7.90169 2.70508 7.91211 2.76367H7.91992C7.93034 2.70508 7.94141 2.65625 7.95312 2.61719C7.96615 2.57682 7.98958 2.50391 8.02344 2.39844L8.4375 1.10938C8.45443 1.05859 8.48372 1.0332 8.52539 1.0332H8.73828C8.79557 1.0332 8.81315 1.0651 8.79102 1.12891L8.15039 2.96484C8.12305 3.04427 8.08789 3.08398 8.04492 3.08398H7.78711C7.74414 3.08398 7.70898 3.04427 7.68164 2.96484L7.04102 1.12891Z" fill="#05439F"/>
<path d="M9.01172 2.05859C9.01172 1.73568 9.09245 1.47852 9.25391 1.28711C9.41536 1.0957 9.64648 1 9.94727 1C10.1973 1 10.4043 1.08789 10.5684 1.26367C10.7337 1.43815 10.8164 1.71745 10.8164 2.10156C10.8164 2.16016 10.7897 2.18945 10.7363 2.18945H9.375C9.39714 2.44076 9.46484 2.61589 9.57812 2.71484C9.69141 2.8125 9.81966 2.86133 9.96289 2.86133C10.1139 2.86133 10.2298 2.83594 10.3105 2.78516C10.3913 2.73438 10.4505 2.68424 10.4883 2.63477C10.5299 2.58008 10.5703 2.56966 10.6094 2.60352L10.7246 2.70312C10.7546 2.72917 10.7546 2.76497 10.7246 2.81055C10.6999 2.84831 10.6289 2.90885 10.5117 2.99219C10.3958 3.07552 10.2129 3.11719 9.96289 3.11719C9.63737 3.11719 9.39714 3.02148 9.24219 2.83008C9.08854 2.63867 9.01172 2.38151 9.01172 2.05859ZM9.36719 1.93555H10.4707C10.4655 1.75326 10.4186 1.59375 10.3301 1.45703C10.2415 1.31901 10.1113 1.25 9.93945 1.25C9.78841 1.25 9.66016 1.30078 9.55469 1.40234C9.44922 1.5026 9.38672 1.68034 9.36719 1.93555Z" fill="#05439F"/>
<path d="M11.3555 3.08398C11.2969 3.08398 11.2676 3.05469 11.2676 2.99609V1.12109C11.2676 1.0625 11.2969 1.0332 11.3555 1.0332H11.5195C11.5781 1.0332 11.6074 1.0625 11.6074 1.12109V1.35547H11.6152C11.6777 1.23828 11.7513 1.14974 11.8359 1.08984C11.9206 1.02995 12.026 1 12.1523 1C12.2357 1 12.2943 1.00716 12.3281 1.02148C12.3581 1.0332 12.3691 1.05273 12.3613 1.08008L12.3164 1.24023C12.3099 1.26367 12.293 1.27279 12.2656 1.26758C12.2201 1.25846 12.1771 1.25391 12.1367 1.25391C11.9844 1.25391 11.8587 1.32292 11.7598 1.46094C11.6608 1.59766 11.6113 1.78451 11.6113 2.02148V2.99609C11.6113 3.05469 11.582 3.08398 11.5234 3.08398H11.3555Z" fill="#05439F"/>
<path d="M12.5664 2.53711C12.5664 2.30534 12.6745 2.13542 12.8906 2.02734C13.1081 1.91927 13.4323 1.85612 13.8633 1.83789V1.70508C13.8633 1.58268 13.8353 1.47721 13.7793 1.38867C13.7246 1.29883 13.6152 1.25391 13.4512 1.25391C13.347 1.25391 13.2637 1.26432 13.2012 1.28516C13.1387 1.30469 13.0814 1.33138 13.0293 1.36523C12.9785 1.39779 12.9297 1.4401 12.8828 1.49219C12.8477 1.53125 12.8145 1.5332 12.7832 1.49805L12.6816 1.38086C12.653 1.34831 12.6628 1.30924 12.7109 1.26367C12.7799 1.19857 12.847 1.14974 12.9121 1.11719C12.9772 1.08464 13.0579 1.05729 13.1543 1.03516C13.252 1.01172 13.3509 1 13.4512 1C13.7233 1 13.9173 1.07031 14.0332 1.21094C14.1491 1.35026 14.207 1.54167 14.207 1.78516V2.99609C14.207 3.05469 14.1777 3.08398 14.1191 3.08398H13.9434C13.8926 3.08398 13.8672 3.05469 13.8672 2.99609V2.90039H13.8633C13.7604 2.98112 13.6595 3.03776 13.5605 3.07031C13.4629 3.10156 13.3535 3.11719 13.2324 3.11719C13.0189 3.11719 12.8542 3.06641 12.7383 2.96484C12.6237 2.86198 12.5664 2.7194 12.5664 2.53711ZM12.9219 2.54492C12.9219 2.62565 12.9388 2.69076 12.9727 2.74023C13.0065 2.78841 13.0534 2.81966 13.1133 2.83398C13.1732 2.84701 13.2357 2.85352 13.3008 2.85352C13.401 2.85352 13.4961 2.84375 13.5859 2.82422C13.6758 2.80469 13.7682 2.75326 13.8633 2.66992V2.09375C13.6003 2.11328 13.4128 2.13737 13.3008 2.16602C13.1888 2.19336 13.0977 2.24154 13.0273 2.31055C12.957 2.37826 12.9219 2.45638 12.9219 2.54492Z" fill="#05439F"/>
<path d="M14.6523 2.05859C14.6523 1.77865 14.7201 1.53255 14.8555 1.32031C14.9909 1.10677 15.1888 1 15.4492 1C15.599 1 15.7188 1.02474 15.8086 1.07422C15.8984 1.1237 15.9792 1.19141 16.0508 1.27734H16.0547L16.0664 1.12109C16.0703 1.0625 16.0957 1.0332 16.1426 1.0332H16.3066C16.3652 1.0332 16.3945 1.0625 16.3945 1.12109V3.09961C16.3945 3.34961 16.3366 3.54492 16.2207 3.68555C16.1061 3.82747 15.8789 3.89844 15.5391 3.89844C15.3112 3.89844 15.1406 3.8724 15.0273 3.82031C14.9141 3.76953 14.8333 3.71549 14.7852 3.6582C14.75 3.61523 14.748 3.57878 14.7793 3.54883L14.8867 3.44336C14.9167 3.41471 14.9583 3.42383 15.0117 3.4707C15.0807 3.5332 15.1471 3.57747 15.2109 3.60352C15.2747 3.63086 15.3848 3.64453 15.541 3.64453C15.7181 3.64453 15.847 3.60677 15.9277 3.53125C16.0098 3.45573 16.0508 3.29948 16.0508 3.0625V2.94531C16.0508 2.90495 16.0521 2.86523 16.0547 2.82617H16.0508C15.9831 2.91602 15.903 2.98698 15.8105 3.03906C15.7194 3.09115 15.599 3.11719 15.4492 3.11719C15.1888 3.11719 14.9909 3.01107 14.8555 2.79883C14.7201 2.58529 14.6523 2.33854 14.6523 2.05859ZM15.0156 2.05859C15.0156 2.29818 15.0566 2.49219 15.1387 2.64062C15.222 2.78906 15.3626 2.86328 15.5605 2.86328C15.7012 2.86328 15.8177 2.81576 15.9102 2.7207C16.0039 2.62435 16.0508 2.47852 16.0508 2.2832V1.83398C16.0508 1.63867 16.0039 1.49349 15.9102 1.39844C15.8177 1.30208 15.7012 1.25391 15.5605 1.25391C15.3626 1.25391 15.222 1.32812 15.1387 1.47656C15.0566 1.625 15.0156 1.81901 15.0156 2.05859Z" fill="#05439F"/>
<path d="M16.8398 2.05859C16.8398 1.73568 16.9206 1.47852 17.082 1.28711C17.2435 1.0957 17.4746 1 17.7754 1C18.0254 1 18.2324 1.08789 18.3965 1.26367C18.5618 1.43815 18.6445 1.71745 18.6445 2.10156C18.6445 2.16016 18.6178 2.18945 18.5645 2.18945H17.2031C17.2253 2.44076 17.293 2.61589 17.4062 2.71484C17.5195 2.8125 17.6478 2.86133 17.791 2.86133C17.9421 2.86133 18.0579 2.83594 18.1387 2.78516C18.2194 2.73438 18.2786 2.68424 18.3164 2.63477C18.3581 2.58008 18.3984 2.56966 18.4375 2.60352L18.5527 2.70312C18.5827 2.72917 18.5827 2.76497 18.5527 2.81055C18.528 2.84831 18.457 2.90885 18.3398 2.99219C18.224 3.07552 18.041 3.11719 17.791 3.11719C17.4655 3.11719 17.2253 3.02148 17.0703 2.83008C16.9167 2.63867 16.8398 2.38151 16.8398 2.05859ZM17.1953 1.93555H18.2988C18.2936 1.75326 18.2467 1.59375 18.1582 1.45703C18.0697 1.31901 17.9395 1.25 17.7676 1.25C17.6165 1.25 17.4883 1.30078 17.3828 1.40234C17.2773 1.5026 17.2148 1.68034 17.1953 1.93555Z" fill="#05439F"/>
<path d="M19.3652 13C19.3066 13 19.2773 12.9707 19.2773 12.9121V10.2051C19.2773 10.1465 19.3066 10.1172 19.3652 10.1172H19.5332C19.5918 10.1172 19.6211 10.1465 19.6211 10.2051V11.8301C19.6211 11.8691 19.6198 11.9082 19.6172 11.9473H19.6211L20.4121 11C20.4408 10.9661 20.4753 10.9492 20.5156 10.9492H20.6934C20.7923 10.9492 20.8092 10.9876 20.7441 11.0645L20.1309 11.7949L20.832 12.8848C20.8815 12.9616 20.8646 13 20.7812 13H20.5898C20.5469 13 20.5098 12.9759 20.4785 12.9277L19.916 12.0508L19.6211 12.4023V12.9121C19.6211 12.9707 19.5918 13 19.5332 13H19.3652Z" fill="#05439F"/>
<path d="M21.3262 13C21.2676 13 21.2383 12.9707 21.2383 12.9121V11.0371C21.2383 10.9785 21.2676 10.9492 21.3262 10.9492H21.4902C21.5488 10.9492 21.5781 10.9785 21.5781 11.0371V11.1934H21.5859C21.6706 11.0996 21.7624 11.0299 21.8613 10.9844C21.9603 10.9388 22.0553 10.916 22.1465 10.916C22.3145 10.916 22.4434 10.9583 22.5332 11.043C22.6243 11.1263 22.6829 11.2103 22.709 11.2949H22.7168C22.7884 11.1882 22.8789 11.0983 22.9883 11.0254C23.0977 10.9525 23.2142 10.916 23.3379 10.916C23.5449 10.916 23.7012 10.9831 23.8066 11.1172C23.9121 11.25 23.9648 11.4323 23.9648 11.6641V12.9121C23.9648 12.9707 23.9355 13 23.877 13H23.709C23.6504 13 23.6211 12.9707 23.6211 12.9121V11.7773C23.6211 11.5221 23.5892 11.3574 23.5254 11.2832C23.4616 11.2077 23.3633 11.1699 23.2305 11.1699C23.1003 11.1699 22.9915 11.2259 22.9043 11.3379C22.8171 11.4486 22.7734 11.6159 22.7734 11.8398V12.9121C22.7734 12.9707 22.7441 13 22.6855 13H22.5176C22.459 13 22.4297 12.9707 22.4297 12.9121V11.7773C22.4297 11.5221 22.3978 11.3574 22.334 11.2832C22.2702 11.2077 22.1719 11.1699 22.0391 11.1699C21.9089 11.1699 21.8001 11.2207 21.7129 11.3223C21.6257 11.4225 21.582 11.5951 21.582 11.8398V12.9121C21.582 12.9707 21.5527 13 21.4941 13H21.3262Z" fill="#05439F"/>
<path d="M24.6035 13C24.5449 13 24.5156 12.9707 24.5156 12.9121V10.2051C24.5156 10.1465 24.5449 10.1172 24.6035 10.1172H24.7715C24.8301 10.1172 24.8594 10.1465 24.8594 10.2051V11.0762C24.8594 11.1152 24.8581 11.1543 24.8555 11.1934H24.8633C24.9479 11.0996 25.0391 11.0299 25.1367 10.9844C25.2344 10.9388 25.3561 10.916 25.502 10.916C25.7389 10.916 25.9089 10.9831 26.0117 11.1172C26.1159 11.25 26.168 11.4323 26.168 11.6641V12.9121C26.168 12.9707 26.1387 13 26.0801 13H25.9121C25.8535 13 25.8242 12.9707 25.8242 12.9121V11.7578C25.8242 11.5026 25.7819 11.3411 25.6973 11.2734C25.6126 11.2044 25.5052 11.1699 25.375 11.1699C25.2057 11.1699 25.0775 11.2207 24.9902 11.3223C24.903 11.4225 24.8594 11.5951 24.8594 11.8398V12.9121C24.8594 12.9707 24.8301 13 24.7715 13H24.6035Z" fill="#05439F"/>
<path d="M9.83397 9.59398C9.83397 9.83398 9.92397 10.034 10.104 10.194C10.274 10.364 10.474 10.444 10.714 10.444H16.594C16.854 10.444 17.074 10.534 17.274 10.724C17.474 10.914 17.574 11.144 17.574 11.404C17.574 11.664 17.474 11.904 17.274 12.094C17.074 12.284 16.854 12.384 16.594 12.384C16.334 12.384 16.114 12.284 15.914 12.084C15.734 11.924 15.534 11.844 15.304 11.844C15.064 11.844 14.864 11.924 14.704 12.084C14.544 12.244 14.464 12.444 14.464 12.684C14.464 12.924 14.544 13.124 14.704 13.284C15.234 13.814 15.864 14.084 16.594 14.084C17.334 14.084 17.964 13.824 18.474 13.304C18.984 12.784 19.254 12.154 19.254 11.414C19.254 10.674 18.994 10.044 18.474 9.52398C17.954 9.00398 17.324 8.74398 16.594 8.74398H10.714C10.474 8.74398 10.274 8.82398 10.094 8.99398C9.92397 9.16398 9.83397 9.36398 9.83397 9.59398ZM9.83397 5.58398C9.83397 5.81398 9.92397 6.00398 10.104 6.16398C10.264 6.32398 10.474 6.40398 10.714 6.40398H21.684C22.424 6.40398 23.054 6.14398 23.574 5.62398C24.094 5.10398 24.354 4.47398 24.354 3.73398C24.354 2.99398 24.094 2.37398 23.574 1.85398C23.054 1.34398 22.424 1.08398 21.684 1.08398C20.924 1.08398 20.304 1.33398 19.804 1.84398C19.644 2.00398 19.574 2.21398 19.574 2.45398C19.574 2.69398 19.654 2.89398 19.804 3.05398C19.954 3.20398 20.154 3.28398 20.404 3.28398C20.644 3.28398 20.844 3.20398 21.024 3.05398C21.214 2.86398 21.434 2.77398 21.704 2.77398C21.974 2.77398 22.194 2.86398 22.384 3.05398C22.574 3.24398 22.674 3.47398 22.674 3.73398C22.674 4.00398 22.574 4.23398 22.384 4.42398C22.194 4.61398 21.964 4.71398 21.704 4.71398H10.714C10.474 4.71398 10.274 4.80398 10.094 4.97398C9.92397 5.15398 9.83397 5.35398 9.83397 5.58398Z" stroke="#BEC1C6" mask="url(#path-1-outside-1_6_4)"/>
<path d="M7.70398 7.5808C7.70398 7.44067 7.7861 7.32602 7.94005 7.23048C8.09401 7.13494 8.28903 7.08398 8.51483 7.08398H20.9239C21.1395 7.08398 21.3242 7.13494 21.4782 7.23048C21.6321 7.32602 21.704 7.44067 21.704 7.5808C21.704 7.72093 21.6321 7.83558 21.4782 7.93749C21.3242 8.03303 21.1395 8.08398 20.9239 8.08398H8.5251C8.29929 8.08398 8.10428 8.03303 7.95032 7.93749C7.79636 7.84195 7.70398 7.72093 7.70398 7.5808Z" stroke="#BEC1C6" mask="url(#path-1-outside-1_6_4)"/>
<path d="M5 2.53711C5 2.30534 5.10807 2.13542 5.32422 2.02734C5.54167 1.91927 5.86589 1.85612 6.29688 1.83789V1.70508C6.29688 1.58268 6.26888 1.47721 6.21289 1.38867C6.1582 1.29883 6.04883 1.25391 5.88477 1.25391C5.7806 1.25391 5.69727 1.26432 5.63477 1.28516C5.57227 1.30469 5.51497 1.33138 5.46289 1.36523C5.41211 1.39779 5.36328 1.4401 5.31641 1.49219C5.28125 1.53125 5.24805 1.5332 5.2168 1.49805L5.11523 1.38086C5.08659 1.34831 5.09635 1.30924 5.14453 1.26367C5.21354 1.19857 5.2806 1.14974 5.3457 1.11719C5.41081 1.08464 5.49154 1.05729 5.58789 1.03516C5.68555 1.01172 5.78451 1 5.88477 1C6.1569 1 6.35091 1.07031 6.4668 1.21094C6.58268 1.35026 6.64062 1.54167 6.64062 1.78516V2.99609C6.64062 3.05469 6.61133 3.08398 6.55273 3.08398H6.37695C6.32617 3.08398 6.30078 3.05469 6.30078 2.99609V2.90039H6.29688C6.19401 2.98112 6.0931 3.03776 5.99414 3.07031C5.89648 3.10156 5.78711 3.11719 5.66602 3.11719C5.45247 3.11719 5.28776 3.06641 5.17188 2.96484C5.05729 2.86198 5 2.7194 5 2.53711ZM5.35547 2.54492C5.35547 2.62565 5.3724 2.69076 5.40625 2.74023C5.4401 2.78841 5.48698 2.81966 5.54688 2.83398C5.60677 2.84701 5.66927 2.85352 5.73438 2.85352C5.83464 2.85352 5.92969 2.84375 6.01953 2.82422C6.10938 2.80469 6.20182 2.75326 6.29688 2.66992V2.09375C6.03385 2.11328 5.84635 2.13737 5.73438 2.16602C5.6224 2.19336 5.53125 2.24154 5.46094 2.31055C5.39062 2.37826 5.35547 2.45638 5.35547 2.54492Z" stroke="#BEC1C6" mask="url(#path-1-outside-1_6_4)"/>
<path d="M7.04102 1.12891C7.01888 1.0651 7.03646 1.0332 7.09375 1.0332H7.30664C7.34831 1.0332 7.3776 1.05859 7.39453 1.10938L7.80859 2.39844C7.84245 2.50391 7.86523 2.57682 7.87695 2.61719C7.88997 2.65625 7.90169 2.70508 7.91211 2.76367H7.91992C7.93034 2.70508 7.94141 2.65625 7.95312 2.61719C7.96615 2.57682 7.98958 2.50391 8.02344 2.39844L8.4375 1.10938C8.45443 1.05859 8.48372 1.0332 8.52539 1.0332H8.73828C8.79557 1.0332 8.81315 1.0651 8.79102 1.12891L8.15039 2.96484C8.12305 3.04427 8.08789 3.08398 8.04492 3.08398H7.78711C7.74414 3.08398 7.70898 3.04427 7.68164 2.96484L7.04102 1.12891Z" stroke="#BEC1C6" mask="url(#path-1-outside-1_6_4)"/>
<path d="M9.01172 2.05859C9.01172 1.73568 9.09245 1.47852 9.25391 1.28711C9.41536 1.0957 9.64648 1 9.94727 1C10.1973 1 10.4043 1.08789 10.5684 1.26367C10.7337 1.43815 10.8164 1.71745 10.8164 2.10156C10.8164 2.16016 10.7897 2.18945 10.7363 2.18945H9.375C9.39714 2.44076 9.46484 2.61589 9.57812 2.71484C9.69141 2.8125 9.81966 2.86133 9.96289 2.86133C10.1139 2.86133 10.2298 2.83594 10.3105 2.78516C10.3913 2.73438 10.4505 2.68424 10.4883 2.63477C10.5299 2.58008 10.5703 2.56966 10.6094 2.60352L10.7246 2.70312C10.7546 2.72917 10.7546 2.76497 10.7246 2.81055C10.6999 2.84831 10.6289 2.90885 10.5117 2.99219C10.3958 3.07552 10.2129 3.11719 9.96289 3.11719C9.63737 3.11719 9.39714 3.02148 9.24219 2.83008C9.08854 2.63867 9.01172 2.38151 9.01172 2.05859ZM9.36719 1.93555H10.4707C10.4655 1.75326 10.4186 1.59375 10.3301 1.45703C10.2415 1.31901 10.1113 1.25 9.93945 1.25C9.78841 1.25 9.66016 1.30078 9.55469 1.40234C9.44922 1.5026 9.38672 1.68034 9.36719 1.93555Z" stroke="#BEC1C6" mask="url(#path-1-outside-1_6_4)"/>
<path d="M11.3555 3.08398C11.2969 3.08398 11.2676 3.05469 11.2676 2.99609V1.12109C11.2676 1.0625 11.2969 1.0332 11.3555 1.0332H11.5195C11.5781 1.0332 11.6074 1.0625 11.6074 1.12109V1.35547H11.6152C11.6777 1.23828 11.7513 1.14974 11.8359 1.08984C11.9206 1.02995 12.026 1 12.1523 1C12.2357 1 12.2943 1.00716 12.3281 1.02148C12.3581 1.0332 12.3691 1.05273 12.3613 1.08008L12.3164 1.24023C12.3099 1.26367 12.293 1.27279 12.2656 1.26758C12.2201 1.25846 12.1771 1.25391 12.1367 1.25391C11.9844 1.25391 11.8587 1.32292 11.7598 1.46094C11.6608 1.59766 11.6113 1.78451 11.6113 2.02148V2.99609C11.6113 3.05469 11.582 3.08398 11.5234 3.08398H11.3555Z" stroke="#BEC1C6" mask="url(#path-1-outside-1_6_4)"/>
<path d="M12.5664 2.53711C12.5664 2.30534 12.6745 2.13542 12.8906 2.02734C13.1081 1.91927 13.4323 1.85612 13.8633 1.83789V1.70508C13.8633 1.58268 13.8353 1.47721 13.7793 1.38867C13.7246 1.29883 13.6152 1.25391 13.4512 1.25391C13.347 1.25391 13.2637 1.26432 13.2012 1.28516C13.1387 1.30469 13.0814 1.33138 13.0293 1.36523C12.9785 1.39779 12.9297 1.4401 12.8828 1.49219C12.8477 1.53125 12.8145 1.5332 12.7832 1.49805L12.6816 1.38086C12.653 1.34831 12.6628 1.30924 12.7109 1.26367C12.7799 1.19857 12.847 1.14974 12.9121 1.11719C12.9772 1.08464 13.0579 1.05729 13.1543 1.03516C13.252 1.01172 13.3509 1 13.4512 1C13.7233 1 13.9173 1.07031 14.0332 1.21094C14.1491 1.35026 14.207 1.54167 14.207 1.78516V2.99609C14.207 3.05469 14.1777 3.08398 14.1191 3.08398H13.9434C13.8926 3.08398 13.8672 3.05469 13.8672 2.99609V2.90039H13.8633C13.7604 2.98112 13.6595 3.03776 13.5605 3.07031C13.4629 3.10156 13.3535 3.11719 13.2324 3.11719C13.0189 3.11719 12.8542 3.06641 12.7383 2.96484C12.6237 2.86198 12.5664 2.7194 12.5664 2.53711ZM12.9219 2.54492C12.9219 2.62565 12.9388 2.69076 12.9727 2.74023C13.0065 2.78841 13.0534 2.81966 13.1133 2.83398C13.1732 2.84701 13.2357 2.85352 13.3008 2.85352C13.401 2.85352 13.4961 2.84375 13.5859 2.82422C13.6758 2.80469 13.7682 2.75326 13.8633 2.66992V2.09375C13.6003 2.11328 13.4128 2.13737 13.3008 2.16602C13.1888 2.19336 13.0977 2.24154 13.0273 2.31055C12.957 2.37826 12.9219 2.45638 12.9219 2.54492Z" stroke="#BEC1C6" mask="url(#path-1-outside-1_6_4)"/>
<path d="M14.6523 2.05859C14.6523 1.77865 14.7201 1.53255 14.8555 1.32031C14.9909 1.10677 15.1888 1 15.4492 1C15.599 1 15.7188 1.02474 15.8086 1.07422C15.8984 1.1237 15.9792 1.19141 16.0508 1.27734H16.0547L16.0664 1.12109C16.0703 1.0625 16.0957 1.0332 16.1426 1.0332H16.3066C16.3652 1.0332 16.3945 1.0625 16.3945 1.12109V3.09961C16.3945 3.34961 16.3366 3.54492 16.2207 3.68555C16.1061 3.82747 15.8789 3.89844 15.5391 3.89844C15.3112 3.89844 15.1406 3.8724 15.0273 3.82031C14.9141 3.76953 14.8333 3.71549 14.7852 3.6582C14.75 3.61523 14.748 3.57878 14.7793 3.54883L14.8867 3.44336C14.9167 3.41471 14.9583 3.42383 15.0117 3.4707C15.0807 3.5332 15.1471 3.57747 15.2109 3.60352C15.2747 3.63086 15.3848 3.64453 15.541 3.64453C15.7181 3.64453 15.847 3.60677 15.9277 3.53125C16.0098 3.45573 16.0508 3.29948 16.0508 3.0625V2.94531C16.0508 2.90495 16.0521 2.86523 16.0547 2.82617H16.0508C15.9831 2.91602 15.903 2.98698 15.8105 3.03906C15.7194 3.09115 15.599 3.11719 15.4492 3.11719C15.1888 3.11719 14.9909 3.01107 14.8555 2.79883C14.7201 2.58529 14.6523 2.33854 14.6523 2.05859ZM15.0156 2.05859C15.0156 2.29818 15.0566 2.49219 15.1387 2.64062C15.222 2.78906 15.3626 2.86328 15.5605 2.86328C15.7012 2.86328 15.8177 2.81576 15.9102 2.7207C16.0039 2.62435 16.0508 2.47852 16.0508 2.2832V1.83398C16.0508 1.63867 16.0039 1.49349 15.9102 1.39844C15.8177 1.30208 15.7012 1.25391 15.5605 1.25391C15.3626 1.25391 15.222 1.32812 15.1387 1.47656C15.0566 1.625 15.0156 1.81901 15.0156 2.05859Z" stroke="#BEC1C6" mask="url(#path-1-outside-1_6_4)"/>
<path d="M16.8398 2.05859C16.8398 1.73568 16.9206 1.47852 17.082 1.28711C17.2435 1.0957 17.4746 1 17.7754 1C18.0254 1 18.2324 1.08789 18.3965 1.26367C18.5618 1.43815 18.6445 1.71745 18.6445 2.10156C18.6445 2.16016 18.6178 2.18945 18.5645 2.18945H17.2031C17.2253 2.44076 17.293 2.61589 17.4062 2.71484C17.5195 2.8125 17.6478 2.86133 17.791 2.86133C17.9421 2.86133 18.0579 2.83594 18.1387 2.78516C18.2194 2.73438 18.2786 2.68424 18.3164 2.63477C18.3581 2.58008 18.3984 2.56966 18.4375 2.60352L18.5527 2.70312C18.5827 2.72917 18.5827 2.76497 18.5527 2.81055C18.528 2.84831 18.457 2.90885 18.3398 2.99219C18.224 3.07552 18.041 3.11719 17.791 3.11719C17.4655 3.11719 17.2253 3.02148 17.0703 2.83008C16.9167 2.63867 16.8398 2.38151 16.8398 2.05859ZM17.1953 1.93555H18.2988C18.2936 1.75326 18.2467 1.59375 18.1582 1.45703C18.0697 1.31901 17.9395 1.25 17.7676 1.25C17.6165 1.25 17.4883 1.30078 17.3828 1.40234C17.2773 1.5026 17.2148 1.68034 17.1953 1.93555Z" stroke="#BEC1C6" mask="url(#path-1-outside-1_6_4)"/>
<path d="M19.3652 13C19.3066 13 19.2773 12.9707 19.2773 12.9121V10.2051C19.2773 10.1465 19.3066 10.1172 19.3652 10.1172H19.5332C19.5918 10.1172 19.6211 10.1465 19.6211 10.2051V11.8301C19.6211 11.8691 19.6198 11.9082 19.6172 11.9473H19.6211L20.4121 11C20.4408 10.9661 20.4753 10.9492 20.5156 10.9492H20.6934C20.7923 10.9492 20.8092 10.9876 20.7441 11.0645L20.1309 11.7949L20.832 12.8848C20.8815 12.9616 20.8646 13 20.7812 13H20.5898C20.5469 13 20.5098 12.9759 20.4785 12.9277L19.916 12.0508L19.6211 12.4023V12.9121C19.6211 12.9707 19.5918 13 19.5332 13H19.3652Z" stroke="#BEC1C6" mask="url(#path-1-outside-1_6_4)"/>
<path d="M21.3262 13C21.2676 13 21.2383 12.9707 21.2383 12.9121V11.0371C21.2383 10.9785 21.2676 10.9492 21.3262 10.9492H21.4902C21.5488 10.9492 21.5781 10.9785 21.5781 11.0371V11.1934H21.5859C21.6706 11.0996 21.7624 11.0299 21.8613 10.9844C21.9603 10.9388 22.0553 10.916 22.1465 10.916C22.3145 10.916 22.4434 10.9583 22.5332 11.043C22.6243 11.1263 22.6829 11.2103 22.709 11.2949H22.7168C22.7884 11.1882 22.8789 11.0983 22.9883 11.0254C23.0977 10.9525 23.2142 10.916 23.3379 10.916C23.5449 10.916 23.7012 10.9831 23.8066 11.1172C23.9121 11.25 23.9648 11.4323 23.9648 11.6641V12.9121C23.9648 12.9707 23.9355 13 23.877 13H23.709C23.6504 13 23.6211 12.9707 23.6211 12.9121V11.7773C23.6211 11.5221 23.5892 11.3574 23.5254 11.2832C23.4616 11.2077 23.3633 11.1699 23.2305 11.1699C23.1003 11.1699 22.9915 11.2259 22.9043 11.3379C22.8171 11.4486 22.7734 11.6159 22.7734 11.8398V12.9121C22.7734 12.9707 22.7441 13 22.6855 13H22.5176C22.459 13 22.4297 12.9707 22.4297 12.9121V11.7773C22.4297 11.5221 22.3978 11.3574 22.334 11.2832C22.2702 11.2077 22.1719 11.1699 22.0391 11.1699C21.9089 11.1699 21.8001 11.2207 21.7129 11.3223C21.6257 11.4225 21.582 11.5951 21.582 11.8398V12.9121C21.582 12.9707 21.5527 13 21.4941 13H21.3262Z" stroke="#BEC1C6" mask="url(#path-1-outside-1_6_4)"/>
<path d="M24.6035 13C24.5449 13 24.5156 12.9707 24.5156 12.9121V10.2051C24.5156 10.1465 24.5449 10.1172 24.6035 10.1172H24.7715C24.8301 10.1172 24.8594 10.1465 24.8594 10.2051V11.0762C24.8594 11.1152 24.8581 11.1543 24.8555 11.1934H24.8633C24.9479 11.0996 25.0391 11.0299 25.1367 10.9844C25.2344 10.9388 25.3561 10.916 25.502 10.916C25.7389 10.916 25.9089 10.9831 26.0117 11.1172C26.1159 11.25 26.168 11.4323 26.168 11.6641V12.9121C26.168 12.9707 26.1387 13 26.0801 13H25.9121C25.8535 13 25.8242 12.9707 25.8242 12.9121V11.7578C25.8242 11.5026 25.7819 11.3411 25.6973 11.2734C25.6126 11.2044 25.5052 11.1699 25.375 11.1699C25.2057 11.1699 25.0775 11.2207 24.9902 11.3223C24.903 11.4225 24.8594 11.5951 24.8594 11.8398V12.9121C24.8594 12.9707 24.8301 13 24.7715 13H24.6035Z" stroke="#BEC1C6" mask="url(#path-1-outside-1_6_4)"/>
</g>
<defs>
<filter id="filter0_d_6_4" x="0.5" y="0.5" width="30.168" height="22.084" filterUnits="userSpaceOnUse" color-interpolation-filters="sRGB">
<feFlood flood-opacity="0" result="BackgroundImageFix"/>
<feColorMatrix in="SourceAlpha" type="matrix" values="0 0 0 0 0 0 0 0 0 0 0 0 0 0 0 0 0 0 127 0" result="hardAlpha"/>
<feOffset dy="4"/>
<feGaussianBlur stdDeviation="2"/>
<feComposite in2="hardAlpha" operator="out"/>
<feColorMatrix type="matrix" values="0 0 0 0 0 0 0 0 0 0 0 0 0 0 0 0 0 0 0.25 0"/>
<feBlend mode="normal" in2="BackgroundImageFix" result="effect1_dropShadow_6_4"/>
<feBlend mode="normal" in="SourceGraphic" in2="effect1_dropShadow_6_4" result="shape"/>
</filter>
</defs>
</svg>
