<svg width="21" height="16" viewBox="0 0 21 16" fill="none" xmlns="http://www.w3.org/2000/svg">
<mask id="path-1-outside-1_6_5" maskUnits="userSpaceOnUse" x="0" y="0" width="21" height="16" fill="black">
<rect fill="white" width="21" height="16"/>
<path d="M3.12998 10.1272C3.12998 10.3672 3.21998 10.5672 3.39998 10.7272C3.56998 10.8972 3.76998 10.9772 4.00998 10.9772H9.88998C10.15 10.9772 10.37 11.0672 10.57 11.2572C10.77 11.4472 10.87 11.6772 10.87 11.9372C10.87 12.1972 10.77 12.4372 10.57 12.6272C10.37 12.8172 10.15 12.9172 9.88998 12.9172C9.62998 12.9172 9.40998 12.8172 9.20998 12.6172C9.02998 12.4572 8.82998 12.3772 8.59998 12.3772C8.35998 12.3772 8.15998 12.4572 7.99998 12.6172C7.83998 12.7772 7.75998 12.9772 7.75998 13.2172C7.75998 13.4572 7.83998 13.6572 7.99998 13.8172C8.52998 14.3472 9.15998 14.6172 9.88998 14.6172C10.63 14.6172 11.26 14.3572 11.77 13.8372C12.28 13.3172 12.55 12.6872 12.55 11.9472C12.55 11.2072 12.29 10.5772 11.77 10.0572C11.25 9.53719 10.62 9.27719 9.88998 9.27719H4.00998C3.76998 9.27719 3.56998 9.35719 3.38998 9.52719C3.21998 9.69719 3.12998 9.89719 3.12998 10.1272ZM3.12998 6.11719C3.12998 6.34719 3.21998 6.53719 3.39998 6.69719C3.55998 6.85719 3.76998 6.93719 4.00998 6.93719H14.98C15.72 6.93719 16.35 6.67719 16.87 6.15719C17.39 5.63719 17.65 5.00719 17.65 4.26719C17.65 3.52719 17.39 2.90719 16.87 2.38719C16.35 1.87719 15.72 1.61719 14.98 1.61719C14.22 1.61719 13.6 1.86719 13.1 2.37719C12.94 2.53719 12.87 2.74719 12.87 2.98719C12.87 3.22719 12.95 3.42719 13.1 3.58719C13.25 3.73719 13.45 3.81719 13.7 3.81719C13.94 3.81719 14.14 3.73719 14.32 3.58719C14.51 3.39719 14.73 3.30719 15 3.30719C15.27 3.30719 15.49 3.39719 15.68 3.58719C15.87 3.77719 15.97 4.00719 15.97 4.26719C15.97 4.53719 15.87 4.76719 15.68 4.95719C15.49 5.14719 15.26 5.24719 15 5.24719H4.00998C3.76998 5.24719 3.56998 5.33719 3.38998 5.50719C3.21998 5.68719 3.12998 5.88719 3.12998 6.11719Z"/>
<path d="M1 8.114C1 7.97388 1.08211 7.85923 1.23607 7.76368C1.39003 7.66814 1.58504 7.61719 1.81085 7.61719H14.2199C14.4355 7.61719 14.6202 7.66814 14.7742 7.76368C14.9282 7.85923 15 7.97388 15 8.114C15 8.25413 14.9282 8.36878 14.7742 8.47069C14.6202 8.56623 14.4355 8.61719 14.2199 8.61719H1.82111C1.59531 8.61719 1.40029 8.56623 1.24633 8.47069C1.09238 8.37515 1 8.25413 1 8.114Z"/>
<path d="M3.16601 2.5918C3.16601 2.31185 3.23372 2.06576 3.36914 1.85352C3.50455 1.63997 3.70247 1.5332 3.96289 1.5332C4.11263 1.5332 4.23242 1.55794 4.32226 1.60742C4.4121 1.6569 4.49283 1.72461 4.56445 1.81055H4.56835L4.58007 1.6543C4.58398 1.5957 4.60937 1.56641 4.65625 1.56641H4.82031C4.8789 1.56641 4.9082 1.5957 4.9082 1.6543V3.63281C4.9082 3.88281 4.85026 4.07812 4.73437 4.21875C4.61979 4.36068 4.39257 4.43164 4.05273 4.43164C3.82487 4.43164 3.65429 4.4056 3.54101 4.35352C3.42773 4.30273 3.347 4.2487 3.29882 4.19141C3.26367 4.14844 3.26171 4.11198 3.29296 4.08203L3.40039 3.97656C3.43033 3.94792 3.472 3.95703 3.52539 4.00391C3.5944 4.06641 3.6608 4.11068 3.7246 4.13672C3.78841 4.16406 3.89843 4.17773 4.05468 4.17773C4.23177 4.17773 4.36067 4.13997 4.4414 4.06445C4.52343 3.98893 4.56445 3.83268 4.56445 3.5957V3.47852C4.56445 3.43815 4.56575 3.39844 4.56835 3.35938H4.56445C4.49674 3.44922 4.41666 3.52018 4.32421 3.57227C4.23307 3.62435 4.11263 3.65039 3.96289 3.65039C3.70247 3.65039 3.50455 3.54427 3.36914 3.33203C3.23372 3.11849 3.16601 2.87174 3.16601 2.5918ZM3.52929 2.5918C3.52929 2.83138 3.57031 3.02539 3.65234 3.17383C3.73567 3.32227 3.8763 3.39648 4.07421 3.39648C4.21484 3.39648 4.33138 3.34896 4.42382 3.25391C4.51757 3.15755 4.56445 3.01172 4.56445 2.81641V2.36719C4.56445 2.17188 4.51757 2.02669 4.42382 1.93164C4.33138 1.83529 4.21484 1.78711 4.07421 1.78711C3.8763 1.78711 3.73567 1.86133 3.65234 2.00977C3.57031 2.1582 3.52929 2.35221 3.52929 2.5918Z"/>
<path d="M5.46093 2.90234V1.6543C5.46093 1.5957 5.49023 1.56641 5.54882 1.56641H5.71679C5.77539 1.56641 5.80468 1.5957 5.80468 1.6543V2.80859C5.80468 3.0638 5.847 3.22591 5.93164 3.29492C6.01627 3.36263 6.12109 3.39648 6.24609 3.39648C6.41015 3.39648 6.5358 3.34635 6.62304 3.24609C6.71028 3.14453 6.7539 2.97135 6.7539 2.72656V1.6543C6.7539 1.5957 6.7832 1.56641 6.84179 1.56641H7.00976C7.06835 1.56641 7.09765 1.5957 7.09765 1.6543V3.5293C7.09765 3.58789 7.06835 3.61719 7.00976 3.61719H6.8457C6.7871 3.61719 6.75781 3.58789 6.75781 3.5293V3.37305H6.75C6.66536 3.4668 6.57421 3.53646 6.47656 3.58203C6.3789 3.6276 6.25976 3.65039 6.11914 3.65039C5.89127 3.65039 5.7246 3.58398 5.61914 3.45117C5.51367 3.31706 5.46093 3.13411 5.46093 2.90234Z"/>
<path d="M7.57226 3.42578C7.5319 3.38802 7.52343 3.35286 7.54687 3.32031L7.63476 3.19727C7.66341 3.1582 7.70572 3.16016 7.76171 3.20312C7.83854 3.26172 7.92382 3.30859 8.01757 3.34375C8.11263 3.37891 8.2207 3.39648 8.34179 3.39648C8.41341 3.39648 8.47721 3.38802 8.5332 3.37109C8.58919 3.35286 8.63802 3.31966 8.67968 3.27148C8.72265 3.22331 8.74414 3.15885 8.74414 3.07812C8.74414 3.03125 8.73372 2.98698 8.71289 2.94531C8.69335 2.90365 8.6621 2.87044 8.61914 2.8457C8.57747 2.81966 8.53645 2.79948 8.49609 2.78516C8.42968 2.76042 8.36328 2.74023 8.29687 2.72461C8.23177 2.70768 8.14583 2.68229 8.03906 2.64844C7.96744 2.6263 7.89973 2.59505 7.83593 2.55469C7.77213 2.51302 7.71614 2.45703 7.66796 2.38672C7.62109 2.31641 7.59765 2.2194 7.59765 2.0957C7.59765 1.9694 7.63606 1.86068 7.71289 1.76953C7.78971 1.67839 7.88606 1.61654 8.00195 1.58398C8.11783 1.55013 8.23046 1.5332 8.33984 1.5332C8.5013 1.5332 8.63085 1.55208 8.72851 1.58984C8.82747 1.6263 8.91276 1.66992 8.98437 1.7207C9.02604 1.75065 9.0319 1.78516 9.00195 1.82422L8.91406 1.94141C8.88671 1.97917 8.8444 1.97786 8.7871 1.9375C8.73893 1.90365 8.67057 1.87174 8.58203 1.8418C8.49348 1.81185 8.41601 1.79688 8.3496 1.79688C8.26757 1.79688 8.19726 1.80599 8.13867 1.82422C8.08007 1.84245 8.03255 1.8737 7.99609 1.91797C7.95963 1.96224 7.9414 2.01432 7.9414 2.07422C7.9414 2.11979 7.94856 2.16081 7.96289 2.19727C7.97721 2.23242 8.0039 2.26497 8.04296 2.29492C8.08203 2.32487 8.13671 2.34896 8.20703 2.36719C8.3164 2.39583 8.41601 2.42188 8.50585 2.44531C8.597 2.46875 8.67903 2.4974 8.75195 2.53125C8.847 2.57552 8.91992 2.62435 8.9707 2.67773C9.02278 2.73112 9.05859 2.78906 9.07812 2.85156C9.09765 2.91276 9.10742 2.98112 9.10742 3.05664C9.10742 3.19596 9.06575 3.3138 8.98242 3.41016C8.90039 3.50651 8.80859 3.57096 8.70703 3.60352C8.60546 3.63477 8.48307 3.65039 8.33984 3.65039C8.14583 3.65039 7.97916 3.62305 7.83984 3.56836C7.70182 3.51237 7.61263 3.46484 7.57226 3.42578Z"/>
<path d="M9.39648 1.82422C9.33789 1.82422 9.30859 1.80143 9.30859 1.75586V1.63477C9.30859 1.58919 9.33789 1.56641 9.39648 1.56641H9.62695V1.39062C9.62695 1.36458 9.63346 1.33984 9.64648 1.31641L9.7832 1.06836C9.80794 1.02279 9.82812 1 9.84375 1H9.9121C9.95117 1 9.9707 1.02279 9.9707 1.06836V1.56641H10.3867C10.4453 1.56641 10.4746 1.58919 10.4746 1.63477V1.75586C10.4746 1.80143 10.4453 1.82422 10.3867 1.82422H9.9707V3.06836C9.9707 3.20508 9.99088 3.29427 10.0312 3.33594C10.0729 3.3763 10.1224 3.39648 10.1797 3.39648C10.224 3.39648 10.2767 3.38346 10.3379 3.35742C10.4004 3.33138 10.4434 3.30924 10.4668 3.29102C10.4902 3.27279 10.5085 3.27865 10.5215 3.30859L10.5859 3.45898C10.5963 3.48503 10.5885 3.50586 10.5625 3.52148C10.5117 3.55143 10.4375 3.58073 10.3398 3.60938C10.2422 3.63672 10.1445 3.65039 10.0469 3.65039C9.91145 3.65039 9.80729 3.60156 9.73437 3.50391C9.66276 3.40625 9.62695 3.26823 9.62695 3.08984V1.82422H9.39648Z"/>
<path d="M10.8965 3.42578C10.8561 3.38802 10.8477 3.35286 10.8711 3.32031L10.959 3.19727C10.9876 3.1582 11.0299 3.16016 11.0859 3.20312C11.1628 3.26172 11.248 3.30859 11.3418 3.34375C11.4368 3.37891 11.5449 3.39648 11.666 3.39648C11.7376 3.39648 11.8014 3.38802 11.8574 3.37109C11.9134 3.35286 11.9622 3.31966 12.0039 3.27148C12.0469 3.22331 12.0684 3.15885 12.0684 3.07812C12.0684 3.03125 12.0579 2.98698 12.0371 2.94531C12.0176 2.90365 11.9863 2.87044 11.9434 2.8457C11.9017 2.81966 11.8607 2.79948 11.8203 2.78516C11.7539 2.76042 11.6875 2.74023 11.6211 2.72461C11.556 2.70768 11.47 2.68229 11.3633 2.64844C11.2917 2.6263 11.224 2.59505 11.1602 2.55469C11.0963 2.51302 11.0404 2.45703 10.9922 2.38672C10.9453 2.31641 10.9219 2.2194 10.9219 2.0957C10.9219 1.9694 10.9603 1.86068 11.0371 1.76953C11.1139 1.67839 11.2103 1.61654 11.3262 1.58398C11.4421 1.55013 11.5547 1.5332 11.6641 1.5332C11.8255 1.5332 11.9551 1.55208 12.0527 1.58984C12.1517 1.6263 12.237 1.66992 12.3086 1.7207C12.3503 1.75065 12.3561 1.78516 12.3262 1.82422L12.2383 1.94141C12.2109 1.97917 12.1686 1.97786 12.1113 1.9375C12.0631 1.90365 11.9948 1.87174 11.9062 1.8418C11.8177 1.81185 11.7402 1.79688 11.6738 1.79688C11.5918 1.79688 11.5215 1.80599 11.4629 1.82422C11.4043 1.84245 11.3568 1.8737 11.3203 1.91797C11.2838 1.96224 11.2656 2.01432 11.2656 2.07422C11.2656 2.11979 11.2728 2.16081 11.2871 2.19727C11.3014 2.23242 11.3281 2.26497 11.3672 2.29492C11.4062 2.32487 11.4609 2.34896 11.5312 2.36719C11.6406 2.39583 11.7402 2.42188 11.8301 2.44531C11.9212 2.46875 12.0033 2.4974 12.0762 2.53125C12.1712 2.57552 12.2441 2.62435 12.2949 2.67773C12.347 2.73112 12.3828 2.78906 12.4023 2.85156C12.4219 2.91276 12.4316 2.98112 12.4316 3.05664C12.4316 3.19596 12.39 3.3138 12.3066 3.41016C12.2246 3.50651 12.1328 3.57096 12.0312 3.60352C11.9297 3.63477 11.8073 3.65039 11.6641 3.65039C11.47 3.65039 11.3034 3.62305 11.1641 3.56836C11.026 3.51237 10.9368 3.46484 10.8965 3.42578Z"/>
<path d="M12.8152 13C12.7567 13 12.7274 12.9707 12.7274 12.9121V10.2051C12.7274 10.1465 12.7567 10.1172 12.8152 10.1172H12.9832C13.0418 10.1172 13.0711 10.1465 13.0711 10.2051V11.8301C13.0711 11.8691 13.0698 11.9082 13.0672 11.9473H13.0711L13.8621 11C13.8908 10.9661 13.9253 10.9492 13.9656 10.9492H14.1434C14.2423 10.9492 14.2593 10.9876 14.1942 11.0645L13.5809 11.7949L14.282 12.8848C14.3315 12.9616 14.3146 13 14.2313 13H14.0399C13.9969 13 13.9598 12.9759 13.9285 12.9277L13.366 12.0508L13.0711 12.4023V12.9121C13.0711 12.9707 13.0418 13 12.9832 13H12.8152Z"/>
<path d="M14.7762 13C14.7176 13 14.6883 12.9707 14.6883 12.9121V11.0371C14.6883 10.9785 14.7176 10.9492 14.7762 10.9492H14.9402C14.9988 10.9492 15.0281 10.9785 15.0281 11.0371V11.1934H15.0359C15.1206 11.0996 15.2124 11.0299 15.3113 10.9844C15.4103 10.9388 15.5054 10.916 15.5965 10.916C15.7645 10.916 15.8934 10.9583 15.9832 11.043C16.0744 11.1263 16.133 11.2103 16.159 11.2949H16.1668C16.2384 11.1882 16.3289 11.0983 16.4383 11.0254C16.5477 10.9525 16.6642 10.916 16.7879 10.916C16.9949 10.916 17.1512 10.9831 17.2567 11.1172C17.3621 11.25 17.4149 11.4323 17.4149 11.6641V12.9121C17.4149 12.9707 17.3856 13 17.327 13H17.159C17.1004 13 17.0711 12.9707 17.0711 12.9121V11.7773C17.0711 11.5221 17.0392 11.3574 16.9754 11.2832C16.9116 11.2077 16.8133 11.1699 16.6805 11.1699C16.5503 11.1699 16.4415 11.2259 16.3543 11.3379C16.2671 11.4486 16.2234 11.6159 16.2234 11.8398V12.9121C16.2234 12.9707 16.1942 13 16.1356 13H15.9676C15.909 13 15.8797 12.9707 15.8797 12.9121V11.7773C15.8797 11.5221 15.8478 11.3574 15.784 11.2832C15.7202 11.2077 15.6219 11.1699 15.4891 11.1699C15.3589 11.1699 15.2501 11.2207 15.1629 11.3223C15.0757 11.4225 15.032 11.5951 15.032 11.8398V12.9121C15.032 12.9707 15.0027 13 14.9442 13H14.7762Z"/>
<path d="M18.0535 13C17.9949 13 17.9656 12.9707 17.9656 12.9121V10.2051C17.9656 10.1465 17.9949 10.1172 18.0535 10.1172H18.2215C18.2801 10.1172 18.3094 10.1465 18.3094 10.2051V11.0762C18.3094 11.1152 18.3081 11.1543 18.3055 11.1934H18.3133C18.3979 11.0996 18.4891 11.0299 18.5867 10.9844C18.6844 10.9388 18.8061 10.916 18.952 10.916C19.1889 10.916 19.3589 10.9831 19.4617 11.1172C19.5659 11.25 19.618 11.4323 19.618 11.6641V12.9121C19.618 12.9707 19.5887 13 19.5301 13H19.3621C19.3035 13 19.2742 12.9707 19.2742 12.9121V11.7578C19.2742 11.5026 19.2319 11.3411 19.1473 11.2734C19.0626 11.2044 18.9552 11.1699 18.825 11.1699C18.6557 11.1699 18.5275 11.2207 18.4402 11.3223C18.353 11.4225 18.3094 11.5951 18.3094 11.8398V12.9121C18.3094 12.9707 18.2801 13 18.2215 13H18.0535Z"/>
</mask>
<path d="M3.12998 10.1272C3.12998 10.3672 3.21998 10.5672 3.39998 10.7272C3.56998 10.8972 3.76998 10.9772 4.00998 10.9772H9.88998C10.15 10.9772 10.37 11.0672 10.57 11.2572C10.77 11.4472 10.87 11.6772 10.87 11.9372C10.87 12.1972 10.77 12.4372 10.57 12.6272C10.37 12.8172 10.15 12.9172 9.88998 12.9172C9.62998 12.9172 9.40998 12.8172 9.20998 12.6172C9.02998 12.4572 8.82998 12.3772 8.59998 12.3772C8.35998 12.3772 8.15998 12.4572 7.99998 12.6172C7.83998 12.7772 7.75998 12.9772 7.75998 13.2172C7.75998 13.4572 7.83998 13.6572 7.99998 13.8172C8.52998 14.3472 9.15998 14.6172 9.88998 14.6172C10.63 14.6172 11.26 14.3572 11.77 13.8372C12.28 13.3172 12.55 12.6872 12.55 11.9472C12.55 11.2072 12.29 10.5772 11.77 10.0572C11.25 9.53719 10.62 9.27719 9.88998 9.27719H4.00998C3.76998 9.27719 3.56998 9.35719 3.38998 9.52719C3.21998 9.69719 3.12998 9.89719 3.12998 10.1272ZM3.12998 6.11719C3.12998 6.34719 3.21998 6.53719 3.39998 6.69719C3.55998 6.85719 3.76998 6.93719 4.00998 6.93719H14.98C15.72 6.93719 16.35 6.67719 16.87 6.15719C17.39 5.63719 17.65 5.00719 17.65 4.26719C17.65 3.52719 17.39 2.90719 16.87 2.38719C16.35 1.87719 15.72 1.61719 14.98 1.61719C14.22 1.61719 13.6 1.86719 13.1 2.37719C12.94 2.53719 12.87 2.74719 12.87 2.98719C12.87 3.22719 12.95 3.42719 13.1 3.58719C13.25 3.73719 13.45 3.81719 13.7 3.81719C13.94 3.81719 14.14 3.73719 14.32 3.58719C14.51 3.39719 14.73 3.30719 15 3.30719C15.27 3.30719 15.49 3.39719 15.68 3.58719C15.87 3.77719 15.97 4.00719 15.97 4.26719C15.97 4.53719 15.87 4.76719 15.68 4.95719C15.49 5.14719 15.26 5.24719 15 5.24719H4.00998C3.76998 5.24719 3.56998 5.33719 3.38998 5.50719C3.21998 5.68719 3.12998 5.88719 3.12998 6.11719Z" fill="#05439F"/>
<path d="M1 8.114C1 7.97388 1.08211 7.85923 1.23607 7.76368C1.39003 7.66814 1.58504 7.61719 1.81085 7.61719H14.2199C14.4355 7.61719 14.6202 7.66814 14.7742 7.76368C14.9282 7.85923 15 7.97388 15 8.114C15 8.25413 14.9282 8.36878 14.7742 8.47069C14.6202 8.56623 14.4355 8.61719 14.2199 8.61719H1.82111C1.59531 8.61719 1.40029 8.56623 1.24633 8.47069C1.09238 8.37515 1 8.25413 1 8.114Z" fill="#05439F"/>
<path d="M3.16601 2.5918C3.16601 2.31185 3.23372 2.06576 3.36914 1.85352C3.50455 1.63997 3.70247 1.5332 3.96289 1.5332C4.11263 1.5332 4.23242 1.55794 4.32226 1.60742C4.4121 1.6569 4.49283 1.72461 4.56445 1.81055H4.56835L4.58007 1.6543C4.58398 1.5957 4.60937 1.56641 4.65625 1.56641H4.82031C4.8789 1.56641 4.9082 1.5957 4.9082 1.6543V3.63281C4.9082 3.88281 4.85026 4.07812 4.73437 4.21875C4.61979 4.36068 4.39257 4.43164 4.05273 4.43164C3.82487 4.43164 3.65429 4.4056 3.54101 4.35352C3.42773 4.30273 3.347 4.2487 3.29882 4.19141C3.26367 4.14844 3.26171 4.11198 3.29296 4.08203L3.40039 3.97656C3.43033 3.94792 3.472 3.95703 3.52539 4.00391C3.5944 4.06641 3.6608 4.11068 3.7246 4.13672C3.78841 4.16406 3.89843 4.17773 4.05468 4.17773C4.23177 4.17773 4.36067 4.13997 4.4414 4.06445C4.52343 3.98893 4.56445 3.83268 4.56445 3.5957V3.47852C4.56445 3.43815 4.56575 3.39844 4.56835 3.35938H4.56445C4.49674 3.44922 4.41666 3.52018 4.32421 3.57227C4.23307 3.62435 4.11263 3.65039 3.96289 3.65039C3.70247 3.65039 3.50455 3.54427 3.36914 3.33203C3.23372 3.11849 3.16601 2.87174 3.16601 2.5918ZM3.52929 2.5918C3.52929 2.83138 3.57031 3.02539 3.65234 3.17383C3.73567 3.32227 3.8763 3.39648 4.07421 3.39648C4.21484 3.39648 4.33138 3.34896 4.42382 3.25391C4.51757 3.15755 4.56445 3.01172 4.56445 2.81641V2.36719C4.56445 2.17188 4.51757 2.02669 4.42382 1.93164C4.33138 1.83529 4.21484 1.78711 4.07421 1.78711C3.8763 1.78711 3.73567 1.86133 3.65234 2.00977C3.57031 2.1582 3.52929 2.35221 3.52929 2.5918Z" fill="#05439F"/>
<path d="M5.46093 2.90234V1.6543C5.46093 1.5957 5.49023 1.56641 5.54882 1.56641H5.71679C5.77539 1.56641 5.80468 1.5957 5.80468 1.6543V2.80859C5.80468 3.0638 5.847 3.22591 5.93164 3.29492C6.01627 3.36263 6.12109 3.39648 6.24609 3.39648C6.41015 3.39648 6.5358 3.34635 6.62304 3.24609C6.71028 3.14453 6.7539 2.97135 6.7539 2.72656V1.6543C6.7539 1.5957 6.7832 1.56641 6.84179 1.56641H7.00976C7.06835 1.56641 7.09765 1.5957 7.09765 1.6543V3.5293C7.09765 3.58789 7.06835 3.61719 7.00976 3.61719H6.8457C6.7871 3.61719 6.75781 3.58789 6.75781 3.5293V3.37305H6.75C6.66536 3.4668 6.57421 3.53646 6.47656 3.58203C6.3789 3.6276 6.25976 3.65039 6.11914 3.65039C5.89127 3.65039 5.7246 3.58398 5.61914 3.45117C5.51367 3.31706 5.46093 3.13411 5.46093 2.90234Z" fill="#05439F"/>
<path d="M7.57226 3.42578C7.5319 3.38802 7.52343 3.35286 7.54687 3.32031L7.63476 3.19727C7.66341 3.1582 7.70572 3.16016 7.76171 3.20312C7.83854 3.26172 7.92382 3.30859 8.01757 3.34375C8.11263 3.37891 8.2207 3.39648 8.34179 3.39648C8.41341 3.39648 8.47721 3.38802 8.5332 3.37109C8.58919 3.35286 8.63802 3.31966 8.67968 3.27148C8.72265 3.22331 8.74414 3.15885 8.74414 3.07812C8.74414 3.03125 8.73372 2.98698 8.71289 2.94531C8.69335 2.90365 8.6621 2.87044 8.61914 2.8457C8.57747 2.81966 8.53645 2.79948 8.49609 2.78516C8.42968 2.76042 8.36328 2.74023 8.29687 2.72461C8.23177 2.70768 8.14583 2.68229 8.03906 2.64844C7.96744 2.6263 7.89973 2.59505 7.83593 2.55469C7.77213 2.51302 7.71614 2.45703 7.66796 2.38672C7.62109 2.31641 7.59765 2.2194 7.59765 2.0957C7.59765 1.9694 7.63606 1.86068 7.71289 1.76953C7.78971 1.67839 7.88606 1.61654 8.00195 1.58398C8.11783 1.55013 8.23046 1.5332 8.33984 1.5332C8.5013 1.5332 8.63085 1.55208 8.72851 1.58984C8.82747 1.6263 8.91276 1.66992 8.98437 1.7207C9.02604 1.75065 9.0319 1.78516 9.00195 1.82422L8.91406 1.94141C8.88671 1.97917 8.8444 1.97786 8.7871 1.9375C8.73893 1.90365 8.67057 1.87174 8.58203 1.8418C8.49348 1.81185 8.41601 1.79688 8.3496 1.79688C8.26757 1.79688 8.19726 1.80599 8.13867 1.82422C8.08007 1.84245 8.03255 1.8737 7.99609 1.91797C7.95963 1.96224 7.9414 2.01432 7.9414 2.07422C7.9414 2.11979 7.94856 2.16081 7.96289 2.19727C7.97721 2.23242 8.0039 2.26497 8.04296 2.29492C8.08203 2.32487 8.13671 2.34896 8.20703 2.36719C8.3164 2.39583 8.41601 2.42188 8.50585 2.44531C8.597 2.46875 8.67903 2.4974 8.75195 2.53125C8.847 2.57552 8.91992 2.62435 8.9707 2.67773C9.02278 2.73112 9.05859 2.78906 9.07812 2.85156C9.09765 2.91276 9.10742 2.98112 9.10742 3.05664C9.10742 3.19596 9.06575 3.3138 8.98242 3.41016C8.90039 3.50651 8.80859 3.57096 8.70703 3.60352C8.60546 3.63477 8.48307 3.65039 8.33984 3.65039C8.14583 3.65039 7.97916 3.62305 7.83984 3.56836C7.70182 3.51237 7.61263 3.46484 7.57226 3.42578Z" fill="#05439F"/>
<path d="M9.39648 1.82422C9.33789 1.82422 9.30859 1.80143 9.30859 1.75586V1.63477C9.30859 1.58919 9.33789 1.56641 9.39648 1.56641H9.62695V1.39062C9.62695 1.36458 9.63346 1.33984 9.64648 1.31641L9.7832 1.06836C9.80794 1.02279 9.82812 1 9.84375 1H9.9121C9.95117 1 9.9707 1.02279 9.9707 1.06836V1.56641H10.3867C10.4453 1.56641 10.4746 1.58919 10.4746 1.63477V1.75586C10.4746 1.80143 10.4453 1.82422 10.3867 1.82422H9.9707V3.06836C9.9707 3.20508 9.99088 3.29427 10.0312 3.33594C10.0729 3.3763 10.1224 3.39648 10.1797 3.39648C10.224 3.39648 10.2767 3.38346 10.3379 3.35742C10.4004 3.33138 10.4434 3.30924 10.4668 3.29102C10.4902 3.27279 10.5085 3.27865 10.5215 3.30859L10.5859 3.45898C10.5963 3.48503 10.5885 3.50586 10.5625 3.52148C10.5117 3.55143 10.4375 3.58073 10.3398 3.60938C10.2422 3.63672 10.1445 3.65039 10.0469 3.65039C9.91145 3.65039 9.80729 3.60156 9.73437 3.50391C9.66276 3.40625 9.62695 3.26823 9.62695 3.08984V1.82422H9.39648Z" fill="#05439F"/>
<path d="M10.8965 3.42578C10.8561 3.38802 10.8477 3.35286 10.8711 3.32031L10.959 3.19727C10.9876 3.1582 11.0299 3.16016 11.0859 3.20312C11.1628 3.26172 11.248 3.30859 11.3418 3.34375C11.4368 3.37891 11.5449 3.39648 11.666 3.39648C11.7376 3.39648 11.8014 3.38802 11.8574 3.37109C11.9134 3.35286 11.9622 3.31966 12.0039 3.27148C12.0469 3.22331 12.0684 3.15885 12.0684 3.07812C12.0684 3.03125 12.0579 2.98698 12.0371 2.94531C12.0176 2.90365 11.9863 2.87044 11.9434 2.8457C11.9017 2.81966 11.8607 2.79948 11.8203 2.78516C11.7539 2.76042 11.6875 2.74023 11.6211 2.72461C11.556 2.70768 11.47 2.68229 11.3633 2.64844C11.2917 2.6263 11.224 2.59505 11.1602 2.55469C11.0963 2.51302 11.0404 2.45703 10.9922 2.38672C10.9453 2.31641 10.9219 2.2194 10.9219 2.0957C10.9219 1.9694 10.9603 1.86068 11.0371 1.76953C11.1139 1.67839 11.2103 1.61654 11.3262 1.58398C11.4421 1.55013 11.5547 1.5332 11.6641 1.5332C11.8255 1.5332 11.9551 1.55208 12.0527 1.58984C12.1517 1.6263 12.237 1.66992 12.3086 1.7207C12.3503 1.75065 12.3561 1.78516 12.3262 1.82422L12.2383 1.94141C12.2109 1.97917 12.1686 1.97786 12.1113 1.9375C12.0631 1.90365 11.9948 1.87174 11.9062 1.8418C11.8177 1.81185 11.7402 1.79688 11.6738 1.79688C11.5918 1.79688 11.5215 1.80599 11.4629 1.82422C11.4043 1.84245 11.3568 1.8737 11.3203 1.91797C11.2838 1.96224 11.2656 2.01432 11.2656 2.07422C11.2656 2.11979 11.2728 2.16081 11.2871 2.19727C11.3014 2.23242 11.3281 2.26497 11.3672 2.29492C11.4062 2.32487 11.4609 2.34896 11.5312 2.36719C11.6406 2.39583 11.7402 2.42188 11.8301 2.44531C11.9212 2.46875 12.0033 2.4974 12.0762 2.53125C12.1712 2.57552 12.2441 2.62435 12.2949 2.67773C12.347 2.73112 12.3828 2.78906 12.4023 2.85156C12.4219 2.91276 12.4316 2.98112 12.4316 3.05664C12.4316 3.19596 12.39 3.3138 12.3066 3.41016C12.2246 3.50651 12.1328 3.57096 12.0312 3.60352C11.9297 3.63477 11.8073 3.65039 11.6641 3.65039C11.47 3.65039 11.3034 3.62305 11.1641 3.56836C11.026 3.51237 10.9368 3.46484 10.8965 3.42578Z" fill="#05439F"/>
<path d="M12.8152 13C12.7567 13 12.7274 12.9707 12.7274 12.9121V10.2051C12.7274 10.1465 12.7567 10.1172 12.8152 10.1172H12.9832C13.0418 10.1172 13.0711 10.1465 13.0711 10.2051V11.8301C13.0711 11.8691 13.0698 11.9082 13.0672 11.9473H13.0711L13.8621 11C13.8908 10.9661 13.9253 10.9492 13.9656 10.9492H14.1434C14.2423 10.9492 14.2593 10.9876 14.1942 11.0645L13.5809 11.7949L14.282 12.8848C14.3315 12.9616 14.3146 13 14.2313 13H14.0399C13.9969 13 13.9598 12.9759 13.9285 12.9277L13.366 12.0508L13.0711 12.4023V12.9121C13.0711 12.9707 13.0418 13 12.9832 13H12.8152Z" fill="#05439F"/>
<path d="M14.7762 13C14.7176 13 14.6883 12.9707 14.6883 12.9121V11.0371C14.6883 10.9785 14.7176 10.9492 14.7762 10.9492H14.9402C14.9988 10.9492 15.0281 10.9785 15.0281 11.0371V11.1934H15.0359C15.1206 11.0996 15.2124 11.0299 15.3113 10.9844C15.4103 10.9388 15.5054 10.916 15.5965 10.916C15.7645 10.916 15.8934 10.9583 15.9832 11.043C16.0744 11.1263 16.133 11.2103 16.159 11.2949H16.1668C16.2384 11.1882 16.3289 11.0983 16.4383 11.0254C16.5477 10.9525 16.6642 10.916 16.7879 10.916C16.9949 10.916 17.1512 10.9831 17.2567 11.1172C17.3621 11.25 17.4149 11.4323 17.4149 11.6641V12.9121C17.4149 12.9707 17.3856 13 17.327 13H17.159C17.1004 13 17.0711 12.9707 17.0711 12.9121V11.7773C17.0711 11.5221 17.0392 11.3574 16.9754 11.2832C16.9116 11.2077 16.8133 11.1699 16.6805 11.1699C16.5503 11.1699 16.4415 11.2259 16.3543 11.3379C16.2671 11.4486 16.2234 11.6159 16.2234 11.8398V12.9121C16.2234 12.9707 16.1942 13 16.1356 13H15.9676C15.909 13 15.8797 12.9707 15.8797 12.9121V11.7773C15.8797 11.5221 15.8478 11.3574 15.784 11.2832C15.7202 11.2077 15.6219 11.1699 15.4891 11.1699C15.3589 11.1699 15.2501 11.2207 15.1629 11.3223C15.0757 11.4225 15.032 11.5951 15.032 11.8398V12.9121C15.032 12.9707 15.0027 13 14.9442 13H14.7762Z" fill="#05439F"/>
<path d="M18.0535 13C17.9949 13 17.9656 12.9707 17.9656 12.9121V10.2051C17.9656 10.1465 17.9949 10.1172 18.0535 10.1172H18.2215C18.2801 10.1172 18.3094 10.1465 18.3094 10.2051V11.0762C18.3094 11.1152 18.3081 11.1543 18.3055 11.1934H18.3133C18.3979 11.0996 18.4891 11.0299 18.5867 10.9844C18.6844 10.9388 18.8061 10.916 18.952 10.916C19.1889 10.916 19.3589 10.9831 19.4617 11.1172C19.5659 11.25 19.618 11.4323 19.618 11.6641V12.9121C19.618 12.9707 19.5887 13 19.5301 13H19.3621C19.3035 13 19.2742 12.9707 19.2742 12.9121V11.7578C19.2742 11.5026 19.2319 11.3411 19.1473 11.2734C19.0626 11.2044 18.9552 11.1699 18.825 11.1699C18.6557 11.1699 18.5275 11.2207 18.4402 11.3223C18.353 11.4225 18.3094 11.5951 18.3094 11.8398V12.9121C18.3094 12.9707 18.2801 13 18.2215 13H18.0535Z" fill="#05439F"/>
<path d="M3.12998 10.1272C3.12998 10.3672 3.21998 10.5672 3.39998 10.7272C3.56998 10.8972 3.76998 10.9772 4.00998 10.9772H9.88998C10.15 10.9772 10.37 11.0672 10.57 11.2572C10.77 11.4472 10.87 11.6772 10.87 11.9372C10.87 12.1972 10.77 12.4372 10.57 12.6272C10.37 12.8172 10.15 12.9172 9.88998 12.9172C9.62998 12.9172 9.40998 12.8172 9.20998 12.6172C9.02998 12.4572 8.82998 12.3772 8.59998 12.3772C8.35998 12.3772 8.15998 12.4572 7.99998 12.6172C7.83998 12.7772 7.75998 12.9772 7.75998 13.2172C7.75998 13.4572 7.83998 13.6572 7.99998 13.8172C8.52998 14.3472 9.15998 14.6172 9.88998 14.6172C10.63 14.6172 11.26 14.3572 11.77 13.8372C12.28 13.3172 12.55 12.6872 12.55 11.9472C12.55 11.2072 12.29 10.5772 11.77 10.0572C11.25 9.53719 10.62 9.27719 9.88998 9.27719H4.00998C3.76998 9.27719 3.56998 9.35719 3.38998 9.52719C3.21998 9.69719 3.12998 9.89719 3.12998 10.1272ZM3.12998 6.11719C3.12998 6.34719 3.21998 6.53719 3.39998 6.69719C3.55998 6.85719 3.76998 6.93719 4.00998 6.93719H14.98C15.72 6.93719 16.35 6.67719 16.87 6.15719C17.39 5.63719 17.65 5.00719 17.65 4.26719C17.65 3.52719 17.39 2.90719 16.87 2.38719C16.35 1.87719 15.72 1.61719 14.98 1.61719C14.22 1.61719 13.6 1.86719 13.1 2.37719C12.94 2.53719 12.87 2.74719 12.87 2.98719C12.87 3.22719 12.95 3.42719 13.1 3.58719C13.25 3.73719 13.45 3.81719 13.7 3.81719C13.94 3.81719 14.14 3.73719 14.32 3.58719C14.51 3.39719 14.73 3.30719 15 3.30719C15.27 3.30719 15.49 3.39719 15.68 3.58719C15.87 3.77719 15.97 4.00719 15.97 4.26719C15.97 4.53719 15.87 4.76719 15.68 4.95719C15.49 5.14719 15.26 5.24719 15 5.24719H4.00998C3.76998 5.24719 3.56998 5.33719 3.38998 5.50719C3.21998 5.68719 3.12998 5.88719 3.12998 6.11719Z" stroke="white" mask="url(#path-1-outside-1_6_5)"/>
<path d="M1 8.114C1 7.97388 1.08211 7.85923 1.23607 7.76368C1.39003 7.66814 1.58504 7.61719 1.81085 7.61719H14.2199C14.4355 7.61719 14.6202 7.66814 14.7742 7.76368C14.9282 7.85923 15 7.97388 15 8.114C15 8.25413 14.9282 8.36878 14.7742 8.47069C14.6202 8.56623 14.4355 8.61719 14.2199 8.61719H1.82111C1.59531 8.61719 1.40029 8.56623 1.24633 8.47069C1.09238 8.37515 1 8.25413 1 8.114Z" stroke="white" mask="url(#path-1-outside-1_6_5)"/>
<path d="M3.16601 2.5918C3.16601 2.31185 3.23372 2.06576 3.36914 1.85352C3.50455 1.63997 3.70247 1.5332 3.96289 1.5332C4.11263 1.5332 4.23242 1.55794 4.32226 1.60742C4.4121 1.6569 4.49283 1.72461 4.56445 1.81055H4.56835L4.58007 1.6543C4.58398 1.5957 4.60937 1.56641 4.65625 1.56641H4.82031C4.8789 1.56641 4.9082 1.5957 4.9082 1.6543V3.63281C4.9082 3.88281 4.85026 4.07812 4.73437 4.21875C4.61979 4.36068 4.39257 4.43164 4.05273 4.43164C3.82487 4.43164 3.65429 4.4056 3.54101 4.35352C3.42773 4.30273 3.347 4.2487 3.29882 4.19141C3.26367 4.14844 3.26171 4.11198 3.29296 4.08203L3.40039 3.97656C3.43033 3.94792 3.472 3.95703 3.52539 4.00391C3.5944 4.06641 3.6608 4.11068 3.7246 4.13672C3.78841 4.16406 3.89843 4.17773 4.05468 4.17773C4.23177 4.17773 4.36067 4.13997 4.4414 4.06445C4.52343 3.98893 4.56445 3.83268 4.56445 3.5957V3.47852C4.56445 3.43815 4.56575 3.39844 4.56835 3.35938H4.56445C4.49674 3.44922 4.41666 3.52018 4.32421 3.57227C4.23307 3.62435 4.11263 3.65039 3.96289 3.65039C3.70247 3.65039 3.50455 3.54427 3.36914 3.33203C3.23372 3.11849 3.16601 2.87174 3.16601 2.5918ZM3.52929 2.5918C3.52929 2.83138 3.57031 3.02539 3.65234 3.17383C3.73567 3.32227 3.8763 3.39648 4.07421 3.39648C4.21484 3.39648 4.33138 3.34896 4.42382 3.25391C4.51757 3.15755 4.56445 3.01172 4.56445 2.81641V2.36719C4.56445 2.17188 4.51757 2.02669 4.42382 1.93164C4.33138 1.83529 4.21484 1.78711 4.07421 1.78711C3.8763 1.78711 3.73567 1.86133 3.65234 2.00977C3.57031 2.1582 3.52929 2.35221 3.52929 2.5918Z" stroke="white" mask="url(#path-1-outside-1_6_5)"/>
<path d="M5.46093 2.90234V1.6543C5.46093 1.5957 5.49023 1.56641 5.54882 1.56641H5.71679C5.77539 1.56641 5.80468 1.5957 5.80468 1.6543V2.80859C5.80468 3.0638 5.847 3.22591 5.93164 3.29492C6.01627 3.36263 6.12109 3.39648 6.24609 3.39648C6.41015 3.39648 6.5358 3.34635 6.62304 3.24609C6.71028 3.14453 6.7539 2.97135 6.7539 2.72656V1.6543C6.7539 1.5957 6.7832 1.56641 6.84179 1.56641H7.00976C7.06835 1.56641 7.09765 1.5957 7.09765 1.6543V3.5293C7.09765 3.58789 7.06835 3.61719 7.00976 3.61719H6.8457C6.7871 3.61719 6.75781 3.58789 6.75781 3.5293V3.37305H6.75C6.66536 3.4668 6.57421 3.53646 6.47656 3.58203C6.3789 3.6276 6.25976 3.65039 6.11914 3.65039C5.89127 3.65039 5.7246 3.58398 5.61914 3.45117C5.51367 3.31706 5.46093 3.13411 5.46093 2.90234Z" stroke="white" mask="url(#path-1-outside-1_6_5)"/>
<path d="M7.57226 3.42578C7.5319 3.38802 7.52343 3.35286 7.54687 3.32031L7.63476 3.19727C7.66341 3.1582 7.70572 3.16016 7.76171 3.20312C7.83854 3.26172 7.92382 3.30859 8.01757 3.34375C8.11263 3.37891 8.2207 3.39648 8.34179 3.39648C8.41341 3.39648 8.47721 3.38802 8.5332 3.37109C8.58919 3.35286 8.63802 3.31966 8.67968 3.27148C8.72265 3.22331 8.74414 3.15885 8.74414 3.07812C8.74414 3.03125 8.73372 2.98698 8.71289 2.94531C8.69335 2.90365 8.6621 2.87044 8.61914 2.8457C8.57747 2.81966 8.53645 2.79948 8.49609 2.78516C8.42968 2.76042 8.36328 2.74023 8.29687 2.72461C8.23177 2.70768 8.14583 2.68229 8.03906 2.64844C7.96744 2.6263 7.89973 2.59505 7.83593 2.55469C7.77213 2.51302 7.71614 2.45703 7.66796 2.38672C7.62109 2.31641 7.59765 2.2194 7.59765 2.0957C7.59765 1.9694 7.63606 1.86068 7.71289 1.76953C7.78971 1.67839 7.88606 1.61654 8.00195 1.58398C8.11783 1.55013 8.23046 1.5332 8.33984 1.5332C8.5013 1.5332 8.63085 1.55208 8.72851 1.58984C8.82747 1.6263 8.91276 1.66992 8.98437 1.7207C9.02604 1.75065 9.0319 1.78516 9.00195 1.82422L8.91406 1.94141C8.88671 1.97917 8.8444 1.97786 8.7871 1.9375C8.73893 1.90365 8.67057 1.87174 8.58203 1.8418C8.49348 1.81185 8.41601 1.79688 8.3496 1.79688C8.26757 1.79688 8.19726 1.80599 8.13867 1.82422C8.08007 1.84245 8.03255 1.8737 7.99609 1.91797C7.95963 1.96224 7.9414 2.01432 7.9414 2.07422C7.9414 2.11979 7.94856 2.16081 7.96289 2.19727C7.97721 2.23242 8.0039 2.26497 8.04296 2.29492C8.08203 2.32487 8.13671 2.34896 8.20703 2.36719C8.3164 2.39583 8.41601 2.42188 8.50585 2.44531C8.597 2.46875 8.67903 2.4974 8.75195 2.53125C8.847 2.57552 8.91992 2.62435 8.9707 2.67773C9.02278 2.73112 9.05859 2.78906 9.07812 2.85156C9.09765 2.91276 9.10742 2.98112 9.10742 3.05664C9.10742 3.19596 9.06575 3.3138 8.98242 3.41016C8.90039 3.50651 8.80859 3.57096 8.70703 3.60352C8.60546 3.63477 8.48307 3.65039 8.33984 3.65039C8.14583 3.65039 7.97916 3.62305 7.83984 3.56836C7.70182 3.51237 7.61263 3.46484 7.57226 3.42578Z" stroke="white" mask="url(#path-1-outside-1_6_5)"/>
<path d="M9.39648 1.82422C9.33789 1.82422 9.30859 1.80143 9.30859 1.75586V1.63477C9.30859 1.58919 9.33789 1.56641 9.39648 1.56641H9.62695V1.39062C9.62695 1.36458 9.63346 1.33984 9.64648 1.31641L9.7832 1.06836C9.80794 1.02279 9.82812 1 9.84375 1H9.9121C9.95117 1 9.9707 1.02279 9.9707 1.06836V1.56641H10.3867C10.4453 1.56641 10.4746 1.58919 10.4746 1.63477V1.75586C10.4746 1.80143 10.4453 1.82422 10.3867 1.82422H9.9707V3.06836C9.9707 3.20508 9.99088 3.29427 10.0312 3.33594C10.0729 3.3763 10.1224 3.39648 10.1797 3.39648C10.224 3.39648 10.2767 3.38346 10.3379 3.35742C10.4004 3.33138 10.4434 3.30924 10.4668 3.29102C10.4902 3.27279 10.5085 3.27865 10.5215 3.30859L10.5859 3.45898C10.5963 3.48503 10.5885 3.50586 10.5625 3.52148C10.5117 3.55143 10.4375 3.58073 10.3398 3.60938C10.2422 3.63672 10.1445 3.65039 10.0469 3.65039C9.91145 3.65039 9.80729 3.60156 9.73437 3.50391C9.66276 3.40625 9.62695 3.26823 9.62695 3.08984V1.82422H9.39648Z" stroke="white" mask="url(#path-1-outside-1_6_5)"/>
<path d="M10.8965 3.42578C10.8561 3.38802 10.8477 3.35286 10.8711 3.32031L10.959 3.19727C10.9876 3.1582 11.0299 3.16016 11.0859 3.20312C11.1628 3.26172 11.248 3.30859 11.3418 3.34375C11.4368 3.37891 11.5449 3.39648 11.666 3.39648C11.7376 3.39648 11.8014 3.38802 11.8574 3.37109C11.9134 3.35286 11.9622 3.31966 12.0039 3.27148C12.0469 3.22331 12.0684 3.15885 12.0684 3.07812C12.0684 3.03125 12.0579 2.98698 12.0371 2.94531C12.0176 2.90365 11.9863 2.87044 11.9434 2.8457C11.9017 2.81966 11.8607 2.79948 11.8203 2.78516C11.7539 2.76042 11.6875 2.74023 11.6211 2.72461C11.556 2.70768 11.47 2.68229 11.3633 2.64844C11.2917 2.6263 11.224 2.59505 11.1602 2.55469C11.0963 2.51302 11.0404 2.45703 10.9922 2.38672C10.9453 2.31641 10.9219 2.2194 10.9219 2.0957C10.9219 1.9694 10.9603 1.86068 11.0371 1.76953C11.1139 1.67839 11.2103 1.61654 11.3262 1.58398C11.4421 1.55013 11.5547 1.5332 11.6641 1.5332C11.8255 1.5332 11.9551 1.55208 12.0527 1.58984C12.1517 1.6263 12.237 1.66992 12.3086 1.7207C12.3503 1.75065 12.3561 1.78516 12.3262 1.82422L12.2383 1.94141C12.2109 1.97917 12.1686 1.97786 12.1113 1.9375C12.0631 1.90365 11.9948 1.87174 11.9062 1.8418C11.8177 1.81185 11.7402 1.79688 11.6738 1.79688C11.5918 1.79688 11.5215 1.80599 11.4629 1.82422C11.4043 1.84245 11.3568 1.8737 11.3203 1.91797C11.2838 1.96224 11.2656 2.01432 11.2656 2.07422C11.2656 2.11979 11.2728 2.16081 11.2871 2.19727C11.3014 2.23242 11.3281 2.26497 11.3672 2.29492C11.4062 2.32487 11.4609 2.34896 11.5312 2.36719C11.6406 2.39583 11.7402 2.42188 11.8301 2.44531C11.9212 2.46875 12.0033 2.4974 12.0762 2.53125C12.1712 2.57552 12.2441 2.62435 12.2949 2.67773C12.347 2.73112 12.3828 2.78906 12.4023 2.85156C12.4219 2.91276 12.4316 2.98112 12.4316 3.05664C12.4316 3.19596 12.39 3.3138 12.3066 3.41016C12.2246 3.50651 12.1328 3.57096 12.0312 3.60352C11.9297 3.63477 11.8073 3.65039 11.6641 3.65039C11.47 3.65039 11.3034 3.62305 11.1641 3.56836C11.026 3.51237 10.9368 3.46484 10.8965 3.42578Z" stroke="white" mask="url(#path-1-outside-1_6_5)"/>
<path d="M12.8152 13C12.7567 13 12.7274 12.9707 12.7274 12.9121V10.2051C12.7274 10.1465 12.7567 10.1172 12.8152 10.1172H12.9832C13.0418 10.1172 13.0711 10.1465 13.0711 10.2051V11.8301C13.0711 11.8691 13.0698 11.9082 13.0672 11.9473H13.0711L13.8621 11C13.8908 10.9661 13.9253 10.9492 13.9656 10.9492H14.1434C14.2423 10.9492 14.2593 10.9876 14.1942 11.0645L13.5809 11.7949L14.282 12.8848C14.3315 12.9616 14.3146 13 14.2313 13H14.0399C13.9969 13 13.9598 12.9759 13.9285 12.9277L13.366 12.0508L13.0711 12.4023V12.9121C13.0711 12.9707 13.0418 13 12.9832 13H12.8152Z" stroke="white" mask="url(#path-1-outside-1_6_5)"/>
<path d="M14.7762 13C14.7176 13 14.6883 12.9707 14.6883 12.9121V11.0371C14.6883 10.9785 14.7176 10.9492 14.7762 10.9492H14.9402C14.9988 10.9492 15.0281 10.9785 15.0281 11.0371V11.1934H15.0359C15.1206 11.0996 15.2124 11.0299 15.3113 10.9844C15.4103 10.9388 15.5054 10.916 15.5965 10.916C15.7645 10.916 15.8934 10.9583 15.9832 11.043C16.0744 11.1263 16.133 11.2103 16.159 11.2949H16.1668C16.2384 11.1882 16.3289 11.0983 16.4383 11.0254C16.5477 10.9525 16.6642 10.916 16.7879 10.916C16.9949 10.916 17.1512 10.9831 17.2567 11.1172C17.3621 11.25 17.4149 11.4323 17.4149 11.6641V12.9121C17.4149 12.9707 17.3856 13 17.327 13H17.159C17.1004 13 17.0711 12.9707 17.0711 12.9121V11.7773C17.0711 11.5221 17.0392 11.3574 16.9754 11.2832C16.9116 11.2077 16.8133 11.1699 16.6805 11.1699C16.5503 11.1699 16.4415 11.2259 16.3543 11.3379C16.2671 11.4486 16.2234 11.6159 16.2234 11.8398V12.9121C16.2234 12.9707 16.1942 13 16.1356 13H15.9676C15.909 13 15.8797 12.9707 15.8797 12.9121V11.7773C15.8797 11.5221 15.8478 11.3574 15.784 11.2832C15.7202 11.2077 15.6219 11.1699 15.4891 11.1699C15.3589 11.1699 15.2501 11.2207 15.1629 11.3223C15.0757 11.4225 15.032 11.5951 15.032 11.8398V12.9121C15.032 12.9707 15.0027 13 14.9442 13H14.7762Z" stroke="white" mask="url(#path-1-outside-1_6_5)"/>
<path d="M18.0535 13C17.9949 13 17.9656 12.9707 17.9656 12.9121V10.2051C17.9656 10.1465 17.9949 10.1172 18.0535 10.1172H18.2215C18.2801 10.1172 18.3094 10.1465 18.3094 10.2051V11.0762C18.3094 11.1152 18.3081 11.1543 18.3055 11.1934H18.3133C18.3979 11.0996 18.4891 11.0299 18.5867 10.9844C18.6844 10.9388 18.8061 10.916 18.952 10.916C19.1889 10.916 19.3589 10.9831 19.4617 11.1172C19.5659 11.25 19.618 11.4323 19.618 11.6641V12.9121C19.618 12.9707 19.5887 13 19.5301 13H19.3621C19.3035 13 19.2742 12.9707 19.2742 12.9121V11.7578C19.2742 11.5026 19.2319 11.3411 19.1473 11.2734C19.0626 11.2044 18.9552 11.1699 18.825 11.1699C18.6557 11.1699 18.5275 11.2207 18.4402 11.3223C18.353 11.4225 18.3094 11.5951 18.3094 11.8398V12.9121C18.3094 12.9707 18.2801 13 18.2215 13H18.0535Z" stroke="white" mask="url(#path-1-outside-1_6_5)"/>
</svg>
