<svg id="ezqVKRYJkwo1" xmlns="http://www.w3.org/2000/svg" xmlns:xlink="http://www.w3.org/1999/xlink" viewBox="0 0 385 467" shape-rendering="geometricPrecision" text-rendering="geometricPrecision"><defs><linearGradient id="ezqVKRYJkwo2-fill" x1="88.92" y1="85" x2="353.4" y2="376.84" spreadMethod="pad" gradientUnits="userSpaceOnUse" gradientTransform="translate(0 0)"><stop id="ezqVKRYJkwo2-fill-0" offset="0%" stop-color="rgba(107,114,128,0.33)"/><stop id="ezqVKRYJkwo2-fill-1" offset="0.01%" stop-color="#5a6271"/><stop id="ezqVKRYJkwo2-fill-2" offset="0.02%" stop-color="#374151"/><stop id="ezqVKRYJkwo2-fill-3" offset="97.3056%" stop-color="rgba(71,80,95,0.739433)"/><stop id="ezqVKRYJkwo2-fill-4" offset="99.99%" stop-color="rgba(90,98,113,0.419733)"/><stop id="ezqVKRYJkwo2-fill-5" offset="100%" stop-color="rgba(107,114,128,0.14)"/><stop id="ezqVKRYJkwo2-fill-6" offset="100%" stop-color="rgba(98,105,120,0.29441)"/></linearGradient><linearGradient id="ezqVKRYJkwo3-fill" x1="125.771" y1="140.038" x2="258.789" y2="370.442" spreadMethod="pad" gradientUnits="userSpaceOnUse" gradientTransform="translate(0 0)"><stop id="ezqVKRYJkwo3-fill-0" offset="0%" stop-color="#6b7280"/><stop id="ezqVKRYJkwo3-fill-1" offset="45%" stop-color="#6b7280"/><stop id="ezqVKRYJkwo3-fill-2" offset="100%" stop-color="#374151"/></linearGradient></defs><path d="M377.5,256c0,103.553-83.947,187.5-187.5,187.5C86.4466,443.5,2.5,359.553,2.5,256s83.9466-187.5,187.5-187.5c103.553,0,187.5,83.947,187.5,187.5Z" fill="url(#ezqVKRYJkwo2-fill)" stroke="#206cb2" stroke-width="5" stroke-miterlimit="10"/><path d="M192.28,388.24c73.454,0,133-59.546,133-133s-59.546-133-133-133-133,59.546-133,133s59.546,133,133,133Z" fill="url(#ezqVKRYJkwo3-fill)" stroke="#205ab2" stroke-width="6" stroke-miterlimit="10"/><path d="M263.515,398.667v2.493h7.417v3.04h-11.012v-13.68h10.815v2.979h-7.22v2.28h6.338v2.919l-6.338-.031Z" fill="#9ca3af"/><path d="M253.452,404.184c-1.46.083-2.905-.335-4.096-1.185-.5-.414-.902-.933-1.178-1.52-.276-.588-.418-1.229-.418-1.877h3.367c.083,1.238.881,1.854,2.401,1.854c1.315,0,1.984-.426,1.984-1.292.002-.145-.03-.289-.092-.421-.061-.131-.152-.247-.265-.339-.364-.238-.768-.405-1.193-.494l-2.546-.608c-2.235-.517-3.344-1.748-3.344-3.686-.016-.553.091-1.104.313-1.611s.553-.959.971-1.323c1.104-.839,2.477-1.247,3.861-1.147c1.365-.08,2.717.303,3.838,1.087.463.361.84.822,1.103,1.348s.406,1.104.417,1.692h-3.291c-.144-1.019-.828-1.52-2.06-1.52-.443-.024-.883.087-1.261.319-.144.088-.262.212-.344.36-.081.148-.122.315-.12.483c0,.548.411.928,1.239,1.133l2.652.615c2.402.573,3.603,1.87,3.603,3.892.027.602-.093,1.202-.35,1.748-.257.545-.643,1.02-1.125,1.383-1.193.813-2.624,1.203-4.066,1.109Z" fill="#9ca3af"/><path d="M302.472,155.277v-7.957h3.534v13.68h-3.587l-4.75-7.912v7.912h-3.549v-13.68h3.549l4.803,7.957Z" fill="#9ca3af"/><path d="M194.552,95.2372v-7.9572h3.534v13.68h-3.587l-4.75-7.9116v7.9116h-3.549v-13.68h3.549l4.803,7.9572Z" fill="#9ca3af"/><path d="M240.912,116.517v-7.957h3.534v13.68h-3.587l-4.75-7.912v7.912h-3.549v-13.68h3.549l4.803,7.957Z" fill="#9ca3af"/><path d="M116.272,116.517v-7.957h3.534v13.68h-3.587l-4.75-7.912v7.912h-3.549v-13.68h3.549l4.803,7.957Z" fill="#9ca3af"/><path d="M129.952,116.517v-7.957h3.534v13.68h-3.587l-4.75-7.912v7.912h-3.549v-13.68h3.549l4.803,7.957Z" fill="#9ca3af"/><path d="M72.1924,155.277v-7.957h3.534v13.68h-3.5872l-4.75-7.912v7.912h-3.5492v-13.68h3.5492l4.8032,7.957Z" fill="#9ca3af"/><path d="M42.9706,205.437v-7.957h3.3894v13.68h-3.4404l-4.5556-7.912v7.912h-3.404v-13.68h3.404l4.6066,7.957Z" fill="#9ca3af"/><path d="M349.395,256.547v2.493h7.417v3.04h-11.012v-13.68h10.815v2.979h-7.22v2.28h6.338v2.919l-6.338-.031Z" fill="#9ca3af"/><path d="M328.505,205.627v2.493h6.655v3.04h-9.88v-13.68h9.703v2.979h-6.478v2.28h5.687v2.919l-5.687-.031Z" fill="#9ca3af"/><path d="M311.395,155.467v2.493h7.417v3.04h-11.012v-13.68h10.815v2.979h-7.22v2.28h6.338v2.919l-6.338-.031Z" fill="#9ca3af"/><path d="M345.451,205.437v-7.957h3.389v13.68h-3.44l-4.556-7.912v7.912h-3.404v-13.68h3.404l4.607,7.957Z" fill="#9ca3af"/><path d="M353.833,205.627v2.493h7.167v3.04h-10.64v-13.68h10.449v2.979h-6.976v2.28h6.124v2.919l-6.124-.031Z" fill="#9ca3af"/><path d="M325.075,310.507v2.493h7.417v3.04h-11.012v-13.68h10.815v2.979h-7.22v2.28h6.338v2.919l-6.338-.031Z" fill="#9ca3af"/><path d="M349.395,310.507v2.493h7.417v3.04h-11.012v-13.68h10.815v2.979h-7.22v2.28h6.338v2.919l-6.338-.031Z" fill="#9ca3af"/><path d="M254.592,116.517v-7.957h3.534v13.68h-3.587l-4.75-7.912v7.912h-3.549v-13.68h3.549l4.803,7.957Z" fill="#9ca3af"/><path d="M263.515,116.707v2.493h7.417v3.04h-11.012v-13.68h10.815v2.979h-7.22v2.28h6.338v2.919l-6.338-.031Z" fill="#9ca3af"/><path d="M191.892,426.984c-1.46.083-2.905-.335-4.096-1.185-.5-.414-.902-.933-1.178-1.52-.276-.588-.418-1.229-.418-1.877h3.367c.083,1.238.881,1.854,2.401,1.854c1.315,0,1.984-.426,1.984-1.292.002-.145-.03-.289-.092-.421-.061-.131-.152-.247-.265-.339-.364-.238-.768-.405-1.193-.494l-2.546-.608c-2.235-.517-3.344-1.748-3.344-3.686-.016-.553.091-1.104.313-1.611s.553-.959.971-1.323c1.104-.839,2.477-1.247,3.861-1.147c1.365-.08,2.717.303,3.838,1.087.463.361.84.822,1.103,1.348s.406,1.104.417,1.692h-3.291c-.144-1.019-.828-1.52-2.06-1.52-.443-.024-.883.087-1.261.319-.144.088-.262.212-.344.36-.081.148-.122.315-.12.483c0,.548.411.928,1.239,1.133l2.652.615c2.402.573,3.603,1.87,3.603,3.892.027.602-.093,1.202-.35,1.748-.257.545-.643,1.02-1.125,1.383-1.193.813-2.624,1.203-4.066,1.109Z" fill="#9ca3af"/><path d="M125.012,404.184c-1.46.083-2.905-.335-4.096-1.185-.5-.414-.902-.933-1.178-1.52-.276-.588-.418-1.229-.418-1.877h3.367c.083,1.238.881,1.854,2.401,1.854c1.315,0,1.984-.426,1.984-1.292.002-.145-.03-.289-.092-.421-.061-.131-.152-.247-.265-.339-.364-.238-.768-.405-1.193-.494l-2.546-.608c-2.235-.517-3.344-1.748-3.344-3.686-.016-.553.091-1.104.313-1.611s.553-.959.971-1.323c1.104-.839,2.477-1.247,3.861-1.147c1.365-.08,2.717.303,3.838,1.087.463.361.84.822,1.103,1.348s.406,1.104.417,1.692h-3.291c-.144-1.019-.828-1.52-2.06-1.52-.443-.024-.883.087-1.261.319-.144.088-.262.212-.344.36-.081.148-.122.315-.12.483c0,.548.411.928,1.239,1.133l2.652.615c2.402.573,3.603,1.87,3.603,3.892.027.602-.093,1.202-.35,1.748-.257.545-.643,1.02-1.125,1.383-1.193.813-2.624,1.203-4.066,1.109Z" fill="#9ca3af"/><path d="M68.0124,364.664c-1.4607.083-2.9058-.335-4.0964-1.185-.4996-.414-.9018-.933-1.1777-1.52-.2758-.588-.4187-1.229-.4183-1.877h3.3668c.0836,1.238.8816,1.854,2.4016,1.854c1.3148,0,1.9836-.426,1.9836-1.292.0015-.145-.0298-.289-.0916-.421-.0619-.131-.1527-.247-.2656-.339-.3634-.238-.7681-.405-1.1932-.494l-2.546-.608c-2.2344-.517-3.344-1.748-3.344-3.686-.016-.553.0909-1.104.313-1.611s.5538-.959.9714-1.323c1.1044-.839,2.4771-1.247,3.8608-1.147c1.3652-.08,2.7173.303,3.838,1.087.4635.361.8406.822,1.1035,1.348.263.526.4052,1.104.4165,1.692h-3.2908c-.1444-1.019-.8284-1.52-2.0596-1.52-.4431-.024-.883.087-1.2616.319-.1438.088-.2622.212-.3435.36-.0812.148-.1226.315-.1201.483c0,.548.4104.928,1.2388,1.133l2.6524.615c2.4016.573,3.6024,1.87,3.6024,3.892.0273.602-.0926,1.202-.3496,1.748-.2569.545-.643,1.02-1.1248,1.383-1.1937.813-2.6249,1.203-4.066,1.109Z" fill="#9ca3af"/><path d="M39.1324,317.544c-1.4607.083-2.9058-.335-4.0964-1.185-.4997-.414-.9018-.933-1.1777-1.52-.2758-.588-.4187-1.229-.4183-1.877h3.3668c.0836,1.238.8816,1.854,2.4016,1.854c1.3148,0,1.9836-.426,1.9836-1.292.0015-.145-.0298-.289-.0916-.421-.0619-.131-.1527-.247-.2656-.339-.3634-.238-.7681-.405-1.1932-.494l-2.546-.608c-2.2344-.517-3.344-1.748-3.344-3.686-.016-.553.0909-1.104.313-1.611s.5538-.959.9714-1.323c1.1044-.839,2.4771-1.247,3.8608-1.147c1.3651-.08,2.7173.303,3.838,1.087.4635.361.8405.822,1.1035,1.348s.4052,1.104.4165,1.692h-3.2908c-.1444-1.019-.8284-1.52-2.0596-1.52-.4431-.024-.883.087-1.2616.319-.1438.088-.2622.212-.3435.36s-.1226.315-.1201.483c0,.548.4104.928,1.2388,1.133l2.6524.615c2.4016.573,3.6024,1.87,3.6024,3.892.0273.602-.0926,1.202-.3496,1.748-.2569.545-.643,1.02-1.1248,1.383-1.1937.813-2.6249,1.203-4.066,1.109Z" fill="#9ca3af"/><path d="M241.292,404.184c-1.46.083-2.905-.335-4.096-1.185-.5-.414-.902-.933-1.178-1.52-.276-.588-.418-1.229-.418-1.877h3.367c.083,1.238.881,1.854,2.401,1.854c1.315,0,1.984-.426,1.984-1.292.002-.145-.03-.289-.092-.421-.061-.131-.152-.247-.265-.339-.364-.238-.768-.405-1.193-.494l-2.546-.608c-2.235-.517-3.344-1.748-3.344-3.686-.016-.553.091-1.104.313-1.611s.553-.959.971-1.323c1.104-.839,2.477-1.247,3.861-1.147c1.365-.08,2.717.303,3.838,1.087.463.361.84.822,1.103,1.348s.406,1.104.417,1.692h-3.291c-.144-1.019-.828-1.52-2.06-1.52-.443-.024-.883.087-1.261.319-.144.088-.262.212-.344.36-.081.148-.122.315-.12.483c0,.548.411.928,1.239,1.133l2.652.615c2.402.573,3.603,1.87,3.603,3.892.027.602-.093,1.202-.35,1.748-.257.545-.643,1.02-1.125,1.383-1.193.813-2.624,1.203-4.066,1.109Z" fill="#9ca3af"/><path d="M338.572,316.024c-1.46.083-2.905-.335-4.096-1.185-.5-.414-.902-.933-1.178-1.52-.276-.588-.418-1.229-.418-1.877h3.367c.083,1.238.881,1.854,2.401,1.854c1.315,0,1.984-.426,1.984-1.292.002-.145-.03-.289-.092-.421-.061-.131-.152-.247-.265-.339-.364-.238-.768-.405-1.193-.494l-2.546-.608c-2.235-.517-3.344-1.748-3.344-3.686-.016-.553.091-1.104.313-1.611s.553-.959.971-1.323c1.104-.839,2.477-1.247,3.861-1.147c1.365-.08,2.717.303,3.838,1.087.463.361.84.822,1.103,1.348s.406,1.104.417,1.692h-3.291c-.144-1.019-.828-1.52-2.06-1.52-.443-.024-.883.087-1.261.319-.144.088-.262.212-.344.36-.081.148-.122.315-.12.483c0,.548.411.928,1.239,1.133l2.652.615c2.402.573,3.603,1.87,3.603,3.892.027.602-.093,1.202-.35,1.748-.257.545-.643,1.02-1.125,1.383-1.193.813-2.624,1.203-4.066,1.109Z" fill="#9ca3af"/><path d="M306.075,359.147v2.493h7.417v3.04h-11.012v-13.68h10.815v2.979h-7.22v2.28h6.338v2.919l-6.338-.031Z" fill="#9ca3af"/><path d="M295.252,364.664c-1.46.083-2.905-.335-4.096-1.185-.5-.414-.902-.933-1.178-1.52-.276-.588-.418-1.229-.418-1.877h3.367c.083,1.238.881,1.854,2.401,1.854c1.315,0,1.984-.426,1.984-1.292.002-.145-.03-.289-.092-.421-.061-.131-.152-.247-.265-.339-.364-.238-.768-.405-1.193-.494l-2.546-.608c-2.235-.517-3.344-1.748-3.344-3.686-.016-.553.091-1.104.313-1.611s.553-.959.971-1.323c1.104-.839,2.477-1.247,3.861-1.147c1.365-.08,2.717.303,3.838,1.087.463.361.84.822,1.103,1.348s.406,1.104.417,1.692h-3.291c-.144-1.019-.828-1.52-2.06-1.52-.443-.024-.883.087-1.261.319-.144.088-.262.212-.344.36-.081.148-.122.315-.12.483c0,.548.411.928,1.239,1.133l2.652.615c2.402.573,3.603,1.87,3.603,3.892.027.602-.093,1.202-.35,1.748-.257.545-.643,1.02-1.125,1.383-1.193.813-2.624,1.203-4.066,1.109Z" fill="#9ca3af"/><path d="M32.4064,254.412l1.52-6.012h3.5948l-3.9824,13.68h-3.458l-1.824-8.74-1.748,8.74h-3.534L19,248.4h3.6252l1.52,6.012.6308,3.252.5624-3.252l1.2844-6.012h3.344l1.33,6.012.532,3.192.5776-3.192Z" fill="#9ca3af"/><path d="M29.1629,203.492l1.4969-6.012h3.5402l-3.9219,13.68h-3.4055l-1.7963-8.74-1.7215,8.74h-3.4803L15.96,197.48h3.5702l1.4969,6.012.6212,3.252.5539-3.252l1.2649-6.012h3.2932l1.3098,6.012.5239,3.192.5689-3.192Z" fill="#9ca3af"/><path d="M147.166,114.572l1.52-6.012h3.595l-3.982,13.68h-3.458l-1.824-8.74-1.748,8.74h-3.534l-3.975-13.68h3.625l1.52,6.012.631,3.252.562-3.252l1.285-6.012h3.344l1.33,6.012.532,3.192.577-3.192Z" fill="#9ca3af"/><path d="M89.4064,153.332l1.52-6.012h3.5948L90.5388,161h-3.458l-1.824-8.74-1.748,8.74h-3.534L76,147.32h3.6252l1.52,6.012.6308,3.252.5624-3.252l1.2844-6.012h3.344l1.33,6.012.532,3.192.5776-3.192Z" fill="#9ca3af"/><path d="M59.0127,203.492l1.4346-6.012h3.3927l-3.7585,13.68h-3.2636l-1.7215-8.74-1.6497,8.74h-3.3354L46.36,197.48h3.4214l1.4345,6.012.5954,3.252.5308-3.252l1.2122-6.012h3.156l1.2552,6.012.5021,3.192.5451-3.192Z" fill="#9ca3af"/><path d="M27.8464,309.892l1.52-6.012h3.5948l-3.9824,13.68h-3.458l-1.824-8.74-1.748,8.74h-3.534L14.44,303.88h3.6252l1.52,6.012.6308,3.252.5624-3.252l1.2844-6.012h3.344l1.33,6.012.532,3.192.5776-3.192Z" fill="#9ca3af"/><path d="M58.2464,309.892l1.52-6.012h3.5948l-3.9824,13.68h-3.458l-1.824-8.74-1.748,8.74h-3.534L44.84,303.88h3.6252l1.52,6.012.6308,3.252.5624-3.252l1.2844-6.012h3.344l1.33,6.012.532,3.192.5776-3.192Z" fill="#9ca3af"/><path d="M87.1264,357.012l1.52-6.012h3.5948l-3.9824,13.68h-3.458l-1.824-8.74-1.748,8.74h-3.534L73.72,351h3.6252l1.52,6.012.6308,3.252.5624-3.252L81.3428,351h3.344l1.33,6.012.532,3.192.5776-3.192Z" fill="#9ca3af"/><path d="M137.172,404.184c-1.46.083-2.905-.335-4.096-1.185-.5-.414-.902-.933-1.178-1.52-.276-.588-.418-1.229-.418-1.877h3.367c.083,1.238.881,1.854,2.401,1.854c1.315,0,1.984-.426,1.984-1.292.002-.145-.03-.289-.092-.421-.061-.131-.152-.247-.265-.339-.364-.238-.768-.405-1.193-.494l-2.546-.608c-2.235-.517-3.344-1.748-3.344-3.686-.016-.553.09-1.104.313-1.611.222-.507.553-.959.971-1.323c1.104-.839,2.477-1.247,3.861-1.147c1.365-.08,2.717.303,3.838,1.087.463.361.84.822,1.103,1.348s.406,1.104.417,1.692h-3.291c-.144-1.019-.828-1.52-2.06-1.52-.443-.024-.883.087-1.261.319-.144.088-.262.212-.344.36-.081.148-.122.315-.12.483c0,.548.411.928,1.239,1.133l2.652.615c2.402.573,3.603,1.87,3.603,3.892.027.602-.093,1.202-.35,1.748-.257.545-.643,1.02-1.125,1.383-1.193.813-2.624,1.203-4.066,1.109Z" fill="#9ca3af"/><path d="M155.526,396.532l1.52-6.012h3.595l-3.982,13.68h-3.458l-1.824-8.74-1.748,8.74h-3.534l-3.975-13.68h3.625l1.52,6.012.631,3.252.562-3.252l1.285-6.012h3.344l1.33,6.012.532,3.192.577-3.192Z" fill="#9ca3af"/><path id="ezqVKRYJkwo40" d="M192.281,381.4l11.547-20h-23.094l11.547,20Zm-2-250.8v232.8h4v-232.8h-4Z" fill="#eed605"/>
<script><![CDATA[
!function(t,n){"object"==typeof exports&&"undefined"!=typeof module?module.exports=n():"function"==typeof __SVGATOR_DEFINE__&&__SVGATOR_DEFINE__.amd?__SVGATOR_DEFINE__(n):((t="undefined"!=typeof globalThis?globalThis:t||self).__SVGATOR_PLAYER__=t.__SVGATOR_PLAYER__||{},t.__SVGATOR_PLAYER__["5c7f360c"]=n())}(this,(function(){"use strict";function t(t,n){var e=Object.keys(t);if(Object.getOwnPropertySymbols){var r=Object.getOwnPropertySymbols(t);n&&(r=r.filter((function(n){return Object.getOwnPropertyDescriptor(t,n).enumerable}))),e.push.apply(e,r)}return e}function n(n){for(var e=1;e<arguments.length;e++){var r=null!=arguments[e]?arguments[e]:{};e%2?t(Object(r),!0).forEach((function(t){u(n,t,r[t])})):Object.getOwnPropertyDescriptors?Object.defineProperties(n,Object.getOwnPropertyDescriptors(r)):t(Object(r)).forEach((function(t){Object.defineProperty(n,t,Object.getOwnPropertyDescriptor(r,t))}))}return n}function e(t){return(e="function"==typeof Symbol&&"symbol"==typeof Symbol.iterator?function(t){return typeof t}:function(t){return t&&"function"==typeof Symbol&&t.constructor===Symbol&&t!==Symbol.prototype?"symbol":typeof t})(t)}function r(t,n){if(!(t instanceof n))throw new TypeError("Cannot call a class as a function")}function i(t,n){for(var e=0;e<n.length;e++){var r=n[e];r.enumerable=r.enumerable||!1,r.configurable=!0,"value"in r&&(r.writable=!0),Object.defineProperty(t,r.key,r)}}function o(t,n,e){return n&&i(t.prototype,n),e&&i(t,e),t}function u(t,n,e){return n in t?Object.defineProperty(t,n,{value:e,enumerable:!0,configurable:!0,writable:!0}):t[n]=e,t}function a(t){return(a=Object.setPrototypeOf?Object.getPrototypeOf:function(t){return t.__proto__||Object.getPrototypeOf(t)})(t)}function l(t,n){return(l=Object.setPrototypeOf||function(t,n){return t.__proto__=n,t})(t,n)}function s(){if("undefined"==typeof Reflect||!Reflect.construct)return!1;if(Reflect.construct.sham)return!1;if("function"==typeof Proxy)return!0;try{return Boolean.prototype.valueOf.call(Reflect.construct(Boolean,[],(function(){}))),!0}catch(t){return!1}}function f(t,n,e){return(f=s()?Reflect.construct:function(t,n,e){var r=[null];r.push.apply(r,n);var i=new(Function.bind.apply(t,r));return e&&l(i,e.prototype),i}).apply(null,arguments)}function c(t,n){if(n&&("object"==typeof n||"function"==typeof n))return n;if(void 0!==n)throw new TypeError("Derived constructors may only return object or undefined");return function(t){if(void 0===t)throw new ReferenceError("this hasn't been initialised - super() hasn't been called");return t}(t)}function h(t,n,e){return(h="undefined"!=typeof Reflect&&Reflect.get?Reflect.get:function(t,n,e){var r=function(t,n){for(;!Object.prototype.hasOwnProperty.call(t,n)&&null!==(t=a(t)););return t}(t,n);if(r){var i=Object.getOwnPropertyDescriptor(r,n);return i.get?i.get.call(e):i.value}})(t,n,e||t)}function v(t){return function(t){if(Array.isArray(t))return y(t)}(t)||function(t){if("undefined"!=typeof Symbol&&null!=t[Symbol.iterator]||null!=t["@@iterator"])return Array.from(t)}(t)||function(t,n){if(!t)return;if("string"==typeof t)return y(t,n);var e=Object.prototype.toString.call(t).slice(8,-1);"Object"===e&&t.constructor&&(e=t.constructor.name);if("Map"===e||"Set"===e)return Array.from(t);if("Arguments"===e||/^(?:Ui|I)nt(?:8|16|32)(?:Clamped)?Array$/.test(e))return y(t,n)}(t)||function(){throw new TypeError("Invalid attempt to spread non-iterable instance.\nIn order to be iterable, non-array objects must have a [Symbol.iterator]() method.")}()}function y(t,n){(null==n||n>t.length)&&(n=t.length);for(var e=0,r=new Array(n);e<n;e++)r[e]=t[e];return r}function g(t,n,e){if(Number.isInteger(t))return t;var r=Math.pow(10,n);return Math[e]((+t+Number.EPSILON)*r)/r}Number.isInteger||(Number.isInteger=function(t){return"number"==typeof t&&isFinite(t)&&Math.floor(t)===t}),Number.EPSILON||(Number.EPSILON=2220446049250313e-31);var d=p(Math.pow(10,-6));function p(t){var n=arguments.length>1&&void 0!==arguments[1]?arguments[1]:6;return g(t,n,"round")}function m(t,n){var e=arguments.length>2&&void 0!==arguments[2]?arguments[2]:d;return Math.abs(t-n)<e}p(Math.pow(10,-2)),p(Math.pow(10,-4));var b=Math.PI/180;function w(t){return t}function A(t,n,e){var r=1-e;return 3*e*r*(t*r+n*e)+e*e*e}function _(){var t=arguments.length>0&&void 0!==arguments[0]?arguments[0]:0,n=arguments.length>1&&void 0!==arguments[1]?arguments[1]:0,e=arguments.length>2&&void 0!==arguments[2]?arguments[2]:1,r=arguments.length>3&&void 0!==arguments[3]?arguments[3]:1;return t<0||t>1||e<0||e>1?null:m(t,n)&&m(e,r)?w:function(i){if(i<=0)return t>0?i*n/t:0===n&&e>0?i*r/e:0;if(i>=1)return e<1?1+(i-1)*(r-1)/(e-1):1===e&&t<1?1+(i-1)*(n-1)/(t-1):1;for(var o,u=0,a=1;u<a;){var l=A(t,e,o=(u+a)/2);if(m(i,l))break;l<i?u=o:a=o}return A(n,r,o)}}function x(){return 1}function k(t){return 1===t?1:0}function S(){var t=arguments.length>0&&void 0!==arguments[0]?arguments[0]:1,n=arguments.length>1&&void 0!==arguments[1]?arguments[1]:0;if(1===t){if(0===n)return k;if(1===n)return x}var e=1/t;return function(t){return t>=1?1:(t+=n*e)-t%e}}var O=Math.sin,j=Math.cos,M=Math.acos,E=Math.asin,P=Math.tan,I=Math.atan2,R=Math.PI/180,F=180/Math.PI,N=Math.sqrt,T=function(){function t(){var n=arguments.length>0&&void 0!==arguments[0]?arguments[0]:1,e=arguments.length>1&&void 0!==arguments[1]?arguments[1]:0,i=arguments.length>2&&void 0!==arguments[2]?arguments[2]:0,o=arguments.length>3&&void 0!==arguments[3]?arguments[3]:1,u=arguments.length>4&&void 0!==arguments[4]?arguments[4]:0,a=arguments.length>5&&void 0!==arguments[5]?arguments[5]:0;r(this,t),this.m=[n,e,i,o,u,a],this.i=null,this.w=null,this.s=null}return o(t,[{key:"determinant",get:function(){var t=this.m;return t[0]*t[3]-t[1]*t[2]}},{key:"isIdentity",get:function(){if(null===this.i){var t=this.m;this.i=1===t[0]&&0===t[1]&&0===t[2]&&1===t[3]&&0===t[4]&&0===t[5]}return this.i}},{key:"point",value:function(t,n){var e=this.m;return{x:e[0]*t+e[2]*n+e[4],y:e[1]*t+e[3]*n+e[5]}}},{key:"translateSelf",value:function(){var t=arguments.length>0&&void 0!==arguments[0]?arguments[0]:0,n=arguments.length>1&&void 0!==arguments[1]?arguments[1]:0;if(!t&&!n)return this;var e=this.m;return e[4]+=e[0]*t+e[2]*n,e[5]+=e[1]*t+e[3]*n,this.w=this.s=this.i=null,this}},{key:"rotateSelf",value:function(){var t=arguments.length>0&&void 0!==arguments[0]?arguments[0]:0;if(t%=360){var n=O(t*=R),e=j(t),r=this.m,i=r[0],o=r[1];r[0]=i*e+r[2]*n,r[1]=o*e+r[3]*n,r[2]=r[2]*e-i*n,r[3]=r[3]*e-o*n,this.w=this.s=this.i=null}return this}},{key:"scaleSelf",value:function(){var t=arguments.length>0&&void 0!==arguments[0]?arguments[0]:1,n=arguments.length>1&&void 0!==arguments[1]?arguments[1]:1;if(1!==t||1!==n){var e=this.m;e[0]*=t,e[1]*=t,e[2]*=n,e[3]*=n,this.w=this.s=this.i=null}return this}},{key:"skewSelf",value:function(t,n){if(n%=360,(t%=360)||n){var e=this.m,r=e[0],i=e[1],o=e[2],u=e[3];t&&(t=P(t*R),e[2]+=r*t,e[3]+=i*t),n&&(n=P(n*R),e[0]+=o*n,e[1]+=u*n),this.w=this.s=this.i=null}return this}},{key:"resetSelf",value:function(){var t=arguments.length>0&&void 0!==arguments[0]?arguments[0]:1,n=arguments.length>1&&void 0!==arguments[1]?arguments[1]:0,e=arguments.length>2&&void 0!==arguments[2]?arguments[2]:0,r=arguments.length>3&&void 0!==arguments[3]?arguments[3]:1,i=arguments.length>4&&void 0!==arguments[4]?arguments[4]:0,o=arguments.length>5&&void 0!==arguments[5]?arguments[5]:0,u=this.m;return u[0]=t,u[1]=n,u[2]=e,u[3]=r,u[4]=i,u[5]=o,this.w=this.s=this.i=null,this}},{key:"recomposeSelf",value:function(){var t=arguments.length>0&&void 0!==arguments[0]?arguments[0]:null,n=arguments.length>1&&void 0!==arguments[1]?arguments[1]:null,e=arguments.length>2&&void 0!==arguments[2]?arguments[2]:null,r=arguments.length>3&&void 0!==arguments[3]?arguments[3]:null,i=arguments.length>4&&void 0!==arguments[4]?arguments[4]:null;return this.isIdentity||this.resetSelf(),t&&(t.x||t.y)&&this.translateSelf(t.x,t.y),n&&this.rotateSelf(n),e&&(e.x&&this.skewSelf(e.x,0),e.y&&this.skewSelf(0,e.y)),!r||1===r.x&&1===r.y||this.scaleSelf(r.x,r.y),i&&(i.x||i.y)&&this.translateSelf(i.x,i.y),this}},{key:"decompose",value:function(){var t=arguments.length>0&&void 0!==arguments[0]?arguments[0]:0,n=arguments.length>1&&void 0!==arguments[1]?arguments[1]:0,e=this.m,r=e[0]*e[0]+e[1]*e[1],i=[[e[0],e[1]],[e[2],e[3]]],o=N(r);if(0===o)return{origin:{x:p(e[4]),y:p(e[5])},translate:{x:p(t),y:p(n)},scale:{x:0,y:0},skew:{x:0,y:0},rotate:0};i[0][0]/=o,i[0][1]/=o;var u=e[0]*e[3]-e[1]*e[2]<0;u&&(o=-o);var a=i[0][0]*i[1][0]+i[0][1]*i[1][1];i[1][0]-=i[0][0]*a,i[1][1]-=i[0][1]*a;var l=N(i[1][0]*i[1][0]+i[1][1]*i[1][1]);if(0===l)return{origin:{x:p(e[4]),y:p(e[5])},translate:{x:p(t),y:p(n)},scale:{x:p(o),y:0},skew:{x:0,y:0},rotate:0};i[1][0]/=l,i[1][1]/=l,a/=l;var s=0;return i[1][1]<0?(s=M(i[1][1])*F,i[0][1]<0&&(s=360-s)):s=E(i[0][1])*F,u&&(s=-s),a=I(a,N(i[0][0]*i[0][0]+i[0][1]*i[0][1]))*F,u&&(a=-a),{origin:{x:p(e[4]),y:p(e[5])},translate:{x:p(t),y:p(n)},scale:{x:p(o),y:p(l)},skew:{x:p(a),y:0},rotate:p(s)}}},{key:"clone",value:function(){var t=this.m;return new this.constructor(t[0],t[1],t[2],t[3],t[4],t[5])}},{key:"toString",value:function(){var t=arguments.length>0&&void 0!==arguments[0]?arguments[0]:" ";if(null===this.s){var n=this.m.map((function(t){return p(t)}));1===n[0]&&0===n[1]&&0===n[2]&&1===n[3]?this.s="translate("+n[4]+t+n[5]+")":this.s="matrix("+n.join(t)+")"}return this.s}}],[{key:"create",value:function(t){return t?Array.isArray(t)?f(this,v(t)):t instanceof this?t.clone():(new this).recomposeSelf(t.origin,t.rotate,t.skew,t.scale,t.translate):new this}}]),t}();function q(t,n,e){return t>=.5?e:n}function B(t,n,e){return 0===t||n===e?n:t*(e-n)+n}function D(t,n,e){var r=B(t,n,e);return r<=0?0:r}function L(t,n,e){var r=B(t,n,e);return r<=0?0:r>=1?1:r}function C(t,n,e){return 0===t?n:1===t?e:{x:B(t,n.x,e.x),y:B(t,n.y,e.y)}}function V(t,n,e){var r=function(t,n,e){return Math.round(B(t,n,e))}(t,n,e);return r<=0?0:r>=255?255:r}function G(t,n,e){return 0===t?n:1===t?e:{r:V(t,n.r,e.r),g:V(t,n.g,e.g),b:V(t,n.b,e.b),a:B(t,null==n.a?1:n.a,null==e.a?1:e.a)}}function z(t,n){for(var e=[],r=0;r<t;r++)e.push(n);return e}function Y(t,n){if(--n<=0)return t;var e=(t=Object.assign([],t)).length;do{for(var r=0;r<e;r++)t.push(t[r])}while(--n>0);return t}var $,U=function(){function t(n){r(this,t),this.list=n,this.length=n.length}return o(t,[{key:"setAttribute",value:function(t,n){for(var e=this.list,r=0;r<this.length;r++)e[r].setAttribute(t,n)}},{key:"removeAttribute",value:function(t){for(var n=this.list,e=0;e<this.length;e++)n[e].removeAttribute(t)}},{key:"style",value:function(t,n){for(var e=this.list,r=0;r<this.length;r++)e[r].style[t]=n}}]),t}(),Q=/-./g,H=function(t,n){return n.toUpperCase()};function J(t){return"function"==typeof t?t:q}function Z(t){return t?"function"==typeof t?t:Array.isArray(t)?function(t){var n=arguments.length>1&&void 0!==arguments[1]?arguments[1]:w;if(!Array.isArray(t))return n;switch(t.length){case 1:return S(t[0])||n;case 2:return S(t[0],t[1])||n;case 4:return _(t[0],t[1],t[2],t[3])||n}return n}(t,null):function(t,n){var e=arguments.length>2&&void 0!==arguments[2]?arguments[2]:w;switch(t){case"linear":return w;case"steps":return S(n.steps||1,n.jump||0)||e;case"bezier":case"cubic-bezier":return _(n.x1||0,n.y1||0,n.x2||0,n.y2||0)||e}return e}(t.type,t.value,null):null}function K(t,n,e){var r=arguments.length>3&&void 0!==arguments[3]&&arguments[3],i=n.length-1;if(t<=n[0].t)return r?[0,0,n[0].v]:n[0].v;if(t>=n[i].t)return r?[i,1,n[i].v]:n[i].v;var o,u=n[0],a=null;for(o=1;o<=i;o++){if(!(t>n[o].t)){a=n[o];break}u=n[o]}return null==a?r?[i,1,n[i].v]:n[i].v:u.t===a.t?r?[o,1,a.v]:a.v:(t=(t-u.t)/(a.t-u.t),u.e&&(t=u.e(t)),r?[o,t,e(t,u.v,a.v)]:e(t,u.v,a.v))}function W(t,n){var e=arguments.length>2&&void 0!==arguments[2]?arguments[2]:null;return t&&t.length?"function"!=typeof n?null:("function"!=typeof e&&(e=null),function(r){var i=K(r,t,n);return null!=i&&e&&(i=e(i)),i}):null}function X(t,n){return t.t-n.t}function tt(t,n,r,i,o){var u,a="@"===r[0],l="#"===r[0],s=$[r],f=q;switch(a?(u=r.substr(1),r=u.replace(Q,H)):l&&(r=r.substr(1)),e(s)){case"function":if(f=s(i,o,K,Z,r,a,n,t),l)return f;break;case"string":f=W(i,J(s));break;case"object":if((f=W(i,J(s.i),s.f))&&"function"==typeof s.u)return s.u(n,f,r,a,t)}return f?function(t,n,e){if(arguments.length>3&&void 0!==arguments[3]&&arguments[3])return t instanceof U?function(r){return t.style(n,e(r))}:function(r){return t.style[n]=e(r)};if(Array.isArray(n)){var r=n.length;return function(i){var o=e(i);if(null==o)for(var u=0;u<r;u++)t[u].removeAttribute(n);else for(var a=0;a<r;a++)t[a].setAttribute(n,o)}}return function(r){var i=e(r);null==i?t.removeAttribute(n):t.setAttribute(n,i)}}(n,r,f,a):null}function nt(t,n,r,i){if(!i||"object"!==e(i))return null;var o=null,u=null;return Array.isArray(i)?u=function(t){if(!t||!t.length)return null;for(var n=0;n<t.length;n++)t[n].e&&(t[n].e=Z(t[n].e));return t.sort(X)}(i):(u=i.keys,o=i.data||null),u?tt(t,n,r,u,o):null}function et(t,n,e){if(!e)return null;var r=[];for(var i in e)if(e.hasOwnProperty(i)){var o=nt(t,n,i,e[i]);o&&r.push(o)}return r.length?r:null}function rt(t,n){if(!n.settings.duration||n.settings.duration<0)return null;var e,r,i,o,u,a=function(t,n){if(!n)return null;var e=[];if(Array.isArray(n))for(var r=n.length,i=0;i<r;i++){var o=n[i];if(2===o.length){var u=null;if("string"==typeof o[0])u=t.getElementById(o[0]);else if(Array.isArray(o[0])){u=[];for(var a=0;a<o[0].length;a++)if("string"==typeof o[0][a]){var l=t.getElementById(o[0][a]);l&&u.push(l)}u=u.length?1===u.length?u[0]:new U(u):null}if(u){var s=et(t,u,o[1]);s&&(e=e.concat(s))}}}else for(var f in n)if(n.hasOwnProperty(f)){var c=t.getElementById(f);if(c){var h=et(t,c,n[f]);h&&(e=e.concat(h))}}return e.length?e:null}(t,n.elements);return a?(e=a,r=n.settings,i=r.duration,o=e.length,u=null,function(t,n){var a=r.iterations||1/0,l=(r.alternate&&a%2==0)^r.direction>0?i:0,s=t%i,f=1+(t-s)/i;n*=r.direction,r.alternate&&f%2==0&&(n=-n);var c=!1;if(f>a)s=l,c=!0,-1===r.fill&&(s=r.direction>0?0:i);else if(n<0&&(s=i-s),s===u)return!1;u=s;for(var h=0;h<o;h++)e[h](s);return c}):null}function it(t,n){for(var e=n.querySelectorAll("svg"),r=0;r<e.length;r++)if(e[r].id===t.root&&!e[r].svgatorAnimation)return e[r].svgatorAnimation=!0,e[r];return null}function ot(t){var n=function(t){return t.shadowRoot};return document?Array.from(t.querySelectorAll(":not("+["a","area","audio","br","canvas","circle","datalist","embed","g","head","hr","iframe","img","input","link","object","path","polygon","rect","script","source","style","svg","title","track","video"].join()+")")).filter(n).map(n):[]}function ut(t){var n=arguments.length>1&&void 0!==arguments[1]?arguments[1]:document,e=arguments.length>2&&void 0!==arguments[2]?arguments[2]:0,r=it(t,n);if(r)return r;if(e>=20)return null;for(var i=ot(n),o=0;o<i.length;o++){var u=ut(t,i[o],e+1);if(u)return u}return null}function at(t,n){if($=n,!t||!t.root||!Array.isArray(t.animations))return null;var e=ut(t);if(!e)return null;var r=t.animations.map((function(t){return rt(e,t)})).filter((function(t){return!!t}));return r.length?{svg:e,animations:r,animationSettings:t.animationSettings,options:t.options||void 0}:null}function lt(t){var n=arguments.length>1&&void 0!==arguments[1]?arguments[1]:null,e=arguments.length>2&&void 0!==arguments[2]?arguments[2]:Number,r=arguments.length>3&&void 0!==arguments[3]?arguments[3]:"undefined"!=typeof BigInt&&BigInt,i="0x"+(t.replace(/[^0-9a-fA-F]+/g,"")||27);return n&&r&&e.isSafeInteger&&!e.isSafeInteger(+i)?e(r(i))%n+n:+i}function st(t,n,e){return!t||!e||n>t.length?t:t.substring(0,n)+st(t.substring(n+1),e,e)}function ft(t){var n=arguments.length>1&&void 0!==arguments[1]?arguments[1]:27;return!t||t%n?t%n:[0,1].includes(n)?n:ft(t/n,n)}function ct(t,n,e){if(t&&t.length){var r=lt(e),i=ft(r)+5,o=st(t,ft(r,5),i);return o=o.replace(/\x7c$/g,"==").replace(/\x2f$/g,"="),o=function(t,n,e){var r=+("0x"+t.substring(0,4));t=t.substring(4);for(var i=lt(n,r)%r+e%27,o=[],u=0;u<t.length;u+=2)if("|"!==t[u]){var a=+("0x"+t[u]+t[u+1])-i;o.push(a)}else{var l=+("0x"+t.substring(u+1,u+1+4))-i;u+=3,o.push(l)}return String.fromCharCode.apply(String,o)}(o=(o=atob(o)).replace(/[\x41-\x5A]/g,""),n,r),o=JSON.parse(o)}}var ht=[{key:"alternate",def:!1},{key:"fill",def:1},{key:"iterations",def:0},{key:"direction",def:1},{key:"speed",def:1},{key:"fps",def:100}],vt=function(){function t(n,e){var i=this,o=arguments.length>2&&void 0!==arguments[2]?arguments[2]:null;r(this,t),this._id=0,this._running=!1,this._rollingBack=!1,this._animations=n,this._settings=e,(!o||o<"2022-05-02")&&delete this._settings.speed,ht.forEach((function(t){i._settings[t.key]=i._settings[t.key]||t.def})),this.duration=e.duration,this.offset=e.offset||0,this.rollbackStartOffset=0}return o(t,[{key:"alternate",get:function(){return this._settings.alternate}},{key:"fill",get:function(){return this._settings.fill}},{key:"iterations",get:function(){return this._settings.iterations}},{key:"direction",get:function(){return this._settings.direction}},{key:"speed",get:function(){return this._settings.speed}},{key:"fps",get:function(){return this._settings.fps}},{key:"maxFiniteDuration",get:function(){return this.iterations>0?this.iterations*this.duration:this.duration}},{key:"_apply",value:function(t){for(var n=arguments.length>1&&void 0!==arguments[1]?arguments[1]:{},e=this._animations,r=e.length,i=0,o=0;o<r;o++)n[o]?i++:(n[o]=e[o](t,1),n[o]&&i++);return i}},{key:"_rollback",value:function(t){var n=this,e=1/0,r=null;this.rollbackStartOffset=t,this._rollingBack=!0,this._running=!0;this._id=window.requestAnimationFrame((function i(o){if(n._rollingBack){null==r&&(r=o);var u=Math.round(t-(o-r)*n.speed);if(u>n.duration&&e!==1/0){var a=!!n.alternate&&u/n.duration%2>1,l=u%n.duration;u=(l+=a?n.duration:0)||n.duration}var s=(n.fps?1e3/n.fps:0)*n.speed,f=Math.max(0,u);f<=e-s&&(n.offset=f,e=f,n._apply(f));var c=n.iterations>0&&-1===n.fill&&u>=n.maxFiniteDuration;(u<=0||n.offset<u||c)&&n.stop(),n._id=window.requestAnimationFrame(i)}}))}},{key:"_start",value:function(){var t=this,n=arguments.length>0&&void 0!==arguments[0]?arguments[0]:0,e=-1/0,r=null,i={};this._running=!0;var o=function o(u){null==r&&(r=u);var a=Math.round((u-r)*t.speed+n),l=(t.fps?1e3/t.fps:0)*t.speed;if(a>=e+l&&!t._rollingBack&&(t.offset=a,e=a,t._apply(a,i)===t._animations.length))return void t.pause(!0);t._id=window.requestAnimationFrame(o)};this._id=window.requestAnimationFrame(o)}},{key:"_pause",value:function(){this._id&&window.cancelAnimationFrame(this._id),this._running=!1}},{key:"play",value:function(){if(!this._running)return this._rollingBack?this._rollback(this.offset):this._start(this.offset)}},{key:"stop",value:function(){this._pause(),this.offset=0,this.rollbackStartOffset=0,this._rollingBack=!1,this._apply(0)}},{key:"reachedToEnd",value:function(){return this.iterations>0&&this.offset>=this.iterations*this.duration}},{key:"restart",value:function(){var t=arguments.length>0&&void 0!==arguments[0]&&arguments[0];this.stop(t),this.play(t)}},{key:"pause",value:function(){this._pause()}},{key:"reverse",value:function(){this.direction=-this.direction}}],[{key:"build",value:function(t,n){delete t.animationSettings,t.options=ct(t.options,t.root,"5c7f360c"),t.animations.map((function(n){n.settings=ct(n.s,t.root,"5c7f360c"),delete n.s,t.animationSettings||(t.animationSettings=n.settings)}));var e=t.version;if(!(t=at(t,n)))return null;var r=t.options||{},i=new this(t.animations,t.animationSettings,e);return{el:t.svg,options:r,player:i}}},{key:"push",value:function(t){return this.build(t)}},{key:"init",value:function(){var t=this,n=window.__SVGATOR_PLAYER__&&window.__SVGATOR_PLAYER__["5c7f360c"];Array.isArray(n)&&n.splice(0).forEach((function(n){return t.build(n)}))}}]),t}();function yt(t){return p(t)+""}function gt(t){var n=arguments.length>1&&void 0!==arguments[1]?arguments[1]:" ";return t&&t.length?t.map(yt).join(n):""}function dt(t){if(!t)return"transparent";if(null==t.a||t.a>=1){var n=function(t){return 1===(t=parseInt(t).toString(16)).length?"0"+t:t},e=function(t){return t.charAt(0)===t.charAt(1)},r=n(t.r),i=n(t.g),o=n(t.b);return e(r)&&e(i)&&e(o)&&(r=r.charAt(0),i=i.charAt(0),o=o.charAt(0)),"#"+r+i+o}return"rgba("+t.r+","+t.g+","+t.b+","+t.a+")"}function pt(t){return t?"url(#"+t+")":"none"}!function(){for(var t=0,n=["ms","moz","webkit","o"],e=0;e<n.length&&!window.requestAnimationFrame;++e)window.requestAnimationFrame=window[n[e]+"RequestAnimationFrame"],window.cancelAnimationFrame=window[n[e]+"CancelAnimationFrame"]||window[n[e]+"CancelRequestAnimationFrame"];window.requestAnimationFrame||(window.requestAnimationFrame=function(n){var e=Date.now(),r=Math.max(0,16-(e-t)),i=window.setTimeout((function(){n(e+r)}),r);return t=e+r,i},window.cancelAnimationFrame=window.clearTimeout)}();var mt={f:null,i:function(t,n,e){return 0===t?n:1===t?e:{x:D(t,n.x,e.x),y:D(t,n.y,e.y)}},u:function(t,n){return function(e){var r=n(e);t.setAttribute("rx",yt(r.x)),t.setAttribute("ry",yt(r.y))}}},bt={f:null,i:function(t,n,e){return 0===t?n:1===t?e:{width:D(t,n.width,e.width),height:D(t,n.height,e.height)}},u:function(t,n){return function(e){var r=n(e);t.setAttribute("width",yt(r.width)),t.setAttribute("height",yt(r.height))}}};Object.freeze({M:2,L:2,Z:0,H:1,V:1,C:6,Q:4,T:2,S:4,A:7});var wt={},At=null;function _t(t){var n=function(){if(At)return At;if("object"!==("undefined"==typeof document?"undefined":e(document))||!document.createElementNS)return{};var t=document.createElementNS("http://www.w3.org/2000/svg","svg");return t&&t.style?(t.style.position="absolute",t.style.opacity="0.01",t.style.zIndex="-9999",t.style.left="-9999px",t.style.width="1px",t.style.height="1px",At={svg:t}):{}}().svg;if(!n)return function(t){return null};var r=document.createElementNS(n.namespaceURI,"path");r.setAttributeNS(null,"d",t),r.setAttributeNS(null,"fill","none"),r.setAttributeNS(null,"stroke","none"),n.appendChild(r);var i=r.getTotalLength();return function(t){var n=r.getPointAtLength(i*t);return{x:n.x,y:n.y}}}function xt(t){return wt[t]?wt[t]:wt[t]=_t(t)}function kt(t,n,e,r){if(!t||!r)return!1;var i=["M",t.x,t.y];if(n&&e&&(i.push("C"),i.push(n.x),i.push(n.y),i.push(e.x),i.push(e.y)),n?!e:e){var o=n||e;i.push("Q"),i.push(o.x),i.push(o.y)}return n||e||i.push("L"),i.push(r.x),i.push(r.y),i.join(" ")}function St(t,n,e,r){var i=arguments.length>4&&void 0!==arguments[4]?arguments[4]:1,o=kt(t,n,e,r),u=xt(o);try{return u(i)}catch(t){return null}}function Ot(t,n,e){return t+(n-t)*e}function jt(t,n,e){var r=arguments.length>3&&void 0!==arguments[3]&&arguments[3],i={x:Ot(t.x,n.x,e),y:Ot(t.y,n.y,e)};return r&&(i.a=Mt(t,n)),i}function Mt(t,n){return Math.atan2(n.y-t.y,n.x-t.x)}function Et(t,n,e,r){var i=1-r;return i*i*t+2*i*r*n+r*r*e}function Pt(t,n,e,r){return 2*(1-r)*(n-t)+2*r*(e-n)}function It(t,n,e,r){var i=arguments.length>4&&void 0!==arguments[4]&&arguments[4],o=St(t,n,null,e,r);return o||(o={x:Et(t.x,n.x,e.x,r),y:Et(t.y,n.y,e.y,r)}),i&&(o.a=Rt(t,n,e,r)),o}function Rt(t,n,e,r){return Math.atan2(Pt(t.y,n.y,e.y,r),Pt(t.x,n.x,e.x,r))}function Ft(t,n,e,r,i){var o=i*i;return i*o*(r-t+3*(n-e))+3*o*(t+e-2*n)+3*i*(n-t)+t}function Nt(t,n,e,r,i){var o=1-i;return 3*(o*o*(n-t)+2*o*i*(e-n)+i*i*(r-e))}function Tt(t,n,e,r,i){var o=arguments.length>5&&void 0!==arguments[5]&&arguments[5],u=St(t,n,e,r,i);return u||(u={x:Ft(t.x,n.x,e.x,r.x,i),y:Ft(t.y,n.y,e.y,r.y,i)}),o&&(u.a=qt(t,n,e,r,i)),u}function qt(t,n,e,r,i){return Math.atan2(Nt(t.y,n.y,e.y,r.y,i),Nt(t.x,n.x,e.x,r.x,i))}function Bt(t,n,e){var r=arguments.length>3&&void 0!==arguments[3]&&arguments[3];if(Lt(n)){if(Ct(e))return It(n,e.start,e,t,r)}else if(Lt(e)){if(Vt(n))return It(n,n.end,e,t,r)}else{if(Vt(n))return Ct(e)?Tt(n,n.end,e.start,e,t,r):It(n,n.end,e,t,r);if(Ct(e))return It(n,e.start,e,t,r)}return jt(n,e,t,r)}function Dt(t,n,e){var r=Bt(t,n,e,!0);return r.a=function(t){return arguments.length>1&&void 0!==arguments[1]&&arguments[1]?t+Math.PI:t}(r.a)/b,r}function Lt(t){return!t.type||"corner"===t.type}function Ct(t){return null!=t.start&&!Lt(t)}function Vt(t){return null!=t.end&&!Lt(t)}var Gt=new T;var zt={f:yt,i:B},Yt={f:yt,i:L};function $t(t,n,e){return t.map((function(t){return function(t,n,e){var r=t.v;if(!r||"g"!==r.t||r.s||!r.v||!r.r)return t;var i=e.getElementById(r.r),o=i&&i.querySelectorAll("stop")||[];return r.s=r.v.map((function(t,n){var e=o[n]&&o[n].getAttribute("offset");return{c:t,o:e=p(parseInt(e)/100)}})),delete r.v,t}(t,0,e)}))}var Ut={gt:"gradientTransform",c:{x:"cx",y:"cy"},rd:"r",f:{x:"x1",y:"y1"},to:{x:"x2",y:"y2"}};function Qt(t,n,r,i,o,u,a,l){return $t(t,0,l),n=function(t,n,e){for(var r,i,o,u=t.length-1,a={},l=0;l<=u;l++)(r=t[l]).e&&(r.e=n(r.e)),r.v&&"g"===(i=r.v).t&&i.r&&(o=e.getElementById(i.r))&&(a[i.r]={e:o,s:o.querySelectorAll("stop")});return a}(t,i,l),function(i){var o=r(i,t,Ht);if(!o)return"none";if("c"===o.t)return dt(o.v);if("g"===o.t){if(!n[o.r])return pt(o.r);var u=n[o.r];return function(t,n){for(var e=t.s,r=e.length;r<n.length;r++){var i=e[e.length-1].cloneNode();i.id=Kt(i.id),t.e.appendChild(i),e=t.s=t.e.querySelectorAll("stop")}for(var o=0,u=e.length,a=n.length-1;o<u;o++)e[o].setAttribute("stop-color",dt(n[Math.min(o,a)].c)),e[o].setAttribute("offset",n[Math.min(o,a)].o)}(u,o.s),Object.keys(Ut).forEach((function(t){if(void 0!==o[t])if("object"!==e(Ut[t])){var n,r="gt"===t?(n=o[t],Array.isArray(n)?"matrix("+n.join(" ")+")":""):o[t],i=Ut[t];u.e.setAttribute(i,r)}else Object.keys(Ut[t]).forEach((function(n){if(void 0!==o[t][n]){var e=o[t][n],r=Ut[t][n];u.e.setAttribute(r,e)}}))})),pt(o.r)}return"none"}}function Ht(t,e,r){if(0===t)return e;if(1===t)return r;if(e&&r){var i=e.t;if(i===r.t)switch(e.t){case"c":return{t:i,v:G(t,e.v,r.v)};case"g":if(e.r===r.r){var o={t:i,s:Jt(t,e.s,r.s),r:e.r};return e.gt&&r.gt&&(o.gt=function(t,n,e){var r=n.length;if(r!==e.length)return q(t,n,e);for(var i=new Array(r),o=0;o<r;o++)i[o]=B(t,n[o],e[o]);return i}(t,e.gt,r.gt)),e.c?(o.c=C(t,e.c,r.c),o.rd=D(t,e.rd,r.rd)):e.f&&(o.f=C(t,e.f,r.f),o.to=C(t,e.to,r.to)),o}}if("c"===e.t&&"g"===r.t||"c"===r.t&&"g"===e.t){var u="c"===e.t?e:r,a="g"===e.t?n({},e):n({},r),l=a.s.map((function(t){return{c:u.v,o:t.o}}));return a.s="c"===e.t?Jt(t,l,a.s):Jt(t,a.s,l),a}}return q(t,e,r)}function Jt(t,n,e){if(n.length===e.length)return n.map((function(n,r){return Zt(t,n,e[r])}));for(var r=Math.max(n.length,e.length),i=[],o=0;o<r;o++){var u=Zt(t,n[Math.min(o,n.length-1)],e[Math.min(o,e.length-1)]);i.push(u)}return i}function Zt(t,n,e){return{o:L(t,n.o,e.o||0),c:G(t,n.c,e.c||{})}}function Kt(t){return t.replace(/-fill-([0-9]+)$/,(function(t,n){return"-fill-"+(+n+1)}))}var Wt={fill:Qt,"fill-opacity":Yt,stroke:Qt,"stroke-opacity":Yt,"stroke-width":zt,"stroke-dashoffset":{f:yt,i:B},"stroke-dasharray":{f:function(t){var n=arguments.length>1&&void 0!==arguments[1]?arguments[1]:" ";return t&&t.length>0&&(t=t.map((function(t){return p(t,4)}))),gt(t,n)},i:function(t,n,e){var r,i,o,u=n.length,a=e.length;if(u!==a)if(0===u)n=z(u=a,0);else if(0===a)a=u,e=z(u,0);else{var l=(o=(r=u)*(i=a)/function(t,n){for(var e;n;)e=n,n=t%n,t=e;return t||1}(r,i))<0?-o:o;n=Y(n,Math.floor(l/u)),e=Y(e,Math.floor(l/a)),u=a=l}for(var s=[],f=0;f<u;f++)s.push(p(D(t,n[f],e[f])));return s}},opacity:Yt,transform:function(t,n,r,i){if(!(t=function(t,n){if(!t||"object"!==e(t))return null;var r=!1;for(var i in t)t.hasOwnProperty(i)&&(t[i]&&t[i].length?(t[i].forEach((function(t){t.e&&(t.e=n(t.e))})),r=!0):delete t[i]);return r?t:null}(t,i)))return null;var o=function(e,i,o){var u=arguments.length>3&&void 0!==arguments[3]?arguments[3]:null;return t[e]?r(i,t[e],o):n&&n[e]?n[e]:u};return n&&n.a&&t.o?function(n){var e=r(n,t.o,Dt);return Gt.recomposeSelf(e,o("r",n,B,0)+e.a,o("k",n,C),o("s",n,C),o("t",n,C)).toString()}:function(t){return Gt.recomposeSelf(o("o",t,Bt,null),o("r",t,B,0),o("k",t,C),o("s",t,C),o("t",t,C)).toString()}},r:zt,"#size":bt,"#radius":mt,_:function(t,n){if(Array.isArray(t))for(var e=0;e<t.length;e++)this[t[e]]=n;else this[t]=n}},Xt=function(t){!function(t,n){if("function"!=typeof n&&null!==n)throw new TypeError("Super expression must either be null or a function");t.prototype=Object.create(n&&n.prototype,{constructor:{value:t,writable:!0,configurable:!0}}),n&&l(t,n)}(u,t);var n,e,i=(n=u,e=s(),function(){var t,r=a(n);if(e){var i=a(this).constructor;t=Reflect.construct(r,arguments,i)}else t=r.apply(this,arguments);return c(this,t)});function u(){return r(this,u),i.apply(this,arguments)}return o(u,null,[{key:"build",value:function(t){var n=h(a(u),"build",this).call(this,t,Wt);if(!n)return null;n.el,n.options,function(t,n,e){t.play()}(n.player)}}]),u}(vt);return Xt.init(),Xt}));
(function(s,i,o,w,d,a,b){w[o]=w[o]||{};w[o][s]=w[o][s]||[];w[o][s].push(i);})('5c7f360c',{"root":"ezqVKRYJkwo1","version":"2022-05-04","animations":[{"elements":{"ezqVKRYJkwo40":{"transform":{"data":{"o":{"x":192.280998,"y":256,"type":"corner"},"t":{"x":-192.280998,"y":-256}},"keys":{"r":[{"t":0,"v":0},{"t":3000,"v":360}]}}}},"s":"MODA1ZGFlNTU5N2E4YTCU5NGE3OWNhMmExNTUH2ZDY2NjM2MzYzNWY1SNTk3OWNhNTk4OTZhNLzljVGEyYTE1NTZkNjIQ1ZjU1OWNhNzk4YTUI5NGE3OWNhMmExYTY1HNTZkNjNHNWY1NU05OETljRDlmOWY1NTZkNjKRRNWY1NUw5NDlmYTcK5OGE1YTFWOTRhNzk4ANTU2ZDk5OTQ5ZmE2OBTg1ZjU1YTZhMzk4OTFg5NzU1NmRSNjRRNWYY1NTk5SWEzYTY1NUo2FZDY0NjM2M2Iw"}],"options":"MDDAxMDg4MmY4MDgxUDGZlN2Y4MTJmNDcyZjcW5N2M2ZTcxMmY4YQ|"},'__SVGATOR_PLAYER__',window,document)
]]></script>
</svg>
