<svg id="eCJIeU571dY1" xmlns="http://www.w3.org/2000/svg" xmlns:xlink="http://www.w3.org/1999/xlink" viewBox="0 0 360 360" shape-rendering="geometricPrecision" text-rendering="geometricPrecision"><defs><linearGradient id="eCJIeU571dY2-fill" x1="92.4878" y1="28.4184" x2="267.512" y2="331.582" spreadMethod="pad" gradientUnits="userSpaceOnUse" gradientTransform="translate(0 0)"><stop id="eCJIeU571dY2-fill-0" offset="0%" stop-color="#6b7280"/><stop id="eCJIeU571dY2-fill-1" offset="45%" stop-color="#6b7280"/><stop id="eCJIeU571dY2-fill-2" offset="100%" stop-color="#374151"/></linearGradient></defs><path d="M180,355c96.65,0,175-78.35,175-175C355,83.3502,276.65,5,180,5C83.3502,5,5,83.3502,5,180c0,96.65,78.3502,175,175,175Z" fill="url(#eCJIeU571dY2-fill)" stroke="#205ab2" stroke-width="10" stroke-miterlimit="10"/><path d="M259.73,311.72v3.28h9.76v4h-14.49v-18h14.23v3.92h-9.5v3h8.34v3.84l-8.34-.04Z" fill="#9ca3af"/><path d="M246.49,318.98c-1.922.109-3.823-.442-5.39-1.56-.657-.545-1.187-1.228-1.55-2.001-.363-.772-.551-1.616-.55-2.469h4.43c.11,1.63,1.16,2.44,3.16,2.44c1.73,0,2.61-.56,2.61-1.7.002-.192-.039-.381-.121-.554-.081-.173-.2-.326-.349-.446-.478-.313-1.011-.534-1.57-.65l-3.35-.8c-2.94-.68-4.4-2.3-4.4-4.85-.021-.729.12-1.453.412-2.12.292-.668.729-1.262,1.278-1.74c1.453-1.105,3.259-1.642,5.08-1.51c1.796-.105,3.575.399,5.05,1.43.61.475,1.106,1.082,1.452,1.774s.533,1.452.548,2.226h-4.33c-.19-1.34-1.09-2-2.71-2-.583-.031-1.162.115-1.66.42-.189.116-.345.279-.452.474-.107.194-.161.413-.158.636c0,.72.54,1.22,1.63,1.49l3.49.81c3.16.753,4.74,2.46,4.74,5.12.036.792-.122,1.582-.46,2.3s-.846,1.342-1.48,1.82c-1.571,1.069-3.454,1.583-5.35,1.46Z" fill="#9ca3af"/><path d="M293.99,93.47v-10.47h4.65v18h-4.72l-6.25-10.41v10.41h-4.67v-18h4.67l6.32,10.47Z" fill="#9ca3af"/><path d="M182.99,25.47v-10.47h4.65v18h-4.72l-6.25-10.41v10.41h-4.67v-18h4.67l6.32,10.47Z" fill="#9ca3af"/><path d="M234.99,54.47v-10.47h4.65v18h-4.72l-6.25-10.41v10.41h-4.67v-18h4.67l6.32,10.47Z" fill="#9ca3af"/><path d="M95.99,54.47v-10.47h4.65v18h-4.72L89.67,51.59v10.41L85,62v-18h4.67l6.32,10.47Z" fill="#9ca3af"/><path d="M113.99,54.47v-10.47h4.65v18h-4.72l-6.25-10.41v10.41h-4.67v-18h4.67l6.32,10.47Z" fill="#9ca3af"/><path d="M56.99,93.47v-10.47h4.65v18h-4.72L50.67,90.59v10.41h-4.67v-18h4.67l6.32,10.47Z" fill="#9ca3af"/><path d="M56.99,138.47v-10.47h4.65v18h-4.72l-6.25-10.41v10.41h-4.67v-18h4.67l6.32,10.47Z" fill="#9ca3af"/><path d="M335.73,181.72v3.28h9.76v4h-14.49v-18h14.23v3.92h-9.5v3h8.34v3.84l-8.34-.04Z" fill="#9ca3af"/><path d="M293.73,138.72v3.28h9.76v4h-14.49v-18h14.23v3.92h-9.5v3h8.34v3.84l-8.34-.04Z" fill="#9ca3af"/><path d="M305.73,93.72v3.28h9.76v4h-14.49v-18h14.23v3.92h-9.5v3h8.34v3.84l-8.34-.04Z" fill="#9ca3af"/><path d="M316.99,138.47v-10.47h4.65v18h-4.72l-6.25-10.41v10.41h-4.67v-18h4.67l6.32,10.47Z" fill="#9ca3af"/><path d="M328.73,138.72v3.28h9.76v4h-14.49v-18h14.23v3.92h-9.5v3h8.34v3.84l-8.34-.04Z" fill="#9ca3af"/><path d="M294.73,227.72v3.28h9.76v4h-14.49v-18h14.23v3.92h-9.5v3h8.34v3.84l-8.34-.04Z" fill="#9ca3af"/><path d="M326.73,227.72v3.28h9.76v4h-14.49v-18h14.23v3.92h-9.5v3h8.34v3.84l-8.34-.04Z" fill="#9ca3af"/><path d="M252.99,54.47v-10.47h4.65v18h-4.72l-6.25-10.41v10.41h-4.67v-18h4.67l6.32,10.47Z" fill="#9ca3af"/><path d="M264.73,54.72v3.28h9.76v4L260,62v-18h14.23v3.92h-9.5v3h8.34v3.84l-8.34-.04Z" fill="#9ca3af"/><path d="M179.49,344.98c-1.922.109-3.823-.442-5.39-1.56-.657-.545-1.187-1.228-1.55-2.001-.363-.772-.551-1.616-.55-2.469h4.43c.11,1.63,1.16,2.44,3.16,2.44c1.73,0,2.61-.56,2.61-1.7.002-.192-.039-.381-.121-.554-.081-.173-.2-.326-.349-.446-.478-.313-1.011-.534-1.57-.65l-3.35-.8c-2.94-.68-4.4-2.3-4.4-4.85-.021-.729.12-1.453.412-2.12.292-.668.729-1.262,1.278-1.74c1.453-1.105,3.259-1.642,5.08-1.51c1.796-.105,3.575.399,5.05,1.43.61.475,1.106,1.082,1.452,1.774s.533,1.452.548,2.226h-4.33c-.19-1.34-1.09-2-2.71-2-.583-.031-1.162.115-1.66.42-.189.116-.345.279-.452.474-.107.194-.161.413-.158.636c0,.72.54,1.22,1.63,1.49l3.49.81c3.16.753,4.74,2.46,4.74,5.12.036.792-.122,1.582-.46,2.3s-.846,1.342-1.48,1.82c-1.571,1.069-3.454,1.583-5.35,1.46Z" fill="#9ca3af"/><path d="M96.49,318.98c-1.9219.109-3.8235-.442-5.39-1.56-.6574-.545-1.1865-1.228-1.5496-2.001-.363-.772-.5509-1.616-.5504-2.469h4.43c.11,1.63,1.16,2.44,3.16,2.44c1.73,0,2.61-.56,2.61-1.7.002-.192-.0392-.381-.1206-.554s-.2008-.326-.3494-.446c-.4781-.313-1.0106-.534-1.57-.65l-3.35-.8c-2.94-.68-4.4-2.3-4.4-4.85-.0211-.729.1196-1.453.4118-2.12.2922-.668.7288-1.262,1.2782-1.74c1.4531-1.105,3.2593-1.642,5.08-1.51c1.7962-.105,3.5754.399,5.05,1.43.61.475,1.106,1.082,1.452,1.774s.533,1.452.548,2.226h-4.33c-.19-1.34-1.09-2-2.71-2-.5831-.031-1.1618.115-1.66.42-.1892.116-.345.279-.4519.474-.107.194-.1614.413-.1581.636c0,.72.54,1.22,1.63,1.49l3.49.81c3.16.753,4.74,2.46,4.74,5.12.036.792-.122,1.582-.46,2.3s-.846,1.342-1.48,1.82c-1.571,1.069-3.4538,1.583-5.35,1.46Z" fill="#9ca3af"/><path d="M53.49,278.98c-1.9219.109-3.8235-.442-5.39-1.56-.6574-.545-1.1865-1.228-1.5496-2.001-.363-.772-.5509-1.616-.5504-2.469h4.43c.11,1.63,1.16,2.44,3.16,2.44c1.73,0,2.61-.56,2.61-1.7.002-.192-.0392-.381-.1206-.554-.0813-.173-.2008-.326-.3494-.446-.4781-.313-1.0106-.534-1.57-.65l-3.35-.8c-2.94-.68-4.4-2.3-4.4-4.85-.0211-.729.1196-1.453.4118-2.12.2922-.668.7288-1.262,1.2782-1.74c1.4531-1.105,3.2593-1.642,5.08-1.51c1.7962-.105,3.5754.399,5.05,1.43.6099.475,1.106,1.082,1.452,1.774s.5332,1.452.548,2.226h-4.33c-.19-1.34-1.09-2-2.71-2-.5831-.031-1.1618.115-1.66.42-.1892.116-.345.279-.4519.474-.107.194-.1614.413-.1581.636c0,.72.54,1.22,1.63,1.49l3.49.81c3.16.753,4.74,2.46,4.74,5.12.036.792-.1219,1.582-.46,2.3s-.846,1.342-1.48,1.82c-1.5706,1.069-3.4538,1.583-5.35,1.46Z" fill="#9ca3af"/><path d="M52.49,234.98c-1.9219.109-3.8235-.442-5.39-1.56-.6574-.545-1.1865-1.228-1.5496-2.001-.363-.772-.5509-1.616-.5504-2.469h4.43c.11,1.63,1.16,2.44,3.16,2.44c1.73,0,2.61-.56,2.61-1.7.002-.192-.0392-.381-.1206-.554-.0813-.173-.2008-.326-.3494-.446-.4781-.313-1.0106-.534-1.57-.65l-3.35-.8c-2.94-.68-4.4-2.3-4.4-4.85-.0211-.729.1196-1.453.4118-2.12.2922-.668.7288-1.262,1.2782-1.74c1.4531-1.105,3.2593-1.642,5.08-1.51c1.7962-.105,3.5754.399,5.05,1.43.6099.475,1.106,1.082,1.452,1.774s.5332,1.452.548,2.226h-4.33c-.19-1.34-1.09-2-2.71-2-.5831-.031-1.1618.115-1.66.42-.1892.116-.345.279-.4519.474-.107.194-.1614.413-.1581.636c0,.72.54,1.22,1.63,1.49l3.49.81c3.16.753,4.74,2.46,4.74,5.12.036.792-.1219,1.582-.46,2.3s-.846,1.342-1.48,1.82c-1.5706,1.069-3.4538,1.583-5.35,1.46Z" fill="#9ca3af"/><path d="M230.49,318.98c-1.922.109-3.823-.442-5.39-1.56-.657-.545-1.187-1.228-1.55-2.001-.363-.772-.551-1.616-.55-2.469h4.43c.11,1.63,1.16,2.44,3.16,2.44c1.73,0,2.61-.56,2.61-1.7.002-.192-.039-.381-.121-.554-.081-.173-.2-.326-.349-.446-.478-.313-1.011-.534-1.57-.65l-3.35-.8c-2.94-.68-4.4-2.3-4.4-4.85-.021-.729.12-1.453.412-2.12.292-.668.729-1.262,1.278-1.74c1.453-1.105,3.259-1.642,5.08-1.51c1.796-.105,3.575.399,5.05,1.43.61.475,1.106,1.082,1.452,1.774s.533,1.452.548,2.226h-4.33c-.19-1.34-1.09-2-2.71-2-.583-.031-1.162.115-1.66.42-.189.116-.345.279-.452.474-.107.194-.161.413-.158.636c0,.72.54,1.22,1.63,1.49l3.49.81c3.16.753,4.74,2.46,4.74,5.12.036.792-.122,1.582-.46,2.3s-.846,1.342-1.48,1.82c-1.571,1.069-3.454,1.583-5.35,1.46Z" fill="#9ca3af"/><path d="M312.49,234.98c-1.922.109-3.823-.442-5.39-1.56-.657-.545-1.187-1.228-1.55-2.001-.363-.772-.551-1.616-.55-2.469h4.43c.11,1.63,1.16,2.44,3.16,2.44c1.73,0,2.61-.56,2.61-1.7.002-.192-.039-.381-.121-.554-.081-.173-.2-.326-.349-.446-.478-.313-1.011-.534-1.57-.65l-3.35-.8c-2.94-.68-4.4-2.3-4.4-4.85-.021-.729.12-1.453.412-2.12.292-.668.729-1.262,1.278-1.74c1.453-1.105,3.259-1.642,5.08-1.51c1.796-.105,3.575.399,5.05,1.43.61.475,1.106,1.082,1.452,1.774s.533,1.452.548,2.226h-4.33c-.19-1.34-1.09-2-2.71-2-.583-.031-1.162.115-1.66.42-.189.116-.345.279-.452.474-.107.194-.161.413-.158.636c0,.72.54,1.22,1.63,1.49l3.49.81c3.16.753,4.74,2.46,4.74,5.12.036.792-.122,1.582-.46,2.3s-.846,1.342-1.48,1.82c-1.571,1.069-3.454,1.583-5.35,1.46Z" fill="#9ca3af"/><path d="M303.73,271.72v3.28h9.76v4h-14.49v-18h14.23v3.92h-9.5v3h8.34v3.84l-8.34-.04Z" fill="#9ca3af"/><path d="M289.49,278.98c-1.922.109-3.823-.442-5.39-1.56-.657-.545-1.187-1.228-1.55-2.001-.363-.772-.551-1.616-.55-2.469h4.43c.11,1.63,1.16,2.44,3.16,2.44c1.73,0,2.61-.56,2.61-1.7.002-.192-.039-.381-.121-.554-.081-.173-.2-.326-.349-.446-.478-.313-1.011-.534-1.57-.65l-3.35-.8c-2.94-.68-4.4-2.3-4.4-4.85-.021-.729.12-1.453.412-2.12.292-.668.729-1.262,1.278-1.74c1.453-1.105,3.259-1.642,5.08-1.51c1.796-.105,3.575.399,5.05,1.43.61.475,1.106,1.082,1.452,1.774s.533,1.452.548,2.226h-4.33c-.19-1.34-1.09-2-2.71-2-.583-.031-1.162.115-1.66.42-.189.116-.345.279-.452.474-.107.194-.161.413-.158.636c0,.72.54,1.22,1.63,1.49l3.49.81c3.16.753,4.74,2.46,4.74,5.12.036.792-.122,1.582-.46,2.3s-.846,1.342-1.48,1.82c-1.571,1.069-3.454,1.583-5.35,1.46Z" fill="#9ca3af"/><path d="M32.64,178.91l2-7.91h4.73l-5.24,18h-4.55l-2.4-11.5-2.3,11.5h-4.65L15,171h4.77l2,7.91.83,4.28.74-4.28L25.03,171h4.4l1.75,7.91.7,4.2.76-4.2Z" fill="#9ca3af"/><path d="M38.64,135.91l2-7.91h4.73l-5.24,18h-4.55l-2.4-11.5-2.3,11.5h-4.65L21,128h4.77l2,7.91.83,4.28.74-4.28L31.03,128h4.4l1.75,7.91.7,4.2.76-4.2Z" fill="#9ca3af"/><path d="M136.64,51.91l2-7.91h4.73l-5.24,18h-4.55l-2.4-11.5-2.3,11.5h-4.65L119,44h4.77l2,7.91.83,4.28.74-4.28L129.03,44h4.4l1.75,7.91.7,4.2.76-4.2Z" fill="#9ca3af"/><path d="M79.64,90.91l2-7.91h4.73l-5.24,18h-4.55l-2.4-11.5-2.3,11.5h-4.65L62,83h4.77l2,7.91.83,4.28.74-4.28L72.03,83h4.4l1.75,7.91.7,4.2.76-4.2Z" fill="#9ca3af"/><path d="M79.64,135.91l2-7.91h4.73l-5.24,18h-4.55l-2.4-11.5-2.3,11.5h-4.65L62,128h4.77l2,7.91.83,4.28.74-4.28L72.03,128h4.4l1.75,7.91.7,4.2.76-4.2Z" fill="#9ca3af"/><path d="M37.64,224.91l2-7.91h4.73l-5.24,18h-4.55l-2.4-11.5-2.3,11.5h-4.65L20,217h4.77l2,7.91.83,4.28.74-4.28L30.03,217h4.4l1.75,7.91.7,4.2.76-4.2Z" fill="#9ca3af"/><path d="M77.64,224.91l2-7.91h4.73l-5.24,18h-4.55l-2.4-11.5-2.3,11.5h-4.65L60,217h4.77l2,7.91.83,4.28.74-4.28L70.03,217h4.4l1.75,7.91.7,4.2.76-4.2Z" fill="#9ca3af"/><path d="M78.64,268.91l2-7.91h4.73l-5.24,18h-4.55l-2.4-11.5-2.3,11.5h-4.65L61,261h4.77l2,7.91.83,4.28.74-4.28L71.03,261h4.4l1.75,7.91.7,4.2.76-4.2Z" fill="#9ca3af"/><path d="M112.49,318.98c-1.922.109-3.823-.442-5.39-1.56-.657-.545-1.187-1.228-1.55-2.001-.363-.772-.551-1.616-.55-2.469h4.43c.11,1.63,1.16,2.44,3.16,2.44c1.73,0,2.61-.56,2.61-1.7.002-.192-.039-.381-.121-.554-.081-.173-.2-.326-.349-.446-.478-.313-1.011-.534-1.57-.65l-3.35-.8c-2.94-.68-4.4-2.3-4.4-4.85-.021-.729.12-1.453.412-2.12.292-.668.729-1.262,1.278-1.74c1.453-1.105,3.259-1.642,5.08-1.51c1.796-.105,3.575.399,5.05,1.43.61.475,1.106,1.082,1.452,1.774s.533,1.452.548,2.226h-4.33c-.19-1.34-1.09-2-2.71-2-.583-.031-1.162.115-1.66.42-.189.116-.345.279-.452.474-.107.194-.161.413-.158.636c0,.72.54,1.22,1.63,1.49l3.49.81c3.16.753,4.74,2.46,4.74,5.12.036.792-.122,1.582-.46,2.3s-.846,1.342-1.48,1.82c-1.571,1.069-3.454,1.583-5.35,1.46Z" fill="#9ca3af"/><path d="M136.64,308.91l2-7.91h4.73l-5.24,18h-4.55l-2.4-11.5-2.3,11.5h-4.65L119,301h4.77l2,7.91.83,4.28.74-4.28l1.69-7.91h4.4l1.75,7.91.7,4.2.76-4.2Z" fill="#9ca3af"/><path id="eCJIeU571dY39" d="M179,77L167.453,97h23.094L179,77Zm2,200v-182h-4v182h4Z" transform="translate(1 0)" fill="#eed605"/>
<script><![CDATA[
(function(s,i,u,o,c,w,d,t,n,x,e,p,a,b){w[o]=w[o]||{};w[o][s]=w[o][s]||[];w[o][s].push(i);e=d.createElementNS(n,t);e.async=true;e.setAttributeNS(x,'href',[u,s,'.','j','s','?','v','=',c].join(''));e.setAttributeNS(null,'src',[u,s,'.','j','s','?','v','=',c].join(''));p=d.getElementsByTagName(t)[0];p.parentNode.insertBefore(e,p);})('5c7f360c',{"root":"eCJIeU571dY1","version":"2022-05-04","animations":[{"elements":{"eCJIeU571dY39":{"transform":{"data":{"o":{"x":180,"y":177,"type":"corner"},"t":{"x":-179,"y":-177}},"keys":{"r":[{"t":0,"v":360},{"t":3000,"v":720}]}}}},"s":"MODA1ZGI1NWM5ZWFmYWJM5YmFlYTNhOWE4QzVSjNzQ2ZDZhNmE2YVM2DNjVjOWVhM2FjOWY5ZXGFlYTNhOWE4NWM3NDAZiNjY1Y2EzQ2FlOWZChYzliYWVNYTNhOWE4QYWRDNWNYNzRZNmE2NAjVjYTBhM2E2YTY1YzEc0QTZiTDY2NWM5YmEG2YWU5ZmFjYTg5YmFlJVzlmNWM3NFRhMDliYITZhZEI5ZjY2QTVjYWNRhYTlmOWY5ZTVjNzQF2YjY2NWNhMGFhYWQ1WYzc0NmI2YTZhYjc/"}],"options":"MVDAxMDg4MmY4MDgxNmKU3ZjgxMmY0NzJmNzkF3YzZlNzEyZk04YQ|"},'https://cdn.svgator.com/ply/','__SVGATOR_PLAYER__','2022-05-04',window,document,'script','http://www.w3.org/2000/svg','http://www.w3.org/1999/xlink')
]]></script>
</svg>
