<svg width="29" height="24" viewBox="0 0 29 24" fill="none" xmlns="http://www.w3.org/2000/svg">
<g filter="url(#filter0_d_6_5)">
<mask id="path-1-outside-1_6_5" maskUnits="userSpaceOnUse" x="4" y="0" width="21" height="16" fill="black">
<rect fill="white" x="4" width="21" height="16"/>
<path d="M7.12998 10.1272C7.12998 10.3672 7.21998 10.5672 7.39998 10.7272C7.56998 10.8972 7.76998 10.9772 8.00998 10.9772H13.89C14.15 10.9772 14.37 11.0672 14.57 11.2572C14.77 11.4472 14.87 11.6772 14.87 11.9372C14.87 12.1972 14.77 12.4372 14.57 12.6272C14.37 12.8172 14.15 12.9172 13.89 12.9172C13.63 12.9172 13.41 12.8172 13.21 12.6172C13.03 12.4572 12.83 12.3772 12.6 12.3772C12.36 12.3772 12.16 12.4572 12 12.6172C11.84 12.7772 11.76 12.9772 11.76 13.2172C11.76 13.4572 11.84 13.6572 12 13.8172C12.53 14.3472 13.16 14.6172 13.89 14.6172C14.63 14.6172 15.26 14.3572 15.77 13.8372C16.28 13.3172 16.55 12.6872 16.55 11.9472C16.55 11.2072 16.29 10.5772 15.77 10.0572C15.25 9.53719 14.62 9.27719 13.89 9.27719H8.00998C7.76998 9.27719 7.56998 9.35719 7.38998 9.52719C7.21998 9.69719 7.12998 9.89719 7.12998 10.1272ZM7.12998 6.11719C7.12998 6.34719 7.21998 6.53719 7.39998 6.69719C7.55998 6.85719 7.76998 6.93719 8.00998 6.93719H18.98C19.72 6.93719 20.35 6.67719 20.87 6.15719C21.39 5.63719 21.65 5.00719 21.65 4.26719C21.65 3.52719 21.39 2.90719 20.87 2.38719C20.35 1.87719 19.72 1.61719 18.98 1.61719C18.22 1.61719 17.6 1.86719 17.1 2.37719C16.94 2.53719 16.87 2.74719 16.87 2.98719C16.87 3.22719 16.95 3.42719 17.1 3.58719C17.25 3.73719 17.45 3.81719 17.7 3.81719C17.94 3.81719 18.14 3.73719 18.32 3.58719C18.51 3.39719 18.73 3.30719 19 3.30719C19.27 3.30719 19.49 3.39719 19.68 3.58719C19.87 3.77719 19.97 4.00719 19.97 4.26719C19.97 4.53719 19.87 4.76719 19.68 4.95719C19.49 5.14719 19.26 5.24719 19 5.24719H8.00998C7.76998 5.24719 7.56998 5.33719 7.38998 5.50719C7.21998 5.68719 7.12998 5.88719 7.12998 6.11719Z"/>
<path d="M5 8.114C5 7.97388 5.08211 7.85923 5.23607 7.76368C5.39003 7.66814 5.58504 7.61719 5.81085 7.61719H18.2199C18.4355 7.61719 18.6202 7.66814 18.7742 7.76368C18.9282 7.85923 19 7.97388 19 8.114C19 8.25413 18.9282 8.36878 18.7742 8.47069C18.6202 8.56623 18.4355 8.61719 18.2199 8.61719H5.82111C5.59531 8.61719 5.40029 8.56623 5.24633 8.47069C5.09238 8.37515 5 8.25413 5 8.114Z"/>
<path d="M7.16601 2.5918C7.16601 2.31185 7.23372 2.06576 7.36914 1.85352C7.50455 1.63997 7.70247 1.5332 7.96289 1.5332C8.11263 1.5332 8.23242 1.55794 8.32226 1.60742C8.4121 1.6569 8.49283 1.72461 8.56445 1.81055H8.56835L8.58007 1.6543C8.58398 1.5957 8.60937 1.56641 8.65625 1.56641H8.82031C8.8789 1.56641 8.9082 1.5957 8.9082 1.6543V3.63281C8.9082 3.88281 8.85026 4.07812 8.73437 4.21875C8.61979 4.36068 8.39257 4.43164 8.05273 4.43164C7.82487 4.43164 7.65429 4.4056 7.54101 4.35352C7.42773 4.30273 7.347 4.2487 7.29882 4.19141C7.26367 4.14844 7.26171 4.11198 7.29296 4.08203L7.40039 3.97656C7.43033 3.94792 7.472 3.95703 7.52539 4.00391C7.5944 4.06641 7.6608 4.11068 7.7246 4.13672C7.78841 4.16406 7.89843 4.17773 8.05468 4.17773C8.23177 4.17773 8.36067 4.13997 8.4414 4.06445C8.52343 3.98893 8.56445 3.83268 8.56445 3.5957V3.47852C8.56445 3.43815 8.56575 3.39844 8.56835 3.35938H8.56445C8.49674 3.44922 8.41666 3.52018 8.32421 3.57227C8.23307 3.62435 8.11263 3.65039 7.96289 3.65039C7.70247 3.65039 7.50455 3.54427 7.36914 3.33203C7.23372 3.11849 7.16601 2.87174 7.16601 2.5918ZM7.52929 2.5918C7.52929 2.83138 7.57031 3.02539 7.65234 3.17383C7.73567 3.32227 7.8763 3.39648 8.07421 3.39648C8.21484 3.39648 8.33138 3.34896 8.42382 3.25391C8.51757 3.15755 8.56445 3.01172 8.56445 2.81641V2.36719C8.56445 2.17188 8.51757 2.02669 8.42382 1.93164C8.33138 1.83529 8.21484 1.78711 8.07421 1.78711C7.8763 1.78711 7.73567 1.86133 7.65234 2.00977C7.57031 2.1582 7.52929 2.35221 7.52929 2.5918Z"/>
<path d="M9.46093 2.90234V1.6543C9.46093 1.5957 9.49023 1.56641 9.54882 1.56641H9.71679C9.77539 1.56641 9.80468 1.5957 9.80468 1.6543V2.80859C9.80468 3.0638 9.847 3.22591 9.93164 3.29492C10.0163 3.36263 10.1211 3.39648 10.2461 3.39648C10.4102 3.39648 10.5358 3.34635 10.623 3.24609C10.7103 3.14453 10.7539 2.97135 10.7539 2.72656V1.6543C10.7539 1.5957 10.7832 1.56641 10.8418 1.56641H11.0098C11.0684 1.56641 11.0977 1.5957 11.0977 1.6543V3.5293C11.0977 3.58789 11.0684 3.61719 11.0098 3.61719H10.8457C10.7871 3.61719 10.7578 3.58789 10.7578 3.5293V3.37305H10.75C10.6654 3.4668 10.5742 3.53646 10.4766 3.58203C10.3789 3.6276 10.2598 3.65039 10.1191 3.65039C9.89127 3.65039 9.7246 3.58398 9.61914 3.45117C9.51367 3.31706 9.46093 3.13411 9.46093 2.90234Z"/>
<path d="M11.5723 3.42578C11.5319 3.38802 11.5234 3.35286 11.5469 3.32031L11.6348 3.19727C11.6634 3.1582 11.7057 3.16016 11.7617 3.20312C11.8385 3.26172 11.9238 3.30859 12.0176 3.34375C12.1126 3.37891 12.2207 3.39648 12.3418 3.39648C12.4134 3.39648 12.4772 3.38802 12.5332 3.37109C12.5892 3.35286 12.638 3.31966 12.6797 3.27148C12.7227 3.22331 12.7441 3.15885 12.7441 3.07812C12.7441 3.03125 12.7337 2.98698 12.7129 2.94531C12.6934 2.90365 12.6621 2.87044 12.6191 2.8457C12.5775 2.81966 12.5365 2.79948 12.4961 2.78516C12.4297 2.76042 12.3633 2.74023 12.2969 2.72461C12.2318 2.70768 12.1458 2.68229 12.0391 2.64844C11.9674 2.6263 11.8997 2.59505 11.8359 2.55469C11.7721 2.51302 11.7161 2.45703 11.668 2.38672C11.6211 2.31641 11.5977 2.2194 11.5977 2.0957C11.5977 1.9694 11.6361 1.86068 11.7129 1.76953C11.7897 1.67839 11.8861 1.61654 12.0019 1.58398C12.1178 1.55013 12.2305 1.5332 12.3398 1.5332C12.5013 1.5332 12.6309 1.55208 12.7285 1.58984C12.8275 1.6263 12.9128 1.66992 12.9844 1.7207C13.026 1.75065 13.0319 1.78516 13.0019 1.82422L12.9141 1.94141C12.8867 1.97917 12.8444 1.97786 12.7871 1.9375C12.7389 1.90365 12.6706 1.87174 12.582 1.8418C12.4935 1.81185 12.416 1.79688 12.3496 1.79688C12.2676 1.79688 12.1973 1.80599 12.1387 1.82422C12.0801 1.84245 12.0325 1.8737 11.9961 1.91797C11.9596 1.96224 11.9414 2.01432 11.9414 2.07422C11.9414 2.11979 11.9486 2.16081 11.9629 2.19727C11.9772 2.23242 12.0039 2.26497 12.043 2.29492C12.082 2.32487 12.1367 2.34896 12.207 2.36719C12.3164 2.39583 12.416 2.42188 12.5059 2.44531C12.597 2.46875 12.679 2.4974 12.7519 2.53125C12.847 2.57552 12.9199 2.62435 12.9707 2.67773C13.0228 2.73112 13.0586 2.78906 13.0781 2.85156C13.0977 2.91276 13.1074 2.98112 13.1074 3.05664C13.1074 3.19596 13.0658 3.3138 12.9824 3.41016C12.9004 3.50651 12.8086 3.57096 12.707 3.60352C12.6055 3.63477 12.4831 3.65039 12.3398 3.65039C12.1458 3.65039 11.9792 3.62305 11.8398 3.56836C11.7018 3.51237 11.6126 3.46484 11.5723 3.42578Z"/>
<path d="M13.3965 1.82422C13.3379 1.82422 13.3086 1.80143 13.3086 1.75586V1.63477C13.3086 1.58919 13.3379 1.56641 13.3965 1.56641H13.6269V1.39062C13.6269 1.36458 13.6335 1.33984 13.6465 1.31641L13.7832 1.06836C13.8079 1.02279 13.8281 1 13.8437 1H13.9121C13.9512 1 13.9707 1.02279 13.9707 1.06836V1.56641H14.3867C14.4453 1.56641 14.4746 1.58919 14.4746 1.63477V1.75586C14.4746 1.80143 14.4453 1.82422 14.3867 1.82422H13.9707V3.06836C13.9707 3.20508 13.9909 3.29427 14.0312 3.33594C14.0729 3.3763 14.1224 3.39648 14.1797 3.39648C14.224 3.39648 14.2767 3.38346 14.3379 3.35742C14.4004 3.33138 14.4434 3.30924 14.4668 3.29102C14.4902 3.27279 14.5085 3.27865 14.5215 3.30859L14.5859 3.45898C14.5963 3.48503 14.5885 3.50586 14.5625 3.52148C14.5117 3.55143 14.4375 3.58073 14.3398 3.60938C14.2422 3.63672 14.1445 3.65039 14.0469 3.65039C13.9115 3.65039 13.8073 3.60156 13.7344 3.50391C13.6628 3.40625 13.6269 3.26823 13.6269 3.08984V1.82422H13.3965Z"/>
<path d="M14.8965 3.42578C14.8561 3.38802 14.8477 3.35286 14.8711 3.32031L14.959 3.19727C14.9876 3.1582 15.0299 3.16016 15.0859 3.20312C15.1628 3.26172 15.248 3.30859 15.3418 3.34375C15.4368 3.37891 15.5449 3.39648 15.666 3.39648C15.7376 3.39648 15.8014 3.38802 15.8574 3.37109C15.9134 3.35286 15.9622 3.31966 16.0039 3.27148C16.0469 3.22331 16.0684 3.15885 16.0684 3.07812C16.0684 3.03125 16.0579 2.98698 16.0371 2.94531C16.0176 2.90365 15.9863 2.87044 15.9434 2.8457C15.9017 2.81966 15.8607 2.79948 15.8203 2.78516C15.7539 2.76042 15.6875 2.74023 15.6211 2.72461C15.556 2.70768 15.47 2.68229 15.3633 2.64844C15.2917 2.6263 15.224 2.59505 15.1602 2.55469C15.0963 2.51302 15.0404 2.45703 14.9922 2.38672C14.9453 2.31641 14.9219 2.2194 14.9219 2.0957C14.9219 1.9694 14.9603 1.86068 15.0371 1.76953C15.1139 1.67839 15.2103 1.61654 15.3262 1.58398C15.4421 1.55013 15.5547 1.5332 15.6641 1.5332C15.8255 1.5332 15.9551 1.55208 16.0527 1.58984C16.1517 1.6263 16.237 1.66992 16.3086 1.7207C16.3503 1.75065 16.3561 1.78516 16.3262 1.82422L16.2383 1.94141C16.2109 1.97917 16.1686 1.97786 16.1113 1.9375C16.0631 1.90365 15.9948 1.87174 15.9062 1.8418C15.8177 1.81185 15.7402 1.79688 15.6738 1.79688C15.5918 1.79688 15.5215 1.80599 15.4629 1.82422C15.4043 1.84245 15.3568 1.8737 15.3203 1.91797C15.2838 1.96224 15.2656 2.01432 15.2656 2.07422C15.2656 2.11979 15.2728 2.16081 15.2871 2.19727C15.3014 2.23242 15.3281 2.26497 15.3672 2.29492C15.4062 2.32487 15.4609 2.34896 15.5312 2.36719C15.6406 2.39583 15.7402 2.42188 15.8301 2.44531C15.9212 2.46875 16.0033 2.4974 16.0762 2.53125C16.1712 2.57552 16.2441 2.62435 16.2949 2.67773C16.347 2.73112 16.3828 2.78906 16.4023 2.85156C16.4219 2.91276 16.4316 2.98112 16.4316 3.05664C16.4316 3.19596 16.39 3.3138 16.3066 3.41016C16.2246 3.50651 16.1328 3.57096 16.0312 3.60352C15.9297 3.63477 15.8073 3.65039 15.6641 3.65039C15.47 3.65039 15.3034 3.62305 15.1641 3.56836C15.026 3.51237 14.9368 3.46484 14.8965 3.42578Z"/>
<path d="M16.8152 13C16.7567 13 16.7274 12.9707 16.7274 12.9121V10.2051C16.7274 10.1465 16.7567 10.1172 16.8152 10.1172H16.9832C17.0418 10.1172 17.0711 10.1465 17.0711 10.2051V11.8301C17.0711 11.8691 17.0698 11.9082 17.0672 11.9473H17.0711L17.8621 11C17.8908 10.9661 17.9253 10.9492 17.9656 10.9492H18.1434C18.2423 10.9492 18.2593 10.9876 18.1942 11.0645L17.5809 11.7949L18.282 12.8848C18.3315 12.9616 18.3146 13 18.2313 13H18.0399C17.9969 13 17.9598 12.9759 17.9285 12.9277L17.366 12.0508L17.0711 12.4023V12.9121C17.0711 12.9707 17.0418 13 16.9832 13H16.8152Z"/>
<path d="M18.7762 13C18.7176 13 18.6883 12.9707 18.6883 12.9121V11.0371C18.6883 10.9785 18.7176 10.9492 18.7762 10.9492H18.9402C18.9988 10.9492 19.0281 10.9785 19.0281 11.0371V11.1934H19.0359C19.1206 11.0996 19.2124 11.0299 19.3113 10.9844C19.4103 10.9388 19.5054 10.916 19.5965 10.916C19.7645 10.916 19.8934 10.9583 19.9832 11.043C20.0744 11.1263 20.133 11.2103 20.159 11.2949H20.1668C20.2384 11.1882 20.3289 11.0983 20.4383 11.0254C20.5477 10.9525 20.6642 10.916 20.7879 10.916C20.9949 10.916 21.1512 10.9831 21.2567 11.1172C21.3621 11.25 21.4149 11.4323 21.4149 11.6641V12.9121C21.4149 12.9707 21.3856 13 21.327 13H21.159C21.1004 13 21.0711 12.9707 21.0711 12.9121V11.7773C21.0711 11.5221 21.0392 11.3574 20.9754 11.2832C20.9116 11.2077 20.8133 11.1699 20.6805 11.1699C20.5503 11.1699 20.4415 11.2259 20.3543 11.3379C20.2671 11.4486 20.2234 11.6159 20.2234 11.8398V12.9121C20.2234 12.9707 20.1942 13 20.1356 13H19.9676C19.909 13 19.8797 12.9707 19.8797 12.9121V11.7773C19.8797 11.5221 19.8478 11.3574 19.784 11.2832C19.7202 11.2077 19.6219 11.1699 19.4891 11.1699C19.3589 11.1699 19.2501 11.2207 19.1629 11.3223C19.0757 11.4225 19.032 11.5951 19.032 11.8398V12.9121C19.032 12.9707 19.0027 13 18.9442 13H18.7762Z"/>
<path d="M22.0535 13C21.9949 13 21.9656 12.9707 21.9656 12.9121V10.2051C21.9656 10.1465 21.9949 10.1172 22.0535 10.1172H22.2215C22.2801 10.1172 22.3094 10.1465 22.3094 10.2051V11.0762C22.3094 11.1152 22.3081 11.1543 22.3055 11.1934H22.3133C22.3979 11.0996 22.4891 11.0299 22.5867 10.9844C22.6844 10.9388 22.8061 10.916 22.952 10.916C23.1889 10.916 23.3589 10.9831 23.4617 11.1172C23.5659 11.25 23.618 11.4323 23.618 11.6641V12.9121C23.618 12.9707 23.5887 13 23.5301 13H23.3621C23.3035 13 23.2742 12.9707 23.2742 12.9121V11.7578C23.2742 11.5026 23.2319 11.3411 23.1473 11.2734C23.0626 11.2044 22.9552 11.1699 22.825 11.1699C22.6557 11.1699 22.5275 11.2207 22.4402 11.3223C22.353 11.4225 22.3094 11.5951 22.3094 11.8398V12.9121C22.3094 12.9707 22.2801 13 22.2215 13H22.0535Z"/>
</mask>
<path d="M7.12998 10.1272C7.12998 10.3672 7.21998 10.5672 7.39998 10.7272C7.56998 10.8972 7.76998 10.9772 8.00998 10.9772H13.89C14.15 10.9772 14.37 11.0672 14.57 11.2572C14.77 11.4472 14.87 11.6772 14.87 11.9372C14.87 12.1972 14.77 12.4372 14.57 12.6272C14.37 12.8172 14.15 12.9172 13.89 12.9172C13.63 12.9172 13.41 12.8172 13.21 12.6172C13.03 12.4572 12.83 12.3772 12.6 12.3772C12.36 12.3772 12.16 12.4572 12 12.6172C11.84 12.7772 11.76 12.9772 11.76 13.2172C11.76 13.4572 11.84 13.6572 12 13.8172C12.53 14.3472 13.16 14.6172 13.89 14.6172C14.63 14.6172 15.26 14.3572 15.77 13.8372C16.28 13.3172 16.55 12.6872 16.55 11.9472C16.55 11.2072 16.29 10.5772 15.77 10.0572C15.25 9.53719 14.62 9.27719 13.89 9.27719H8.00998C7.76998 9.27719 7.56998 9.35719 7.38998 9.52719C7.21998 9.69719 7.12998 9.89719 7.12998 10.1272ZM7.12998 6.11719C7.12998 6.34719 7.21998 6.53719 7.39998 6.69719C7.55998 6.85719 7.76998 6.93719 8.00998 6.93719H18.98C19.72 6.93719 20.35 6.67719 20.87 6.15719C21.39 5.63719 21.65 5.00719 21.65 4.26719C21.65 3.52719 21.39 2.90719 20.87 2.38719C20.35 1.87719 19.72 1.61719 18.98 1.61719C18.22 1.61719 17.6 1.86719 17.1 2.37719C16.94 2.53719 16.87 2.74719 16.87 2.98719C16.87 3.22719 16.95 3.42719 17.1 3.58719C17.25 3.73719 17.45 3.81719 17.7 3.81719C17.94 3.81719 18.14 3.73719 18.32 3.58719C18.51 3.39719 18.73 3.30719 19 3.30719C19.27 3.30719 19.49 3.39719 19.68 3.58719C19.87 3.77719 19.97 4.00719 19.97 4.26719C19.97 4.53719 19.87 4.76719 19.68 4.95719C19.49 5.14719 19.26 5.24719 19 5.24719H8.00998C7.76998 5.24719 7.56998 5.33719 7.38998 5.50719C7.21998 5.68719 7.12998 5.88719 7.12998 6.11719Z" fill="#05439F"/>
<path d="M5 8.114C5 7.97388 5.08211 7.85923 5.23607 7.76368C5.39003 7.66814 5.58504 7.61719 5.81085 7.61719H18.2199C18.4355 7.61719 18.6202 7.66814 18.7742 7.76368C18.9282 7.85923 19 7.97388 19 8.114C19 8.25413 18.9282 8.36878 18.7742 8.47069C18.6202 8.56623 18.4355 8.61719 18.2199 8.61719H5.82111C5.59531 8.61719 5.40029 8.56623 5.24633 8.47069C5.09238 8.37515 5 8.25413 5 8.114Z" fill="#05439F"/>
<path d="M7.16601 2.5918C7.16601 2.31185 7.23372 2.06576 7.36914 1.85352C7.50455 1.63997 7.70247 1.5332 7.96289 1.5332C8.11263 1.5332 8.23242 1.55794 8.32226 1.60742C8.4121 1.6569 8.49283 1.72461 8.56445 1.81055H8.56835L8.58007 1.6543C8.58398 1.5957 8.60937 1.56641 8.65625 1.56641H8.82031C8.8789 1.56641 8.9082 1.5957 8.9082 1.6543V3.63281C8.9082 3.88281 8.85026 4.07812 8.73437 4.21875C8.61979 4.36068 8.39257 4.43164 8.05273 4.43164C7.82487 4.43164 7.65429 4.4056 7.54101 4.35352C7.42773 4.30273 7.347 4.2487 7.29882 4.19141C7.26367 4.14844 7.26171 4.11198 7.29296 4.08203L7.40039 3.97656C7.43033 3.94792 7.472 3.95703 7.52539 4.00391C7.5944 4.06641 7.6608 4.11068 7.7246 4.13672C7.78841 4.16406 7.89843 4.17773 8.05468 4.17773C8.23177 4.17773 8.36067 4.13997 8.4414 4.06445C8.52343 3.98893 8.56445 3.83268 8.56445 3.5957V3.47852C8.56445 3.43815 8.56575 3.39844 8.56835 3.35938H8.56445C8.49674 3.44922 8.41666 3.52018 8.32421 3.57227C8.23307 3.62435 8.11263 3.65039 7.96289 3.65039C7.70247 3.65039 7.50455 3.54427 7.36914 3.33203C7.23372 3.11849 7.16601 2.87174 7.16601 2.5918ZM7.52929 2.5918C7.52929 2.83138 7.57031 3.02539 7.65234 3.17383C7.73567 3.32227 7.8763 3.39648 8.07421 3.39648C8.21484 3.39648 8.33138 3.34896 8.42382 3.25391C8.51757 3.15755 8.56445 3.01172 8.56445 2.81641V2.36719C8.56445 2.17188 8.51757 2.02669 8.42382 1.93164C8.33138 1.83529 8.21484 1.78711 8.07421 1.78711C7.8763 1.78711 7.73567 1.86133 7.65234 2.00977C7.57031 2.1582 7.52929 2.35221 7.52929 2.5918Z" fill="#05439F"/>
<path d="M9.46093 2.90234V1.6543C9.46093 1.5957 9.49023 1.56641 9.54882 1.56641H9.71679C9.77539 1.56641 9.80468 1.5957 9.80468 1.6543V2.80859C9.80468 3.0638 9.847 3.22591 9.93164 3.29492C10.0163 3.36263 10.1211 3.39648 10.2461 3.39648C10.4102 3.39648 10.5358 3.34635 10.623 3.24609C10.7103 3.14453 10.7539 2.97135 10.7539 2.72656V1.6543C10.7539 1.5957 10.7832 1.56641 10.8418 1.56641H11.0098C11.0684 1.56641 11.0977 1.5957 11.0977 1.6543V3.5293C11.0977 3.58789 11.0684 3.61719 11.0098 3.61719H10.8457C10.7871 3.61719 10.7578 3.58789 10.7578 3.5293V3.37305H10.75C10.6654 3.4668 10.5742 3.53646 10.4766 3.58203C10.3789 3.6276 10.2598 3.65039 10.1191 3.65039C9.89127 3.65039 9.7246 3.58398 9.61914 3.45117C9.51367 3.31706 9.46093 3.13411 9.46093 2.90234Z" fill="#05439F"/>
<path d="M11.5723 3.42578C11.5319 3.38802 11.5234 3.35286 11.5469 3.32031L11.6348 3.19727C11.6634 3.1582 11.7057 3.16016 11.7617 3.20312C11.8385 3.26172 11.9238 3.30859 12.0176 3.34375C12.1126 3.37891 12.2207 3.39648 12.3418 3.39648C12.4134 3.39648 12.4772 3.38802 12.5332 3.37109C12.5892 3.35286 12.638 3.31966 12.6797 3.27148C12.7227 3.22331 12.7441 3.15885 12.7441 3.07812C12.7441 3.03125 12.7337 2.98698 12.7129 2.94531C12.6934 2.90365 12.6621 2.87044 12.6191 2.8457C12.5775 2.81966 12.5365 2.79948 12.4961 2.78516C12.4297 2.76042 12.3633 2.74023 12.2969 2.72461C12.2318 2.70768 12.1458 2.68229 12.0391 2.64844C11.9674 2.6263 11.8997 2.59505 11.8359 2.55469C11.7721 2.51302 11.7161 2.45703 11.668 2.38672C11.6211 2.31641 11.5977 2.2194 11.5977 2.0957C11.5977 1.9694 11.6361 1.86068 11.7129 1.76953C11.7897 1.67839 11.8861 1.61654 12.0019 1.58398C12.1178 1.55013 12.2305 1.5332 12.3398 1.5332C12.5013 1.5332 12.6309 1.55208 12.7285 1.58984C12.8275 1.6263 12.9128 1.66992 12.9844 1.7207C13.026 1.75065 13.0319 1.78516 13.0019 1.82422L12.9141 1.94141C12.8867 1.97917 12.8444 1.97786 12.7871 1.9375C12.7389 1.90365 12.6706 1.87174 12.582 1.8418C12.4935 1.81185 12.416 1.79688 12.3496 1.79688C12.2676 1.79688 12.1973 1.80599 12.1387 1.82422C12.0801 1.84245 12.0325 1.8737 11.9961 1.91797C11.9596 1.96224 11.9414 2.01432 11.9414 2.07422C11.9414 2.11979 11.9486 2.16081 11.9629 2.19727C11.9772 2.23242 12.0039 2.26497 12.043 2.29492C12.082 2.32487 12.1367 2.34896 12.207 2.36719C12.3164 2.39583 12.416 2.42188 12.5059 2.44531C12.597 2.46875 12.679 2.4974 12.7519 2.53125C12.847 2.57552 12.9199 2.62435 12.9707 2.67773C13.0228 2.73112 13.0586 2.78906 13.0781 2.85156C13.0977 2.91276 13.1074 2.98112 13.1074 3.05664C13.1074 3.19596 13.0658 3.3138 12.9824 3.41016C12.9004 3.50651 12.8086 3.57096 12.707 3.60352C12.6055 3.63477 12.4831 3.65039 12.3398 3.65039C12.1458 3.65039 11.9792 3.62305 11.8398 3.56836C11.7018 3.51237 11.6126 3.46484 11.5723 3.42578Z" fill="#05439F"/>
<path d="M13.3965 1.82422C13.3379 1.82422 13.3086 1.80143 13.3086 1.75586V1.63477C13.3086 1.58919 13.3379 1.56641 13.3965 1.56641H13.6269V1.39062C13.6269 1.36458 13.6335 1.33984 13.6465 1.31641L13.7832 1.06836C13.8079 1.02279 13.8281 1 13.8437 1H13.9121C13.9512 1 13.9707 1.02279 13.9707 1.06836V1.56641H14.3867C14.4453 1.56641 14.4746 1.58919 14.4746 1.63477V1.75586C14.4746 1.80143 14.4453 1.82422 14.3867 1.82422H13.9707V3.06836C13.9707 3.20508 13.9909 3.29427 14.0312 3.33594C14.0729 3.3763 14.1224 3.39648 14.1797 3.39648C14.224 3.39648 14.2767 3.38346 14.3379 3.35742C14.4004 3.33138 14.4434 3.30924 14.4668 3.29102C14.4902 3.27279 14.5085 3.27865 14.5215 3.30859L14.5859 3.45898C14.5963 3.48503 14.5885 3.50586 14.5625 3.52148C14.5117 3.55143 14.4375 3.58073 14.3398 3.60938C14.2422 3.63672 14.1445 3.65039 14.0469 3.65039C13.9115 3.65039 13.8073 3.60156 13.7344 3.50391C13.6628 3.40625 13.6269 3.26823 13.6269 3.08984V1.82422H13.3965Z" fill="#05439F"/>
<path d="M14.8965 3.42578C14.8561 3.38802 14.8477 3.35286 14.8711 3.32031L14.959 3.19727C14.9876 3.1582 15.0299 3.16016 15.0859 3.20312C15.1628 3.26172 15.248 3.30859 15.3418 3.34375C15.4368 3.37891 15.5449 3.39648 15.666 3.39648C15.7376 3.39648 15.8014 3.38802 15.8574 3.37109C15.9134 3.35286 15.9622 3.31966 16.0039 3.27148C16.0469 3.22331 16.0684 3.15885 16.0684 3.07812C16.0684 3.03125 16.0579 2.98698 16.0371 2.94531C16.0176 2.90365 15.9863 2.87044 15.9434 2.8457C15.9017 2.81966 15.8607 2.79948 15.8203 2.78516C15.7539 2.76042 15.6875 2.74023 15.6211 2.72461C15.556 2.70768 15.47 2.68229 15.3633 2.64844C15.2917 2.6263 15.224 2.59505 15.1602 2.55469C15.0963 2.51302 15.0404 2.45703 14.9922 2.38672C14.9453 2.31641 14.9219 2.2194 14.9219 2.0957C14.9219 1.9694 14.9603 1.86068 15.0371 1.76953C15.1139 1.67839 15.2103 1.61654 15.3262 1.58398C15.4421 1.55013 15.5547 1.5332 15.6641 1.5332C15.8255 1.5332 15.9551 1.55208 16.0527 1.58984C16.1517 1.6263 16.237 1.66992 16.3086 1.7207C16.3503 1.75065 16.3561 1.78516 16.3262 1.82422L16.2383 1.94141C16.2109 1.97917 16.1686 1.97786 16.1113 1.9375C16.0631 1.90365 15.9948 1.87174 15.9062 1.8418C15.8177 1.81185 15.7402 1.79688 15.6738 1.79688C15.5918 1.79688 15.5215 1.80599 15.4629 1.82422C15.4043 1.84245 15.3568 1.8737 15.3203 1.91797C15.2838 1.96224 15.2656 2.01432 15.2656 2.07422C15.2656 2.11979 15.2728 2.16081 15.2871 2.19727C15.3014 2.23242 15.3281 2.26497 15.3672 2.29492C15.4062 2.32487 15.4609 2.34896 15.5312 2.36719C15.6406 2.39583 15.7402 2.42188 15.8301 2.44531C15.9212 2.46875 16.0033 2.4974 16.0762 2.53125C16.1712 2.57552 16.2441 2.62435 16.2949 2.67773C16.347 2.73112 16.3828 2.78906 16.4023 2.85156C16.4219 2.91276 16.4316 2.98112 16.4316 3.05664C16.4316 3.19596 16.39 3.3138 16.3066 3.41016C16.2246 3.50651 16.1328 3.57096 16.0312 3.60352C15.9297 3.63477 15.8073 3.65039 15.6641 3.65039C15.47 3.65039 15.3034 3.62305 15.1641 3.56836C15.026 3.51237 14.9368 3.46484 14.8965 3.42578Z" fill="#05439F"/>
<path d="M16.8152 13C16.7567 13 16.7274 12.9707 16.7274 12.9121V10.2051C16.7274 10.1465 16.7567 10.1172 16.8152 10.1172H16.9832C17.0418 10.1172 17.0711 10.1465 17.0711 10.2051V11.8301C17.0711 11.8691 17.0698 11.9082 17.0672 11.9473H17.0711L17.8621 11C17.8908 10.9661 17.9253 10.9492 17.9656 10.9492H18.1434C18.2423 10.9492 18.2593 10.9876 18.1942 11.0645L17.5809 11.7949L18.282 12.8848C18.3315 12.9616 18.3146 13 18.2313 13H18.0399C17.9969 13 17.9598 12.9759 17.9285 12.9277L17.366 12.0508L17.0711 12.4023V12.9121C17.0711 12.9707 17.0418 13 16.9832 13H16.8152Z" fill="#05439F"/>
<path d="M18.7762 13C18.7176 13 18.6883 12.9707 18.6883 12.9121V11.0371C18.6883 10.9785 18.7176 10.9492 18.7762 10.9492H18.9402C18.9988 10.9492 19.0281 10.9785 19.0281 11.0371V11.1934H19.0359C19.1206 11.0996 19.2124 11.0299 19.3113 10.9844C19.4103 10.9388 19.5054 10.916 19.5965 10.916C19.7645 10.916 19.8934 10.9583 19.9832 11.043C20.0744 11.1263 20.133 11.2103 20.159 11.2949H20.1668C20.2384 11.1882 20.3289 11.0983 20.4383 11.0254C20.5477 10.9525 20.6642 10.916 20.7879 10.916C20.9949 10.916 21.1512 10.9831 21.2567 11.1172C21.3621 11.25 21.4149 11.4323 21.4149 11.6641V12.9121C21.4149 12.9707 21.3856 13 21.327 13H21.159C21.1004 13 21.0711 12.9707 21.0711 12.9121V11.7773C21.0711 11.5221 21.0392 11.3574 20.9754 11.2832C20.9116 11.2077 20.8133 11.1699 20.6805 11.1699C20.5503 11.1699 20.4415 11.2259 20.3543 11.3379C20.2671 11.4486 20.2234 11.6159 20.2234 11.8398V12.9121C20.2234 12.9707 20.1942 13 20.1356 13H19.9676C19.909 13 19.8797 12.9707 19.8797 12.9121V11.7773C19.8797 11.5221 19.8478 11.3574 19.784 11.2832C19.7202 11.2077 19.6219 11.1699 19.4891 11.1699C19.3589 11.1699 19.2501 11.2207 19.1629 11.3223C19.0757 11.4225 19.032 11.5951 19.032 11.8398V12.9121C19.032 12.9707 19.0027 13 18.9442 13H18.7762Z" fill="#05439F"/>
<path d="M22.0535 13C21.9949 13 21.9656 12.9707 21.9656 12.9121V10.2051C21.9656 10.1465 21.9949 10.1172 22.0535 10.1172H22.2215C22.2801 10.1172 22.3094 10.1465 22.3094 10.2051V11.0762C22.3094 11.1152 22.3081 11.1543 22.3055 11.1934H22.3133C22.3979 11.0996 22.4891 11.0299 22.5867 10.9844C22.6844 10.9388 22.8061 10.916 22.952 10.916C23.1889 10.916 23.3589 10.9831 23.4617 11.1172C23.5659 11.25 23.618 11.4323 23.618 11.6641V12.9121C23.618 12.9707 23.5887 13 23.5301 13H23.3621C23.3035 13 23.2742 12.9707 23.2742 12.9121V11.7578C23.2742 11.5026 23.2319 11.3411 23.1473 11.2734C23.0626 11.2044 22.9552 11.1699 22.825 11.1699C22.6557 11.1699 22.5275 11.2207 22.4402 11.3223C22.353 11.4225 22.3094 11.5951 22.3094 11.8398V12.9121C22.3094 12.9707 22.2801 13 22.2215 13H22.0535Z" fill="#05439F"/>
<path d="M7.12998 10.1272C7.12998 10.3672 7.21998 10.5672 7.39998 10.7272C7.56998 10.8972 7.76998 10.9772 8.00998 10.9772H13.89C14.15 10.9772 14.37 11.0672 14.57 11.2572C14.77 11.4472 14.87 11.6772 14.87 11.9372C14.87 12.1972 14.77 12.4372 14.57 12.6272C14.37 12.8172 14.15 12.9172 13.89 12.9172C13.63 12.9172 13.41 12.8172 13.21 12.6172C13.03 12.4572 12.83 12.3772 12.6 12.3772C12.36 12.3772 12.16 12.4572 12 12.6172C11.84 12.7772 11.76 12.9772 11.76 13.2172C11.76 13.4572 11.84 13.6572 12 13.8172C12.53 14.3472 13.16 14.6172 13.89 14.6172C14.63 14.6172 15.26 14.3572 15.77 13.8372C16.28 13.3172 16.55 12.6872 16.55 11.9472C16.55 11.2072 16.29 10.5772 15.77 10.0572C15.25 9.53719 14.62 9.27719 13.89 9.27719H8.00998C7.76998 9.27719 7.56998 9.35719 7.38998 9.52719C7.21998 9.69719 7.12998 9.89719 7.12998 10.1272ZM7.12998 6.11719C7.12998 6.34719 7.21998 6.53719 7.39998 6.69719C7.55998 6.85719 7.76998 6.93719 8.00998 6.93719H18.98C19.72 6.93719 20.35 6.67719 20.87 6.15719C21.39 5.63719 21.65 5.00719 21.65 4.26719C21.65 3.52719 21.39 2.90719 20.87 2.38719C20.35 1.87719 19.72 1.61719 18.98 1.61719C18.22 1.61719 17.6 1.86719 17.1 2.37719C16.94 2.53719 16.87 2.74719 16.87 2.98719C16.87 3.22719 16.95 3.42719 17.1 3.58719C17.25 3.73719 17.45 3.81719 17.7 3.81719C17.94 3.81719 18.14 3.73719 18.32 3.58719C18.51 3.39719 18.73 3.30719 19 3.30719C19.27 3.30719 19.49 3.39719 19.68 3.58719C19.87 3.77719 19.97 4.00719 19.97 4.26719C19.97 4.53719 19.87 4.76719 19.68 4.95719C19.49 5.14719 19.26 5.24719 19 5.24719H8.00998C7.76998 5.24719 7.56998 5.33719 7.38998 5.50719C7.21998 5.68719 7.12998 5.88719 7.12998 6.11719Z" stroke="#BEC1C6" mask="url(#path-1-outside-1_6_5)"/>
<path d="M5 8.114C5 7.97388 5.08211 7.85923 5.23607 7.76368C5.39003 7.66814 5.58504 7.61719 5.81085 7.61719H18.2199C18.4355 7.61719 18.6202 7.66814 18.7742 7.76368C18.9282 7.85923 19 7.97388 19 8.114C19 8.25413 18.9282 8.36878 18.7742 8.47069C18.6202 8.56623 18.4355 8.61719 18.2199 8.61719H5.82111C5.59531 8.61719 5.40029 8.56623 5.24633 8.47069C5.09238 8.37515 5 8.25413 5 8.114Z" stroke="#BEC1C6" mask="url(#path-1-outside-1_6_5)"/>
<path d="M7.16601 2.5918C7.16601 2.31185 7.23372 2.06576 7.36914 1.85352C7.50455 1.63997 7.70247 1.5332 7.96289 1.5332C8.11263 1.5332 8.23242 1.55794 8.32226 1.60742C8.4121 1.6569 8.49283 1.72461 8.56445 1.81055H8.56835L8.58007 1.6543C8.58398 1.5957 8.60937 1.56641 8.65625 1.56641H8.82031C8.8789 1.56641 8.9082 1.5957 8.9082 1.6543V3.63281C8.9082 3.88281 8.85026 4.07812 8.73437 4.21875C8.61979 4.36068 8.39257 4.43164 8.05273 4.43164C7.82487 4.43164 7.65429 4.4056 7.54101 4.35352C7.42773 4.30273 7.347 4.2487 7.29882 4.19141C7.26367 4.14844 7.26171 4.11198 7.29296 4.08203L7.40039 3.97656C7.43033 3.94792 7.472 3.95703 7.52539 4.00391C7.5944 4.06641 7.6608 4.11068 7.7246 4.13672C7.78841 4.16406 7.89843 4.17773 8.05468 4.17773C8.23177 4.17773 8.36067 4.13997 8.4414 4.06445C8.52343 3.98893 8.56445 3.83268 8.56445 3.5957V3.47852C8.56445 3.43815 8.56575 3.39844 8.56835 3.35938H8.56445C8.49674 3.44922 8.41666 3.52018 8.32421 3.57227C8.23307 3.62435 8.11263 3.65039 7.96289 3.65039C7.70247 3.65039 7.50455 3.54427 7.36914 3.33203C7.23372 3.11849 7.16601 2.87174 7.16601 2.5918ZM7.52929 2.5918C7.52929 2.83138 7.57031 3.02539 7.65234 3.17383C7.73567 3.32227 7.8763 3.39648 8.07421 3.39648C8.21484 3.39648 8.33138 3.34896 8.42382 3.25391C8.51757 3.15755 8.56445 3.01172 8.56445 2.81641V2.36719C8.56445 2.17188 8.51757 2.02669 8.42382 1.93164C8.33138 1.83529 8.21484 1.78711 8.07421 1.78711C7.8763 1.78711 7.73567 1.86133 7.65234 2.00977C7.57031 2.1582 7.52929 2.35221 7.52929 2.5918Z" stroke="#BEC1C6" mask="url(#path-1-outside-1_6_5)"/>
<path d="M9.46093 2.90234V1.6543C9.46093 1.5957 9.49023 1.56641 9.54882 1.56641H9.71679C9.77539 1.56641 9.80468 1.5957 9.80468 1.6543V2.80859C9.80468 3.0638 9.847 3.22591 9.93164 3.29492C10.0163 3.36263 10.1211 3.39648 10.2461 3.39648C10.4102 3.39648 10.5358 3.34635 10.623 3.24609C10.7103 3.14453 10.7539 2.97135 10.7539 2.72656V1.6543C10.7539 1.5957 10.7832 1.56641 10.8418 1.56641H11.0098C11.0684 1.56641 11.0977 1.5957 11.0977 1.6543V3.5293C11.0977 3.58789 11.0684 3.61719 11.0098 3.61719H10.8457C10.7871 3.61719 10.7578 3.58789 10.7578 3.5293V3.37305H10.75C10.6654 3.4668 10.5742 3.53646 10.4766 3.58203C10.3789 3.6276 10.2598 3.65039 10.1191 3.65039C9.89127 3.65039 9.7246 3.58398 9.61914 3.45117C9.51367 3.31706 9.46093 3.13411 9.46093 2.90234Z" stroke="#BEC1C6" mask="url(#path-1-outside-1_6_5)"/>
<path d="M11.5723 3.42578C11.5319 3.38802 11.5234 3.35286 11.5469 3.32031L11.6348 3.19727C11.6634 3.1582 11.7057 3.16016 11.7617 3.20312C11.8385 3.26172 11.9238 3.30859 12.0176 3.34375C12.1126 3.37891 12.2207 3.39648 12.3418 3.39648C12.4134 3.39648 12.4772 3.38802 12.5332 3.37109C12.5892 3.35286 12.638 3.31966 12.6797 3.27148C12.7227 3.22331 12.7441 3.15885 12.7441 3.07812C12.7441 3.03125 12.7337 2.98698 12.7129 2.94531C12.6934 2.90365 12.6621 2.87044 12.6191 2.8457C12.5775 2.81966 12.5365 2.79948 12.4961 2.78516C12.4297 2.76042 12.3633 2.74023 12.2969 2.72461C12.2318 2.70768 12.1458 2.68229 12.0391 2.64844C11.9674 2.6263 11.8997 2.59505 11.8359 2.55469C11.7721 2.51302 11.7161 2.45703 11.668 2.38672C11.6211 2.31641 11.5977 2.2194 11.5977 2.0957C11.5977 1.9694 11.6361 1.86068 11.7129 1.76953C11.7897 1.67839 11.8861 1.61654 12.0019 1.58398C12.1178 1.55013 12.2305 1.5332 12.3398 1.5332C12.5013 1.5332 12.6309 1.55208 12.7285 1.58984C12.8275 1.6263 12.9128 1.66992 12.9844 1.7207C13.026 1.75065 13.0319 1.78516 13.0019 1.82422L12.9141 1.94141C12.8867 1.97917 12.8444 1.97786 12.7871 1.9375C12.7389 1.90365 12.6706 1.87174 12.582 1.8418C12.4935 1.81185 12.416 1.79688 12.3496 1.79688C12.2676 1.79688 12.1973 1.80599 12.1387 1.82422C12.0801 1.84245 12.0325 1.8737 11.9961 1.91797C11.9596 1.96224 11.9414 2.01432 11.9414 2.07422C11.9414 2.11979 11.9486 2.16081 11.9629 2.19727C11.9772 2.23242 12.0039 2.26497 12.043 2.29492C12.082 2.32487 12.1367 2.34896 12.207 2.36719C12.3164 2.39583 12.416 2.42188 12.5059 2.44531C12.597 2.46875 12.679 2.4974 12.7519 2.53125C12.847 2.57552 12.9199 2.62435 12.9707 2.67773C13.0228 2.73112 13.0586 2.78906 13.0781 2.85156C13.0977 2.91276 13.1074 2.98112 13.1074 3.05664C13.1074 3.19596 13.0658 3.3138 12.9824 3.41016C12.9004 3.50651 12.8086 3.57096 12.707 3.60352C12.6055 3.63477 12.4831 3.65039 12.3398 3.65039C12.1458 3.65039 11.9792 3.62305 11.8398 3.56836C11.7018 3.51237 11.6126 3.46484 11.5723 3.42578Z" stroke="#BEC1C6" mask="url(#path-1-outside-1_6_5)"/>
<path d="M13.3965 1.82422C13.3379 1.82422 13.3086 1.80143 13.3086 1.75586V1.63477C13.3086 1.58919 13.3379 1.56641 13.3965 1.56641H13.6269V1.39062C13.6269 1.36458 13.6335 1.33984 13.6465 1.31641L13.7832 1.06836C13.8079 1.02279 13.8281 1 13.8437 1H13.9121C13.9512 1 13.9707 1.02279 13.9707 1.06836V1.56641H14.3867C14.4453 1.56641 14.4746 1.58919 14.4746 1.63477V1.75586C14.4746 1.80143 14.4453 1.82422 14.3867 1.82422H13.9707V3.06836C13.9707 3.20508 13.9909 3.29427 14.0312 3.33594C14.0729 3.3763 14.1224 3.39648 14.1797 3.39648C14.224 3.39648 14.2767 3.38346 14.3379 3.35742C14.4004 3.33138 14.4434 3.30924 14.4668 3.29102C14.4902 3.27279 14.5085 3.27865 14.5215 3.30859L14.5859 3.45898C14.5963 3.48503 14.5885 3.50586 14.5625 3.52148C14.5117 3.55143 14.4375 3.58073 14.3398 3.60938C14.2422 3.63672 14.1445 3.65039 14.0469 3.65039C13.9115 3.65039 13.8073 3.60156 13.7344 3.50391C13.6628 3.40625 13.6269 3.26823 13.6269 3.08984V1.82422H13.3965Z" stroke="#BEC1C6" mask="url(#path-1-outside-1_6_5)"/>
<path d="M14.8965 3.42578C14.8561 3.38802 14.8477 3.35286 14.8711 3.32031L14.959 3.19727C14.9876 3.1582 15.0299 3.16016 15.0859 3.20312C15.1628 3.26172 15.248 3.30859 15.3418 3.34375C15.4368 3.37891 15.5449 3.39648 15.666 3.39648C15.7376 3.39648 15.8014 3.38802 15.8574 3.37109C15.9134 3.35286 15.9622 3.31966 16.0039 3.27148C16.0469 3.22331 16.0684 3.15885 16.0684 3.07812C16.0684 3.03125 16.0579 2.98698 16.0371 2.94531C16.0176 2.90365 15.9863 2.87044 15.9434 2.8457C15.9017 2.81966 15.8607 2.79948 15.8203 2.78516C15.7539 2.76042 15.6875 2.74023 15.6211 2.72461C15.556 2.70768 15.47 2.68229 15.3633 2.64844C15.2917 2.6263 15.224 2.59505 15.1602 2.55469C15.0963 2.51302 15.0404 2.45703 14.9922 2.38672C14.9453 2.31641 14.9219 2.2194 14.9219 2.0957C14.9219 1.9694 14.9603 1.86068 15.0371 1.76953C15.1139 1.67839 15.2103 1.61654 15.3262 1.58398C15.4421 1.55013 15.5547 1.5332 15.6641 1.5332C15.8255 1.5332 15.9551 1.55208 16.0527 1.58984C16.1517 1.6263 16.237 1.66992 16.3086 1.7207C16.3503 1.75065 16.3561 1.78516 16.3262 1.82422L16.2383 1.94141C16.2109 1.97917 16.1686 1.97786 16.1113 1.9375C16.0631 1.90365 15.9948 1.87174 15.9062 1.8418C15.8177 1.81185 15.7402 1.79688 15.6738 1.79688C15.5918 1.79688 15.5215 1.80599 15.4629 1.82422C15.4043 1.84245 15.3568 1.8737 15.3203 1.91797C15.2838 1.96224 15.2656 2.01432 15.2656 2.07422C15.2656 2.11979 15.2728 2.16081 15.2871 2.19727C15.3014 2.23242 15.3281 2.26497 15.3672 2.29492C15.4062 2.32487 15.4609 2.34896 15.5312 2.36719C15.6406 2.39583 15.7402 2.42188 15.8301 2.44531C15.9212 2.46875 16.0033 2.4974 16.0762 2.53125C16.1712 2.57552 16.2441 2.62435 16.2949 2.67773C16.347 2.73112 16.3828 2.78906 16.4023 2.85156C16.4219 2.91276 16.4316 2.98112 16.4316 3.05664C16.4316 3.19596 16.39 3.3138 16.3066 3.41016C16.2246 3.50651 16.1328 3.57096 16.0312 3.60352C15.9297 3.63477 15.8073 3.65039 15.6641 3.65039C15.47 3.65039 15.3034 3.62305 15.1641 3.56836C15.026 3.51237 14.9368 3.46484 14.8965 3.42578Z" stroke="#BEC1C6" mask="url(#path-1-outside-1_6_5)"/>
<path d="M16.8152 13C16.7567 13 16.7274 12.9707 16.7274 12.9121V10.2051C16.7274 10.1465 16.7567 10.1172 16.8152 10.1172H16.9832C17.0418 10.1172 17.0711 10.1465 17.0711 10.2051V11.8301C17.0711 11.8691 17.0698 11.9082 17.0672 11.9473H17.0711L17.8621 11C17.8908 10.9661 17.9253 10.9492 17.9656 10.9492H18.1434C18.2423 10.9492 18.2593 10.9876 18.1942 11.0645L17.5809 11.7949L18.282 12.8848C18.3315 12.9616 18.3146 13 18.2313 13H18.0399C17.9969 13 17.9598 12.9759 17.9285 12.9277L17.366 12.0508L17.0711 12.4023V12.9121C17.0711 12.9707 17.0418 13 16.9832 13H16.8152Z" stroke="#BEC1C6" mask="url(#path-1-outside-1_6_5)"/>
<path d="M18.7762 13C18.7176 13 18.6883 12.9707 18.6883 12.9121V11.0371C18.6883 10.9785 18.7176 10.9492 18.7762 10.9492H18.9402C18.9988 10.9492 19.0281 10.9785 19.0281 11.0371V11.1934H19.0359C19.1206 11.0996 19.2124 11.0299 19.3113 10.9844C19.4103 10.9388 19.5054 10.916 19.5965 10.916C19.7645 10.916 19.8934 10.9583 19.9832 11.043C20.0744 11.1263 20.133 11.2103 20.159 11.2949H20.1668C20.2384 11.1882 20.3289 11.0983 20.4383 11.0254C20.5477 10.9525 20.6642 10.916 20.7879 10.916C20.9949 10.916 21.1512 10.9831 21.2567 11.1172C21.3621 11.25 21.4149 11.4323 21.4149 11.6641V12.9121C21.4149 12.9707 21.3856 13 21.327 13H21.159C21.1004 13 21.0711 12.9707 21.0711 12.9121V11.7773C21.0711 11.5221 21.0392 11.3574 20.9754 11.2832C20.9116 11.2077 20.8133 11.1699 20.6805 11.1699C20.5503 11.1699 20.4415 11.2259 20.3543 11.3379C20.2671 11.4486 20.2234 11.6159 20.2234 11.8398V12.9121C20.2234 12.9707 20.1942 13 20.1356 13H19.9676C19.909 13 19.8797 12.9707 19.8797 12.9121V11.7773C19.8797 11.5221 19.8478 11.3574 19.784 11.2832C19.7202 11.2077 19.6219 11.1699 19.4891 11.1699C19.3589 11.1699 19.2501 11.2207 19.1629 11.3223C19.0757 11.4225 19.032 11.5951 19.032 11.8398V12.9121C19.032 12.9707 19.0027 13 18.9442 13H18.7762Z" stroke="#BEC1C6" mask="url(#path-1-outside-1_6_5)"/>
<path d="M22.0535 13C21.9949 13 21.9656 12.9707 21.9656 12.9121V10.2051C21.9656 10.1465 21.9949 10.1172 22.0535 10.1172H22.2215C22.2801 10.1172 22.3094 10.1465 22.3094 10.2051V11.0762C22.3094 11.1152 22.3081 11.1543 22.3055 11.1934H22.3133C22.3979 11.0996 22.4891 11.0299 22.5867 10.9844C22.6844 10.9388 22.8061 10.916 22.952 10.916C23.1889 10.916 23.3589 10.9831 23.4617 11.1172C23.5659 11.25 23.618 11.4323 23.618 11.6641V12.9121C23.618 12.9707 23.5887 13 23.5301 13H23.3621C23.3035 13 23.2742 12.9707 23.2742 12.9121V11.7578C23.2742 11.5026 23.2319 11.3411 23.1473 11.2734C23.0626 11.2044 22.9552 11.1699 22.825 11.1699C22.6557 11.1699 22.5275 11.2207 22.4402 11.3223C22.353 11.4225 22.3094 11.5951 22.3094 11.8398V12.9121C22.3094 12.9707 22.2801 13 22.2215 13H22.0535Z" stroke="#BEC1C6" mask="url(#path-1-outside-1_6_5)"/>
</g>
<defs>
<filter id="filter0_d_6_5" x="0.5" y="0.5" width="27.618" height="22.6172" filterUnits="userSpaceOnUse" color-interpolation-filters="sRGB">
<feFlood flood-opacity="0" result="BackgroundImageFix"/>
<feColorMatrix in="SourceAlpha" type="matrix" values="0 0 0 0 0 0 0 0 0 0 0 0 0 0 0 0 0 0 127 0" result="hardAlpha"/>
<feOffset dy="4"/>
<feGaussianBlur stdDeviation="2"/>
<feComposite in2="hardAlpha" operator="out"/>
<feColorMatrix type="matrix" values="0 0 0 0 0 0 0 0 0 0 0 0 0 0 0 0 0 0 0.25 0"/>
<feBlend mode="normal" in2="BackgroundImageFix" result="effect1_dropShadow_6_5"/>
<feBlend mode="normal" in="SourceGraphic" in2="effect1_dropShadow_6_5" result="shape"/>
</filter>
</defs>
</svg>
