<svg width="23" height="15" viewBox="0 0 23 15" fill="none" xmlns="http://www.w3.org/2000/svg">
<mask id="path-1-outside-1_6_4" maskUnits="userSpaceOnUse" x="0" y="0" width="23" height="15" fill="black">
<rect fill="white" width="23" height="15"/>
<path d="M5.83397 9.59398C5.83397 9.83398 5.92397 10.034 6.10397 10.194C6.27397 10.364 6.47397 10.444 6.71397 10.444H12.594C12.854 10.444 13.074 10.534 13.274 10.724C13.474 10.914 13.574 11.144 13.574 11.404C13.574 11.664 13.474 11.904 13.274 12.094C13.074 12.284 12.854 12.384 12.594 12.384C12.334 12.384 12.114 12.284 11.914 12.084C11.734 11.924 11.534 11.844 11.304 11.844C11.064 11.844 10.864 11.924 10.704 12.084C10.544 12.244 10.464 12.444 10.464 12.684C10.464 12.924 10.544 13.124 10.704 13.284C11.234 13.814 11.864 14.084 12.594 14.084C13.334 14.084 13.964 13.824 14.474 13.304C14.984 12.784 15.254 12.154 15.254 11.414C15.254 10.674 14.994 10.044 14.474 9.52398C13.954 9.00398 13.324 8.74398 12.594 8.74398H6.71397C6.47397 8.74398 6.27397 8.82398 6.09397 8.99398C5.92397 9.16398 5.83397 9.36398 5.83397 9.59398ZM5.83397 5.58398C5.83397 5.81398 5.92397 6.00398 6.10397 6.16398C6.26397 6.32398 6.47397 6.40398 6.71397 6.40398H17.684C18.424 6.40398 19.054 6.14398 19.574 5.62398C20.094 5.10398 20.354 4.47398 20.354 3.73398C20.354 2.99398 20.094 2.37398 19.574 1.85398C19.054 1.34398 18.424 1.08398 17.684 1.08398C16.924 1.08398 16.304 1.33398 15.804 1.84398C15.644 2.00398 15.574 2.21398 15.574 2.45398C15.574 2.69398 15.654 2.89398 15.804 3.05398C15.954 3.20398 16.154 3.28398 16.404 3.28398C16.644 3.28398 16.844 3.20398 17.024 3.05398C17.214 2.86398 17.434 2.77398 17.704 2.77398C17.974 2.77398 18.194 2.86398 18.384 3.05398C18.574 3.24398 18.674 3.47398 18.674 3.73398C18.674 4.00398 18.574 4.23398 18.384 4.42398C18.194 4.61398 17.964 4.71398 17.704 4.71398H6.71397C6.47397 4.71398 6.27397 4.80398 6.09397 4.97398C5.92397 5.15398 5.83397 5.35398 5.83397 5.58398Z"/>
<path d="M3.70398 7.5808C3.70398 7.44067 3.7861 7.32602 3.94005 7.23048C4.09401 7.13494 4.28903 7.08398 4.51483 7.08398H16.9239C17.1395 7.08398 17.3242 7.13494 17.4782 7.23048C17.6321 7.32602 17.704 7.44067 17.704 7.5808C17.704 7.72093 17.6321 7.83558 17.4782 7.93749C17.3242 8.03303 17.1395 8.08398 16.9239 8.08398H4.5251C4.29929 8.08398 4.10428 8.03303 3.95032 7.93749C3.79636 7.84195 3.70398 7.72093 3.70398 7.5808Z"/>
<path d="M1 2.53711C1 2.30534 1.10807 2.13542 1.32422 2.02734C1.54167 1.91927 1.86589 1.85612 2.29688 1.83789V1.70508C2.29688 1.58268 2.26888 1.47721 2.21289 1.38867C2.1582 1.29883 2.04883 1.25391 1.88477 1.25391C1.7806 1.25391 1.69727 1.26432 1.63477 1.28516C1.57227 1.30469 1.51497 1.33138 1.46289 1.36523C1.41211 1.39779 1.36328 1.4401 1.31641 1.49219C1.28125 1.53125 1.24805 1.5332 1.2168 1.49805L1.11523 1.38086C1.08659 1.34831 1.09635 1.30924 1.14453 1.26367C1.21354 1.19857 1.2806 1.14974 1.3457 1.11719C1.41081 1.08464 1.49154 1.05729 1.58789 1.03516C1.68555 1.01172 1.78451 1 1.88477 1C2.1569 1 2.35091 1.07031 2.4668 1.21094C2.58268 1.35026 2.64062 1.54167 2.64062 1.78516V2.99609C2.64062 3.05469 2.61133 3.08398 2.55273 3.08398H2.37695C2.32617 3.08398 2.30078 3.05469 2.30078 2.99609V2.90039H2.29688C2.19401 2.98112 2.0931 3.03776 1.99414 3.07031C1.89648 3.10156 1.78711 3.11719 1.66602 3.11719C1.45247 3.11719 1.28776 3.06641 1.17188 2.96484C1.05729 2.86198 1 2.7194 1 2.53711ZM1.35547 2.54492C1.35547 2.62565 1.3724 2.69076 1.40625 2.74023C1.4401 2.78841 1.48698 2.81966 1.54688 2.83398C1.60677 2.84701 1.66927 2.85352 1.73438 2.85352C1.83464 2.85352 1.92969 2.84375 2.01953 2.82422C2.10938 2.80469 2.20182 2.75326 2.29688 2.66992V2.09375C2.03385 2.11328 1.84635 2.13737 1.73438 2.16602C1.6224 2.19336 1.53125 2.24154 1.46094 2.31055C1.39062 2.37826 1.35547 2.45638 1.35547 2.54492Z"/>
<path d="M3.04102 1.12891C3.01888 1.0651 3.03646 1.0332 3.09375 1.0332H3.30664C3.34831 1.0332 3.3776 1.05859 3.39453 1.10938L3.80859 2.39844C3.84245 2.50391 3.86523 2.57682 3.87695 2.61719C3.88997 2.65625 3.90169 2.70508 3.91211 2.76367H3.91992C3.93034 2.70508 3.94141 2.65625 3.95312 2.61719C3.96615 2.57682 3.98958 2.50391 4.02344 2.39844L4.4375 1.10938C4.45443 1.05859 4.48372 1.0332 4.52539 1.0332H4.73828C4.79557 1.0332 4.81315 1.0651 4.79102 1.12891L4.15039 2.96484C4.12305 3.04427 4.08789 3.08398 4.04492 3.08398H3.78711C3.74414 3.08398 3.70898 3.04427 3.68164 2.96484L3.04102 1.12891Z"/>
<path d="M5.01172 2.05859C5.01172 1.73568 5.09245 1.47852 5.25391 1.28711C5.41536 1.0957 5.64648 1 5.94727 1C6.19727 1 6.4043 1.08789 6.56836 1.26367C6.73372 1.43815 6.81641 1.71745 6.81641 2.10156C6.81641 2.16016 6.78971 2.18945 6.73633 2.18945H5.375C5.39714 2.44076 5.46484 2.61589 5.57812 2.71484C5.69141 2.8125 5.81966 2.86133 5.96289 2.86133C6.11393 2.86133 6.22982 2.83594 6.31055 2.78516C6.39128 2.73438 6.45052 2.68424 6.48828 2.63477C6.52995 2.58008 6.57031 2.56966 6.60938 2.60352L6.72461 2.70312C6.75456 2.72917 6.75456 2.76497 6.72461 2.81055C6.69987 2.84831 6.62891 2.90885 6.51172 2.99219C6.39583 3.07552 6.21289 3.11719 5.96289 3.11719C5.63737 3.11719 5.39714 3.02148 5.24219 2.83008C5.08854 2.63867 5.01172 2.38151 5.01172 2.05859ZM5.36719 1.93555H6.4707C6.46549 1.75326 6.41862 1.59375 6.33008 1.45703C6.24154 1.31901 6.11133 1.25 5.93945 1.25C5.78841 1.25 5.66016 1.30078 5.55469 1.40234C5.44922 1.5026 5.38672 1.68034 5.36719 1.93555Z"/>
<path d="M7.35547 3.08398C7.29688 3.08398 7.26758 3.05469 7.26758 2.99609V1.12109C7.26758 1.0625 7.29688 1.0332 7.35547 1.0332H7.51953C7.57812 1.0332 7.60742 1.0625 7.60742 1.12109V1.35547H7.61523C7.67773 1.23828 7.7513 1.14974 7.83594 1.08984C7.92057 1.02995 8.02604 1 8.15234 1C8.23568 1 8.29427 1.00716 8.32812 1.02148C8.35807 1.0332 8.36914 1.05273 8.36133 1.08008L8.31641 1.24023C8.3099 1.26367 8.29297 1.27279 8.26562 1.26758C8.22005 1.25846 8.17708 1.25391 8.13672 1.25391C7.98438 1.25391 7.85872 1.32292 7.75977 1.46094C7.66081 1.59766 7.61133 1.78451 7.61133 2.02148V2.99609C7.61133 3.05469 7.58203 3.08398 7.52344 3.08398H7.35547Z"/>
<path d="M8.56641 2.53711C8.56641 2.30534 8.67448 2.13542 8.89062 2.02734C9.10807 1.91927 9.43229 1.85612 9.86328 1.83789V1.70508C9.86328 1.58268 9.83529 1.47721 9.7793 1.38867C9.72461 1.29883 9.61523 1.25391 9.45117 1.25391C9.34701 1.25391 9.26367 1.26432 9.20117 1.28516C9.13867 1.30469 9.08138 1.33138 9.0293 1.36523C8.97852 1.39779 8.92969 1.4401 8.88281 1.49219C8.84766 1.53125 8.81445 1.5332 8.7832 1.49805L8.68164 1.38086C8.65299 1.34831 8.66276 1.30924 8.71094 1.26367C8.77995 1.19857 8.84701 1.14974 8.91211 1.11719C8.97721 1.08464 9.05794 1.05729 9.1543 1.03516C9.25195 1.01172 9.35091 1 9.45117 1C9.72331 1 9.91732 1.07031 10.0332 1.21094C10.1491 1.35026 10.207 1.54167 10.207 1.78516V2.99609C10.207 3.05469 10.1777 3.08398 10.1191 3.08398H9.94336C9.89258 3.08398 9.86719 3.05469 9.86719 2.99609V2.90039H9.86328C9.76042 2.98112 9.65951 3.03776 9.56055 3.07031C9.46289 3.10156 9.35352 3.11719 9.23242 3.11719C9.01888 3.11719 8.85417 3.06641 8.73828 2.96484C8.6237 2.86198 8.56641 2.7194 8.56641 2.53711ZM8.92188 2.54492C8.92188 2.62565 8.9388 2.69076 8.97266 2.74023C9.00651 2.78841 9.05339 2.81966 9.11328 2.83398C9.17318 2.84701 9.23568 2.85352 9.30078 2.85352C9.40104 2.85352 9.49609 2.84375 9.58594 2.82422C9.67578 2.80469 9.76823 2.75326 9.86328 2.66992V2.09375C9.60026 2.11328 9.41276 2.13737 9.30078 2.16602C9.1888 2.19336 9.09766 2.24154 9.02734 2.31055C8.95703 2.37826 8.92188 2.45638 8.92188 2.54492Z"/>
<path d="M10.6523 2.05859C10.6523 1.77865 10.7201 1.53255 10.8555 1.32031C10.9909 1.10677 11.1888 1 11.4492 1C11.599 1 11.7188 1.02474 11.8086 1.07422C11.8984 1.1237 11.9792 1.19141 12.0508 1.27734H12.0547L12.0664 1.12109C12.0703 1.0625 12.0957 1.0332 12.1426 1.0332H12.3066C12.3652 1.0332 12.3945 1.0625 12.3945 1.12109V3.09961C12.3945 3.34961 12.3366 3.54492 12.2207 3.68555C12.1061 3.82747 11.8789 3.89844 11.5391 3.89844C11.3112 3.89844 11.1406 3.8724 11.0273 3.82031C10.9141 3.76953 10.8333 3.71549 10.7852 3.6582C10.75 3.61523 10.748 3.57878 10.7793 3.54883L10.8867 3.44336C10.9167 3.41471 10.9583 3.42383 11.0117 3.4707C11.0807 3.5332 11.1471 3.57747 11.2109 3.60352C11.2747 3.63086 11.3848 3.64453 11.541 3.64453C11.7181 3.64453 11.847 3.60677 11.9277 3.53125C12.0098 3.45573 12.0508 3.29948 12.0508 3.0625V2.94531C12.0508 2.90495 12.0521 2.86523 12.0547 2.82617H12.0508C11.9831 2.91602 11.903 2.98698 11.8105 3.03906C11.7194 3.09115 11.599 3.11719 11.4492 3.11719C11.1888 3.11719 10.9909 3.01107 10.8555 2.79883C10.7201 2.58529 10.6523 2.33854 10.6523 2.05859ZM11.0156 2.05859C11.0156 2.29818 11.0566 2.49219 11.1387 2.64062C11.222 2.78906 11.3626 2.86328 11.5605 2.86328C11.7012 2.86328 11.8177 2.81576 11.9102 2.7207C12.0039 2.62435 12.0508 2.47852 12.0508 2.2832V1.83398C12.0508 1.63867 12.0039 1.49349 11.9102 1.39844C11.8177 1.30208 11.7012 1.25391 11.5605 1.25391C11.3626 1.25391 11.222 1.32812 11.1387 1.47656C11.0566 1.625 11.0156 1.81901 11.0156 2.05859Z"/>
<path d="M12.8398 2.05859C12.8398 1.73568 12.9206 1.47852 13.082 1.28711C13.2435 1.0957 13.4746 1 13.7754 1C14.0254 1 14.2324 1.08789 14.3965 1.26367C14.5618 1.43815 14.6445 1.71745 14.6445 2.10156C14.6445 2.16016 14.6178 2.18945 14.5645 2.18945H13.2031C13.2253 2.44076 13.293 2.61589 13.4062 2.71484C13.5195 2.8125 13.6478 2.86133 13.791 2.86133C13.9421 2.86133 14.0579 2.83594 14.1387 2.78516C14.2194 2.73438 14.2786 2.68424 14.3164 2.63477C14.3581 2.58008 14.3984 2.56966 14.4375 2.60352L14.5527 2.70312C14.5827 2.72917 14.5827 2.76497 14.5527 2.81055C14.528 2.84831 14.457 2.90885 14.3398 2.99219C14.224 3.07552 14.041 3.11719 13.791 3.11719C13.4655 3.11719 13.2253 3.02148 13.0703 2.83008C12.9167 2.63867 12.8398 2.38151 12.8398 2.05859ZM13.1953 1.93555H14.2988C14.2936 1.75326 14.2467 1.59375 14.1582 1.45703C14.0697 1.31901 13.9395 1.25 13.7676 1.25C13.6165 1.25 13.4883 1.30078 13.3828 1.40234C13.2773 1.5026 13.2148 1.68034 13.1953 1.93555Z"/>
<path d="M15.3652 13C15.3066 13 15.2773 12.9707 15.2773 12.9121V10.2051C15.2773 10.1465 15.3066 10.1172 15.3652 10.1172H15.5332C15.5918 10.1172 15.6211 10.1465 15.6211 10.2051V11.8301C15.6211 11.8691 15.6198 11.9082 15.6172 11.9473H15.6211L16.4121 11C16.4408 10.9661 16.4753 10.9492 16.5156 10.9492H16.6934C16.7923 10.9492 16.8092 10.9876 16.7441 11.0645L16.1309 11.7949L16.832 12.8848C16.8815 12.9616 16.8646 13 16.7812 13H16.5898C16.5469 13 16.5098 12.9759 16.4785 12.9277L15.916 12.0508L15.6211 12.4023V12.9121C15.6211 12.9707 15.5918 13 15.5332 13H15.3652Z"/>
<path d="M17.3262 13C17.2676 13 17.2383 12.9707 17.2383 12.9121V11.0371C17.2383 10.9785 17.2676 10.9492 17.3262 10.9492H17.4902C17.5488 10.9492 17.5781 10.9785 17.5781 11.0371V11.1934H17.5859C17.6706 11.0996 17.7624 11.0299 17.8613 10.9844C17.9603 10.9388 18.0553 10.916 18.1465 10.916C18.3145 10.916 18.4434 10.9583 18.5332 11.043C18.6243 11.1263 18.6829 11.2103 18.709 11.2949H18.7168C18.7884 11.1882 18.8789 11.0983 18.9883 11.0254C19.0977 10.9525 19.2142 10.916 19.3379 10.916C19.5449 10.916 19.7012 10.9831 19.8066 11.1172C19.9121 11.25 19.9648 11.4323 19.9648 11.6641V12.9121C19.9648 12.9707 19.9355 13 19.877 13H19.709C19.6504 13 19.6211 12.9707 19.6211 12.9121V11.7773C19.6211 11.5221 19.5892 11.3574 19.5254 11.2832C19.4616 11.2077 19.3633 11.1699 19.2305 11.1699C19.1003 11.1699 18.9915 11.2259 18.9043 11.3379C18.8171 11.4486 18.7734 11.6159 18.7734 11.8398V12.9121C18.7734 12.9707 18.7441 13 18.6855 13H18.5176C18.459 13 18.4297 12.9707 18.4297 12.9121V11.7773C18.4297 11.5221 18.3978 11.3574 18.334 11.2832C18.2702 11.2077 18.1719 11.1699 18.0391 11.1699C17.9089 11.1699 17.8001 11.2207 17.7129 11.3223C17.6257 11.4225 17.582 11.5951 17.582 11.8398V12.9121C17.582 12.9707 17.5527 13 17.4941 13H17.3262Z"/>
<path d="M20.6035 13C20.5449 13 20.5156 12.9707 20.5156 12.9121V10.2051C20.5156 10.1465 20.5449 10.1172 20.6035 10.1172H20.7715C20.8301 10.1172 20.8594 10.1465 20.8594 10.2051V11.0762C20.8594 11.1152 20.8581 11.1543 20.8555 11.1934H20.8633C20.9479 11.0996 21.0391 11.0299 21.1367 10.9844C21.2344 10.9388 21.3561 10.916 21.502 10.916C21.7389 10.916 21.9089 10.9831 22.0117 11.1172C22.1159 11.25 22.168 11.4323 22.168 11.6641V12.9121C22.168 12.9707 22.1387 13 22.0801 13H21.9121C21.8535 13 21.8242 12.9707 21.8242 12.9121V11.7578C21.8242 11.5026 21.7819 11.3411 21.6973 11.2734C21.6126 11.2044 21.5052 11.1699 21.375 11.1699C21.2057 11.1699 21.0775 11.2207 20.9902 11.3223C20.903 11.4225 20.8594 11.5951 20.8594 11.8398V12.9121C20.8594 12.9707 20.8301 13 20.7715 13H20.6035Z"/>
</mask>
<path d="M5.83397 9.59398C5.83397 9.83398 5.92397 10.034 6.10397 10.194C6.27397 10.364 6.47397 10.444 6.71397 10.444H12.594C12.854 10.444 13.074 10.534 13.274 10.724C13.474 10.914 13.574 11.144 13.574 11.404C13.574 11.664 13.474 11.904 13.274 12.094C13.074 12.284 12.854 12.384 12.594 12.384C12.334 12.384 12.114 12.284 11.914 12.084C11.734 11.924 11.534 11.844 11.304 11.844C11.064 11.844 10.864 11.924 10.704 12.084C10.544 12.244 10.464 12.444 10.464 12.684C10.464 12.924 10.544 13.124 10.704 13.284C11.234 13.814 11.864 14.084 12.594 14.084C13.334 14.084 13.964 13.824 14.474 13.304C14.984 12.784 15.254 12.154 15.254 11.414C15.254 10.674 14.994 10.044 14.474 9.52398C13.954 9.00398 13.324 8.74398 12.594 8.74398H6.71397C6.47397 8.74398 6.27397 8.82398 6.09397 8.99398C5.92397 9.16398 5.83397 9.36398 5.83397 9.59398ZM5.83397 5.58398C5.83397 5.81398 5.92397 6.00398 6.10397 6.16398C6.26397 6.32398 6.47397 6.40398 6.71397 6.40398H17.684C18.424 6.40398 19.054 6.14398 19.574 5.62398C20.094 5.10398 20.354 4.47398 20.354 3.73398C20.354 2.99398 20.094 2.37398 19.574 1.85398C19.054 1.34398 18.424 1.08398 17.684 1.08398C16.924 1.08398 16.304 1.33398 15.804 1.84398C15.644 2.00398 15.574 2.21398 15.574 2.45398C15.574 2.69398 15.654 2.89398 15.804 3.05398C15.954 3.20398 16.154 3.28398 16.404 3.28398C16.644 3.28398 16.844 3.20398 17.024 3.05398C17.214 2.86398 17.434 2.77398 17.704 2.77398C17.974 2.77398 18.194 2.86398 18.384 3.05398C18.574 3.24398 18.674 3.47398 18.674 3.73398C18.674 4.00398 18.574 4.23398 18.384 4.42398C18.194 4.61398 17.964 4.71398 17.704 4.71398H6.71397C6.47397 4.71398 6.27397 4.80398 6.09397 4.97398C5.92397 5.15398 5.83397 5.35398 5.83397 5.58398Z" fill="#9CA3AF"/>
<path d="M3.70398 7.5808C3.70398 7.44067 3.7861 7.32602 3.94005 7.23048C4.09401 7.13494 4.28903 7.08398 4.51483 7.08398H16.9239C17.1395 7.08398 17.3242 7.13494 17.4782 7.23048C17.6321 7.32602 17.704 7.44067 17.704 7.5808C17.704 7.72093 17.6321 7.83558 17.4782 7.93749C17.3242 8.03303 17.1395 8.08398 16.9239 8.08398H4.5251C4.29929 8.08398 4.10428 8.03303 3.95032 7.93749C3.79636 7.84195 3.70398 7.72093 3.70398 7.5808Z" fill="#9CA3AF"/>
<path d="M1 2.53711C1 2.30534 1.10807 2.13542 1.32422 2.02734C1.54167 1.91927 1.86589 1.85612 2.29688 1.83789V1.70508C2.29688 1.58268 2.26888 1.47721 2.21289 1.38867C2.1582 1.29883 2.04883 1.25391 1.88477 1.25391C1.7806 1.25391 1.69727 1.26432 1.63477 1.28516C1.57227 1.30469 1.51497 1.33138 1.46289 1.36523C1.41211 1.39779 1.36328 1.4401 1.31641 1.49219C1.28125 1.53125 1.24805 1.5332 1.2168 1.49805L1.11523 1.38086C1.08659 1.34831 1.09635 1.30924 1.14453 1.26367C1.21354 1.19857 1.2806 1.14974 1.3457 1.11719C1.41081 1.08464 1.49154 1.05729 1.58789 1.03516C1.68555 1.01172 1.78451 1 1.88477 1C2.1569 1 2.35091 1.07031 2.4668 1.21094C2.58268 1.35026 2.64062 1.54167 2.64062 1.78516V2.99609C2.64062 3.05469 2.61133 3.08398 2.55273 3.08398H2.37695C2.32617 3.08398 2.30078 3.05469 2.30078 2.99609V2.90039H2.29688C2.19401 2.98112 2.0931 3.03776 1.99414 3.07031C1.89648 3.10156 1.78711 3.11719 1.66602 3.11719C1.45247 3.11719 1.28776 3.06641 1.17188 2.96484C1.05729 2.86198 1 2.7194 1 2.53711ZM1.35547 2.54492C1.35547 2.62565 1.3724 2.69076 1.40625 2.74023C1.4401 2.78841 1.48698 2.81966 1.54688 2.83398C1.60677 2.84701 1.66927 2.85352 1.73438 2.85352C1.83464 2.85352 1.92969 2.84375 2.01953 2.82422C2.10938 2.80469 2.20182 2.75326 2.29688 2.66992V2.09375C2.03385 2.11328 1.84635 2.13737 1.73438 2.16602C1.6224 2.19336 1.53125 2.24154 1.46094 2.31055C1.39062 2.37826 1.35547 2.45638 1.35547 2.54492Z" fill="#9CA3AF"/>
<path d="M3.04102 1.12891C3.01888 1.0651 3.03646 1.0332 3.09375 1.0332H3.30664C3.34831 1.0332 3.3776 1.05859 3.39453 1.10938L3.80859 2.39844C3.84245 2.50391 3.86523 2.57682 3.87695 2.61719C3.88997 2.65625 3.90169 2.70508 3.91211 2.76367H3.91992C3.93034 2.70508 3.94141 2.65625 3.95312 2.61719C3.96615 2.57682 3.98958 2.50391 4.02344 2.39844L4.4375 1.10938C4.45443 1.05859 4.48372 1.0332 4.52539 1.0332H4.73828C4.79557 1.0332 4.81315 1.0651 4.79102 1.12891L4.15039 2.96484C4.12305 3.04427 4.08789 3.08398 4.04492 3.08398H3.78711C3.74414 3.08398 3.70898 3.04427 3.68164 2.96484L3.04102 1.12891Z" fill="#9CA3AF"/>
<path d="M5.01172 2.05859C5.01172 1.73568 5.09245 1.47852 5.25391 1.28711C5.41536 1.0957 5.64648 1 5.94727 1C6.19727 1 6.4043 1.08789 6.56836 1.26367C6.73372 1.43815 6.81641 1.71745 6.81641 2.10156C6.81641 2.16016 6.78971 2.18945 6.73633 2.18945H5.375C5.39714 2.44076 5.46484 2.61589 5.57812 2.71484C5.69141 2.8125 5.81966 2.86133 5.96289 2.86133C6.11393 2.86133 6.22982 2.83594 6.31055 2.78516C6.39128 2.73438 6.45052 2.68424 6.48828 2.63477C6.52995 2.58008 6.57031 2.56966 6.60938 2.60352L6.72461 2.70312C6.75456 2.72917 6.75456 2.76497 6.72461 2.81055C6.69987 2.84831 6.62891 2.90885 6.51172 2.99219C6.39583 3.07552 6.21289 3.11719 5.96289 3.11719C5.63737 3.11719 5.39714 3.02148 5.24219 2.83008C5.08854 2.63867 5.01172 2.38151 5.01172 2.05859ZM5.36719 1.93555H6.4707C6.46549 1.75326 6.41862 1.59375 6.33008 1.45703C6.24154 1.31901 6.11133 1.25 5.93945 1.25C5.78841 1.25 5.66016 1.30078 5.55469 1.40234C5.44922 1.5026 5.38672 1.68034 5.36719 1.93555Z" fill="#9CA3AF"/>
<path d="M7.35547 3.08398C7.29688 3.08398 7.26758 3.05469 7.26758 2.99609V1.12109C7.26758 1.0625 7.29688 1.0332 7.35547 1.0332H7.51953C7.57812 1.0332 7.60742 1.0625 7.60742 1.12109V1.35547H7.61523C7.67773 1.23828 7.7513 1.14974 7.83594 1.08984C7.92057 1.02995 8.02604 1 8.15234 1C8.23568 1 8.29427 1.00716 8.32812 1.02148C8.35807 1.0332 8.36914 1.05273 8.36133 1.08008L8.31641 1.24023C8.3099 1.26367 8.29297 1.27279 8.26562 1.26758C8.22005 1.25846 8.17708 1.25391 8.13672 1.25391C7.98438 1.25391 7.85872 1.32292 7.75977 1.46094C7.66081 1.59766 7.61133 1.78451 7.61133 2.02148V2.99609C7.61133 3.05469 7.58203 3.08398 7.52344 3.08398H7.35547Z" fill="#9CA3AF"/>
<path d="M8.56641 2.53711C8.56641 2.30534 8.67448 2.13542 8.89062 2.02734C9.10807 1.91927 9.43229 1.85612 9.86328 1.83789V1.70508C9.86328 1.58268 9.83529 1.47721 9.7793 1.38867C9.72461 1.29883 9.61523 1.25391 9.45117 1.25391C9.34701 1.25391 9.26367 1.26432 9.20117 1.28516C9.13867 1.30469 9.08138 1.33138 9.0293 1.36523C8.97852 1.39779 8.92969 1.4401 8.88281 1.49219C8.84766 1.53125 8.81445 1.5332 8.7832 1.49805L8.68164 1.38086C8.65299 1.34831 8.66276 1.30924 8.71094 1.26367C8.77995 1.19857 8.84701 1.14974 8.91211 1.11719C8.97721 1.08464 9.05794 1.05729 9.1543 1.03516C9.25195 1.01172 9.35091 1 9.45117 1C9.72331 1 9.91732 1.07031 10.0332 1.21094C10.1491 1.35026 10.207 1.54167 10.207 1.78516V2.99609C10.207 3.05469 10.1777 3.08398 10.1191 3.08398H9.94336C9.89258 3.08398 9.86719 3.05469 9.86719 2.99609V2.90039H9.86328C9.76042 2.98112 9.65951 3.03776 9.56055 3.07031C9.46289 3.10156 9.35352 3.11719 9.23242 3.11719C9.01888 3.11719 8.85417 3.06641 8.73828 2.96484C8.6237 2.86198 8.56641 2.7194 8.56641 2.53711ZM8.92188 2.54492C8.92188 2.62565 8.9388 2.69076 8.97266 2.74023C9.00651 2.78841 9.05339 2.81966 9.11328 2.83398C9.17318 2.84701 9.23568 2.85352 9.30078 2.85352C9.40104 2.85352 9.49609 2.84375 9.58594 2.82422C9.67578 2.80469 9.76823 2.75326 9.86328 2.66992V2.09375C9.60026 2.11328 9.41276 2.13737 9.30078 2.16602C9.1888 2.19336 9.09766 2.24154 9.02734 2.31055C8.95703 2.37826 8.92188 2.45638 8.92188 2.54492Z" fill="#9CA3AF"/>
<path d="M10.6523 2.05859C10.6523 1.77865 10.7201 1.53255 10.8555 1.32031C10.9909 1.10677 11.1888 1 11.4492 1C11.599 1 11.7188 1.02474 11.8086 1.07422C11.8984 1.1237 11.9792 1.19141 12.0508 1.27734H12.0547L12.0664 1.12109C12.0703 1.0625 12.0957 1.0332 12.1426 1.0332H12.3066C12.3652 1.0332 12.3945 1.0625 12.3945 1.12109V3.09961C12.3945 3.34961 12.3366 3.54492 12.2207 3.68555C12.1061 3.82747 11.8789 3.89844 11.5391 3.89844C11.3112 3.89844 11.1406 3.8724 11.0273 3.82031C10.9141 3.76953 10.8333 3.71549 10.7852 3.6582C10.75 3.61523 10.748 3.57878 10.7793 3.54883L10.8867 3.44336C10.9167 3.41471 10.9583 3.42383 11.0117 3.4707C11.0807 3.5332 11.1471 3.57747 11.2109 3.60352C11.2747 3.63086 11.3848 3.64453 11.541 3.64453C11.7181 3.64453 11.847 3.60677 11.9277 3.53125C12.0098 3.45573 12.0508 3.29948 12.0508 3.0625V2.94531C12.0508 2.90495 12.0521 2.86523 12.0547 2.82617H12.0508C11.9831 2.91602 11.903 2.98698 11.8105 3.03906C11.7194 3.09115 11.599 3.11719 11.4492 3.11719C11.1888 3.11719 10.9909 3.01107 10.8555 2.79883C10.7201 2.58529 10.6523 2.33854 10.6523 2.05859ZM11.0156 2.05859C11.0156 2.29818 11.0566 2.49219 11.1387 2.64062C11.222 2.78906 11.3626 2.86328 11.5605 2.86328C11.7012 2.86328 11.8177 2.81576 11.9102 2.7207C12.0039 2.62435 12.0508 2.47852 12.0508 2.2832V1.83398C12.0508 1.63867 12.0039 1.49349 11.9102 1.39844C11.8177 1.30208 11.7012 1.25391 11.5605 1.25391C11.3626 1.25391 11.222 1.32812 11.1387 1.47656C11.0566 1.625 11.0156 1.81901 11.0156 2.05859Z" fill="#9CA3AF"/>
<path d="M12.8398 2.05859C12.8398 1.73568 12.9206 1.47852 13.082 1.28711C13.2435 1.0957 13.4746 1 13.7754 1C14.0254 1 14.2324 1.08789 14.3965 1.26367C14.5618 1.43815 14.6445 1.71745 14.6445 2.10156C14.6445 2.16016 14.6178 2.18945 14.5645 2.18945H13.2031C13.2253 2.44076 13.293 2.61589 13.4062 2.71484C13.5195 2.8125 13.6478 2.86133 13.791 2.86133C13.9421 2.86133 14.0579 2.83594 14.1387 2.78516C14.2194 2.73438 14.2786 2.68424 14.3164 2.63477C14.3581 2.58008 14.3984 2.56966 14.4375 2.60352L14.5527 2.70312C14.5827 2.72917 14.5827 2.76497 14.5527 2.81055C14.528 2.84831 14.457 2.90885 14.3398 2.99219C14.224 3.07552 14.041 3.11719 13.791 3.11719C13.4655 3.11719 13.2253 3.02148 13.0703 2.83008C12.9167 2.63867 12.8398 2.38151 12.8398 2.05859ZM13.1953 1.93555H14.2988C14.2936 1.75326 14.2467 1.59375 14.1582 1.45703C14.0697 1.31901 13.9395 1.25 13.7676 1.25C13.6165 1.25 13.4883 1.30078 13.3828 1.40234C13.2773 1.5026 13.2148 1.68034 13.1953 1.93555Z" fill="#9CA3AF"/>
<path d="M15.3652 13C15.3066 13 15.2773 12.9707 15.2773 12.9121V10.2051C15.2773 10.1465 15.3066 10.1172 15.3652 10.1172H15.5332C15.5918 10.1172 15.6211 10.1465 15.6211 10.2051V11.8301C15.6211 11.8691 15.6198 11.9082 15.6172 11.9473H15.6211L16.4121 11C16.4408 10.9661 16.4753 10.9492 16.5156 10.9492H16.6934C16.7923 10.9492 16.8092 10.9876 16.7441 11.0645L16.1309 11.7949L16.832 12.8848C16.8815 12.9616 16.8646 13 16.7812 13H16.5898C16.5469 13 16.5098 12.9759 16.4785 12.9277L15.916 12.0508L15.6211 12.4023V12.9121C15.6211 12.9707 15.5918 13 15.5332 13H15.3652Z" fill="#9CA3AF"/>
<path d="M17.3262 13C17.2676 13 17.2383 12.9707 17.2383 12.9121V11.0371C17.2383 10.9785 17.2676 10.9492 17.3262 10.9492H17.4902C17.5488 10.9492 17.5781 10.9785 17.5781 11.0371V11.1934H17.5859C17.6706 11.0996 17.7624 11.0299 17.8613 10.9844C17.9603 10.9388 18.0553 10.916 18.1465 10.916C18.3145 10.916 18.4434 10.9583 18.5332 11.043C18.6243 11.1263 18.6829 11.2103 18.709 11.2949H18.7168C18.7884 11.1882 18.8789 11.0983 18.9883 11.0254C19.0977 10.9525 19.2142 10.916 19.3379 10.916C19.5449 10.916 19.7012 10.9831 19.8066 11.1172C19.9121 11.25 19.9648 11.4323 19.9648 11.6641V12.9121C19.9648 12.9707 19.9355 13 19.877 13H19.709C19.6504 13 19.6211 12.9707 19.6211 12.9121V11.7773C19.6211 11.5221 19.5892 11.3574 19.5254 11.2832C19.4616 11.2077 19.3633 11.1699 19.2305 11.1699C19.1003 11.1699 18.9915 11.2259 18.9043 11.3379C18.8171 11.4486 18.7734 11.6159 18.7734 11.8398V12.9121C18.7734 12.9707 18.7441 13 18.6855 13H18.5176C18.459 13 18.4297 12.9707 18.4297 12.9121V11.7773C18.4297 11.5221 18.3978 11.3574 18.334 11.2832C18.2702 11.2077 18.1719 11.1699 18.0391 11.1699C17.9089 11.1699 17.8001 11.2207 17.7129 11.3223C17.6257 11.4225 17.582 11.5951 17.582 11.8398V12.9121C17.582 12.9707 17.5527 13 17.4941 13H17.3262Z" fill="#9CA3AF"/>
<path d="M20.6035 13C20.5449 13 20.5156 12.9707 20.5156 12.9121V10.2051C20.5156 10.1465 20.5449 10.1172 20.6035 10.1172H20.7715C20.8301 10.1172 20.8594 10.1465 20.8594 10.2051V11.0762C20.8594 11.1152 20.8581 11.1543 20.8555 11.1934H20.8633C20.9479 11.0996 21.0391 11.0299 21.1367 10.9844C21.2344 10.9388 21.3561 10.916 21.502 10.916C21.7389 10.916 21.9089 10.9831 22.0117 11.1172C22.1159 11.25 22.168 11.4323 22.168 11.6641V12.9121C22.168 12.9707 22.1387 13 22.0801 13H21.9121C21.8535 13 21.8242 12.9707 21.8242 12.9121V11.7578C21.8242 11.5026 21.7819 11.3411 21.6973 11.2734C21.6126 11.2044 21.5052 11.1699 21.375 11.1699C21.2057 11.1699 21.0775 11.2207 20.9902 11.3223C20.903 11.4225 20.8594 11.5951 20.8594 11.8398V12.9121C20.8594 12.9707 20.8301 13 20.7715 13H20.6035Z" fill="#9CA3AF"/>
<path d="M5.83397 9.59398C5.83397 9.83398 5.92397 10.034 6.10397 10.194C6.27397 10.364 6.47397 10.444 6.71397 10.444H12.594C12.854 10.444 13.074 10.534 13.274 10.724C13.474 10.914 13.574 11.144 13.574 11.404C13.574 11.664 13.474 11.904 13.274 12.094C13.074 12.284 12.854 12.384 12.594 12.384C12.334 12.384 12.114 12.284 11.914 12.084C11.734 11.924 11.534 11.844 11.304 11.844C11.064 11.844 10.864 11.924 10.704 12.084C10.544 12.244 10.464 12.444 10.464 12.684C10.464 12.924 10.544 13.124 10.704 13.284C11.234 13.814 11.864 14.084 12.594 14.084C13.334 14.084 13.964 13.824 14.474 13.304C14.984 12.784 15.254 12.154 15.254 11.414C15.254 10.674 14.994 10.044 14.474 9.52398C13.954 9.00398 13.324 8.74398 12.594 8.74398H6.71397C6.47397 8.74398 6.27397 8.82398 6.09397 8.99398C5.92397 9.16398 5.83397 9.36398 5.83397 9.59398ZM5.83397 5.58398C5.83397 5.81398 5.92397 6.00398 6.10397 6.16398C6.26397 6.32398 6.47397 6.40398 6.71397 6.40398H17.684C18.424 6.40398 19.054 6.14398 19.574 5.62398C20.094 5.10398 20.354 4.47398 20.354 3.73398C20.354 2.99398 20.094 2.37398 19.574 1.85398C19.054 1.34398 18.424 1.08398 17.684 1.08398C16.924 1.08398 16.304 1.33398 15.804 1.84398C15.644 2.00398 15.574 2.21398 15.574 2.45398C15.574 2.69398 15.654 2.89398 15.804 3.05398C15.954 3.20398 16.154 3.28398 16.404 3.28398C16.644 3.28398 16.844 3.20398 17.024 3.05398C17.214 2.86398 17.434 2.77398 17.704 2.77398C17.974 2.77398 18.194 2.86398 18.384 3.05398C18.574 3.24398 18.674 3.47398 18.674 3.73398C18.674 4.00398 18.574 4.23398 18.384 4.42398C18.194 4.61398 17.964 4.71398 17.704 4.71398H6.71397C6.47397 4.71398 6.27397 4.80398 6.09397 4.97398C5.92397 5.15398 5.83397 5.35398 5.83397 5.58398Z" stroke="#05439F" stroke-width="0.5" mask="url(#path-1-outside-1_6_4)"/>
<path d="M3.70398 7.5808C3.70398 7.44067 3.7861 7.32602 3.94005 7.23048C4.09401 7.13494 4.28903 7.08398 4.51483 7.08398H16.9239C17.1395 7.08398 17.3242 7.13494 17.4782 7.23048C17.6321 7.32602 17.704 7.44067 17.704 7.5808C17.704 7.72093 17.6321 7.83558 17.4782 7.93749C17.3242 8.03303 17.1395 8.08398 16.9239 8.08398H4.5251C4.29929 8.08398 4.10428 8.03303 3.95032 7.93749C3.79636 7.84195 3.70398 7.72093 3.70398 7.5808Z" stroke="#05439F" stroke-width="0.5" mask="url(#path-1-outside-1_6_4)"/>
<path d="M1 2.53711C1 2.30534 1.10807 2.13542 1.32422 2.02734C1.54167 1.91927 1.86589 1.85612 2.29688 1.83789V1.70508C2.29688 1.58268 2.26888 1.47721 2.21289 1.38867C2.1582 1.29883 2.04883 1.25391 1.88477 1.25391C1.7806 1.25391 1.69727 1.26432 1.63477 1.28516C1.57227 1.30469 1.51497 1.33138 1.46289 1.36523C1.41211 1.39779 1.36328 1.4401 1.31641 1.49219C1.28125 1.53125 1.24805 1.5332 1.2168 1.49805L1.11523 1.38086C1.08659 1.34831 1.09635 1.30924 1.14453 1.26367C1.21354 1.19857 1.2806 1.14974 1.3457 1.11719C1.41081 1.08464 1.49154 1.05729 1.58789 1.03516C1.68555 1.01172 1.78451 1 1.88477 1C2.1569 1 2.35091 1.07031 2.4668 1.21094C2.58268 1.35026 2.64062 1.54167 2.64062 1.78516V2.99609C2.64062 3.05469 2.61133 3.08398 2.55273 3.08398H2.37695C2.32617 3.08398 2.30078 3.05469 2.30078 2.99609V2.90039H2.29688C2.19401 2.98112 2.0931 3.03776 1.99414 3.07031C1.89648 3.10156 1.78711 3.11719 1.66602 3.11719C1.45247 3.11719 1.28776 3.06641 1.17188 2.96484C1.05729 2.86198 1 2.7194 1 2.53711ZM1.35547 2.54492C1.35547 2.62565 1.3724 2.69076 1.40625 2.74023C1.4401 2.78841 1.48698 2.81966 1.54688 2.83398C1.60677 2.84701 1.66927 2.85352 1.73438 2.85352C1.83464 2.85352 1.92969 2.84375 2.01953 2.82422C2.10938 2.80469 2.20182 2.75326 2.29688 2.66992V2.09375C2.03385 2.11328 1.84635 2.13737 1.73438 2.16602C1.6224 2.19336 1.53125 2.24154 1.46094 2.31055C1.39062 2.37826 1.35547 2.45638 1.35547 2.54492Z" stroke="#05439F" stroke-width="0.5" mask="url(#path-1-outside-1_6_4)"/>
<path d="M3.04102 1.12891C3.01888 1.0651 3.03646 1.0332 3.09375 1.0332H3.30664C3.34831 1.0332 3.3776 1.05859 3.39453 1.10938L3.80859 2.39844C3.84245 2.50391 3.86523 2.57682 3.87695 2.61719C3.88997 2.65625 3.90169 2.70508 3.91211 2.76367H3.91992C3.93034 2.70508 3.94141 2.65625 3.95312 2.61719C3.96615 2.57682 3.98958 2.50391 4.02344 2.39844L4.4375 1.10938C4.45443 1.05859 4.48372 1.0332 4.52539 1.0332H4.73828C4.79557 1.0332 4.81315 1.0651 4.79102 1.12891L4.15039 2.96484C4.12305 3.04427 4.08789 3.08398 4.04492 3.08398H3.78711C3.74414 3.08398 3.70898 3.04427 3.68164 2.96484L3.04102 1.12891Z" stroke="#05439F" stroke-width="0.5" mask="url(#path-1-outside-1_6_4)"/>
<path d="M5.01172 2.05859C5.01172 1.73568 5.09245 1.47852 5.25391 1.28711C5.41536 1.0957 5.64648 1 5.94727 1C6.19727 1 6.4043 1.08789 6.56836 1.26367C6.73372 1.43815 6.81641 1.71745 6.81641 2.10156C6.81641 2.16016 6.78971 2.18945 6.73633 2.18945H5.375C5.39714 2.44076 5.46484 2.61589 5.57812 2.71484C5.69141 2.8125 5.81966 2.86133 5.96289 2.86133C6.11393 2.86133 6.22982 2.83594 6.31055 2.78516C6.39128 2.73438 6.45052 2.68424 6.48828 2.63477C6.52995 2.58008 6.57031 2.56966 6.60938 2.60352L6.72461 2.70312C6.75456 2.72917 6.75456 2.76497 6.72461 2.81055C6.69987 2.84831 6.62891 2.90885 6.51172 2.99219C6.39583 3.07552 6.21289 3.11719 5.96289 3.11719C5.63737 3.11719 5.39714 3.02148 5.24219 2.83008C5.08854 2.63867 5.01172 2.38151 5.01172 2.05859ZM5.36719 1.93555H6.4707C6.46549 1.75326 6.41862 1.59375 6.33008 1.45703C6.24154 1.31901 6.11133 1.25 5.93945 1.25C5.78841 1.25 5.66016 1.30078 5.55469 1.40234C5.44922 1.5026 5.38672 1.68034 5.36719 1.93555Z" stroke="#05439F" stroke-width="0.5" mask="url(#path-1-outside-1_6_4)"/>
<path d="M7.35547 3.08398C7.29688 3.08398 7.26758 3.05469 7.26758 2.99609V1.12109C7.26758 1.0625 7.29688 1.0332 7.35547 1.0332H7.51953C7.57812 1.0332 7.60742 1.0625 7.60742 1.12109V1.35547H7.61523C7.67773 1.23828 7.7513 1.14974 7.83594 1.08984C7.92057 1.02995 8.02604 1 8.15234 1C8.23568 1 8.29427 1.00716 8.32812 1.02148C8.35807 1.0332 8.36914 1.05273 8.36133 1.08008L8.31641 1.24023C8.3099 1.26367 8.29297 1.27279 8.26562 1.26758C8.22005 1.25846 8.17708 1.25391 8.13672 1.25391C7.98438 1.25391 7.85872 1.32292 7.75977 1.46094C7.66081 1.59766 7.61133 1.78451 7.61133 2.02148V2.99609C7.61133 3.05469 7.58203 3.08398 7.52344 3.08398H7.35547Z" stroke="#05439F" stroke-width="0.5" mask="url(#path-1-outside-1_6_4)"/>
<path d="M8.56641 2.53711C8.56641 2.30534 8.67448 2.13542 8.89062 2.02734C9.10807 1.91927 9.43229 1.85612 9.86328 1.83789V1.70508C9.86328 1.58268 9.83529 1.47721 9.7793 1.38867C9.72461 1.29883 9.61523 1.25391 9.45117 1.25391C9.34701 1.25391 9.26367 1.26432 9.20117 1.28516C9.13867 1.30469 9.08138 1.33138 9.0293 1.36523C8.97852 1.39779 8.92969 1.4401 8.88281 1.49219C8.84766 1.53125 8.81445 1.5332 8.7832 1.49805L8.68164 1.38086C8.65299 1.34831 8.66276 1.30924 8.71094 1.26367C8.77995 1.19857 8.84701 1.14974 8.91211 1.11719C8.97721 1.08464 9.05794 1.05729 9.1543 1.03516C9.25195 1.01172 9.35091 1 9.45117 1C9.72331 1 9.91732 1.07031 10.0332 1.21094C10.1491 1.35026 10.207 1.54167 10.207 1.78516V2.99609C10.207 3.05469 10.1777 3.08398 10.1191 3.08398H9.94336C9.89258 3.08398 9.86719 3.05469 9.86719 2.99609V2.90039H9.86328C9.76042 2.98112 9.65951 3.03776 9.56055 3.07031C9.46289 3.10156 9.35352 3.11719 9.23242 3.11719C9.01888 3.11719 8.85417 3.06641 8.73828 2.96484C8.6237 2.86198 8.56641 2.7194 8.56641 2.53711ZM8.92188 2.54492C8.92188 2.62565 8.9388 2.69076 8.97266 2.74023C9.00651 2.78841 9.05339 2.81966 9.11328 2.83398C9.17318 2.84701 9.23568 2.85352 9.30078 2.85352C9.40104 2.85352 9.49609 2.84375 9.58594 2.82422C9.67578 2.80469 9.76823 2.75326 9.86328 2.66992V2.09375C9.60026 2.11328 9.41276 2.13737 9.30078 2.16602C9.1888 2.19336 9.09766 2.24154 9.02734 2.31055C8.95703 2.37826 8.92188 2.45638 8.92188 2.54492Z" stroke="#05439F" stroke-width="0.5" mask="url(#path-1-outside-1_6_4)"/>
<path d="M10.6523 2.05859C10.6523 1.77865 10.7201 1.53255 10.8555 1.32031C10.9909 1.10677 11.1888 1 11.4492 1C11.599 1 11.7188 1.02474 11.8086 1.07422C11.8984 1.1237 11.9792 1.19141 12.0508 1.27734H12.0547L12.0664 1.12109C12.0703 1.0625 12.0957 1.0332 12.1426 1.0332H12.3066C12.3652 1.0332 12.3945 1.0625 12.3945 1.12109V3.09961C12.3945 3.34961 12.3366 3.54492 12.2207 3.68555C12.1061 3.82747 11.8789 3.89844 11.5391 3.89844C11.3112 3.89844 11.1406 3.8724 11.0273 3.82031C10.9141 3.76953 10.8333 3.71549 10.7852 3.6582C10.75 3.61523 10.748 3.57878 10.7793 3.54883L10.8867 3.44336C10.9167 3.41471 10.9583 3.42383 11.0117 3.4707C11.0807 3.5332 11.1471 3.57747 11.2109 3.60352C11.2747 3.63086 11.3848 3.64453 11.541 3.64453C11.7181 3.64453 11.847 3.60677 11.9277 3.53125C12.0098 3.45573 12.0508 3.29948 12.0508 3.0625V2.94531C12.0508 2.90495 12.0521 2.86523 12.0547 2.82617H12.0508C11.9831 2.91602 11.903 2.98698 11.8105 3.03906C11.7194 3.09115 11.599 3.11719 11.4492 3.11719C11.1888 3.11719 10.9909 3.01107 10.8555 2.79883C10.7201 2.58529 10.6523 2.33854 10.6523 2.05859ZM11.0156 2.05859C11.0156 2.29818 11.0566 2.49219 11.1387 2.64062C11.222 2.78906 11.3626 2.86328 11.5605 2.86328C11.7012 2.86328 11.8177 2.81576 11.9102 2.7207C12.0039 2.62435 12.0508 2.47852 12.0508 2.2832V1.83398C12.0508 1.63867 12.0039 1.49349 11.9102 1.39844C11.8177 1.30208 11.7012 1.25391 11.5605 1.25391C11.3626 1.25391 11.222 1.32812 11.1387 1.47656C11.0566 1.625 11.0156 1.81901 11.0156 2.05859Z" stroke="#05439F" stroke-width="0.5" mask="url(#path-1-outside-1_6_4)"/>
<path d="M12.8398 2.05859C12.8398 1.73568 12.9206 1.47852 13.082 1.28711C13.2435 1.0957 13.4746 1 13.7754 1C14.0254 1 14.2324 1.08789 14.3965 1.26367C14.5618 1.43815 14.6445 1.71745 14.6445 2.10156C14.6445 2.16016 14.6178 2.18945 14.5645 2.18945H13.2031C13.2253 2.44076 13.293 2.61589 13.4062 2.71484C13.5195 2.8125 13.6478 2.86133 13.791 2.86133C13.9421 2.86133 14.0579 2.83594 14.1387 2.78516C14.2194 2.73438 14.2786 2.68424 14.3164 2.63477C14.3581 2.58008 14.3984 2.56966 14.4375 2.60352L14.5527 2.70312C14.5827 2.72917 14.5827 2.76497 14.5527 2.81055C14.528 2.84831 14.457 2.90885 14.3398 2.99219C14.224 3.07552 14.041 3.11719 13.791 3.11719C13.4655 3.11719 13.2253 3.02148 13.0703 2.83008C12.9167 2.63867 12.8398 2.38151 12.8398 2.05859ZM13.1953 1.93555H14.2988C14.2936 1.75326 14.2467 1.59375 14.1582 1.45703C14.0697 1.31901 13.9395 1.25 13.7676 1.25C13.6165 1.25 13.4883 1.30078 13.3828 1.40234C13.2773 1.5026 13.2148 1.68034 13.1953 1.93555Z" stroke="#05439F" stroke-width="0.5" mask="url(#path-1-outside-1_6_4)"/>
<path d="M15.3652 13C15.3066 13 15.2773 12.9707 15.2773 12.9121V10.2051C15.2773 10.1465 15.3066 10.1172 15.3652 10.1172H15.5332C15.5918 10.1172 15.6211 10.1465 15.6211 10.2051V11.8301C15.6211 11.8691 15.6198 11.9082 15.6172 11.9473H15.6211L16.4121 11C16.4408 10.9661 16.4753 10.9492 16.5156 10.9492H16.6934C16.7923 10.9492 16.8092 10.9876 16.7441 11.0645L16.1309 11.7949L16.832 12.8848C16.8815 12.9616 16.8646 13 16.7812 13H16.5898C16.5469 13 16.5098 12.9759 16.4785 12.9277L15.916 12.0508L15.6211 12.4023V12.9121C15.6211 12.9707 15.5918 13 15.5332 13H15.3652Z" stroke="#05439F" stroke-width="0.5" mask="url(#path-1-outside-1_6_4)"/>
<path d="M17.3262 13C17.2676 13 17.2383 12.9707 17.2383 12.9121V11.0371C17.2383 10.9785 17.2676 10.9492 17.3262 10.9492H17.4902C17.5488 10.9492 17.5781 10.9785 17.5781 11.0371V11.1934H17.5859C17.6706 11.0996 17.7624 11.0299 17.8613 10.9844C17.9603 10.9388 18.0553 10.916 18.1465 10.916C18.3145 10.916 18.4434 10.9583 18.5332 11.043C18.6243 11.1263 18.6829 11.2103 18.709 11.2949H18.7168C18.7884 11.1882 18.8789 11.0983 18.9883 11.0254C19.0977 10.9525 19.2142 10.916 19.3379 10.916C19.5449 10.916 19.7012 10.9831 19.8066 11.1172C19.9121 11.25 19.9648 11.4323 19.9648 11.6641V12.9121C19.9648 12.9707 19.9355 13 19.877 13H19.709C19.6504 13 19.6211 12.9707 19.6211 12.9121V11.7773C19.6211 11.5221 19.5892 11.3574 19.5254 11.2832C19.4616 11.2077 19.3633 11.1699 19.2305 11.1699C19.1003 11.1699 18.9915 11.2259 18.9043 11.3379C18.8171 11.4486 18.7734 11.6159 18.7734 11.8398V12.9121C18.7734 12.9707 18.7441 13 18.6855 13H18.5176C18.459 13 18.4297 12.9707 18.4297 12.9121V11.7773C18.4297 11.5221 18.3978 11.3574 18.334 11.2832C18.2702 11.2077 18.1719 11.1699 18.0391 11.1699C17.9089 11.1699 17.8001 11.2207 17.7129 11.3223C17.6257 11.4225 17.582 11.5951 17.582 11.8398V12.9121C17.582 12.9707 17.5527 13 17.4941 13H17.3262Z" stroke="#05439F" stroke-width="0.5" mask="url(#path-1-outside-1_6_4)"/>
<path d="M20.6035 13C20.5449 13 20.5156 12.9707 20.5156 12.9121V10.2051C20.5156 10.1465 20.5449 10.1172 20.6035 10.1172H20.7715C20.8301 10.1172 20.8594 10.1465 20.8594 10.2051V11.0762C20.8594 11.1152 20.8581 11.1543 20.8555 11.1934H20.8633C20.9479 11.0996 21.0391 11.0299 21.1367 10.9844C21.2344 10.9388 21.3561 10.916 21.502 10.916C21.7389 10.916 21.9089 10.9831 22.0117 11.1172C22.1159 11.25 22.168 11.4323 22.168 11.6641V12.9121C22.168 12.9707 22.1387 13 22.0801 13H21.9121C21.8535 13 21.8242 12.9707 21.8242 12.9121V11.7578C21.8242 11.5026 21.7819 11.3411 21.6973 11.2734C21.6126 11.2044 21.5052 11.1699 21.375 11.1699C21.2057 11.1699 21.0775 11.2207 20.9902 11.3223C20.903 11.4225 20.8594 11.5951 20.8594 11.8398V12.9121C20.8594 12.9707 20.8301 13 20.7715 13H20.6035Z" stroke="#05439F" stroke-width="0.5" mask="url(#path-1-outside-1_6_4)"/>
</svg>
