<?xml version="1.0" encoding="UTF-8" standalone="no"?>
<svg
   width="385"
   height="467"
   viewBox="0 0 385 467"
   fill="none"
   version="1.1"
   id="svg48"
   sodipodi:docname="compassdirsb.svg"
   inkscape:version="1.3.1 (91b66b0783, 2023-11-16)"
   xmlns:inkscape="http://www.inkscape.org/namespaces/inkscape"
   xmlns:sodipodi="http://sodipodi.sourceforge.net/DTD/sodipodi-0.dtd"
   xmlns="http://www.w3.org/2000/svg"
   xmlns:svg="http://www.w3.org/2000/svg">
  <sodipodi:namedview
     id="namedview48"
     pagecolor="#ffffff"
     bordercolor="#000000"
     borderopacity="0.25"
     inkscape:showpageshadow="2"
     inkscape:pageopacity="0.0"
     inkscape:pagecheckerboard="0"
     inkscape:deskcolor="#d1d1d1"
     inkscape:zoom="1.6638116"
     inkscape:cx="192.62999"
     inkscape:cy="233.5"
     inkscape:window-width="1920"
     inkscape:window-height="991"
     inkscape:window-x="-9"
     inkscape:window-y="-9"
     inkscape:window-maximized="1"
     inkscape:current-layer="svg48" />
  <path
     d="M 377.5,256 C 377.5,359.553 293.553,443.5 190,443.5 86.4466,443.5 2.5,359.553 2.5,256 2.5,152.447 86.4466,68.5 190,68.5 c 49.77012,0 95.01126,19.391759 128.57999,51.03186 C 354.85523,153.72298 377.5,202.21712 377.5,256 Z"
     fill="url(#paint0_linear_1_108)"
     stroke="#206cb2"
     stroke-width="5"
     stroke-miterlimit="10"
     id="path1"
     sodipodi:nodetypes="ssssss" />
  <path
     d="M192.28 388.24C265.734 388.24 325.28 328.694 325.28 255.24C325.28 181.786 265.734 122.24 192.28 122.24C118.826 122.24 59.28 181.786 59.28 255.24C59.28 328.694 118.826 388.24 192.28 388.24Z"
     fill="url(#paint1_linear_1_108)"
     stroke="#205AB2"
     stroke-width="6"
     stroke-miterlimit="10"
     id="path2" />
  <path
     d="M263.515 398.667V401.16H270.932V404.2H259.92V390.52H270.735V393.499H263.515V395.779H269.853V398.698L263.515 398.667Z"
     fill="#9CA3AF"
     id="path3" />
  <path
     d="M253.452 404.184C251.992 404.267 250.547 403.849 249.356 402.999C248.856 402.585 248.454 402.066 248.178 401.479C247.902 400.891 247.76 400.25 247.76 399.602H251.127C251.21 400.84 252.008 401.456 253.528 401.456C254.843 401.456 255.512 401.03 255.512 400.164C255.514 400.019 255.482 399.875 255.42 399.743C255.359 399.612 255.268 399.496 255.155 399.404C254.791 399.166 254.387 398.999 253.962 398.91L251.416 398.302C249.181 397.785 248.072 396.554 248.072 394.616C248.056 394.063 248.163 393.512 248.385 393.005C248.607 392.498 248.938 392.046 249.356 391.682C250.46 390.843 251.833 390.435 253.217 390.535C254.582 390.455 255.934 390.838 257.055 391.622C257.518 391.983 257.895 392.444 258.158 392.97C258.421 393.496 258.564 394.074 258.575 394.662H255.284C255.14 393.643 254.456 393.142 253.224 393.142C252.781 393.118 252.341 393.229 251.963 393.461C251.819 393.549 251.701 393.673 251.619 393.821C251.538 393.969 251.497 394.136 251.499 394.304C251.499 394.852 251.91 395.232 252.738 395.437L255.39 396.052C257.792 396.625 258.993 397.922 258.993 399.944C259.02 400.546 258.9 401.146 258.643 401.692C258.386 402.237 258 402.712 257.518 403.075C256.325 403.888 254.894 404.278 253.452 404.184Z"
     fill="#9CA3AF"
     id="path4" />
  <path
     d="M302.472 155.277V147.32H306.006V161H302.419L297.669 153.088V161H294.12V147.32H297.669L302.472 155.277Z"
     fill="#9CA3AF"
     id="path5" />
  <path
     d="M194.552 95.2372V87.28H198.086V100.96H194.499L189.749 93.0484V100.96H186.2V87.28H189.749L194.552 95.2372Z"
     fill="#9CA3AF"
     id="path6" />
  <path
     d="M240.912 116.517V108.56H244.446V122.24H240.859L236.109 114.328V122.24H232.56V108.56H236.109L240.912 116.517Z"
     fill="#9CA3AF"
     id="path7" />
  <path
     d="M116.272 116.517V108.56H119.806V122.24H116.219L111.469 114.328V122.24H107.92V108.56H111.469L116.272 116.517Z"
     fill="#9CA3AF"
     id="path8" />
  <path
     d="M129.952 116.517V108.56H133.486V122.24H129.899L125.149 114.328V122.24H121.6V108.56H125.149L129.952 116.517Z"
     fill="#9CA3AF"
     id="path9" />
  <path
     d="M72.1924 155.277V147.32H75.7264V161H72.1392L67.3892 153.088V161H63.84V147.32H67.3892L72.1924 155.277Z"
     fill="#9CA3AF"
     id="path10" />
  <path
     d="M42.9706 205.437V197.48H46.36V211.16H42.9196L38.364 203.248V211.16H34.96V197.48H38.364L42.9706 205.437Z"
     fill="#9CA3AF"
     id="path11" />
  <path
     d="M349.395 256.547V259.04H356.812V262.08H345.8V248.4H356.615V251.379H349.395V253.659H355.733V256.578L349.395 256.547Z"
     fill="#9CA3AF"
     id="path12" />
  <path
     d="M328.505 205.627V208.12H335.16V211.16H325.28V197.48H334.983V200.459H328.505V202.739H334.192V205.658L328.505 205.627Z"
     fill="#9CA3AF"
     id="path13" />
  <path
     d="M311.395 155.467V157.96H318.812V161H307.8V147.32H318.615V150.299H311.395V152.579H317.733V155.498L311.395 155.467Z"
     fill="#9CA3AF"
     id="path14" />
  <path
     d="M345.451 205.437V197.48H348.84V211.16H345.4L340.844 203.248V211.16H337.44V197.48H340.844L345.451 205.437Z"
     fill="#9CA3AF"
     id="path15" />
  <path
     d="M353.833 205.627V208.12H361V211.16H350.36V197.48H360.809V200.459H353.833V202.739H359.957V205.658L353.833 205.627Z"
     fill="#9CA3AF"
     id="path16" />
  <path
     d="M325.075 310.507V313H332.492V316.04H321.48V302.36H332.295V305.339H325.075V307.619H331.413V310.538L325.075 310.507Z"
     fill="#9CA3AF"
     id="path17" />
  <path
     d="M349.395 310.507V313H356.812V316.04H345.8V302.36H356.615V305.339H349.395V307.619H355.733V310.538L349.395 310.507Z"
     fill="#9CA3AF"
     id="path18" />
  <path
     d="M254.592 116.517V108.56H258.126V122.24H254.539L249.789 114.328V122.24H246.24V108.56H249.789L254.592 116.517Z"
     fill="#9CA3AF"
     id="path19" />
  <path
     d="M263.515 116.707V119.2H270.932V122.24H259.92V108.56H270.735V111.539H263.515V113.819H269.853V116.738L263.515 116.707Z"
     fill="#9CA3AF"
     id="path20" />
  <path
     d="M191.892 426.984C190.432 427.067 188.987 426.649 187.796 425.799C187.296 425.385 186.894 424.866 186.618 424.279C186.342 423.691 186.2 423.05 186.2 422.402H189.567C189.65 423.64 190.448 424.256 191.968 424.256C193.283 424.256 193.952 423.83 193.952 422.964C193.954 422.819 193.922 422.675 193.86 422.543C193.799 422.412 193.708 422.296 193.595 422.204C193.231 421.966 192.827 421.799 192.402 421.71L189.856 421.102C187.621 420.585 186.512 419.354 186.512 417.416C186.496 416.863 186.603 416.312 186.825 415.805C187.047 415.298 187.378 414.846 187.796 414.482C188.9 413.643 190.273 413.235 191.657 413.335C193.022 413.255 194.374 413.638 195.495 414.422C195.958 414.783 196.335 415.244 196.598 415.77C196.861 416.296 197.004 416.874 197.015 417.462H193.724C193.58 416.443 192.896 415.942 191.664 415.942C191.221 415.918 190.781 416.029 190.403 416.261C190.259 416.349 190.141 416.473 190.059 416.621C189.978 416.769 189.937 416.936 189.939 417.104C189.939 417.652 190.35 418.032 191.178 418.237L193.83 418.852C196.232 419.425 197.433 420.722 197.433 422.744C197.46 423.346 197.34 423.946 197.083 424.492C196.826 425.037 196.44 425.512 195.958 425.875C194.765 426.688 193.334 427.078 191.892 426.984Z"
     fill="#9CA3AF"
     id="path21" />
  <path
     d="M125.012 404.184C123.552 404.267 122.107 403.849 120.916 402.999C120.416 402.585 120.014 402.066 119.738 401.479C119.462 400.891 119.32 400.25 119.32 399.602H122.687C122.77 400.84 123.568 401.456 125.088 401.456C126.403 401.456 127.072 401.03 127.072 400.164C127.074 400.019 127.042 399.875 126.98 399.743C126.919 399.612 126.828 399.496 126.715 399.404C126.351 399.166 125.947 398.999 125.522 398.91L122.976 398.302C120.741 397.785 119.632 396.554 119.632 394.616C119.616 394.063 119.723 393.512 119.945 393.005C120.167 392.498 120.498 392.046 120.916 391.682C122.02 390.843 123.393 390.435 124.777 390.535C126.142 390.455 127.494 390.838 128.615 391.622C129.078 391.983 129.455 392.444 129.718 392.97C129.981 393.496 130.124 394.074 130.135 394.662H126.844C126.7 393.643 126.016 393.142 124.784 393.142C124.341 393.118 123.901 393.229 123.523 393.461C123.379 393.549 123.261 393.673 123.179 393.821C123.098 393.969 123.057 394.136 123.059 394.304C123.059 394.852 123.47 395.232 124.298 395.437L126.95 396.052C129.352 396.625 130.553 397.922 130.553 399.944C130.58 400.546 130.46 401.146 130.203 401.692C129.946 402.237 129.56 402.712 129.078 403.075C127.885 403.888 126.454 404.278 125.012 404.184Z"
     fill="#9CA3AF"
     id="path22" />
  <path
     d="M68.0124 364.664C66.5517 364.747 65.1066 364.329 63.916 363.479C63.4164 363.065 63.0142 362.546 62.7383 361.959C62.4625 361.371 62.3196 360.73 62.32 360.082H65.6868C65.7704 361.32 66.5684 361.936 68.0884 361.936C69.4032 361.936 70.072 361.51 70.072 360.644C70.0735 360.499 70.0422 360.355 69.9804 360.223C69.9185 360.092 69.8277 359.976 69.7148 359.884C69.3514 359.646 68.9467 359.479 68.5216 359.39L65.9756 358.782C63.7412 358.265 62.6316 357.034 62.6316 355.096C62.6156 354.543 62.7225 353.992 62.9446 353.485C63.1667 352.978 63.4984 352.526 63.916 352.162C65.0204 351.323 66.3931 350.915 67.7768 351.015C69.142 350.935 70.4941 351.318 71.6148 352.102C72.0783 352.463 72.4554 352.924 72.7183 353.45C72.9813 353.976 73.1235 354.554 73.1348 355.142H69.844C69.6996 354.123 69.0156 353.622 67.7844 353.622C67.3413 353.598 66.9014 353.709 66.5228 353.941C66.379 354.029 66.2606 354.153 66.1793 354.301C66.0981 354.449 66.0567 354.616 66.0592 354.784C66.0592 355.332 66.4696 355.712 67.298 355.917L69.9504 356.532C72.352 357.105 73.5528 358.402 73.5528 360.424C73.5801 361.026 73.4602 361.626 73.2032 362.172C72.9463 362.717 72.5602 363.192 72.0784 363.555C70.8847 364.368 69.4535 364.758 68.0124 364.664Z"
     fill="#9CA3AF"
     id="path23" />
  <path
     d="M39.1324 317.544C37.6717 317.627 36.2266 317.209 35.036 316.359C34.5363 315.945 34.1342 315.426 33.8583 314.839C33.5825 314.251 33.4396 313.61 33.44 312.962H36.8068C36.8904 314.2 37.6884 314.816 39.2084 314.816C40.5232 314.816 41.192 314.39 41.192 313.524C41.1935 313.379 41.1622 313.235 41.1004 313.103C41.0385 312.972 40.9477 312.856 40.8348 312.764C40.4714 312.526 40.0667 312.359 39.6416 312.27L37.0956 311.662C34.8612 311.145 33.7516 309.914 33.7516 307.976C33.7356 307.423 33.8425 306.872 34.0646 306.365C34.2867 305.858 34.6184 305.406 35.036 305.042C36.1404 304.203 37.5131 303.795 38.8968 303.895C40.2619 303.815 41.6141 304.198 42.7348 304.982C43.1983 305.343 43.5753 305.804 43.8383 306.33C44.1013 306.856 44.2435 307.434 44.2548 308.022H40.964C40.8196 307.003 40.1356 306.502 38.9044 306.502C38.4613 306.478 38.0214 306.589 37.6428 306.821C37.499 306.909 37.3806 307.033 37.2993 307.181C37.2181 307.329 37.1767 307.496 37.1792 307.664C37.1792 308.212 37.5896 308.592 38.418 308.797L41.0704 309.412C43.472 309.985 44.6728 311.282 44.6728 313.304C44.7001 313.906 44.5802 314.506 44.3232 315.052C44.0663 315.597 43.6802 316.072 43.1984 316.435C42.0047 317.248 40.5735 317.638 39.1324 317.544Z"
     fill="#9CA3AF"
     id="path24" />
  <path
     d="M241.292 404.184C239.832 404.267 238.387 403.849 237.196 402.999C236.696 402.585 236.294 402.066 236.018 401.479C235.742 400.891 235.6 400.25 235.6 399.602H238.967C239.05 400.84 239.848 401.456 241.368 401.456C242.683 401.456 243.352 401.03 243.352 400.164C243.354 400.019 243.322 399.875 243.26 399.743C243.199 399.612 243.108 399.496 242.995 399.404C242.631 399.166 242.227 398.999 241.802 398.91L239.256 398.302C237.021 397.785 235.912 396.554 235.912 394.616C235.896 394.063 236.003 393.512 236.225 393.005C236.447 392.498 236.778 392.046 237.196 391.682C238.3 390.843 239.673 390.435 241.057 390.535C242.422 390.455 243.774 390.838 244.895 391.622C245.358 391.983 245.735 392.444 245.998 392.97C246.261 393.496 246.404 394.074 246.415 394.662H243.124C242.98 393.643 242.296 393.142 241.064 393.142C240.621 393.118 240.181 393.229 239.803 393.461C239.659 393.549 239.541 393.673 239.459 393.821C239.378 393.969 239.337 394.136 239.339 394.304C239.339 394.852 239.75 395.232 240.578 395.437L243.23 396.052C245.632 396.625 246.833 397.922 246.833 399.944C246.86 400.546 246.74 401.146 246.483 401.692C246.226 402.237 245.84 402.712 245.358 403.075C244.165 403.888 242.734 404.278 241.292 404.184Z"
     fill="#9CA3AF"
     id="path25" />
  <path
     d="M338.572 316.024C337.112 316.107 335.667 315.689 334.476 314.839C333.976 314.425 333.574 313.906 333.298 313.319C333.022 312.731 332.88 312.09 332.88 311.442H336.247C336.33 312.68 337.128 313.296 338.648 313.296C339.963 313.296 340.632 312.87 340.632 312.004C340.634 311.859 340.602 311.715 340.54 311.583C340.479 311.452 340.388 311.336 340.275 311.244C339.911 311.006 339.507 310.839 339.082 310.75L336.536 310.142C334.301 309.625 333.192 308.394 333.192 306.456C333.176 305.903 333.283 305.352 333.505 304.845C333.727 304.338 334.058 303.886 334.476 303.522C335.58 302.683 336.953 302.275 338.337 302.375C339.702 302.295 341.054 302.678 342.175 303.462C342.638 303.823 343.015 304.284 343.278 304.81C343.541 305.336 343.684 305.914 343.695 306.502H340.404C340.26 305.483 339.576 304.982 338.344 304.982C337.901 304.958 337.461 305.069 337.083 305.301C336.939 305.389 336.821 305.513 336.739 305.661C336.658 305.809 336.617 305.976 336.619 306.144C336.619 306.692 337.03 307.072 337.858 307.277L340.51 307.892C342.912 308.465 344.113 309.762 344.113 311.784C344.14 312.386 344.02 312.986 343.763 313.532C343.506 314.077 343.12 314.552 342.638 314.915C341.445 315.728 340.014 316.118 338.572 316.024Z"
     fill="#9CA3AF"
     id="path26" />
  <path
     d="M306.075 359.147V361.64H313.492V364.68H302.48V351H313.295V353.979H306.075V356.259H312.413V359.178L306.075 359.147Z"
     fill="#9CA3AF"
     id="path27" />
  <path
     d="M295.252 364.664C293.792 364.747 292.347 364.329 291.156 363.479C290.656 363.065 290.254 362.546 289.978 361.959C289.702 361.371 289.56 360.73 289.56 360.082H292.927C293.01 361.32 293.808 361.936 295.328 361.936C296.643 361.936 297.312 361.51 297.312 360.644C297.314 360.499 297.282 360.355 297.22 360.223C297.159 360.092 297.068 359.976 296.955 359.884C296.591 359.646 296.187 359.479 295.762 359.39L293.216 358.782C290.981 358.265 289.872 357.034 289.872 355.096C289.856 354.543 289.963 353.992 290.185 353.485C290.407 352.978 290.738 352.526 291.156 352.162C292.26 351.323 293.633 350.915 295.017 351.015C296.382 350.935 297.734 351.318 298.855 352.102C299.318 352.463 299.695 352.924 299.958 353.45C300.221 353.976 300.364 354.554 300.375 355.142H297.084C296.94 354.123 296.256 353.622 295.024 353.622C294.581 353.598 294.141 353.709 293.763 353.941C293.619 354.029 293.501 354.153 293.419 354.301C293.338 354.449 293.297 354.616 293.299 354.784C293.299 355.332 293.71 355.712 294.538 355.917L297.19 356.532C299.592 357.105 300.793 358.402 300.793 360.424C300.82 361.026 300.7 361.626 300.443 362.172C300.186 362.717 299.8 363.192 299.318 363.555C298.125 364.368 296.694 364.758 295.252 364.664Z"
     fill="#9CA3AF"
     id="path28" />
  <path
     d="M32.4064 254.412L33.9264 248.4H37.5212L33.5388 262.08H30.0808L28.2568 253.34L26.5088 262.08H22.9748L19 248.4H22.6252L24.1452 254.412L24.776 257.664L25.3384 254.412L26.6228 248.4H29.9668L31.2968 254.412L31.8288 257.604L32.4064 254.412Z"
     fill="#9CA3AF"
     id="path29" />
  <path
     d="M29.1629 203.492L30.6598 197.48H34.2L30.2781 211.16H26.8726L25.0763 202.42L23.3548 211.16H19.8745L15.96 197.48H19.5302L21.0271 203.492L21.6483 206.744L22.2022 203.492L23.4671 197.48H26.7603L28.0701 203.492L28.594 206.684L29.1629 203.492Z"
     fill="#9CA3AF"
     id="path30" />
  <path
     d="M147.166 114.572L148.686 108.56H152.281L148.299 122.24H144.841L143.017 113.5L141.269 122.24H137.735L133.76 108.56H137.385L138.905 114.572L139.536 117.824L140.098 114.572L141.383 108.56H144.727L146.057 114.572L146.589 117.764L147.166 114.572Z"
     fill="#9CA3AF"
     id="path31" />
  <path
     d="M89.4064 153.332L90.9264 147.32H94.5212L90.5388 161H87.0808L85.2568 152.26L83.5088 161H79.9748L76 147.32H79.6252L81.1452 153.332L81.776 156.584L82.3384 153.332L83.6228 147.32H86.9668L88.2968 153.332L88.8288 156.524L89.4064 153.332Z"
     fill="#9CA3AF"
     id="path32" />
  <path
     d="M59.0127 203.492L60.4473 197.48H63.84L60.0815 211.16H56.8179L55.0964 202.42L53.4467 211.16H50.1113L46.36 197.48H49.7814L51.2159 203.492L51.8113 206.744L52.3421 203.492L53.5543 197.48H56.7103L57.9655 203.492L58.4676 206.684L59.0127 203.492Z"
     fill="#9CA3AF"
     id="path33" />
  <path
     d="M27.8464 309.892L29.3664 303.88H32.9612L28.9788 317.56H25.5208L23.6968 308.82L21.9488 317.56H18.4148L14.44 303.88H18.0652L19.5852 309.892L20.216 313.144L20.7784 309.892L22.0628 303.88H25.4068L26.7368 309.892L27.2688 313.084L27.8464 309.892Z"
     fill="#9CA3AF"
     id="path34" />
  <path
     d="M58.2464 309.892L59.7664 303.88H63.3612L59.3788 317.56H55.9208L54.0968 308.82L52.3488 317.56H48.8148L44.84 303.88H48.4652L49.9852 309.892L50.616 313.144L51.1784 309.892L52.4628 303.88H55.8068L57.1368 309.892L57.6688 313.084L58.2464 309.892Z"
     fill="#9CA3AF"
     id="path35" />
  <path
     d="M87.1264 357.012L88.6464 351H92.2412L88.2588 364.68H84.8008L82.9768 355.94L81.2288 364.68H77.6948L73.72 351H77.3452L78.8652 357.012L79.496 360.264L80.0584 357.012L81.3428 351H84.6868L86.0168 357.012L86.5488 360.204L87.1264 357.012Z"
     fill="#9CA3AF"
     id="path36" />
  <path
     d="M137.172 404.184C135.712 404.267 134.267 403.849 133.076 402.999C132.576 402.585 132.174 402.066 131.898 401.479C131.622 400.891 131.48 400.25 131.48 399.602H134.847C134.93 400.84 135.728 401.456 137.248 401.456C138.563 401.456 139.232 401.03 139.232 400.164C139.234 400.019 139.202 399.875 139.14 399.743C139.079 399.612 138.988 399.496 138.875 399.404C138.511 399.166 138.107 398.999 137.682 398.91L135.136 398.302C132.901 397.785 131.792 396.554 131.792 394.616C131.776 394.063 131.882 393.512 132.105 393.005C132.327 392.498 132.658 392.046 133.076 391.682C134.18 390.843 135.553 390.435 136.937 390.535C138.302 390.455 139.654 390.838 140.775 391.622C141.238 391.983 141.615 392.444 141.878 392.97C142.141 393.496 142.284 394.074 142.295 394.662H139.004C138.86 393.643 138.176 393.142 136.944 393.142C136.501 393.118 136.061 393.229 135.683 393.461C135.539 393.549 135.421 393.673 135.339 393.821C135.258 393.969 135.217 394.136 135.219 394.304C135.219 394.852 135.63 395.232 136.458 395.437L139.11 396.052C141.512 396.625 142.713 397.922 142.713 399.944C142.74 400.546 142.62 401.146 142.363 401.692C142.106 402.237 141.72 402.712 141.238 403.075C140.045 403.888 138.614 404.278 137.172 404.184Z"
     fill="#9CA3AF"
     id="path37" />
  <path
     d="M155.526 396.532L157.046 390.52H160.641L156.659 404.2H153.201L151.377 395.46L149.629 404.2H146.095L142.12 390.52H145.745L147.265 396.532L147.896 399.784L148.458 396.532L149.743 390.52H153.087L154.417 396.532L154.949 399.724L155.526 396.532Z"
     fill="#9CA3AF"
     id="path38" />
  <defs
     id="defs48">
    <linearGradient
       id="paint0_linear_1_108"
       x1="88.92"
       y1="85"
       x2="353.4"
       y2="376.84"
       gradientUnits="userSpaceOnUse">
      <stop
         stop-color="#6B7280"
         stop-opacity="0.33"
         id="stop39" />
      <stop
         offset="0.0001"
         stop-color="#5A6271"
         id="stop40" />
      <stop
         offset="0.0002"
         stop-color="#374151"
         id="stop41" />
      <stop
         offset="0.973056"
         stop-color="#47505F"
         stop-opacity="0.739433"
         id="stop42" />
      <stop
         offset="0.9999"
         stop-color="#5A6271"
         stop-opacity="0.419733"
         id="stop43" />
      <stop
         offset="1"
         stop-color="#6B7280"
         stop-opacity="0.14"
         id="stop44" />
      <stop
         offset="1"
         stop-color="#626978"
         stop-opacity="0.29441"
         id="stop45" />
    </linearGradient>
    <linearGradient
       id="paint1_linear_1_108"
       x1="125.771"
       y1="140.038"
       x2="258.789"
       y2="370.442"
       gradientUnits="userSpaceOnUse">
      <stop
         stop-color="#6B7280"
         id="stop46" />
      <stop
         offset="0.45"
         stop-color="#6B7280"
         id="stop47" />
      <stop
         offset="1"
         stop-color="#374151"
         id="stop48" />
    </linearGradient>
  </defs>
</svg>
