<svg width="360" height="360" viewBox="0 0 360 360" fill="none" xmlns="http://www.w3.org/2000/svg">
<path d="M180 355C276.65 355 355 276.65 355 180C355 83.3502 276.65 5 180 5C83.3502 5 5 83.3502 5 180C5 276.65 83.3502 355 180 355Z" fill="url(#paint0_linear_1_3)" stroke="#05439F" stroke-width="10" stroke-miterlimit="10"/>
<path d="M264.993 316.137L266.686 318.732L275.045 314.078L277.11 317.244L264.699 324.153L255.409 309.909L267.597 303.124L269.62 306.226L261.483 310.756L263.031 313.13L270.175 309.153L272.157 312.192L264.993 316.137Z" fill="#9CA3AF"/>
<path d="M257.399 328.195C255.809 329.197 253.897 329.669 251.977 329.53C251.133 329.413 250.328 329.125 249.618 328.686C248.908 328.248 248.312 327.67 247.872 326.994L251.666 324.882C252.602 326.119 253.919 326.26 255.632 325.306C257.114 324.481 257.578 323.618 256.99 322.716C256.893 322.564 256.76 322.434 256.601 322.336C256.442 322.237 256.261 322.174 256.071 322.149C255.5 322.129 254.93 322.209 254.391 322.383L251.109 323.348C248.24 324.212 246.153 323.626 244.837 321.608C244.443 321.042 244.19 320.402 244.096 319.734C244.002 319.067 244.069 318.388 244.292 317.748C244.967 316.18 246.237 314.894 247.864 314.13C249.349 313.191 251.132 312.741 252.928 312.854C253.696 312.94 254.433 313.183 255.087 313.565C255.74 313.948 256.293 314.461 256.705 315.066L252.996 317.13C252.142 316.16 251.031 316.067 249.643 316.84C249.128 317.093 248.708 317.485 248.438 317.964C248.336 318.146 248.287 318.35 248.296 318.554C248.304 318.759 248.371 318.959 248.488 319.133C248.86 319.703 249.581 319.841 250.653 319.535L254.061 318.512C257.156 317.601 259.39 318.198 260.763 320.303C261.203 320.913 261.475 321.613 261.556 322.342C261.637 323.072 261.525 323.808 261.228 324.488C260.435 326.084 259.087 327.388 257.399 328.195Z" fill="#9CA3AF"/>
<path d="M300.358 81.1393L308.75 74.878L311.53 78.6049L297.104 89.3693L294.281 85.5863L298.887 74.3517L290.544 80.5771L287.751 76.8341L302.177 66.0697L304.97 69.8126L300.358 81.1393Z" fill="#9CA3AF"/>
<path d="M182.99 25.47V15H187.64V33H182.92L176.67 22.59V33H172V15H176.67L182.99 25.47Z" fill="#9CA3AF"/>
<path d="M239.336 31.8012L243.479 23.4827L247.015 25.4053L239.892 39.7065L236.303 37.7549L235.67 26.8999L231.551 35.1707L228 33.2398L235.123 18.9387L238.674 20.8696L239.336 31.8012Z" fill="#9CA3AF"/>
<path d="M94.6684 46.9354L90.338 38.1361L94.0887 36.1322L101.534 51.26L97.7264 53.294L88.3795 47.2386L92.6851 55.9875L88.9182 58L81.4734 42.8723L85.2402 40.8597L94.6684 46.9354Z" fill="#9CA3AF"/>
<path d="M109.187 39.1784L104.857 30.3791L108.608 28.3752L116.053 43.5029L112.245 45.537L102.898 39.4816L107.204 48.2304L103.437 50.243L95.9923 35.1152L99.7592 33.1027L109.187 39.1784Z" fill="#9CA3AF"/>
<path d="M54.4692 87.4581L46.5324 80.6295L49.5652 77.1046L63.21 88.8442L60.1316 92.4222L48.1641 90.3706L56.0553 97.16L53.0095 100.7L39.3647 88.9604L42.4105 85.4204L54.4692 87.4581Z" fill="#9CA3AF"/>
<path d="M30.7538 127.048L21.6531 124.298L22.8863 120.296L38.5323 125.023L37.2805 129.085L26.5743 131.731L35.6228 134.464L34.3842 138.484L18.7383 133.757L19.9769 129.737L30.7538 127.048Z" fill="#9CA3AF"/>
<path d="M335.73 181.72V185H345.49V189H331V171H345.23V174.92H335.73V177.92H344.07V181.76L335.73 181.72Z" fill="#9CA3AF"/>
<path d="M322.655 113.943L319.834 114.871L322.708 122.938L319.267 124.07L315 112.093L330.484 107L334.675 118.762L331.303 119.871L328.505 112.019L325.924 112.868L328.38 119.761L325.077 120.848L322.655 113.943Z" fill="#9CA3AF"/>
<path d="M307.179 90.6982L304.55 92.6597L310.386 100.482L307.181 102.874L298.515 91.2608L312.942 80.4964L321.452 91.9014L318.31 94.2457L312.629 86.6316L310.224 88.4257L315.212 95.11L312.134 97.4064L307.179 90.6982Z" fill="#9CA3AF"/>
<path d="M329.72 133.098L338.727 130.136L340.096 133.979L324.612 139.072L323.222 135.171L330.336 127.059L321.381 130.005L320.006 126.145L335.491 121.052L336.866 124.912L329.72 133.098Z" fill="#9CA3AF"/>
<path d="M332.962 142.873L330.141 143.801L333.015 151.868L329.574 153L325.307 141.023L340.791 135.93L344.981 147.692L341.609 148.801L338.812 140.949L336.231 141.798L338.687 148.691L335.384 149.778L332.962 142.873Z" fill="#9CA3AF"/>
<path d="M322.905 250.732L325.734 251.94L329.16 243.109L332.61 244.582L327.523 257.693L312 251.063L316.996 238.188L320.376 239.632L317.041 248.227L319.628 249.332L322.556 241.786L325.868 243.201L322.905 250.732Z" fill="#9CA3AF"/>
<path d="M334.139 221.779L336.968 222.987L340.394 214.156L343.844 215.63L338.757 228.74L323.234 222.11L328.23 209.235L331.61 210.679L328.275 219.274L330.862 220.379L333.79 212.834L337.102 214.248L334.139 221.779Z" fill="#9CA3AF"/>
<path d="M253.052 39.1848L257.195 30.8663L260.731 32.7889L253.608 47.0901L250.019 45.1385L249.386 34.2835L245.267 42.5543L241.716 40.6234L248.839 26.3223L252.39 28.2532L253.052 39.1848Z" fill="#9CA3AF"/>
<path d="M261.909 44.1805L260.611 46.7865L268.032 50.822L266.449 54L255.431 48.0088L262.554 33.7077L273.374 39.5913L271.823 42.7058L264.599 38.7778L263.412 41.1614L269.754 44.6097L268.234 47.6606L261.909 44.1805Z" fill="#9CA3AF"/>
<path d="M179.49 344.98C177.568 345.089 175.667 344.538 174.1 343.42C173.443 342.875 172.913 342.192 172.55 341.419C172.187 340.647 171.999 339.803 172 338.95H176.43C176.54 340.58 177.59 341.39 179.59 341.39C181.32 341.39 182.2 340.83 182.2 339.69C182.202 339.498 182.161 339.309 182.079 339.136C181.998 338.963 181.879 338.81 181.73 338.69C181.252 338.377 180.719 338.156 180.16 338.04L176.81 337.24C173.87 336.56 172.41 334.94 172.41 332.39C172.389 331.661 172.53 330.937 172.822 330.27C173.114 329.602 173.551 329.008 174.1 328.53C175.553 327.425 177.359 326.888 179.18 327.02C180.976 326.915 182.755 327.419 184.23 328.45C184.84 328.925 185.336 329.532 185.682 330.224C186.028 330.916 186.215 331.676 186.23 332.45H181.9C181.71 331.11 180.81 330.45 179.19 330.45C178.607 330.419 178.028 330.565 177.53 330.87C177.341 330.986 177.185 331.149 177.078 331.344C176.971 331.538 176.917 331.757 176.92 331.98C176.92 332.7 177.46 333.2 178.55 333.47L182.04 334.28C185.2 335.033 186.78 336.74 186.78 339.4C186.816 340.192 186.658 340.982 186.32 341.7C185.982 342.418 185.474 343.042 184.84 343.52C183.269 344.589 181.386 345.103 179.49 344.98Z" fill="#9CA3AF"/>
<path d="M86.6271 320.045C84.8777 319.339 83.455 318.129 82.5944 316.616C82.2684 315.923 82.1206 315.174 82.1615 314.425C82.2024 313.676 82.4311 312.943 82.8312 312.28L86.7458 314.103C86.08 315.414 86.6287 316.475 88.396 317.298C89.9248 318.01 90.9645 317.937 91.4982 317.052C91.5895 316.904 91.6417 316.74 91.6509 316.572C91.66 316.404 91.6259 316.236 91.551 316.082C91.275 315.642 90.9076 315.252 90.4679 314.931L87.8821 312.931C85.6025 311.194 85.0707 309.335 86.2644 307.354C86.5867 306.78 87.0499 306.276 87.6205 305.878C88.1912 305.48 88.8552 305.197 89.5647 305.052C91.366 304.792 93.2134 305.118 94.7606 305.969C96.3969 306.627 97.7332 307.75 98.5537 309.157C98.8698 309.778 99.0245 310.453 99.0063 311.133C98.9881 311.812 98.7975 312.48 98.4485 313.087L94.6223 311.305C95.0817 310.187 94.5953 309.304 93.1638 308.637C92.663 308.373 92.0831 308.249 91.5003 308.28C91.2787 308.293 91.0645 308.356 90.8789 308.463C90.6933 308.57 90.5426 308.718 90.4416 308.892C90.1046 309.451 90.3477 310.061 91.1845 310.719L93.8893 312.784C96.3291 314.669 96.9263 316.645 95.6811 318.711C95.3418 319.341 94.8327 319.889 94.1979 320.308C93.5631 320.726 92.8218 321.003 92.0382 321.112C90.1495 321.297 88.2449 320.921 86.6271 320.045Z" fill="#9CA3AF"/>
<path d="M45.4068 278.953C44.0769 277.561 43.2621 275.757 43.0971 273.839C43.0851 272.985 43.2616 272.139 43.6141 271.362C43.9666 270.584 44.4864 269.894 45.1364 269.341L48.0104 272.712C46.8413 273.853 46.9061 275.178 48.2036 276.7C49.326 278.016 50.3231 278.323 51.1906 277.583C51.3375 277.46 51.4548 277.306 51.5338 277.132C51.6128 276.958 51.6514 276.768 51.6467 276.577C51.5746 276.01 51.3969 275.461 51.1228 274.96L49.5582 271.892C48.1683 269.213 48.454 267.051 50.3945 265.397C50.9351 264.908 51.5772 264.546 52.2747 264.335C52.9722 264.125 53.7078 264.071 54.4284 264.179C56.2118 264.568 57.7922 265.594 58.8731 267.065C60.1182 268.364 60.8891 270.045 61.0611 271.836C61.0946 272.609 60.9553 273.379 60.6531 274.092C60.351 274.804 59.8937 275.44 59.3147 275.953L56.5056 272.658C57.402 271.644 57.3204 270.531 56.2694 269.298C55.9147 268.834 55.4278 268.489 54.8729 268.307C54.6617 268.238 54.4363 268.226 54.2188 268.271C54.0013 268.316 53.7992 268.416 53.6324 268.563C53.0845 269.03 53.0543 269.765 53.556 270.77L55.2038 273.951C56.6806 276.845 56.4069 279.155 54.3826 280.88C53.8027 281.422 53.0994 281.814 52.3338 282.022C51.5681 282.231 50.7632 282.25 49.9887 282.077C48.1557 281.575 46.543 280.476 45.4068 278.953Z" fill="#9CA3AF"/>
<path d="M37.0125 228.044C37.6354 229.703 37.6948 231.533 37.1808 233.232C36.9016 233.966 36.4699 234.628 35.9164 235.169C35.3629 235.71 34.7014 236.117 33.979 236.362L32.7559 232.465C34.1045 231.901 34.4999 230.745 33.9477 228.986C33.4701 227.465 32.7534 226.851 31.7889 227.179C31.6265 227.232 31.4777 227.322 31.3537 227.443C31.2297 227.565 31.1336 227.714 31.0727 227.879C30.94 228.389 30.9005 228.921 30.9562 229.446L31.2044 232.622C31.4408 235.403 30.4734 237.152 28.3161 237.884C27.7057 238.111 27.0545 238.195 26.4091 238.13C25.7638 238.065 25.1404 237.851 24.5839 237.505C23.2481 236.544 22.2952 235.11 21.9039 233.471C21.3193 231.921 21.2543 230.212 21.7194 228.619C21.9537 227.946 22.3295 227.336 22.8194 226.833C23.3093 226.33 23.9009 225.947 24.5512 225.712L25.7467 229.52C24.6655 230.072 24.3557 231.053 24.8029 232.478C24.9378 232.999 25.2214 233.466 25.6165 233.817C25.7671 233.95 25.9484 234.04 26.1425 234.078C26.3367 234.117 26.5371 234.102 26.724 234.035C27.3332 233.828 27.6071 233.21 27.5345 232.174L27.2562 228.872C27.0211 225.877 28.0287 223.997 30.2791 223.234C30.9398 222.975 31.6513 222.887 32.352 222.978C33.0527 223.069 33.7214 223.337 34.3002 223.757C35.6388 224.832 36.5935 226.34 37.0125 228.044Z" fill="#9CA3AF"/>
<path d="M243.695 335.824C242.105 336.827 240.192 337.298 238.273 337.16C237.429 337.042 236.623 336.754 235.914 336.316C235.204 335.877 234.608 335.299 234.167 334.624L237.962 332.511C238.897 333.749 240.215 333.889 241.928 332.935C243.409 332.11 243.874 331.248 243.286 330.346C243.189 330.193 243.056 330.063 242.897 329.965C242.738 329.867 242.557 329.803 242.367 329.778C241.796 329.759 241.226 329.838 240.687 330.013L237.405 330.977C234.536 331.841 232.449 331.255 231.133 329.237C230.739 328.671 230.486 328.031 230.392 327.363C230.297 326.696 230.364 326.017 230.588 325.377C231.263 323.81 232.532 322.524 234.16 321.76C235.644 320.82 237.428 320.371 239.223 320.483C239.991 320.569 240.729 320.812 241.383 321.195C242.036 321.577 242.589 322.09 243.001 322.695L239.292 324.76C238.438 323.79 237.326 323.697 235.939 324.469C235.423 324.723 235.003 325.114 234.734 325.593C234.632 325.775 234.583 325.979 234.591 326.184C234.6 326.389 234.667 326.588 234.784 326.762C235.156 327.332 235.876 327.47 236.949 327.164L240.357 326.141C243.452 325.23 245.686 325.827 247.059 327.932C247.499 328.542 247.771 329.242 247.852 329.972C247.933 330.701 247.82 331.438 247.524 332.118C246.731 333.713 245.383 335.017 243.695 335.824Z" fill="#9CA3AF"/>
<path d="M335.4 237.337C334.82 239.116 333.678 240.634 332.163 241.639C331.463 242.033 330.688 242.26 329.894 242.304C329.1 242.348 328.307 242.207 327.571 241.893L329.126 237.884C330.57 238.385 331.638 237.734 332.34 235.924C332.947 234.359 332.773 233.356 331.79 232.936C331.626 232.864 331.448 232.832 331.27 232.842C331.092 232.851 330.919 232.903 330.763 232.993C330.325 233.311 329.948 233.711 329.651 234.174L327.785 236.911C326.166 239.32 324.257 240.045 322.058 239.105C321.422 238.856 320.847 238.462 320.374 237.952C319.901 237.442 319.542 236.828 319.322 236.155C318.88 234.433 319.051 232.601 319.803 231.002C320.344 229.338 321.403 227.914 322.809 226.96C323.434 226.583 324.131 226.358 324.849 226.3C325.567 226.241 326.289 226.352 326.961 226.624L325.441 230.541C324.219 230.22 323.334 230.791 322.765 232.256C322.534 232.773 322.457 233.35 322.544 233.913C322.578 234.127 322.664 234.328 322.795 234.497C322.925 234.665 323.095 234.795 323.287 234.874C323.908 235.139 324.529 234.835 325.145 233.948L327.068 231.089C328.827 228.507 330.854 227.706 333.148 228.686C333.844 228.945 334.469 229.379 334.97 229.949C335.47 230.519 335.831 231.209 336.02 231.958C336.391 233.774 336.173 235.667 335.4 237.337Z" fill="#9CA3AF"/>
<path d="M306.134 277.358L308.656 279.455L314.895 271.949L317.971 274.506L308.709 285.649L294.866 274.143L303.962 263.2L306.977 265.706L300.904 273.011L303.212 274.929L308.543 268.515L311.496 270.97L306.134 277.358Z" fill="#9CA3AF"/>
<path d="M302.615 292.949C301.47 294.497 299.831 295.608 297.97 296.097C297.131 296.255 296.267 296.225 295.441 296.011C294.615 295.796 293.846 295.401 293.19 294.855L296.021 291.448C297.345 292.406 298.639 292.116 299.918 290.578C301.023 289.247 301.155 288.213 300.279 287.484C300.133 287.36 299.961 287.271 299.776 287.223C299.59 287.175 299.397 287.169 299.209 287.206C298.663 287.374 298.153 287.643 297.706 287.998L294.949 290.063C292.547 291.889 290.368 291.977 288.407 290.347C287.833 289.897 287.366 289.327 287.04 288.675C286.713 288.024 286.535 287.308 286.519 286.58C286.598 284.756 287.339 283.024 288.604 281.708C289.672 280.259 291.197 279.213 292.932 278.738C293.688 278.573 294.471 278.579 295.225 278.756C295.978 278.932 296.682 279.274 297.287 279.757L294.519 283.087C293.367 282.377 292.284 282.647 291.249 283.893C290.852 284.321 290.595 284.86 290.511 285.438C290.479 285.657 290.505 285.882 290.586 286.088C290.668 286.295 290.801 286.477 290.974 286.616C291.528 287.077 292.258 286.981 293.162 286.315L296.016 284.149C298.615 282.2 300.937 282.076 302.983 283.776C303.616 284.255 304.122 284.882 304.458 285.6C304.794 286.319 304.95 287.109 304.912 287.902C304.73 289.793 303.922 291.57 302.615 292.949Z" fill="#9CA3AF"/>
<path d="M30.64 178.91L32.64 171H37.37L32.13 189H27.58L25.18 177.5L22.88 189H18.23L13 171H17.77L19.77 178.91L20.6 183.19L21.34 178.91L23.03 171H27.43L29.18 178.91L29.88 183.11L30.64 178.91Z" fill="#9CA3AF"/>
<path d="M24.5705 142.168L18.2254 138.37L19.4799 134.299L33.7361 143.536L32.5294 147.452L21.8968 146.497L31.2828 151.497L30.0496 155.499L13.0165 155.273L14.2816 151.168L21.6876 151.524L25.628 151.933L22.104 150.172L15.6767 146.641L16.8436 142.854L24.1833 143.425L28.0197 143.925L24.5705 142.168Z" fill="#9CA3AF"/>
<path d="M126.398 27.266L124.74 19.7563L128.555 17.7179L131.773 35.1038L128.103 37.0646L121.411 28.4339L124.312 39.0901L120.562 41.094L108.898 28.2201L112.746 26.1645L117.63 31.9504L120.07 35.1897L118.897 31.2738L116.988 23.8977L120.537 22.0015L125.221 27.8952L127.522 31.1233L126.398 27.266Z" fill="#9CA3AF"/>
<path d="M67.3009 68.6187L62.6092 61.9437L65.6941 58.3582L75.9214 74.07L72.9538 77.5191L62.671 71.8381L69.8885 81.0819L66.8558 84.6068L49.7999 76.8317L52.9109 73.2159L60.2115 76.8587L63.9972 79.0209L61.2354 75.6686L56.3415 69.2285L59.2112 65.8931L66.3487 69.7255L69.989 71.9341L67.3009 68.6187Z" fill="#9CA3AF"/>
<path d="M35.4446 106.881L29.0995 103.083L30.354 99.0121L44.6102 108.249L43.4035 112.165L32.7709 111.21L42.1569 116.21L40.9237 120.212L23.8906 119.986L25.1557 115.881L32.5617 116.237L36.5021 116.646L32.9781 114.886L26.5508 111.354L27.7177 107.567L35.0574 108.138L38.8938 108.639L35.4446 106.881Z" fill="#9CA3AF"/>
<path d="M32.5936 243.994L25.3496 244.505L24.0437 240.345L40.7184 239.788L41.9746 243.789L32.9082 249.201L43.2722 247.923L44.556 252.012L30.772 261.778L29.455 257.583L35.5947 253.554L38.9864 251.595L35.1613 252.173L28.0028 252.957L26.788 249.087L32.9967 245.278L36.3566 243.457L32.5936 243.994Z" fill="#9CA3AF"/>
<path d="M21.55 208.815L14.3059 209.326L13 205.166L29.6747 204.608L30.9309 208.61L21.8646 214.022L32.2286 212.744L33.5124 216.833L19.7283 226.599L18.4114 222.404L24.5511 218.375L27.9428 216.416L24.1176 216.994L16.9592 217.778L15.7444 213.908L21.953 210.099L25.313 208.278L21.55 208.815Z" fill="#9CA3AF"/>
<path d="M69.3859 291.559L76.7029 287.949L79.7715 291.549L62.6741 299.239L59.7223 295.776L66.9167 286.489L56.6731 292.2L53.6564 288.661L63.9613 273.003L67.0559 276.633L62.3339 283.287L59.6153 286.695L63.3525 284.482L70.4683 280.636L73.3229 283.984L68.4387 290.448L65.6967 293.705L69.3859 291.559Z" fill="#9CA3AF"/>
<path d="M100.766 326.628C99.0163 325.922 97.5936 324.712 96.733 323.199C96.407 322.505 96.2592 321.757 96.3001 321.008C96.3411 320.258 96.5698 319.526 96.9699 318.863L100.884 320.686C100.219 321.997 100.767 323.058 102.535 323.881C104.063 324.593 105.103 324.52 105.637 323.635C105.728 323.487 105.78 323.323 105.79 323.155C105.799 322.987 105.765 322.819 105.69 322.665C105.414 322.225 105.046 321.834 104.607 321.514L102.021 319.514C99.7411 317.776 99.2093 315.918 100.403 313.937C100.725 313.363 101.189 312.859 101.759 312.46C102.33 312.062 102.994 311.78 103.703 311.635C105.505 311.375 107.352 311.701 108.899 312.552C110.536 313.21 111.872 314.333 112.692 315.74C113.008 316.361 113.163 317.036 113.145 317.715C113.127 318.395 112.936 319.063 112.587 319.67L108.761 317.888C109.22 316.769 108.734 315.886 107.302 315.22C106.802 314.956 106.222 314.832 105.639 314.863C105.417 314.876 105.203 314.938 105.018 315.046C104.832 315.153 104.681 315.3 104.58 315.474C104.243 316.033 104.486 316.644 105.323 317.302L108.028 319.367C110.468 321.252 111.065 323.228 109.82 325.294C109.48 325.924 108.971 326.472 108.337 326.891C107.702 327.309 106.96 327.585 106.177 327.695C104.288 327.88 102.384 327.504 100.766 326.628Z" fill="#9CA3AF"/>
<path d="M126.534 329.003L131.847 323.918L136 325.851L123.303 337.142L119.309 335.282L122.375 325.719L115.183 333.361L111.1 331.46L114.605 315.89L118.793 317.84L116.991 324.56L115.794 328.093L118.369 325.202L123.411 319.99L127.274 321.788L125.252 328.406L123.977 331.827L126.534 329.003Z" fill="#9CA3AF"/>
<defs>
<linearGradient id="paint0_linear_1_3" x1="92.4879" y1="28.4184" x2="267.512" y2="331.582" gradientUnits="userSpaceOnUse">
<stop stop-color="#0B214E"/>
<stop offset="1" stop-color="#374151"/>
</linearGradient>
</defs>
</svg>
