<svg width="512" height="512" viewBox="0 0 512 512" fill="none" xmlns="http://www.w3.org/2000/svg">
<g id="compass 1" filter="url(#filter0_d_1_2)">
<g id="Component 2">
<path id="Vector" d="M256 431C352.65 431 431 352.65 431 256C431 159.35 352.65 81 256 81C159.35 81 81 159.35 81 256C81 352.65 159.35 431 256 431Z" fill="url(#paint0_linear_1_2)" stroke="#05439F" stroke-width="10" stroke-miterlimit="10"/>
<path id="Vector_2" d="M340.993 392.137L342.686 394.732L351.045 390.078L353.11 393.244L340.699 400.153L331.409 385.909L343.597 379.124L345.62 382.226L337.483 386.756L339.031 389.13L346.175 385.153L348.157 388.192L340.993 392.137Z" fill="#9CA3AF"/>
<path id="Vector_3" d="M333.399 404.195C331.809 405.197 329.897 405.669 327.977 405.53C327.133 405.413 326.328 405.125 325.618 404.686C324.908 404.248 324.312 403.67 323.872 402.994L327.666 400.882C328.602 402.119 329.919 402.26 331.632 401.306C333.114 400.481 333.578 399.618 332.99 398.716C332.893 398.564 332.76 398.434 332.601 398.336C332.442 398.237 332.261 398.174 332.071 398.149C331.5 398.129 330.93 398.209 330.391 398.383L327.109 399.348C324.24 400.212 322.153 399.626 320.837 397.608C320.443 397.042 320.19 396.402 320.096 395.734C320.002 395.067 320.069 394.388 320.292 393.748C320.967 392.18 322.237 390.894 323.864 390.13C325.349 389.191 327.132 388.741 328.928 388.854C329.696 388.94 330.433 389.183 331.087 389.565C331.74 389.948 332.293 390.461 332.705 391.066L328.996 393.13C328.142 392.16 327.031 392.067 325.643 392.84C325.128 393.093 324.708 393.485 324.438 393.964C324.336 394.146 324.287 394.35 324.296 394.554C324.304 394.759 324.371 394.959 324.488 395.133C324.86 395.703 325.581 395.841 326.653 395.535L330.061 394.512C333.156 393.601 335.39 394.198 336.763 396.303C337.203 396.913 337.475 397.613 337.556 398.342C337.637 399.072 337.525 399.808 337.228 400.488C336.435 402.084 335.087 403.388 333.399 404.195Z" fill="#9CA3AF"/>
<path id="Vector_4" d="M376.358 157.139L384.75 150.878L387.53 154.605L373.104 165.369L370.281 161.586L374.887 150.352L366.544 156.577L363.751 152.834L378.177 142.07L380.97 145.813L376.358 157.139Z" fill="#9CA3AF"/>
<path id="Vector_5" d="M258.99 101.47V91H263.64V109H258.92L252.67 98.59V109H248V91H252.67L258.99 101.47Z" fill="#9CA3AF"/>
<path id="Vector_6" d="M315.336 107.801L319.479 99.4827L323.015 101.405L315.892 115.706L312.303 113.755L311.67 102.9L307.551 111.171L304 109.24L311.123 94.9387L314.674 96.8696L315.336 107.801Z" fill="#9CA3AF"/>
<path id="Vector_7" d="M170.668 122.935L166.338 114.136L170.089 112.132L177.534 127.26L173.726 129.294L164.379 123.239L168.685 131.987L164.918 134L157.473 118.872L161.24 116.86L170.668 122.935Z" fill="#9CA3AF"/>
<path id="Vector_8" d="M185.187 115.178L180.857 106.379L184.608 104.375L192.053 119.503L188.245 121.537L178.898 115.482L183.204 124.23L179.437 126.243L171.992 111.115L175.759 109.103L185.187 115.178Z" fill="#9CA3AF"/>
<path id="Vector_9" d="M130.469 163.458L122.532 156.63L125.565 153.105L139.21 164.844L136.132 168.422L124.164 166.371L132.055 173.16L129.01 176.7L115.365 164.96L118.411 161.42L130.469 163.458Z" fill="#9CA3AF"/>
<path id="Vector_10" d="M106.754 203.048L97.6531 200.298L98.8863 196.296L114.532 201.023L113.28 205.085L102.574 207.731L111.623 210.464L110.384 214.484L94.7383 209.757L95.9769 205.737L106.754 203.048Z" fill="#9CA3AF"/>
<path id="Vector_11" d="M411.73 257.72V261H421.49V265H407V247H421.23V250.92H411.73V253.92H420.07V257.76L411.73 257.72Z" fill="#9CA3AF"/>
<path id="Vector_12" d="M398.655 189.943L395.834 190.871L398.708 198.938L395.267 200.07L391 188.093L406.484 183L410.675 194.762L407.303 195.871L404.505 188.019L401.924 188.868L404.38 195.761L401.077 196.848L398.655 189.943Z" fill="#9CA3AF"/>
<path id="Vector_13" d="M383.179 166.698L380.55 168.66L386.386 176.482L383.181 178.874L374.515 167.261L388.942 156.496L397.452 167.901L394.31 170.246L388.629 162.632L386.224 164.426L391.212 171.11L388.134 173.406L383.179 166.698Z" fill="#9CA3AF"/>
<path id="Vector_14" d="M405.72 209.098L414.727 206.136L416.096 209.979L400.612 215.072L399.222 211.171L406.336 203.059L397.381 206.005L396.006 202.145L411.491 197.052L412.866 200.912L405.72 209.098Z" fill="#9CA3AF"/>
<path id="Vector_15" d="M408.962 218.873L406.141 219.801L409.015 227.868L405.574 229L401.307 217.023L416.791 211.93L420.981 223.692L417.609 224.801L414.812 216.949L412.231 217.798L414.687 224.691L411.384 225.778L408.962 218.873Z" fill="#9CA3AF"/>
<path id="Vector_16" d="M398.905 326.732L401.734 327.94L405.16 319.109L408.61 320.582L403.523 333.693L388 327.063L392.996 314.188L396.376 315.632L393.041 324.227L395.628 325.332L398.556 317.786L401.868 319.201L398.905 326.732Z" fill="#9CA3AF"/>
<path id="Vector_17" d="M410.139 297.779L412.968 298.987L416.394 290.156L419.844 291.63L414.757 304.74L399.234 298.11L404.23 285.235L407.61 286.679L404.275 295.274L406.862 296.379L409.79 288.834L413.102 290.248L410.139 297.779Z" fill="#9CA3AF"/>
<path id="Vector_18" d="M329.052 115.185L333.195 106.866L336.731 108.789L329.608 123.09L326.019 121.138L325.386 110.283L321.267 118.554L317.716 116.623L324.839 102.322L328.39 104.253L329.052 115.185Z" fill="#9CA3AF"/>
<path id="Vector_19" d="M337.909 120.181L336.611 122.786L344.032 126.822L342.449 130L331.431 124.009L338.554 109.708L349.374 115.591L347.823 118.706L340.599 114.778L339.412 117.161L345.754 120.61L344.234 123.661L337.909 120.181Z" fill="#9CA3AF"/>
<path id="Vector_20" d="M255.49 420.98C253.568 421.089 251.667 420.538 250.1 419.42C249.443 418.875 248.913 418.192 248.55 417.419C248.187 416.647 247.999 415.803 248 414.95H252.43C252.54 416.58 253.59 417.39 255.59 417.39C257.32 417.39 258.2 416.83 258.2 415.69C258.202 415.498 258.161 415.309 258.079 415.136C257.998 414.963 257.879 414.81 257.73 414.69C257.252 414.377 256.719 414.156 256.16 414.04L252.81 413.24C249.87 412.56 248.41 410.94 248.41 408.39C248.389 407.661 248.53 406.937 248.822 406.27C249.114 405.602 249.551 405.008 250.1 404.53C251.553 403.425 253.359 402.888 255.18 403.02C256.976 402.915 258.755 403.419 260.23 404.45C260.84 404.925 261.336 405.532 261.682 406.224C262.028 406.916 262.215 407.676 262.23 408.45H257.9C257.71 407.11 256.81 406.45 255.19 406.45C254.607 406.419 254.028 406.565 253.53 406.87C253.341 406.986 253.185 407.149 253.078 407.344C252.971 407.538 252.917 407.757 252.92 407.98C252.92 408.7 253.46 409.2 254.55 409.47L258.04 410.28C261.2 411.033 262.78 412.74 262.78 415.4C262.816 416.192 262.658 416.982 262.32 417.7C261.982 418.418 261.474 419.042 260.84 419.52C259.269 420.589 257.386 421.103 255.49 420.98Z" fill="#9CA3AF"/>
<path id="Vector_21" d="M162.627 396.045C160.878 395.339 159.455 394.129 158.594 392.616C158.268 391.923 158.121 391.174 158.162 390.425C158.202 389.676 158.431 388.943 158.831 388.28L162.746 390.103C162.08 391.414 162.629 392.475 164.396 393.298C165.925 394.01 166.965 393.937 167.498 393.052C167.59 392.904 167.642 392.74 167.651 392.572C167.66 392.404 167.626 392.236 167.551 392.082C167.275 391.642 166.908 391.252 166.468 390.931L163.882 388.931C161.602 387.194 161.071 385.335 162.264 383.354C162.587 382.78 163.05 382.276 163.621 381.878C164.191 381.48 164.855 381.197 165.565 381.052C167.366 380.792 169.213 381.118 170.761 381.969C172.397 382.627 173.733 383.75 174.554 385.157C174.87 385.778 175.024 386.453 175.006 387.133C174.988 387.812 174.798 388.48 174.449 389.087L170.622 387.305C171.082 386.187 170.595 385.304 169.164 384.637C168.663 384.373 168.083 384.249 167.5 384.28C167.279 384.293 167.065 384.356 166.879 384.463C166.693 384.57 166.543 384.718 166.442 384.892C166.105 385.451 166.348 386.061 167.185 386.719L169.889 388.784C172.329 390.669 172.926 392.645 171.681 394.711C171.342 395.341 170.833 395.889 170.198 396.308C169.563 396.726 168.822 397.003 168.038 397.112C166.15 397.297 164.245 396.921 162.627 396.045Z" fill="#9CA3AF"/>
<path id="Vector_22" d="M121.407 354.953C120.077 353.561 119.262 351.757 119.097 349.839C119.085 348.985 119.262 348.139 119.614 347.362C119.967 346.584 120.486 345.894 121.136 345.341L124.01 348.712C122.841 349.853 122.906 351.178 124.204 352.7C125.326 354.016 126.323 354.323 127.191 353.583C127.338 353.46 127.455 353.306 127.534 353.132C127.613 352.958 127.651 352.768 127.647 352.577C127.575 352.01 127.397 351.461 127.123 350.96L125.558 347.892C124.168 345.213 124.454 343.051 126.395 341.397C126.935 340.908 127.577 340.546 128.275 340.335C128.972 340.125 129.708 340.071 130.428 340.179C132.212 340.568 133.792 341.594 134.873 343.065C136.118 344.364 136.889 346.045 137.061 347.836C137.095 348.609 136.955 349.379 136.653 350.092C136.351 350.804 135.894 351.44 135.315 351.953L132.506 348.658C133.402 347.644 133.32 346.531 132.269 345.298C131.915 344.834 131.428 344.489 130.873 344.307C130.662 344.238 130.436 344.226 130.219 344.271C130.001 344.316 129.799 344.416 129.632 344.563C129.085 345.03 129.054 345.765 129.556 346.77L131.204 349.951C132.681 352.845 132.407 355.155 130.383 356.88C129.803 357.422 129.099 357.814 128.334 358.022C127.568 358.231 126.763 358.25 125.989 358.077C124.156 357.575 122.543 356.476 121.407 354.953Z" fill="#9CA3AF"/>
<path id="Vector_23" d="M113.012 304.044C113.635 305.703 113.695 307.533 113.181 309.232C112.902 309.966 112.47 310.628 111.916 311.169C111.363 311.71 110.701 312.117 109.979 312.362L108.756 308.465C110.105 307.901 110.5 306.745 109.948 304.986C109.47 303.465 108.753 302.851 107.789 303.179C107.626 303.232 107.478 303.322 107.354 303.443C107.23 303.565 107.134 303.714 107.073 303.879C106.94 304.389 106.9 304.921 106.956 305.446L107.204 308.622C107.441 311.403 106.473 313.152 104.316 313.884C103.706 314.111 103.054 314.195 102.409 314.13C101.764 314.065 101.14 313.851 100.584 313.505C99.2481 312.544 98.2952 311.11 97.9039 309.471C97.3193 307.921 97.2543 306.212 97.7194 304.619C97.9537 303.946 98.3295 303.336 98.8194 302.833C99.3093 302.33 99.9009 301.947 100.551 301.712L101.747 305.52C100.666 306.072 100.356 307.053 100.803 308.478C100.938 308.999 101.221 309.466 101.617 309.817C101.767 309.95 101.948 310.04 102.143 310.078C102.337 310.117 102.537 310.102 102.724 310.035C103.333 309.828 103.607 309.21 103.535 308.174L103.256 304.872C103.021 301.877 104.029 299.997 106.279 299.234C106.94 298.975 107.651 298.887 108.352 298.978C109.053 299.069 109.721 299.337 110.3 299.757C111.639 300.832 112.593 302.34 113.012 304.044Z" fill="#9CA3AF"/>
<path id="Vector_24" d="M319.695 411.824C318.105 412.827 316.192 413.298 314.273 413.16C313.429 413.042 312.623 412.754 311.914 412.316C311.204 411.877 310.608 411.299 310.167 410.624L313.962 408.511C314.897 409.749 316.215 409.889 317.928 408.935C319.409 408.11 319.874 407.248 319.286 406.346C319.189 406.193 319.056 406.063 318.897 405.965C318.738 405.867 318.557 405.803 318.367 405.778C317.796 405.759 317.226 405.838 316.687 406.013L313.405 406.977C310.536 407.841 308.449 407.255 307.133 405.237C306.739 404.671 306.486 404.031 306.392 403.363C306.297 402.696 306.364 402.017 306.588 401.377C307.263 399.81 308.532 398.524 310.16 397.76C311.644 396.82 313.428 396.371 315.223 396.483C315.991 396.569 316.729 396.812 317.383 397.195C318.036 397.577 318.589 398.09 319.001 398.695L315.292 400.76C314.438 399.79 313.326 399.697 311.939 400.469C311.423 400.723 311.003 401.114 310.734 401.593C310.632 401.775 310.583 401.979 310.591 402.184C310.6 402.389 310.667 402.588 310.784 402.762C311.156 403.332 311.876 403.47 312.949 403.164L316.357 402.141C319.452 401.23 321.686 401.827 323.059 403.932C323.499 404.542 323.771 405.242 323.852 405.972C323.933 406.701 323.82 407.438 323.524 408.118C322.731 409.713 321.383 411.017 319.695 411.824Z" fill="#9CA3AF"/>
<path id="Vector_25" d="M411.4 313.337C410.82 315.116 409.678 316.634 408.163 317.639C407.463 318.033 406.688 318.26 405.894 318.304C405.1 318.348 404.307 318.207 403.571 317.893L405.126 313.884C406.57 314.385 407.638 313.734 408.34 311.924C408.947 310.359 408.773 309.356 407.79 308.936C407.626 308.864 407.448 308.832 407.27 308.842C407.092 308.851 406.919 308.903 406.763 308.993C406.325 309.311 405.948 309.711 405.651 310.174L403.785 312.911C402.166 315.32 400.257 316.045 398.058 315.105C397.422 314.856 396.847 314.462 396.374 313.952C395.901 313.442 395.542 312.828 395.322 312.155C394.88 310.433 395.051 308.601 395.803 307.002C396.344 305.338 397.403 303.914 398.809 302.96C399.434 302.583 400.131 302.358 400.849 302.3C401.567 302.241 402.289 302.352 402.961 302.624L401.441 306.541C400.219 306.22 399.334 306.791 398.765 308.256C398.534 308.773 398.457 309.35 398.544 309.913C398.578 310.127 398.664 310.328 398.795 310.497C398.925 310.665 399.095 310.795 399.287 310.874C399.908 311.139 400.529 310.835 401.145 309.948L403.068 307.089C404.827 304.507 406.854 303.706 409.148 304.686C409.844 304.945 410.469 305.379 410.97 305.949C411.47 306.519 411.831 307.209 412.02 307.958C412.391 309.774 412.173 311.667 411.4 313.337Z" fill="#9CA3AF"/>
<path id="Vector_26" d="M382.134 353.358L384.656 355.455L390.895 347.949L393.971 350.506L384.709 361.649L370.866 350.143L379.962 339.2L382.977 341.706L376.904 349.011L379.212 350.929L384.543 344.515L387.496 346.97L382.134 353.358Z" fill="#9CA3AF"/>
<path id="Vector_27" d="M378.615 368.949C377.47 370.497 375.831 371.608 373.97 372.097C373.131 372.255 372.267 372.225 371.441 372.011C370.615 371.796 369.846 371.401 369.19 370.855L372.021 367.448C373.345 368.406 374.639 368.116 375.918 366.578C377.023 365.247 377.155 364.213 376.279 363.484C376.133 363.36 375.961 363.271 375.776 363.223C375.59 363.175 375.397 363.169 375.209 363.206C374.663 363.374 374.153 363.643 373.706 363.998L370.949 366.063C368.547 367.889 366.368 367.977 364.407 366.347C363.833 365.897 363.366 365.327 363.04 364.675C362.713 364.024 362.535 363.308 362.519 362.58C362.598 360.756 363.339 359.024 364.604 357.708C365.672 356.259 367.197 355.213 368.932 354.738C369.688 354.573 370.471 354.579 371.225 354.756C371.978 354.932 372.682 355.274 373.287 355.757L370.519 359.087C369.367 358.377 368.284 358.647 367.249 359.893C366.852 360.321 366.595 360.86 366.511 361.438C366.479 361.657 366.505 361.882 366.586 362.088C366.668 362.295 366.801 362.477 366.974 362.616C367.528 363.077 368.258 362.981 369.162 362.315L372.016 360.149C374.615 358.2 376.937 358.076 378.983 359.776C379.616 360.255 380.122 360.882 380.458 361.6C380.794 362.319 380.95 363.109 380.912 363.902C380.73 365.793 379.922 367.57 378.615 368.949Z" fill="#9CA3AF"/>
<path id="Vector_28" d="M106.64 254.91L108.64 247H113.37L108.13 265H103.58L101.18 253.5L98.88 265H94.23L89 247H93.77L95.77 254.91L96.6 259.19L97.34 254.91L99.03 247H103.43L105.18 254.91L105.88 259.11L106.64 254.91Z" fill="#9CA3AF"/>
<path id="Vector_29" d="M100.571 218.168L94.2254 214.37L95.4799 210.299L109.736 219.536L108.529 223.452L97.8968 222.497L107.283 227.497L106.05 231.499L89.0165 231.273L90.2816 227.168L97.6876 227.524L101.628 227.933L98.104 226.172L91.6767 222.641L92.8436 218.854L100.183 219.425L104.02 219.925L100.571 218.168Z" fill="#9CA3AF"/>
<path id="Vector_30" d="M202.398 103.266L200.74 95.7563L204.555 93.7179L207.773 111.104L204.103 113.065L197.411 104.434L200.312 115.09L196.562 117.094L184.898 104.22L188.746 102.164L193.63 107.95L196.07 111.19L194.897 107.274L192.988 99.8977L196.537 98.0015L201.221 103.895L203.522 107.123L202.398 103.266Z" fill="#9CA3AF"/>
<path id="Vector_31" d="M143.301 144.619L138.609 137.944L141.694 134.358L151.921 150.07L148.954 153.519L138.671 147.838L145.888 157.082L142.856 160.607L125.8 152.832L128.911 149.216L136.211 152.859L139.997 155.021L137.235 151.669L132.342 145.229L135.211 141.893L142.349 145.725L145.989 147.934L143.301 144.619Z" fill="#9CA3AF"/>
<path id="Vector_32" d="M111.445 182.881L105.1 179.083L106.354 175.012L120.61 184.249L119.403 188.165L108.771 187.21L118.157 192.21L116.924 196.212L99.8906 195.986L101.156 191.881L108.562 192.237L112.502 192.646L108.978 190.886L102.551 187.354L103.718 183.567L111.057 184.138L114.894 184.639L111.445 182.881Z" fill="#9CA3AF"/>
<path id="Vector_33" d="M108.594 319.994L101.35 320.505L100.044 316.345L116.718 315.788L117.975 319.789L108.908 325.201L119.272 323.923L120.556 328.012L106.772 337.778L105.455 333.583L111.595 329.554L114.986 327.595L111.161 328.173L104.003 328.957L102.788 325.087L108.997 321.278L112.357 319.457L108.594 319.994Z" fill="#9CA3AF"/>
<path id="Vector_34" d="M97.55 284.815L90.3059 285.326L89 281.166L105.675 280.608L106.931 284.61L97.8646 290.022L108.229 288.744L109.512 292.833L95.7283 302.599L94.4114 298.404L100.551 294.375L103.943 292.416L100.118 292.994L92.9592 293.778L91.7444 289.908L97.953 286.099L101.313 284.278L97.55 284.815Z" fill="#9CA3AF"/>
<path id="Vector_35" d="M145.386 367.559L152.703 363.949L155.772 367.549L138.674 375.239L135.722 371.776L142.917 362.489L132.673 368.2L129.656 364.661L139.961 349.003L143.056 352.633L138.334 359.287L135.615 362.695L139.352 360.482L146.468 356.636L149.323 359.984L144.439 366.448L141.697 369.705L145.386 367.559Z" fill="#9CA3AF"/>
<path id="Vector_36" d="M176.766 402.628C175.016 401.922 173.594 400.712 172.733 399.199C172.407 398.505 172.259 397.757 172.3 397.008C172.341 396.258 172.57 395.526 172.97 394.863L176.884 396.686C176.219 397.997 176.767 399.058 178.535 399.881C180.063 400.593 181.103 400.52 181.637 399.635C181.728 399.487 181.78 399.323 181.79 399.155C181.799 398.987 181.765 398.819 181.69 398.665C181.414 398.225 181.046 397.834 180.607 397.514L178.021 395.514C175.741 393.776 175.209 391.918 176.403 389.937C176.725 389.363 177.189 388.859 177.759 388.46C178.33 388.062 178.994 387.78 179.703 387.635C181.505 387.375 183.352 387.701 184.899 388.552C186.536 389.21 187.872 390.333 188.692 391.74C189.008 392.361 189.163 393.036 189.145 393.715C189.127 394.395 188.936 395.063 188.587 395.67L184.761 393.888C185.22 392.769 184.734 391.886 183.302 391.22C182.802 390.956 182.222 390.832 181.639 390.863C181.417 390.876 181.203 390.938 181.018 391.046C180.832 391.153 180.681 391.3 180.58 391.474C180.243 392.033 180.486 392.644 181.323 393.302L184.028 395.367C186.468 397.252 187.065 399.228 185.82 401.294C185.48 401.924 184.971 402.472 184.337 402.891C183.702 403.309 182.96 403.585 182.177 403.695C180.288 403.88 178.384 403.504 176.766 402.628Z" fill="#9CA3AF"/>
<path id="Vector_37" d="M202.534 405.003L207.847 399.918L212 401.851L199.303 413.142L195.309 411.282L198.375 401.719L191.183 409.361L187.1 407.46L190.605 391.89L194.793 393.84L192.991 400.56L191.794 404.093L194.369 401.202L199.411 395.99L203.274 397.788L201.252 404.406L199.977 407.827L202.534 405.003Z" fill="#9CA3AF"/>
</g>
</g>
<defs>
<filter id="filter0_d_1_2" x="-4" y="0" width="520" height="520" filterUnits="userSpaceOnUse" color-interpolation-filters="sRGB">
<feFlood flood-opacity="0" result="BackgroundImageFix"/>
<feColorMatrix in="SourceAlpha" type="matrix" values="0 0 0 0 0 0 0 0 0 0 0 0 0 0 0 0 0 0 127 0" result="hardAlpha"/>
<feOffset dy="4"/>
<feGaussianBlur stdDeviation="2"/>
<feComposite in2="hardAlpha" operator="out"/>
<feColorMatrix type="matrix" values="0 0 0 0 0 0 0 0 0 0 0 0 0 0 0 0 0 0 0.25 0"/>
<feBlend mode="normal" in2="BackgroundImageFix" result="effect1_dropShadow_1_2"/>
<feBlend mode="normal" in="SourceGraphic" in2="effect1_dropShadow_1_2" result="shape"/>
</filter>
<linearGradient id="paint0_linear_1_2" x1="168.488" y1="104.418" x2="343.512" y2="407.582" gradientUnits="userSpaceOnUse">
<stop stop-color="#0B214E"/>
<stop offset="1" stop-color="#374151"/>
</linearGradient>
</defs>
</svg>
