<?xml version="1.0" encoding="UTF-8" standalone="no"?>
<svg
   width="360"
   height="360"
   viewBox="0 0 360 360"
   fill="none"
   version="1.1"
   id="svg40"
   sodipodi:docname="compassdirs.svg"
   inkscape:version="1.3.1 (91b66b0783, 2023-11-16)"
   xmlns:inkscape="http://www.inkscape.org/namespaces/inkscape"
   xmlns:sodipodi="http://sodipodi.sourceforge.net/DTD/sodipodi-0.dtd"
   xmlns="http://www.w3.org/2000/svg"
   xmlns:svg="http://www.w3.org/2000/svg">
  <sodipodi:namedview
     id="namedview40"
     pagecolor="#ffffff"
     bordercolor="#000000"
     borderopacity="0.25"
     inkscape:showpageshadow="2"
     inkscape:pageopacity="0.0"
     inkscape:pagecheckerboard="0"
     inkscape:deskcolor="#d1d1d1"
     inkscape:zoom="2.1583333"
     inkscape:cx="180"
     inkscape:cy="180"
     inkscape:window-width="1920"
     inkscape:window-height="991"
     inkscape:window-x="-9"
     inkscape:window-y="-9"
     inkscape:window-maximized="1"
     inkscape:current-layer="svg40" />
  <path
     d="M180 355C276.65 355 355 276.65 355 180C355 83.3502 276.65 5 180 5C83.3502 5 5 83.3502 5 180C5 276.65 83.3502 355 180 355Z"
     fill="url(#paint0_linear_0_4)"
     stroke="#205AB2"
     stroke-width="10"
     stroke-miterlimit="10"
     id="path1" />
  <path
     d="M259.73 311.72V315H269.49V319H255V301H269.23V304.92H259.73V307.92H268.07V311.76L259.73 311.72Z"
     fill="#9CA3AF"
     id="path2" />
  <path
     d="M246.49 318.98C244.568 319.089 242.667 318.538 241.1 317.42C240.443 316.875 239.913 316.192 239.55 315.419C239.187 314.647 238.999 313.803 239 312.95H243.43C243.54 314.58 244.59 315.39 246.59 315.39C248.32 315.39 249.2 314.83 249.2 313.69C249.202 313.498 249.161 313.309 249.079 313.136C248.998 312.963 248.879 312.81 248.73 312.69C248.252 312.377 247.719 312.156 247.16 312.04L243.81 311.24C240.87 310.56 239.41 308.94 239.41 306.39C239.389 305.661 239.53 304.937 239.822 304.27C240.114 303.602 240.551 303.008 241.1 302.53C242.553 301.425 244.359 300.888 246.18 301.02C247.976 300.915 249.755 301.419 251.23 302.45C251.84 302.925 252.336 303.532 252.682 304.224C253.028 304.916 253.215 305.676 253.23 306.45H248.9C248.71 305.11 247.81 304.45 246.19 304.45C245.607 304.419 245.028 304.565 244.53 304.87C244.341 304.986 244.185 305.149 244.078 305.344C243.971 305.538 243.917 305.757 243.92 305.98C243.92 306.7 244.46 307.2 245.55 307.47L249.04 308.28C252.2 309.033 253.78 310.74 253.78 313.4C253.816 314.192 253.658 314.982 253.32 315.7C252.982 316.418 252.474 317.042 251.84 317.52C250.269 318.589 248.386 319.103 246.49 318.98Z"
     fill="#9CA3AF"
     id="path3" />
  <path
     d="M293.99 93.47V83H298.64V101H293.92L287.67 90.59V101H283V83H287.67L293.99 93.47Z"
     fill="#9CA3AF"
     id="path4" />
  <path
     d="M182.99 25.47V15H187.64V33H182.92L176.67 22.59V33H172V15H176.67L182.99 25.47Z"
     fill="#9CA3AF"
     id="path5" />
  <path
     d="M234.99 54.47V44H239.64V62H234.92L228.67 51.59V62H224V44H228.67L234.99 54.47Z"
     fill="#9CA3AF"
     id="path6" />
  <path
     d="M95.99 54.47V44H100.64V62H95.92L89.67 51.59V62H85V44H89.67L95.99 54.47Z"
     fill="#9CA3AF"
     id="path7" />
  <path
     d="M113.99 54.47V44H118.64V62H113.92L107.67 51.59V62H103V44H107.67L113.99 54.47Z"
     fill="#9CA3AF"
     id="path8" />
  <path
     d="M56.99 93.47V83H61.64V101H56.92L50.67 90.59V101H46V83H50.67L56.99 93.47Z"
     fill="#9CA3AF"
     id="path9" />
  <path
     d="M56.99 138.47V128H61.64V146H56.92L50.67 135.59V146H46V128H50.67L56.99 138.47Z"
     fill="#9CA3AF"
     id="path10" />
  <path
     d="M335.73 181.72V185H345.49V189H331V171H345.23V174.92H335.73V177.92H344.07V181.76L335.73 181.72Z"
     fill="#9CA3AF"
     id="path11" />
  <path
     d="M293.73 138.72V142H303.49V146H289V128H303.23V131.92H293.73V134.92H302.07V138.76L293.73 138.72Z"
     fill="#9CA3AF"
     id="path12" />
  <path
     d="M305.73 93.72V97H315.49V101H301V83H315.23V86.92H305.73V89.92H314.07V93.76L305.73 93.72Z"
     fill="#9CA3AF"
     id="path13" />
  <path
     d="M316.99 138.47V128H321.64V146H316.92L310.67 135.59V146H306V128H310.67L316.99 138.47Z"
     fill="#9CA3AF"
     id="path14" />
  <path
     d="M328.73 138.72V142H338.49V146H324V128H338.23V131.92H328.73V134.92H337.07V138.76L328.73 138.72Z"
     fill="#9CA3AF"
     id="path15" />
  <path
     d="M294.73 227.72V231H304.49V235H290V217H304.23V220.92H294.73V223.92H303.07V227.76L294.73 227.72Z"
     fill="#9CA3AF"
     id="path16" />
  <path
     d="M326.73 227.72V231H336.49V235H322V217H336.23V220.92H326.73V223.92H335.07V227.76L326.73 227.72Z"
     fill="#9CA3AF"
     id="path17" />
  <path
     d="M252.99 54.47V44H257.64V62H252.92L246.67 51.59V62H242V44H246.67L252.99 54.47Z"
     fill="#9CA3AF"
     id="path18" />
  <path
     d="M264.73 54.72V58H274.49V62H260V44H274.23V47.92H264.73V50.92H273.07V54.76L264.73 54.72Z"
     fill="#9CA3AF"
     id="path19" />
  <path
     d="M179.49 344.98C177.568 345.089 175.667 344.538 174.1 343.42C173.443 342.875 172.913 342.192 172.55 341.419C172.187 340.647 171.999 339.803 172 338.95H176.43C176.54 340.58 177.59 341.39 179.59 341.39C181.32 341.39 182.2 340.83 182.2 339.69C182.202 339.498 182.161 339.309 182.079 339.136C181.998 338.963 181.879 338.81 181.73 338.69C181.252 338.377 180.719 338.156 180.16 338.04L176.81 337.24C173.87 336.56 172.41 334.94 172.41 332.39C172.389 331.661 172.53 330.937 172.822 330.27C173.114 329.602 173.551 329.008 174.1 328.53C175.553 327.425 177.359 326.888 179.18 327.02C180.976 326.915 182.755 327.419 184.23 328.45C184.84 328.925 185.336 329.532 185.682 330.224C186.028 330.916 186.215 331.676 186.23 332.45H181.9C181.71 331.11 180.81 330.45 179.19 330.45C178.607 330.419 178.028 330.565 177.53 330.87C177.341 330.986 177.185 331.149 177.078 331.344C176.971 331.538 176.917 331.757 176.92 331.98C176.92 332.7 177.46 333.2 178.55 333.47L182.04 334.28C185.2 335.033 186.78 336.74 186.78 339.4C186.816 340.192 186.658 340.982 186.32 341.7C185.982 342.418 185.474 343.042 184.84 343.52C183.269 344.589 181.386 345.103 179.49 344.98Z"
     fill="#9CA3AF"
     id="path20" />
  <path
     d="M96.49 318.98C94.5681 319.089 92.6665 318.538 91.1 317.42C90.4426 316.875 89.9135 316.192 89.5504 315.419C89.1874 314.647 88.9995 313.803 89 312.95H93.43C93.54 314.58 94.59 315.39 96.59 315.39C98.32 315.39 99.2 314.83 99.2 313.69C99.202 313.498 99.1608 313.309 99.0794 313.136C98.9981 312.963 98.8786 312.81 98.73 312.69C98.2519 312.377 97.7194 312.156 97.16 312.04L93.81 311.24C90.87 310.56 89.41 308.94 89.41 306.39C89.3889 305.661 89.5296 304.937 89.8218 304.27C90.114 303.602 90.5506 303.008 91.1 302.53C92.5531 301.425 94.3593 300.888 96.18 301.02C97.9762 300.915 99.7554 301.419 101.23 302.45C101.84 302.925 102.336 303.532 102.682 304.224C103.028 304.916 103.215 305.676 103.23 306.45H98.9C98.71 305.11 97.81 304.45 96.19 304.45C95.6069 304.419 95.0282 304.565 94.53 304.87C94.3408 304.986 94.185 305.149 94.0781 305.344C93.9711 305.538 93.9167 305.757 93.92 305.98C93.92 306.7 94.46 307.2 95.55 307.47L99.04 308.28C102.2 309.033 103.78 310.74 103.78 313.4C103.816 314.192 103.658 314.982 103.32 315.7C102.982 316.418 102.474 317.042 101.84 317.52C100.269 318.589 98.3862 319.103 96.49 318.98Z"
     fill="#9CA3AF"
     id="path21" />
  <path
     d="M53.49 278.98C51.5681 279.089 49.6665 278.538 48.1 277.42C47.4426 276.875 46.9135 276.192 46.5504 275.419C46.1874 274.647 45.9995 273.803 46 272.95H50.43C50.54 274.58 51.59 275.39 53.59 275.39C55.32 275.39 56.2 274.83 56.2 273.69C56.202 273.498 56.1608 273.309 56.0794 273.136C55.9981 272.963 55.8786 272.81 55.73 272.69C55.2519 272.377 54.7194 272.156 54.16 272.04L50.81 271.24C47.87 270.56 46.41 268.94 46.41 266.39C46.3889 265.661 46.5296 264.937 46.8218 264.27C47.114 263.602 47.5506 263.008 48.1 262.53C49.5531 261.425 51.3593 260.888 53.18 261.02C54.9762 260.915 56.7554 261.419 58.23 262.45C58.8399 262.925 59.336 263.532 59.682 264.224C60.028 264.916 60.2152 265.676 60.23 266.45H55.9C55.71 265.11 54.81 264.45 53.19 264.45C52.6069 264.419 52.0282 264.565 51.53 264.87C51.3408 264.986 51.185 265.149 51.0781 265.344C50.9711 265.538 50.9167 265.757 50.92 265.98C50.92 266.7 51.46 267.2 52.55 267.47L56.04 268.28C59.2 269.033 60.78 270.74 60.78 273.4C60.816 274.192 60.6581 274.982 60.32 275.7C59.982 276.418 59.474 277.042 58.84 277.52C57.2694 278.589 55.3862 279.103 53.49 278.98Z"
     fill="#9CA3AF"
     id="path22" />
  <path
     d="M52.49 234.98C50.5681 235.089 48.6665 234.538 47.1 233.42C46.4426 232.875 45.9135 232.192 45.5504 231.419C45.1874 230.647 44.9995 229.803 45 228.95H49.43C49.54 230.58 50.59 231.39 52.59 231.39C54.32 231.39 55.2 230.83 55.2 229.69C55.202 229.498 55.1608 229.309 55.0794 229.136C54.9981 228.963 54.8786 228.81 54.73 228.69C54.2519 228.377 53.7194 228.156 53.16 228.04L49.81 227.24C46.87 226.56 45.41 224.94 45.41 222.39C45.3889 221.661 45.5296 220.937 45.8218 220.27C46.114 219.602 46.5506 219.008 47.1 218.53C48.5531 217.425 50.3593 216.888 52.18 217.02C53.9762 216.915 55.7554 217.419 57.23 218.45C57.8399 218.925 58.336 219.532 58.682 220.224C59.028 220.916 59.2152 221.676 59.23 222.45H54.9C54.71 221.11 53.81 220.45 52.19 220.45C51.6069 220.419 51.0282 220.565 50.53 220.87C50.3408 220.986 50.185 221.149 50.0781 221.344C49.9711 221.538 49.9167 221.757 49.92 221.98C49.92 222.7 50.46 223.2 51.55 223.47L55.04 224.28C58.2 225.033 59.78 226.74 59.78 229.4C59.816 230.192 59.6581 230.982 59.32 231.7C58.982 232.418 58.474 233.042 57.84 233.52C56.2694 234.589 54.3862 235.103 52.49 234.98Z"
     fill="#9CA3AF"
     id="path23" />
  <path
     d="M230.49 318.98C228.568 319.089 226.667 318.538 225.1 317.42C224.443 316.875 223.913 316.192 223.55 315.419C223.187 314.647 222.999 313.803 223 312.95H227.43C227.54 314.58 228.59 315.39 230.59 315.39C232.32 315.39 233.2 314.83 233.2 313.69C233.202 313.498 233.161 313.309 233.079 313.136C232.998 312.963 232.879 312.81 232.73 312.69C232.252 312.377 231.719 312.156 231.16 312.04L227.81 311.24C224.87 310.56 223.41 308.94 223.41 306.39C223.389 305.661 223.53 304.937 223.822 304.27C224.114 303.602 224.551 303.008 225.1 302.53C226.553 301.425 228.359 300.888 230.18 301.02C231.976 300.915 233.755 301.419 235.23 302.45C235.84 302.925 236.336 303.532 236.682 304.224C237.028 304.916 237.215 305.676 237.23 306.45H232.9C232.71 305.11 231.81 304.45 230.19 304.45C229.607 304.419 229.028 304.565 228.53 304.87C228.341 304.986 228.185 305.149 228.078 305.344C227.971 305.538 227.917 305.757 227.92 305.98C227.92 306.7 228.46 307.2 229.55 307.47L233.04 308.28C236.2 309.033 237.78 310.74 237.78 313.4C237.816 314.192 237.658 314.982 237.32 315.7C236.982 316.418 236.474 317.042 235.84 317.52C234.269 318.589 232.386 319.103 230.49 318.98Z"
     fill="#9CA3AF"
     id="path24" />
  <path
     d="M312.49 234.98C310.568 235.089 308.667 234.538 307.1 233.42C306.443 232.875 305.913 232.192 305.55 231.419C305.187 230.647 304.999 229.803 305 228.95H309.43C309.54 230.58 310.59 231.39 312.59 231.39C314.32 231.39 315.2 230.83 315.2 229.69C315.202 229.498 315.161 229.309 315.079 229.136C314.998 228.963 314.879 228.81 314.73 228.69C314.252 228.377 313.719 228.156 313.16 228.04L309.81 227.24C306.87 226.56 305.41 224.94 305.41 222.39C305.389 221.661 305.53 220.937 305.822 220.27C306.114 219.602 306.551 219.008 307.1 218.53C308.553 217.425 310.359 216.888 312.18 217.02C313.976 216.915 315.755 217.419 317.23 218.45C317.84 218.925 318.336 219.532 318.682 220.224C319.028 220.916 319.215 221.676 319.23 222.45H314.9C314.71 221.11 313.81 220.45 312.19 220.45C311.607 220.419 311.028 220.565 310.53 220.87C310.341 220.986 310.185 221.149 310.078 221.344C309.971 221.538 309.917 221.757 309.92 221.98C309.92 222.7 310.46 223.2 311.55 223.47L315.04 224.28C318.2 225.033 319.78 226.74 319.78 229.4C319.816 230.192 319.658 230.982 319.32 231.7C318.982 232.418 318.474 233.042 317.84 233.52C316.269 234.589 314.386 235.103 312.49 234.98Z"
     fill="#9CA3AF"
     id="path25" />
  <path
     d="M303.73 271.72V275H313.49V279H299V261H313.23V264.92H303.73V267.92H312.07V271.76L303.73 271.72Z"
     fill="#9CA3AF"
     id="path26" />
  <path
     d="M289.49 278.98C287.568 279.089 285.667 278.538 284.1 277.42C283.443 276.875 282.913 276.192 282.55 275.419C282.187 274.647 281.999 273.803 282 272.95H286.43C286.54 274.58 287.59 275.39 289.59 275.39C291.32 275.39 292.2 274.83 292.2 273.69C292.202 273.498 292.161 273.309 292.079 273.136C291.998 272.963 291.879 272.81 291.73 272.69C291.252 272.377 290.719 272.156 290.16 272.04L286.81 271.24C283.87 270.56 282.41 268.94 282.41 266.39C282.389 265.661 282.53 264.937 282.822 264.27C283.114 263.602 283.551 263.008 284.1 262.53C285.553 261.425 287.359 260.888 289.18 261.02C290.976 260.915 292.755 261.419 294.23 262.45C294.84 262.925 295.336 263.532 295.682 264.224C296.028 264.916 296.215 265.676 296.23 266.45H291.9C291.71 265.11 290.81 264.45 289.19 264.45C288.607 264.419 288.028 264.565 287.53 264.87C287.341 264.986 287.185 265.149 287.078 265.344C286.971 265.538 286.917 265.757 286.92 265.98C286.92 266.7 287.46 267.2 288.55 267.47L292.04 268.28C295.2 269.033 296.78 270.74 296.78 273.4C296.816 274.192 296.658 274.982 296.32 275.7C295.982 276.418 295.474 277.042 294.84 277.52C293.269 278.589 291.386 279.103 289.49 278.98Z"
     fill="#9CA3AF"
     id="path27" />
  <path
     d="M32.64 178.91L34.64 171H39.37L34.13 189H29.58L27.18 177.5L24.88 189H20.23L15 171H19.77L21.77 178.91L22.6 183.19L23.34 178.91L25.03 171H29.43L31.18 178.91L31.88 183.11L32.64 178.91Z"
     fill="#9CA3AF"
     id="path28" />
  <path
     d="M38.64 135.91L40.64 128H45.37L40.13 146H35.58L33.18 134.5L30.88 146H26.23L21 128H25.77L27.77 135.91L28.6 140.19L29.34 135.91L31.03 128H35.43L37.18 135.91L37.88 140.11L38.64 135.91Z"
     fill="#9CA3AF"
     id="path29" />
  <path
     d="M136.64 51.91L138.64 44H143.37L138.13 62H133.58L131.18 50.5L128.88 62H124.23L119 44H123.77L125.77 51.91L126.6 56.19L127.34 51.91L129.03 44H133.43L135.18 51.91L135.88 56.11L136.64 51.91Z"
     fill="#9CA3AF"
     id="path30" />
  <path
     d="M79.64 90.91L81.64 83H86.37L81.13 101H76.58L74.18 89.5L71.88 101H67.23L62 83H66.77L68.77 90.91L69.6 95.19L70.34 90.91L72.03 83H76.43L78.18 90.91L78.88 95.11L79.64 90.91Z"
     fill="#9CA3AF"
     id="path31" />
  <path
     d="M79.64 135.91L81.64 128H86.37L81.13 146H76.58L74.18 134.5L71.88 146H67.23L62 128H66.77L68.77 135.91L69.6 140.19L70.34 135.91L72.03 128H76.43L78.18 135.91L78.88 140.11L79.64 135.91Z"
     fill="#9CA3AF"
     id="path32" />
  <path
     d="M37.64 224.91L39.64 217H44.37L39.13 235H34.58L32.18 223.5L29.88 235H25.23L20 217H24.77L26.77 224.91L27.6 229.19L28.34 224.91L30.03 217H34.43L36.18 224.91L36.88 229.11L37.64 224.91Z"
     fill="#9CA3AF"
     id="path33" />
  <path
     d="M77.64 224.91L79.64 217H84.37L79.13 235H74.58L72.18 223.5L69.88 235H65.23L60 217H64.77L66.77 224.91L67.6 229.19L68.34 224.91L70.03 217H74.43L76.18 224.91L76.88 229.11L77.64 224.91Z"
     fill="#9CA3AF"
     id="path34" />
  <path
     d="M78.64 268.91L80.64 261H85.37L80.13 279H75.58L73.18 267.5L70.88 279H66.23L61 261H65.77L67.77 268.91L68.6 273.19L69.34 268.91L71.03 261H75.43L77.18 268.91L77.88 273.11L78.64 268.91Z"
     fill="#9CA3AF"
     id="path35" />
  <path
     d="M112.49 318.98C110.568 319.089 108.667 318.538 107.1 317.42C106.443 316.875 105.913 316.192 105.55 315.419C105.187 314.647 104.999 313.803 105 312.95H109.43C109.54 314.58 110.59 315.39 112.59 315.39C114.32 315.39 115.2 314.83 115.2 313.69C115.202 313.498 115.161 313.309 115.079 313.136C114.998 312.963 114.879 312.81 114.73 312.69C114.252 312.377 113.719 312.156 113.16 312.04L109.81 311.24C106.87 310.56 105.41 308.94 105.41 306.39C105.389 305.661 105.53 304.937 105.822 304.27C106.114 303.602 106.551 303.008 107.1 302.53C108.553 301.425 110.359 300.888 112.18 301.02C113.976 300.915 115.755 301.419 117.23 302.45C117.84 302.925 118.336 303.532 118.682 304.224C119.028 304.916 119.215 305.676 119.23 306.45H114.9C114.71 305.11 113.81 304.45 112.19 304.45C111.607 304.419 111.028 304.565 110.53 304.87C110.341 304.986 110.185 305.149 110.078 305.344C109.971 305.538 109.917 305.757 109.92 305.98C109.92 306.7 110.46 307.2 111.55 307.47L115.04 308.28C118.2 309.033 119.78 310.74 119.78 313.4C119.816 314.192 119.658 314.982 119.32 315.7C118.982 316.418 118.474 317.042 117.84 317.52C116.269 318.589 114.386 319.103 112.49 318.98Z"
     fill="#9CA3AF"
     id="path36" />
  <path
     d="M136.64 308.91L138.64 301H143.37L138.13 319H133.58L131.18 307.5L128.88 319H124.23L119 301H123.77L125.77 308.91L126.6 313.19L127.34 308.91L129.03 301H133.43L135.18 308.91L135.88 313.11L136.64 308.91Z"
     fill="#9CA3AF"
     id="path37" />
  <defs
     id="defs40">
    <linearGradient
       id="paint0_linear_0_4"
       x1="92.4878"
       y1="28.4184"
       x2="267.512"
       y2="331.582"
       gradientUnits="userSpaceOnUse">
      <stop
         stop-color="#6B7280"
         id="stop38" />
      <stop
         offset="0.45"
         stop-color="#6B7280"
         id="stop39" />
      <stop
         offset="1"
         stop-color="#374151"
         id="stop40" />
    </linearGradient>
  </defs>
</svg>
